<svg width="82" height="82" viewBox="0 0 82 82" fill="none" xmlns="http://www.w3.org/2000/svg">
<path d="M41.3086 13.4844V60.9496" stroke="#00A197" stroke-width="3.76335" stroke-miterlimit="10"/>
<path d="M28.0742 50.2313L30.442 48.0234L41.3055 59.7118L52.1722 48.0234L54.5431 50.2313L41.3055 64.4661L28.0742 50.2313Z" fill="#00A197"/>
<path d="M63.8886 7.11268C64.2213 7.11268 64.5404 7.24485 64.7756 7.4801C65.0109 7.71536 65.1431 8.03443 65.1431 8.36713V73.5984C65.1431 73.9311 65.0109 74.2502 64.7756 74.4855C64.5404 74.7207 64.2213 74.8529 63.8886 74.8529H18.7285C18.3958 74.8529 18.0767 74.7207 17.8414 74.4855C17.6062 74.2502 17.474 73.9311 17.474 73.5984V8.36713C17.474 8.03443 17.6062 7.71536 17.8414 7.4801C18.0767 7.24485 18.3958 7.11268 18.7285 7.11268H30.8464C31.5182 7.11473 32.1807 7.27004 32.7834 7.56677C33.3861 7.8635 33.9131 8.29383 34.3244 8.82501L38.8247 14.6707L43.8237 14.63L48.1045 8.894C48.5141 8.34621 49.0456 7.90123 49.6568 7.59424C50.2681 7.28726 50.9424 7.12669 51.6264 7.12523H63.8886M63.8886 3.98911H51.6264C50.4542 3.98813 49.298 4.26094 48.2498 4.78582C47.2017 5.31069 46.2907 6.07311 45.5893 7.01233L41.3085 12.7577L36.8082 6.91197C36.1057 5.99946 35.2032 5.2603 34.1702 4.75139C33.1372 4.24249 32.0012 3.97741 30.8496 3.97656H18.7285C17.564 3.97656 16.4473 4.43914 15.6239 5.26253C14.8005 6.08592 14.3379 7.20268 14.3379 8.36713V73.5984C14.3379 74.7629 14.8005 75.8797 15.6239 76.703C16.4473 77.5264 17.564 77.989 18.7285 77.989H63.8886C65.0531 77.989 66.1698 77.5264 66.9932 76.703C67.8166 75.8797 68.2792 74.7629 68.2792 73.5984V8.36713C68.2792 7.20268 67.8166 6.08592 66.9932 5.26253C66.1698 4.43914 65.0531 3.97656 63.8886 3.97656V3.98911Z" fill="#636363"/>
<path d="M41.3086 13.4844V40.8784" stroke="#636363" stroke-width="6.89947" stroke-miterlimit="10" stroke-dasharray="2.82 2.51"/>
<path d="M41.3082 45.4831C40.5507 45.4823 39.8245 45.181 39.2889 44.6454C38.7533 44.1098 38.452 43.3836 38.4512 42.6261V37.2037C39.2404 37.7504 40.1756 38.0476 41.1357 38.0568C42.2273 38.0367 43.2858 37.6784 44.1652 37.0312V42.6261C44.1644 43.3836 43.8631 44.1098 43.3275 44.6454C42.7919 45.181 42.0657 45.4823 41.3082 45.4831Z" fill="white"/>
<path d="M42.755 39.2479V42.6318C42.755 43.0152 42.6027 43.3829 42.3316 43.6541C42.0604 43.9252 41.6927 44.0775 41.3093 44.0775C40.9258 44.0775 40.5581 43.9252 40.287 43.6541C40.0158 43.3829 39.8635 43.0152 39.8635 42.6318V39.3388C40.2821 39.4279 40.7088 39.4731 41.1368 39.4737C41.684 39.4731 42.2285 39.3971 42.755 39.2479ZM45.5775 33.675C44.0659 35.6225 42.5825 36.6512 41.1368 36.6512C39.7381 36.6512 38.3707 35.6915 37.041 33.675V42.6318C37.041 43.7638 37.4907 44.8494 38.2912 45.6499C39.0916 46.4503 40.1773 46.9 41.3093 46.9C42.4413 46.9 43.5269 46.4503 44.3274 45.6499C45.1278 44.8494 45.5775 43.7638 45.5775 42.6318V33.6719V33.675Z" fill="#636363"/>
</svg>
