<svg width="82" height="81" viewBox="0 0 82 81" fill="none" xmlns="http://www.w3.org/2000/svg">
<path d="M40.9263 5.78456C42.1983 5.78411 43.4693 5.85426 44.7335 5.99468L48.0296 13.4649L48.5753 14.7037L49.8485 15.1553C52.9092 16.2413 55.7443 17.8805 58.2126 19.9912L59.2444 20.8693L60.5866 20.725L68.7154 19.8407C70.2267 21.8879 71.5057 24.0967 72.529 26.4265L67.6993 33.0124L66.9028 34.1006L67.1442 35.4303C67.7297 38.6277 67.7297 41.9047 67.1442 45.1021L66.9028 46.4318L67.6993 47.5201L72.529 54.1059C71.5057 56.4357 70.2267 58.6446 68.7154 60.6918L60.5866 59.8074L59.2444 59.6631L58.2126 60.5412C55.7443 62.6519 52.9092 64.2911 49.8485 65.3771L48.5753 65.8287L48.0296 67.0675L44.7335 74.5377C42.2031 74.8179 39.6495 74.8179 37.119 74.5377L33.823 67.0675L33.2773 65.8287L32.004 65.3771C28.9456 64.3006 26.1107 62.6721 23.64 60.5726L22.6082 59.6945L21.2659 59.8387L13.1371 60.7231C11.6258 58.6759 10.3468 56.4671 9.32358 54.1373L14.1532 47.5514L14.9498 46.4632L14.7083 45.1335C14.1229 41.9361 14.1229 38.659 14.7083 35.4617L14.9498 34.132L14.1532 33.0437L9.32358 26.4579C10.3468 24.1281 11.6258 21.9192 13.1371 19.872L21.2659 20.7564L22.6082 20.9007L23.64 20.0225C26.1057 17.9007 28.941 16.2508 32.004 15.1553L33.2773 14.7037L33.823 13.4649L37.119 5.99468C38.3832 5.85426 39.6543 5.78411 40.9263 5.78456ZM40.9263 2.64844C38.9307 2.6488 36.9382 2.80715 34.9676 3.12199L30.9628 12.2167C27.5413 13.4277 24.3698 15.2536 21.6046 17.6046L11.7353 16.532C9.2028 19.6404 7.18474 23.1344 5.75781 26.8812L11.6224 34.894C10.97 38.4647 10.97 42.1241 11.6224 45.6948L5.75781 53.7076C7.18474 57.4545 9.2028 60.9485 11.7353 64.0568L21.6046 62.9843C24.3677 65.3309 27.5359 67.1536 30.9534 68.3627L34.9582 77.4575C38.9119 78.0889 42.9407 78.0889 46.8943 77.4575L50.8991 68.3627C54.3185 67.146 57.4868 65.3148 60.2479 62.9592L70.1173 64.0317C72.6497 60.9234 74.6678 57.4294 76.0947 53.6825L70.2302 45.6697C70.8825 42.099 70.8825 38.4397 70.2302 34.8689L76.0947 26.8562C74.6678 23.1093 72.6497 19.6153 70.1173 16.507L60.2479 17.5795C57.4848 15.2329 54.3167 13.4102 50.8991 12.2011L46.8849 3.12199C44.9143 2.80715 42.9219 2.6488 40.9263 2.64844Z" fill="#636363"/>
<path d="M31.1203 30.1359C33.4608 27.8743 36.511 26.4911 39.7544 26.2207C42.9978 25.9503 46.235 26.8092 48.9176 28.652C51.6003 30.4948 53.5636 33.2082 54.475 36.3327C55.3863 39.4571 55.1897 42.8005 53.9185 45.7966C52.6473 48.7927 50.3796 51.2574 47.4995 52.7731C44.6193 54.2888 41.3038 54.7625 38.1145 54.1139C34.9251 53.4653 32.058 51.7342 29.9987 49.2139C27.9393 46.6936 26.8144 43.539 26.8145 40.2844" stroke="#00A197" stroke-width="3.76335" stroke-miterlimit="10"/>
<path d="M39.7216 29.7211L31.69 29.5863L31.828 21.5547L28.3626 24.9072L28.2246 32.9357L36.2531 33.0705L39.7216 29.7211Z" fill="#00A197"/>
</svg>
