<svg width="81" height="82" viewBox="0 0 81 82" fill="none" xmlns="http://www.w3.org/2000/svg">
<path d="M41.9592 27.2299C45.0978 27.2299 48.1658 28.1606 50.7754 29.9042C53.385 31.6479 55.419 34.1263 56.62 37.0259C57.8211 39.9256 58.1354 43.1162 57.5231 46.1945C56.9108 49.2727 55.3994 52.1003 53.1801 54.3196C50.9608 56.5388 48.1333 58.0502 45.0551 58.6625C41.9768 59.2748 38.7861 58.9605 35.8865 57.7595C32.9869 56.5584 30.5085 54.5245 28.7648 51.9149C27.0211 49.3053 26.0904 46.2372 26.0904 43.0986C26.0954 38.8915 27.7689 34.8581 30.7438 31.8832C33.7187 28.9083 37.7521 27.2349 41.9592 27.2299ZM41.9592 24.0938C38.2003 24.0931 34.5256 25.2072 31.3998 27.2951C28.2741 29.383 25.8377 32.351 24.3987 35.8236C22.9598 39.2962 22.583 43.1176 23.316 46.8044C24.0489 50.4912 25.8587 53.8778 28.5165 56.536C31.1742 59.1942 34.5606 61.0046 38.2472 61.7381C41.9339 62.4717 45.7553 62.0955 49.2282 60.6572C52.7011 59.2188 55.6694 56.7829 57.7579 53.6575C59.8463 50.5321 60.961 46.8576 60.961 43.0986C60.961 38.0588 58.9591 33.2253 55.3957 29.6613C51.8322 26.0972 46.9991 24.0946 41.9592 24.0938Z" fill="#636363"/>
<path d="M73.0332 73.0569L55.6309 55.2344" stroke="#636363" stroke-width="4.70732" stroke-miterlimit="10" stroke-linecap="round"/>
<path d="M6.33008 40.4249L21.7127 25.0391" stroke="#00A197" stroke-width="3.76335" stroke-miterlimit="10"/>
<path d="M75.9667 14.7578L60.2422 30.4823" stroke="#00A197" stroke-width="3.76335" stroke-miterlimit="10"/>
<path d="M31.8418 35.3984L43.2886 46.8453L52.0729 38.061" stroke="#00A197" stroke-width="3.76335" stroke-miterlimit="10"/>
<path d="M27.2006 20H19.4355V27.765H27.2006V20Z" fill="#636363"/>
<path d="M47.0658 42H39.3008V49.765H47.0658V42Z" fill="#636363"/>
</svg>
