<svg width="81" height="81" viewBox="0 0 81 81" fill="none" xmlns="http://www.w3.org/2000/svg">
<path d="M60.8511 2.85156H32.4504C31.226 2.85156 30.0518 3.33793 29.1861 4.20367C28.3203 5.0694 27.834 6.24359 27.834 7.46793V8.31468H30.9701V7.46793C30.9709 7.0756 31.1272 6.69957 31.4046 6.42215C31.682 6.14473 32.058 5.98851 32.4504 5.98768H60.8511C61.2434 5.98851 61.6194 6.14473 61.8968 6.42215C62.1743 6.69957 62.3305 7.0756 62.3313 7.46793V72.2476C62.3305 72.64 62.1743 73.016 61.8968 73.2934C61.6194 73.5708 61.2434 73.7271 60.8511 73.7279H32.4504C32.058 73.7271 31.682 73.5708 31.4046 73.2934C31.1272 73.016 30.9709 72.64 30.9701 72.2476V50.2948H27.834V72.2476C27.834 73.472 28.3203 74.6462 29.1861 75.5119C30.0518 76.3776 31.226 76.864 32.4504 76.864H60.8511C62.0754 76.864 63.2496 76.3776 64.1153 75.5119C64.9811 74.6462 65.4674 73.472 65.4674 72.2476V7.46793C65.4674 6.24359 64.9811 5.0694 64.1153 4.20367C63.2496 3.33793 62.0754 2.85156 60.8511 2.85156Z" fill="#636363"/>
<path d="M54.7051 11.6016V58.0161" stroke="#636363" stroke-width="3.13612" stroke-miterlimit="10"/>
<path d="M37.2422 65.5859H56.0589" stroke="#636363" stroke-width="3.13612" stroke-miterlimit="10"/>
<path d="M14.6628 37.1953C12.5731 37.6673 10.5174 38.2791 8.50977 39.0268C10.8446 42.7489 14.4292 45.5174 18.6206 46.8357C17.7364 45.709 17.0075 44.4685 16.4536 43.1477C15.6443 41.2337 15.0439 39.2381 14.6628 37.1953Z" fill="#00A197"/>
<path d="M16.4512 15.3053C17.0045 13.9841 17.7334 12.7436 18.6182 11.6172C14.5023 12.9107 10.9693 15.6048 8.63281 19.2317C10.6176 19.9569 12.6479 20.5509 14.7106 21.0099C15.0894 19.0526 15.6728 17.1406 16.4512 15.3053Z" fill="#00A197"/>
<path d="M13.9198 29.2192C13.9179 27.1975 14.0573 25.1781 14.3369 23.1759C12.0252 22.6687 9.75209 21.999 7.53464 21.1719C6.33564 23.6461 5.70467 26.3569 5.68785 29.1062C5.67102 31.8556 6.26878 34.5739 7.43742 37.0626C9.67559 36.2229 11.9708 35.5437 14.3055 35.0304C14.0463 33.1042 13.9174 31.1627 13.9198 29.2192Z" fill="#00A197"/>
<path d="M34.3449 29.2192C34.3457 31.1627 34.2169 33.1041 33.9592 35.0304C36.2885 35.5447 38.5784 36.2239 40.8116 37.0626C41.9798 34.5739 42.5776 31.8558 42.5614 29.1066C42.5451 26.3574 41.9151 23.6465 40.7175 21.1719C38.499 21.999 36.2249 22.6687 33.9121 23.1759C34.197 25.1777 34.3416 27.1971 34.3449 29.2192Z" fill="#00A197"/>
<path d="M33.5553 21.0099C35.6178 20.5501 37.648 19.9561 39.6331 19.2317C37.2952 15.6047 33.7612 12.9107 29.6445 11.6172C30.5293 12.7442 31.2592 13.9846 31.8147 15.3053C32.5916 17.1411 33.175 19.053 33.5553 21.0099Z" fill="#00A197"/>
<path d="M31.8147 43.132C31.2584 44.4523 30.5286 45.6926 29.6445 46.8201C33.8338 45.5047 37.4187 42.7423 39.7585 39.0268C37.7489 38.2786 35.6911 37.6667 33.5992 37.1953C33.2176 39.2321 32.6194 41.2223 31.8147 43.132Z" fill="#00A197"/>
<path d="M24.1312 24.2429C21.572 24.2403 19.0176 24.0232 16.4947 23.5938C15.9995 27.2477 15.9889 30.9511 16.4634 34.6078C21.5383 33.7391 26.724 33.7391 31.799 34.6078C32.0355 32.8206 32.1528 31.0196 32.1502 29.2168C32.1526 27.3359 32.0247 25.457 31.7676 23.5938C29.2448 24.0232 26.6903 24.2403 24.1312 24.2429Z" fill="#00A197"/>
<path d="M16.8652 21.4284C21.6749 22.247 26.5883 22.247 31.398 21.4284C30.1216 15.1374 27.3493 10.7656 24.1316 10.7656C20.914 10.7656 18.1416 15.1374 16.8652 21.4284Z" fill="#00A197"/>
<path d="M24.133 47.6619C27.3883 47.6619 30.1888 43.1929 31.4433 36.7796C26.6031 35.9485 21.6566 35.9485 16.8164 36.7796C18.0709 43.1929 20.8745 47.6619 24.1298 47.6619H24.133Z" fill="#00A197"/>
</svg>
