<svg width="82" height="82" viewBox="0 0 82 82" fill="none" xmlns="http://www.w3.org/2000/svg">
<path d="M43.2698 27.1752C46.4083 27.1752 49.4764 28.1059 52.086 29.8496C54.6956 31.5932 56.7295 34.0716 57.9306 36.9712C59.1317 39.8709 59.4459 43.0616 58.8336 46.1398C58.2213 49.218 56.71 52.0456 54.4907 54.2649C52.2714 56.4842 49.4438 57.9955 46.3656 58.6078C43.2874 59.2201 40.0967 58.9059 37.197 57.7048C34.2974 56.5037 31.819 54.4698 30.0754 51.8602C28.3317 49.2506 27.401 46.1825 27.401 43.044C27.406 38.8368 29.0794 34.8034 32.0543 31.8285C35.0292 28.8536 39.0626 27.1802 43.2698 27.1752ZM43.2698 24.0391C39.5108 24.0384 35.8361 25.1525 32.7104 27.2404C29.5846 29.3283 27.1482 32.2963 25.7093 35.7689C24.2704 39.2416 23.8936 43.0629 24.6265 46.7497C25.3595 50.4365 27.1693 53.8231 29.827 56.4813C32.4848 59.1395 35.8711 60.9499 39.5578 61.6834C43.2445 62.417 47.0659 62.0408 50.5388 60.6025C54.0116 59.1641 56.98 56.7282 59.0684 53.6028C61.1568 50.4774 62.2715 46.8029 62.2715 43.044C62.2715 38.0041 60.2696 33.1706 56.7062 29.6066C53.1428 26.0426 48.3096 24.0399 43.2698 24.0391Z" fill="#636363"/>
<path d="M74.3437 73.0023L56.9414 55.1797" stroke="#636363" stroke-width="4.70732" stroke-miterlimit="10" stroke-linecap="round"/>
<path d="M68.2031 25.8203H78.5994" stroke="#00A197" stroke-width="3.76335" stroke-miterlimit="10"/>
<path d="M68.2031 37.1094H78.5994" stroke="#00A197" stroke-width="3.76335" stroke-miterlimit="10"/>
<path d="M68.2031 48.3984H78.5994" stroke="#00A197" stroke-width="3.76335" stroke-miterlimit="10"/>
<path d="M6.16406 30.7188H17.382" stroke="#00A197" stroke-width="3.76335" stroke-miterlimit="10"/>
<path d="M10.6367 36.461L16.3821 30.7188L10.6367 24.9766H15.5134L21.2556 30.7188L15.5134 36.461H10.6367Z" fill="#00A197"/>
<path d="M6.16406 49.5391H17.382" stroke="#00A197" stroke-width="3.76335" stroke-miterlimit="10"/>
<path d="M10.6367 55.2814L16.3821 49.5391L10.6367 43.7969H15.5134L21.2556 49.5391L15.5134 55.2814H10.6367Z" fill="#00A197"/>
</svg>
