<svg width="81" height="82" viewBox="0 0 81 82" fill="none" xmlns="http://www.w3.org/2000/svg">
<path d="M62.3589 3.6875H33.9582C32.7338 3.6875 31.5596 4.17387 30.6939 5.0396C29.8282 5.90534 29.3418 7.07953 29.3418 8.30387V9.15062H32.4779V8.30387C32.4787 7.91154 32.635 7.53551 32.9124 7.25809C33.1898 6.98067 33.5658 6.82445 33.9582 6.82362H62.3589C62.7512 6.82445 63.1272 6.98067 63.4047 7.25809C63.6821 7.53551 63.8383 7.91154 63.8391 8.30387V73.0836C63.8383 73.4759 63.6821 73.8519 63.4047 74.1294C63.1272 74.4068 62.7512 74.563 62.3589 74.5638H33.9582C33.5658 74.563 33.1898 74.4068 32.9124 74.1294C32.635 73.8519 32.4787 73.4759 32.4779 73.0836V51.1307H29.3418V73.0836C29.3418 74.3079 29.8282 75.4821 30.6939 76.3478C31.5596 77.2136 32.7338 77.7 33.9582 77.7H62.3589C63.5832 77.7 64.7574 77.2136 65.6231 76.3478C66.4889 75.4821 66.9752 74.3079 66.9752 73.0836V8.30387C66.9752 7.07953 66.4889 5.90534 65.6231 5.0396C64.7574 4.17387 63.5832 3.6875 62.3589 3.6875Z" fill="#636363"/>
<path d="M56.2129 12.4375V58.8521" stroke="#636363" stroke-width="3.13612" stroke-miterlimit="10"/>
<path d="M38.75 66.4219H57.5667" stroke="#636363" stroke-width="3.13612" stroke-miterlimit="10"/>
<path d="M24.3185 13.9096C27.3466 13.9096 30.3066 14.8076 32.8242 16.4902C35.3417 18.1727 37.3037 20.5642 38.4619 23.362C39.6201 26.1598 39.9225 29.2382 39.3309 32.2079C38.7392 35.1776 37.2801 37.9051 35.1381 40.0454C32.996 42.1856 30.2673 43.6425 27.2972 44.2318C24.327 44.821 21.2488 44.5161 18.4519 43.3556C15.6551 42.195 13.2653 40.2311 11.5848 37.7122C9.9043 35.1932 9.00864 32.2325 9.01113 29.2044C9.01859 25.1481 10.6341 21.2602 13.5036 18.3931C16.373 15.5261 20.2622 13.9137 24.3185 13.9096ZM24.3185 10.7734C20.6702 10.7734 17.1038 11.8555 14.0706 13.8826C11.0373 15.9098 8.67331 18.791 7.27774 22.1618C5.88216 25.5327 5.51765 29.2417 6.23031 32.8197C6.94298 36.3978 8.7008 39.6841 11.2814 42.2629C13.8621 44.8418 17.1496 46.5974 20.7281 47.3076C24.3066 48.0179 28.0154 47.6508 31.3853 46.253C34.7552 44.8551 37.6348 42.4892 39.6599 39.4545C41.685 36.4198 42.7645 32.8527 42.7621 29.2044C42.7587 24.3151 40.8141 19.6271 37.3556 16.171C33.8972 12.7149 29.2079 10.7734 24.3185 10.7734Z" fill="#636363"/>
<path d="M20.2266 39.4388V38.3569C22.1647 38.1342 22.3779 37.9868 22.3779 35.6159V28.8889C22.3779 26.6937 22.2337 26.5463 20.4963 26.2954V25.273C22.4203 25.0325 24.3175 24.6126 26.1632 24.0185V35.6222C26.1632 37.9241 26.3357 38.1311 28.3836 38.3632V39.4451L20.2266 39.4388ZM24.0369 21.5034C23.4559 21.4938 22.9011 21.2601 22.4885 20.8509C22.0758 20.4418 21.8373 19.889 21.8228 19.3081C21.8232 19.0145 21.8819 18.724 21.9955 18.4532C22.109 18.1825 22.2752 17.9371 22.4844 17.7311C22.6936 17.5251 22.9416 17.3628 23.214 17.2534C23.4865 17.144 23.7779 17.0898 24.0714 17.094C24.3625 17.0897 24.6515 17.1442 24.921 17.2542C25.1905 17.3641 25.4351 17.5274 25.64 17.7341C25.845 17.9408 26.0061 18.1868 26.1138 18.4572C26.2215 18.7277 26.2735 19.0171 26.2667 19.3081C26.2647 19.5987 26.2054 19.8861 26.0921 20.1537C25.9789 20.4214 25.8141 20.6641 25.607 20.868C25.3999 21.0719 25.1546 21.233 24.8852 21.342C24.6158 21.451 24.3276 21.5059 24.0369 21.5034Z" fill="#00A197"/>
</svg>
