<svg width="126" height="32" viewBox="0 0 126 32" fill="none" xmlns="http://www.w3.org/2000/svg">
<path d="M55.7136 11.6053L48.1462 0.84375H40.8398V6.68954H45.9282L52.5823 16.1225L45.9282 25.4226H40.8398V31.2684H48.1462L55.7136 20.5069L58.8449 16.1225L55.7136 11.6053Z" fill="white"/>
<path d="M63.1532 0.84375L58.9782 6.68954L56.8906 10.011L60.0219 14.5282L65.6322 6.68954H70.3292L70.4596 0.84375" fill="white"/>
<path d="M16.1784 8.68861C15.3956 7.62574 14.3518 6.82859 13.1776 6.29715C11.8729 5.76572 10.4377 5.5 8.6111 5.5C7.43686 5.5 6.39309 5.63286 5.21885 5.89858C4.04461 6.16429 2.7399 6.56287 1.56566 7.09431V10.6815C2.7399 10.0172 3.91414 9.48577 5.08838 9.22005C6.26262 8.82147 7.56733 8.68861 8.74158 8.68861C10.5682 8.68861 12.0034 9.08719 12.7862 9.88434C13.569 10.6815 14.0909 11.8772 14.0909 13.6044V14.1358H9.39393C6.26262 14.1358 4.04461 14.8001 2.34848 15.9959C0.782828 17.1916 0 19.0516 0 21.4431C0 23.5688 0.652356 25.1631 1.95707 26.4917C3.26178 27.6874 4.95791 28.3517 7.17592 28.3517C8.74158 28.3517 10.1768 28.086 11.351 27.4217C12.5252 26.7574 13.4385 25.8274 14.2214 24.6317V28.4846H17.7441V15.4644C17.7441 13.6044 17.6136 12.1429 17.4832 11.2129C16.9613 10.1501 16.7003 9.35291 16.1784 8.68861ZM13.9604 17.5902C13.9604 19.9816 13.4385 21.8416 12.2643 23.1702C11.2205 24.4988 9.65487 25.1631 7.69781 25.1631C6.39309 25.1631 5.21885 24.7645 4.43602 24.1002C3.6532 23.4359 3.26178 22.3731 3.26178 21.0445C3.26178 19.583 3.78367 18.5202 4.82744 17.723C5.87121 17.0587 7.43686 16.6601 9.39393 16.6601H10.6986H13.9604V17.5902Z" fill="white"/>
<path d="M16.1784 8.68861C15.3956 7.62574 14.3518 6.82859 13.1776 6.29715C11.8729 5.76572 10.4377 5.5 8.6111 5.5C7.43686 5.5 6.39309 5.63286 5.21885 5.89858C4.04461 6.16429 2.7399 6.56287 1.56566 7.09431V10.6815C2.7399 10.0172 3.91414 9.48577 5.08838 9.22005C6.26262 8.82147 7.56733 8.68861 8.74158 8.68861C10.5682 8.68861 12.0034 9.08719 12.7862 9.88434C13.569 10.6815 14.0909 11.8772 14.0909 13.6044V14.1358H9.39393C6.26262 14.1358 4.04461 14.8001 2.34848 15.9959C0.782828 17.1916 0 19.0516 0 21.4431C0 23.5688 0.652356 25.1631 1.95707 26.4917C3.26178 27.6874 4.95791 28.3517 7.17592 28.3517C8.74158 28.3517 10.1768 28.086 11.351 27.4217C12.5252 26.7574 13.4385 25.8274 14.2214 24.6317V28.4846H17.7441V15.4644C17.7441 13.6044 17.6136 12.1429 17.4832 11.2129C16.9613 10.1501 16.7003 9.35291 16.1784 8.68861ZM13.9604 17.5902C13.9604 19.9816 13.4385 21.8416 12.2643 23.1702C11.2205 24.4988 9.65487 25.1631 7.69781 25.1631C6.39309 25.1631 5.21885 24.7645 4.43602 24.1002C3.6532 23.4359 3.26178 22.3731 3.26178 21.0445C3.26178 19.583 3.78367 18.5202 4.82744 17.723C5.87121 17.0587 7.43686 16.6601 9.39393 16.6601H10.6986H13.9604V17.5902Z" fill="white"/>
<path d="M37.5785 6.68954H33.4034L24.1399 15.7239V0.84375H20.6172V28.3455H24.1399V19.7097L26.7493 17.3183L34.5776 28.3455H38.8832L29.2283 14.9268L37.5785 6.68954Z" fill="white"/>
<path d="M81.415 24.6255C80.7627 23.9612 80.5017 22.8983 80.5017 21.304V9.47958H88.4605V6.68954H80.5017V0.84375H76.979V6.68954H71.2383V9.47958H76.979V21.304C76.979 23.9612 77.5009 25.8212 78.5447 26.8841C79.5884 27.947 81.415 28.4784 84.1549 28.4784H88.4605V25.6884H84.5463C82.9807 25.5555 81.9369 25.1569 81.415 24.6255Z" fill="white"/>
<path d="M98.1166 5.5C95.1158 5.5 92.6368 6.56287 90.8102 8.55575C88.9836 10.6815 88.0703 13.3387 88.0703 16.793C88.0703 20.3802 88.9836 23.1702 90.8102 25.1631C92.6368 27.156 95.2462 28.2189 98.508 28.2189C99.6823 28.2189 100.856 28.086 102.031 27.8203C103.205 27.5546 104.51 27.156 105.814 26.6246V23.0374C104.379 23.8345 103.075 24.366 101.9 24.6317C100.726 25.0303 99.5518 25.1631 98.3775 25.1631C96.1595 25.1631 94.4634 24.4988 93.2892 23.1702C92.1149 21.8416 91.4626 19.7159 91.593 16.793V16.6601H106.728V15.0658C106.597 12.4087 105.814 10.1501 104.249 8.29004C102.944 6.43001 100.726 5.5 98.1166 5.5ZM91.9844 14.003C92.1149 12.5415 92.6368 11.3458 93.811 10.1501C94.8548 8.95433 96.29 8.4229 97.9861 8.4229C99.6823 8.4229 100.987 8.95433 101.9 10.0172C102.814 11.0801 103.335 12.4087 103.466 13.8701L91.9844 14.003Z" fill="white"/>
<path d="M119.25 8.5479C120.424 8.5479 121.468 8.68076 122.381 9.07933C123.294 9.47791 124.208 10.0093 125.121 10.9394V7.21931C124.077 6.68787 123.164 6.28929 122.12 6.02358C121.207 5.75786 120.163 5.625 119.119 5.625C115.858 5.625 113.248 6.68787 111.422 8.68075C109.595 10.6736 108.682 13.4637 108.682 17.0509C108.682 20.6381 109.595 23.4281 111.422 25.421C113.248 27.4139 115.858 28.4767 119.119 28.4767C120.163 28.4767 121.207 28.3439 122.12 28.0782C123.164 27.8124 124.077 27.4139 124.991 26.8824V23.0295C124.208 23.8267 123.294 24.3581 122.251 24.7567C121.337 25.1553 120.163 25.2881 118.989 25.2881C116.771 25.2881 115.075 24.6238 113.9 23.1624C112.987 21.7009 112.465 19.5752 112.465 16.918C112.465 14.2608 113.118 12.1351 114.292 10.6736C115.336 9.34505 117.032 8.5479 119.25 8.5479Z" fill="white"/>
</svg>
