<svg width="589" height="431" viewBox="0 0 589 431" fill="none" xmlns="http://www.w3.org/2000/svg">
<rect x="567.066" y="85.7812" width="3.52731" height="15.2624" transform="rotate(-45 567.066 85.7812)" fill="white"/>
<rect x="586.23" y="83.3984" width="3.52731" height="15.2624" transform="rotate(45 586.23 83.3984)" fill="white"/>
<path d="M1.84775 82.3218L1.74655 2.07799L90.1335 1.7521L90.2429 88.5004" stroke="white" stroke-width="3.4014" stroke-linecap="square"/>
<path d="M361.002 83.4579L360.911 2.24101L466.21 1.86428L466.308 89.6645" stroke="white" stroke-width="3.4014" stroke-linecap="square"/>
<path d="M235.808 83.4764L235.716 2.25945L339.618 1.88772L339.718 89.688" stroke="white" stroke-width="3.4014" stroke-linecap="square"/>
<path d="M110.603 83.4764L110.511 2.25945L214.413 1.88772L214.513 89.688" stroke="white" stroke-width="3.4014" stroke-linecap="square"/>
<path d="M485.566 83.7786L485.461 2.56178L577.786 2.23147L577.9 90.0317" stroke="white" stroke-width="3.4014" stroke-linecap="square"/>
<path d="M151.025 56.3516H46.9141V395.001H151.025V56.3516Z" fill="#ECECEC" stroke="#313131" stroke-width="0.968945" stroke-miterlimit="10"/>
<path d="M143.164 155.613H137.9V113.367H143.164V155.613Z" fill="#313131"/>
<path d="M143.164 378.256H137.9V167.711H143.164V378.256Z" fill="#313131"/>
<path d="M143.164 120.066H137.9V113.367H143.164V120.066Z" fill="#3AB992"/>
<path d="M143.164 133.33H137.9V126.836H143.164V133.33Z" fill="#3AB992"/>
<path d="M143.164 174.135H137.9V167.641H143.164V174.135Z" fill="#3AB992"/>
<path d="M143.164 213.791H137.9V207.297H143.164V213.791Z" fill="#3AB992"/>
<path d="M143.164 240.65H137.9V234.156H143.164V240.65Z" fill="#3AB992"/>
<path d="M96.8337 74.4668C96.9021 73.7832 97.1073 73.2363 97.6541 72.6894C98.1327 72.1425 98.748 71.8691 99.5 71.8691C100.252 71.8691 100.867 72.1426 101.277 72.6211C101.687 73.0996 101.892 73.7148 101.961 74.3984L96.8337 74.4668ZM99.5681 70.5703C98.2009 70.5703 97.1073 71.0488 96.287 72.0058C95.4667 72.9629 95.0566 74.1933 95.0566 75.8339C95.0566 77.4745 95.4667 78.7734 96.287 79.662C97.1073 80.6191 98.2694 81.0976 99.7733 81.0976C100.32 81.0976 100.799 81.0292 101.345 80.8925C101.892 80.7558 102.439 80.5507 103.054 80.3456V78.705C102.439 79.0468 101.824 79.3202 101.277 79.457C100.73 79.662 100.252 79.7304 99.7049 79.7304C98.6795 79.7304 97.9277 79.3886 97.4492 78.7734C96.9023 78.1581 96.6288 77.2011 96.6972 75.8339V75.7656H103.465V75.0136C103.396 73.7832 103.054 72.7578 102.371 71.8691C101.756 70.9805 100.73 70.5703 99.5681 70.5703Z" fill="#090F15"/>
<path d="M109.074 71.9395C109.621 71.9395 110.099 72.0078 110.509 72.2129C110.92 72.418 111.33 72.623 111.74 73.1015V71.3926C111.262 71.1191 110.851 70.9824 110.373 70.8457C109.963 70.709 109.484 70.6406 109.006 70.6406C107.57 70.6406 106.34 71.1191 105.519 72.0762C104.699 73.0332 104.289 74.2637 104.289 75.9043C104.289 77.5449 104.699 78.8437 105.519 79.7324C106.34 80.6894 107.502 81.1679 109.006 81.1679C109.484 81.1679 109.963 81.0995 110.373 80.9628C110.851 80.8261 111.262 80.621 111.672 80.416V78.6386C111.33 78.9804 110.92 79.2539 110.441 79.4589C110.031 79.664 109.484 79.7324 109.006 79.7324C107.98 79.7324 107.228 79.3906 106.75 78.7753C106.34 78.0918 106.135 77.1347 106.135 75.9043C106.135 74.6738 106.408 73.7168 106.955 73.0332C107.297 72.3496 108.049 71.9395 109.074 71.9395Z" fill="#090F15"/>
<path d="M80.4841 73.375L77.1346 68.4531H73.8535V71.1191H76.1092L79.1169 75.4941L76.1092 79.7323H73.8535V82.4667H77.1346L80.4841 77.4765L81.9197 75.4941L80.4841 73.375Z" fill="#009C92"/>
<path d="M83.8396 68.4531L81.9941 71.1191L81.0371 72.623L82.4724 74.7421L84.9334 71.1191H87.0526L87.121 68.4531" fill="#EC1D7D"/>
<path d="M61.7637 76.1074C61.7637 77.2011 61.5586 78.0898 61.0117 78.705C60.5332 79.3202 59.8496 79.662 58.9609 79.662C58.3457 79.662 57.8671 79.4569 57.5253 79.1835C57.1835 78.8417 56.9786 78.3632 56.9786 77.748C56.9786 77.0644 57.1836 76.5859 57.6622 76.2441C58.1407 75.9023 58.8243 75.7656 59.7129 75.7656H60.3281H61.7637V76.1074ZM62.7207 72.0058C62.3789 71.5273 61.9003 71.1172 61.3535 70.9121C60.7382 70.6387 60.123 70.5703 59.3027 70.5703C58.7558 70.5703 58.2775 70.6387 57.799 70.7754C57.2521 70.9121 56.705 71.1172 56.1581 71.3222V72.9629C56.705 72.6211 57.1837 72.416 57.7306 72.2793C58.2775 72.0742 58.8243 72.0058 59.3711 72.0058C60.1914 72.0058 60.8068 72.2109 61.217 72.5527C61.5588 72.8945 61.8321 73.5097 61.8321 74.2617V74.5351H59.7129C58.2774 74.5351 57.3203 74.8769 56.5684 75.4238C55.8848 75.9706 55.543 76.791 55.543 77.9531C55.543 78.9101 55.8166 79.662 56.4318 80.2773C57.0471 80.8241 57.7989 81.1659 58.756 81.1659C59.4396 81.1659 60.1229 81.0292 60.6015 80.7558C61.1483 80.414 61.5588 80.0038 61.9005 79.457V81.2343H63.4727V75.2187C63.4727 74.33 63.4725 73.7148 63.3358 73.2363C63.1991 72.6211 62.9941 72.3476 62.7207 72.0058Z" fill="#090F15"/>
<path d="M72.3555 71.1191H70.5097L66.34 75.289V68.4531H64.7676V81.0995H66.34V77.1347L67.5019 76.041L70.9883 81.0995H72.9706L68.5957 74.9472L72.3555 71.1191Z" fill="#090F15"/>
<path d="M92.0447 79.3905C91.7713 79.0488 91.6348 78.5702 91.6348 77.8866V72.4179H95.1893V71.1191H91.6348V68.4531H90.0623V71.1191H87.4648V72.4179H90.0623V77.8866C90.0623 79.1171 90.2674 79.9374 90.7459 80.4843C91.2244 80.9628 92.0449 81.2362 93.2753 81.2362H95.1893V79.9374H93.4119C92.7283 79.8007 92.3181 79.664 92.0447 79.3905Z" fill="#090F15"/>
<path d="M151.025 104.602H127.783V386.377H151.025" stroke="#313131" stroke-width="0.968945" stroke-miterlimit="10"/>
<path d="M117.257 375.109H53.6152V386.389H117.257V375.109Z" stroke="#313131" stroke-width="0.968945" stroke-miterlimit="10"/>
<path d="M116.353 113.898H115.123V117.043H116.353V113.898Z" fill="#313131"/>
<path d="M115.746 122.984C113.353 122.984 111.439 121.07 111.439 118.678C111.439 117.242 112.123 115.943 113.285 115.123L114.037 116.148C113.217 116.695 112.738 117.652 112.738 118.678C112.738 120.387 114.105 121.754 115.814 121.754C117.523 121.754 118.891 120.387 118.891 118.678C118.891 117.652 118.344 116.695 117.523 116.08L118.207 115.055C119.437 115.875 120.189 117.242 120.189 118.678C120.053 121.002 118.138 122.984 115.746 122.984Z" fill="#313131"/>
<path d="M114.591 169.146C114.523 169.01 114.591 168.941 114.728 168.873C114.865 168.805 115.07 168.736 115.207 168.6C115.343 168.463 115.48 168.326 115.617 168.189C115.753 168.053 115.822 167.984 115.958 167.984H116.574C116.711 167.984 116.847 168.053 116.847 168.189V173.385C116.847 173.521 116.779 173.59 116.642 173.59H116.027C115.89 173.59 115.822 173.521 115.822 173.385V169.625C115.822 169.488 115.822 169.42 115.822 169.283C115.754 169.352 115.685 169.488 115.549 169.557C115.48 169.625 115.343 169.693 115.275 169.762C115.138 169.83 115.07 169.762 115.001 169.693L114.591 169.146Z" fill="#313131"/>
<path d="M113.973 186.992C113.768 186.992 113.699 186.924 113.699 186.719V186.514C113.699 186.377 113.767 186.24 113.904 186.103L115.066 184.873C115.408 184.531 115.75 184.189 116.023 183.848C116.297 183.506 116.434 183.232 116.434 182.959C116.434 182.686 116.365 182.412 116.229 182.275C116.092 182.139 115.887 182.07 115.682 182.07C115.34 182.07 115.066 182.139 114.93 182.344C114.793 182.549 114.656 182.686 114.656 182.891C114.588 183.096 114.519 183.164 114.314 183.096L113.904 182.959C113.767 182.891 113.768 182.822 113.768 182.617C113.836 182.275 114.109 181.934 114.383 181.66C114.656 181.387 115.135 181.25 115.75 181.25C116.365 181.25 116.844 181.387 117.186 181.728C117.459 182.07 117.596 182.412 117.596 182.822C117.596 183.301 117.39 183.779 116.98 184.189C116.57 184.6 116.16 184.941 115.818 185.283L115.135 185.967C115.272 185.967 115.408 185.967 115.545 185.967H117.391C117.596 185.967 117.664 186.035 117.664 186.24V186.719C117.664 186.855 117.596 186.992 117.391 186.992H113.973Z" fill="#313131"/>
<path d="M114.591 128.178C114.523 128.041 114.591 127.973 114.728 127.904C114.865 127.836 115.07 127.768 115.207 127.631C115.343 127.494 115.48 127.357 115.617 127.221C115.753 127.084 115.822 127.016 115.958 127.016H116.574C116.711 127.016 116.847 127.084 116.847 127.221V132.416C116.847 132.553 116.779 132.621 116.642 132.621H116.027C115.89 132.621 115.822 132.553 115.822 132.416V128.656C115.822 128.52 115.822 128.451 115.822 128.314C115.754 128.383 115.685 128.52 115.549 128.588C115.48 128.656 115.343 128.725 115.275 128.793C115.138 128.861 115.07 128.793 115.001 128.725L114.591 128.178Z" fill="#313131"/>
<path d="M113.973 142.031C113.768 142.031 113.699 141.963 113.699 141.758V141.553C113.699 141.416 113.767 141.279 113.904 141.143L115.066 139.912C115.408 139.57 115.75 139.228 116.023 138.887C116.297 138.545 116.434 138.271 116.434 137.998C116.434 137.725 116.365 137.451 116.229 137.314C116.092 137.178 115.887 137.109 115.682 137.109C115.34 137.109 115.066 137.178 114.93 137.383C114.793 137.588 114.656 137.725 114.656 137.93C114.588 138.135 114.519 138.203 114.314 138.135L113.904 137.998C113.767 137.93 113.768 137.861 113.768 137.656C113.836 137.314 114.109 136.973 114.383 136.699C114.656 136.426 115.135 136.289 115.75 136.289C116.365 136.289 116.844 136.426 117.186 136.768C117.459 137.109 117.596 137.451 117.596 137.861C117.596 138.34 117.39 138.818 116.98 139.228C116.57 139.639 116.16 139.98 115.818 140.322L115.135 141.006C115.272 141.006 115.408 141.006 115.545 141.006H117.391C117.596 141.006 117.664 141.074 117.664 141.279V141.758C117.664 141.894 117.596 142.031 117.391 142.031H113.973Z" fill="#313131"/>
<path d="M113.841 199.836C113.772 199.768 113.704 199.631 113.841 199.494L114.046 199.152C114.114 199.016 114.251 198.947 114.456 199.084C114.593 199.221 114.797 199.289 115.003 199.357C115.208 199.426 115.413 199.494 115.686 199.494C116.028 199.494 116.301 199.426 116.438 199.221C116.575 199.016 116.643 198.811 116.643 198.605C116.643 198.4 116.575 198.127 116.37 197.99C116.165 197.785 115.96 197.717 115.618 197.717H115.344C115.208 197.717 115.071 197.648 115.071 197.512V197.102C115.071 196.965 115.139 196.896 115.344 196.896H115.55C115.823 196.896 116.028 196.828 116.165 196.691C116.37 196.555 116.438 196.35 116.438 196.145C116.438 195.939 116.37 195.803 116.233 195.734C116.096 195.598 115.891 195.529 115.618 195.529C115.344 195.529 115.139 195.598 114.934 195.666C114.729 195.734 114.593 195.803 114.456 195.939C114.319 196.076 114.182 196.076 114.046 195.939L113.841 195.598C113.772 195.461 113.772 195.324 113.909 195.187C114.114 194.982 114.319 194.846 114.661 194.777C114.934 194.709 115.276 194.641 115.55 194.641C116.233 194.641 116.712 194.777 117.053 195.051C117.395 195.324 117.532 195.666 117.532 196.008C117.532 196.281 117.395 196.555 117.19 196.828C116.985 197.033 116.712 197.238 116.507 197.307C116.78 197.375 117.122 197.512 117.327 197.785C117.6 198.059 117.737 198.332 117.737 198.674C117.737 199.221 117.532 199.699 117.19 199.973C116.848 200.246 116.302 200.451 115.55 200.451C115.208 200.451 114.934 200.383 114.592 200.314C114.319 200.109 114.046 199.973 113.841 199.836Z" fill="#313131"/>
<path d="M113.836 212.342C113.699 212.342 113.562 212.273 113.562 212.068V211.59C113.562 211.453 113.631 211.316 113.699 211.18L115.887 208.104C115.955 207.967 116.092 207.898 116.229 207.898H116.776C116.981 207.898 117.049 207.967 117.049 208.172V211.385H117.528C117.664 211.385 117.801 211.453 117.801 211.658V212.137C117.801 212.273 117.733 212.41 117.528 212.41H117.049V213.367C117.049 213.504 116.981 213.641 116.776 213.641H116.16C116.024 213.641 115.887 213.572 115.887 213.367V212.41H113.836V212.342ZM114.656 211.385H115.955V209.881C115.955 209.744 115.955 209.676 115.955 209.539L114.656 211.385Z" fill="#313131"/>
<path d="M113.84 226.436C113.772 226.299 113.771 226.23 113.771 226.162L114.045 225.752C114.182 225.615 114.318 225.615 114.455 225.752C114.523 225.82 114.729 225.889 114.865 225.957C115.07 226.025 115.275 226.094 115.48 226.094C115.754 226.094 116.027 226.025 116.232 225.82C116.438 225.684 116.574 225.41 116.574 225.068C116.574 224.795 116.506 224.521 116.369 224.316C116.232 224.111 116.095 224.043 115.959 224.043C115.822 224.043 115.686 224.043 115.549 224.111C115.412 224.111 115.344 224.18 115.207 224.316C115.139 224.385 115.002 224.453 114.797 224.453H114.25C114.045 224.453 113.908 224.385 113.908 224.18V221.445C113.908 221.309 113.977 221.172 114.182 221.172H116.984C117.121 221.172 117.258 221.24 117.258 221.445V221.924C117.258 222.061 117.189 222.197 116.984 222.197H115.002V223.154C115.002 223.291 115.002 223.359 115.002 223.496C115.139 223.359 115.275 223.291 115.48 223.223C115.617 223.154 115.822 223.154 116.027 223.154C116.506 223.154 116.848 223.291 117.189 223.633C117.531 223.975 117.668 224.453 117.668 225.068C117.668 225.684 117.463 226.162 117.053 226.436C116.642 226.777 116.164 226.914 115.617 226.914C115.138 226.914 114.728 226.846 114.387 226.777C114.182 226.709 113.908 226.572 113.84 226.436Z" fill="#313131"/>
<path d="M113.635 237.582C113.635 236.42 113.84 235.6 114.25 235.121C114.66 234.711 115.207 234.438 115.822 234.438C116.096 234.438 116.301 234.506 116.574 234.574C116.848 234.643 116.984 234.711 117.121 234.848C117.258 234.984 117.258 235.053 117.19 235.189L116.916 235.6C116.848 235.736 116.711 235.736 116.574 235.6C116.506 235.531 116.369 235.463 116.233 235.463C116.096 235.395 115.891 235.394 115.754 235.394C115.481 235.394 115.207 235.531 115.002 235.805C114.797 236.078 114.66 236.488 114.66 237.103C114.797 236.898 114.934 236.83 115.139 236.693C115.344 236.625 115.617 236.557 115.891 236.557C116.438 236.557 116.848 236.762 117.121 237.103C117.395 237.445 117.531 237.924 117.531 238.471C117.531 239.018 117.395 239.496 117.053 239.838C116.711 240.18 116.233 240.385 115.549 240.385C114.865 240.385 114.318 240.111 113.977 239.633C113.84 239.154 113.635 238.471 113.635 237.582ZM114.934 238.471C114.934 238.812 115.002 239.018 115.139 239.223C115.276 239.428 115.48 239.496 115.686 239.496C115.959 239.496 116.164 239.428 116.301 239.291C116.437 239.154 116.506 238.881 116.506 238.471C116.506 238.129 116.437 237.855 116.301 237.719C116.164 237.582 115.959 237.514 115.754 237.514C115.481 237.514 115.276 237.65 115.139 237.855C115.002 238.061 114.934 238.197 114.934 238.471Z" fill="#313131"/>
<path d="M114.045 248.916C113.908 248.916 113.771 248.848 113.771 248.643V248.164C113.771 248.027 113.84 247.891 114.045 247.891H117.258C117.395 247.891 117.531 247.959 117.531 248.164V248.574C117.531 248.711 117.463 248.848 117.326 248.984C116.779 249.6 116.438 250.215 116.232 250.83C116.027 251.445 115.891 252.129 115.891 253.018V253.291C115.891 253.428 115.822 253.564 115.617 253.564H115.002C114.865 253.564 114.728 253.496 114.728 253.291V253.154C114.728 252.197 114.865 251.445 115.207 250.762C115.549 250.146 115.959 249.463 116.437 248.848C116.301 248.848 116.232 248.848 116.096 248.848H114.045V248.916Z" fill="#313131"/>
<path d="M113.635 265.326C113.635 264.848 113.772 264.506 114.045 264.301C114.318 264.027 114.592 263.891 114.729 263.822C114.523 263.754 114.318 263.617 114.045 263.412C113.772 263.207 113.703 262.934 113.703 262.592C113.703 262.182 113.84 261.84 114.182 261.566C114.524 261.293 114.934 261.156 115.549 261.156C116.096 261.156 116.574 261.293 116.916 261.566C117.258 261.84 117.395 262.182 117.395 262.592C117.395 262.934 117.258 263.207 117.053 263.412C116.848 263.617 116.643 263.754 116.369 263.822C116.574 263.891 116.779 264.027 117.053 264.301C117.326 264.574 117.463 264.916 117.463 265.326C117.463 265.805 117.326 266.215 116.984 266.488C116.642 266.762 116.164 266.967 115.412 266.967C114.729 266.967 114.182 266.83 113.84 266.488C113.84 266.215 113.635 265.805 113.635 265.326ZM114.865 265.189C114.865 265.463 114.934 265.736 115.07 265.873C115.207 266.01 115.412 266.078 115.686 266.078C115.959 266.078 116.232 266.01 116.301 265.873C116.437 265.736 116.506 265.531 116.506 265.189C116.506 264.984 116.437 264.779 116.301 264.574C116.164 264.369 115.959 264.301 115.686 264.301C115.412 264.301 115.207 264.369 115.07 264.574C114.934 264.779 114.865 264.984 114.865 265.189ZM114.934 262.66C114.934 262.865 115.002 263.002 115.139 263.139C115.276 263.275 115.412 263.344 115.686 263.344C115.891 263.344 116.096 263.275 116.233 263.139C116.369 263.002 116.438 262.865 116.438 262.66C116.438 262.455 116.369 262.318 116.233 262.182C116.096 262.045 115.959 261.977 115.686 261.977C115.412 261.977 115.276 262.045 115.139 262.182C115.002 262.318 114.934 262.455 114.934 262.66Z" fill="#313131"/>
<path d="M121.227 154.506L116.374 146.918C116.237 146.645 116.032 146.508 115.69 146.508C115.417 146.508 115.143 146.645 115.007 146.85L110.29 154.506C110.153 154.711 110.153 154.984 110.29 155.258C110.427 155.463 110.632 155.6 110.905 155.6H120.475C120.749 155.6 120.954 155.463 121.091 155.258C121.364 155.053 121.364 154.779 121.227 154.506ZM120.407 154.779H111.11L115.69 147.396L120.407 154.779Z" fill="#313131"/>
<path d="M115.273 149.791C115.273 149.654 115.342 149.586 115.479 149.586H115.957C116.094 149.586 116.162 149.654 116.162 149.791L116.094 152.457C116.094 152.594 116.026 152.662 115.889 152.662H115.547C115.41 152.662 115.342 152.594 115.342 152.457L115.273 149.791ZM115.479 153.961C115.342 153.961 115.273 153.893 115.273 153.756V153.346C115.273 153.209 115.342 153.141 115.479 153.141H115.957C116.094 153.141 116.162 153.209 116.162 153.346V153.756C116.162 153.893 116.094 153.961 115.957 153.961H115.479Z" fill="#313131"/>
<path d="M102.992 96.743C102.992 94.4844 103.302 92.7259 103.921 91.4675C104.541 90.2027 105.722 89.5703 107.464 89.5703C109.207 89.5703 110.387 90.2027 111.007 91.4675C111.627 92.7259 111.936 94.4844 111.936 96.743C111.936 99.0016 111.627 100.763 111.007 102.028C110.387 103.286 109.207 103.916 107.464 103.916C105.722 103.916 104.541 103.286 103.921 102.028C103.302 100.763 102.992 99.0016 102.992 96.743ZM104.793 96.743C104.793 98.5499 104.947 99.9663 105.257 100.992C105.567 102.012 106.303 102.522 107.464 102.522C108.626 102.522 109.361 102.012 109.671 100.992C109.981 99.9663 110.136 98.5499 110.136 96.743C110.136 94.9361 109.981 93.5229 109.671 92.5033C109.361 91.4772 108.626 90.9642 107.464 90.9642C106.303 90.9642 105.567 91.4772 105.257 92.5033C104.947 93.5229 104.793 94.9361 104.793 96.743Z" fill="#000912"/>
<path d="M95.7651 92.4849C95.6812 92.2784 95.7587 92.13 95.9975 92.0397C96.4943 91.8525 96.9654 91.5525 97.4107 91.1395C97.856 90.7265 98.2077 90.3586 98.4658 90.036C98.6529 89.8037 98.8336 89.6875 99.0078 89.6875H99.8306C100.127 89.6875 100.276 89.8327 100.276 90.1231V103.191C100.276 103.481 100.131 103.626 99.8403 103.626H99.0078C98.7175 103.626 98.5723 103.481 98.5723 103.191V92.5817C98.5723 92.3881 98.5787 92.1945 98.5916 92.001H98.5723C98.3722 92.2526 98.0786 92.5108 97.6914 92.7753C97.3042 93.0399 96.9493 93.2335 96.6266 93.3561C96.3427 93.4658 96.1556 93.4142 96.0652 93.2012L95.7651 92.4849Z" fill="#000912"/>
<path d="M84.7902 103.625C84.4353 103.625 84.2578 103.48 84.2578 103.19V102.725C84.2578 102.473 84.3643 102.241 84.5772 102.028L88.3717 98.2046C89.4945 97.0753 90.2302 96.2042 90.5787 95.5911C90.9336 94.9716 91.1111 94.2585 91.1111 93.4519C91.1111 92.7743 90.911 92.2 90.5109 91.7289C90.1173 91.2578 89.5171 91.0223 88.7105 91.0223C87.9877 91.0223 87.3876 91.2062 86.9101 91.574C86.4325 91.9418 86.0873 92.5581 85.8743 93.4228C85.784 93.7907 85.5936 93.9326 85.3032 93.8488L84.5482 93.6261C84.3482 93.568 84.2998 93.2938 84.403 92.8033C84.5901 91.958 85.0419 91.2094 85.7582 90.5576C86.4809 89.8994 87.4392 89.5703 88.633 89.5703C90.1495 89.5703 91.2563 89.951 91.9532 90.7125C92.6566 91.474 93.0083 92.4065 93.0083 93.51C93.0083 94.5876 92.7179 95.5169 92.1371 96.2977C91.5628 97.0786 90.7723 97.9562 89.7656 98.9306L86.5809 102.018V102.057C86.7552 102.044 87.0133 102.038 87.3553 102.038H92.6308C92.9857 102.038 93.1632 102.183 93.1632 102.473V103.19C93.1632 103.48 92.9857 103.625 92.6308 103.625H84.7902Z" fill="#000912"/>
<path d="M71.8593 103.631C71.4398 103.631 71.3818 103.418 71.6851 102.992L76.3313 96.4677L72.0142 90.3889C71.7109 89.963 71.7689 89.75 72.1884 89.75H73.379C73.6629 89.75 73.8888 89.8758 74.0566 90.1275L77.4542 95.1803L80.8518 90.1275C81.0195 89.8758 81.2454 89.75 81.5293 89.75H82.7199C83.1394 89.75 83.1975 89.963 82.8942 90.3889L78.577 96.4677L83.2233 102.992C83.5266 103.418 83.4685 103.631 83.0491 103.631H81.8488C81.5648 103.631 81.339 103.505 81.1712 103.253L77.4542 97.7551L73.7372 103.253C73.5694 103.505 73.3435 103.631 73.0596 103.631H71.8593Z" fill="#000912"/>
<path d="M56.2535 103.631C55.9309 103.631 55.7695 103.453 55.7695 103.098V90.2824C55.7695 89.9275 55.9309 89.75 56.2535 89.75H58.3153C58.5605 89.75 58.7444 89.9436 58.867 90.3308L61.6354 99.0135C61.9194 99.904 62.0872 100.443 62.1388 100.63C62.1904 100.811 62.2646 101.146 62.3614 101.637H62.4195C62.5163 101.146 62.5905 100.811 62.6421 100.63C62.6938 100.443 62.8615 99.904 63.1455 99.0135L65.9139 90.3308C66.0365 89.9436 66.2204 89.75 66.4656 89.75H68.5274C68.8501 89.75 69.0114 89.9275 69.0114 90.2824V103.098C69.0114 103.453 68.8501 103.631 68.5274 103.631H67.6369C67.3142 103.631 67.1529 103.453 67.1529 103.098V92.9443C67.1529 92.6862 67.1593 92.4281 67.1722 92.1699H67.1335L63.5617 103.04C63.4326 103.434 63.2197 103.631 62.9228 103.631H61.8581C61.5612 103.631 61.3483 103.434 61.2192 103.04L57.6474 92.1699H57.6087C57.6216 92.4281 57.628 92.6862 57.628 92.9443V103.098C57.628 103.453 57.4667 103.631 57.1441 103.631H56.2535Z" fill="#000912"/>
<path d="M278.126 56.3516H174.016V395.001H278.126V56.3516Z" fill="#ECECEC" stroke="#313131" stroke-width="0.968945" stroke-miterlimit="10"/>
<path d="M270.266 155.613H265.002V113.367H270.266V155.613Z" fill="#313131"/>
<path d="M270.266 378.256H265.002V167.711H270.266V378.256Z" fill="#313131"/>
<path d="M270.266 120.066H265.002V113.367H270.266V120.066Z" fill="#3AB992"/>
<path d="M270.266 133.33H265.002V126.836H270.266V133.33Z" fill="#3AB992"/>
<path d="M270.266 174.135H265.002V167.641H270.266V174.135Z" fill="#3AB992"/>
<path d="M270.266 213.791H265.002V207.297H270.266V213.791Z" fill="#3AB992"/>
<path d="M270.266 240.65H265.002V234.156H270.266V240.65Z" fill="#3AB992"/>
<path d="M223.935 74.4668C224.004 73.7832 224.209 73.2363 224.756 72.6894C225.234 72.1425 225.85 71.8691 226.602 71.8691C227.353 71.8691 227.968 72.1426 228.379 72.6211C228.789 73.0996 228.994 73.7148 229.062 74.3984L223.935 74.4668ZM226.67 70.5703C225.302 70.5703 224.209 71.0488 223.389 72.0058C222.568 72.9629 222.158 74.1933 222.158 75.8339C222.158 77.4745 222.568 78.7734 223.389 79.662C224.209 80.6191 225.371 81.0976 226.875 81.0976C227.422 81.0976 227.9 81.0292 228.447 80.8925C228.994 80.7558 229.541 80.5507 230.156 80.3456V78.705C229.541 79.0468 228.925 79.3202 228.379 79.457C227.832 79.662 227.353 79.7304 226.806 79.7304C225.781 79.7304 225.029 79.3886 224.551 78.7734C224.004 78.1581 223.73 77.2011 223.799 75.8339V75.7656H230.566V75.0136C230.498 73.7832 230.156 72.7578 229.472 71.8691C228.857 70.9805 227.832 70.5703 226.67 70.5703Z" fill="#090F15"/>
<path d="M236.176 71.9395C236.723 71.9395 237.201 72.0078 237.611 72.2129C238.021 72.418 238.432 72.623 238.842 73.1015V71.3926C238.363 71.1191 237.953 70.9824 237.474 70.8457C237.064 70.709 236.586 70.6406 236.107 70.6406C234.672 70.6406 233.441 71.1191 232.621 72.0762C231.801 73.0332 231.391 74.2637 231.391 75.9043C231.391 77.5449 231.801 78.8437 232.621 79.7324C233.441 80.6894 234.603 81.1679 236.107 81.1679C236.586 81.1679 237.064 81.0995 237.474 80.9628C237.953 80.8261 238.363 80.621 238.773 80.416V78.6386C238.431 78.9804 238.021 79.2539 237.543 79.4589C237.133 79.664 236.586 79.7324 236.107 79.7324C235.082 79.7324 234.33 79.3906 233.851 78.7753C233.441 78.0918 233.236 77.1347 233.236 75.9043C233.236 74.6738 233.51 73.7168 234.057 73.0332C234.398 72.3496 235.15 71.9395 236.176 71.9395Z" fill="#090F15"/>
<path d="M207.588 73.375L204.238 68.4531H200.957V71.1191H203.213L206.22 75.4941L203.213 79.7323H200.957V82.4667H204.238L207.588 77.4765L209.023 75.4941L207.588 73.375Z" fill="#009C92"/>
<path d="M210.941 68.4531L209.096 71.1191L208.139 72.623L209.574 74.7421L212.035 71.1191H214.154L214.223 68.4531" fill="#EC1D7D"/>
<path d="M188.865 76.1074C188.865 77.2011 188.66 78.0898 188.113 78.705C187.635 79.3202 186.951 79.662 186.062 79.662C185.447 79.662 184.969 79.4569 184.627 79.1835C184.285 78.8417 184.08 78.3632 184.08 77.748C184.08 77.0644 184.285 76.5859 184.764 76.2441C185.242 75.9023 185.926 75.7656 186.814 75.7656H187.43H188.865V76.1074ZM189.822 72.0058C189.48 71.5273 189.002 71.1172 188.455 70.9121C187.84 70.6387 187.225 70.5703 186.404 70.5703C185.857 70.5703 185.379 70.6387 184.901 70.7754C184.354 70.9121 183.807 71.1172 183.26 71.3222V72.9629C183.807 72.6211 184.285 72.416 184.832 72.2793C185.379 72.0742 185.926 72.0058 186.473 72.0058C187.293 72.0058 187.908 72.2109 188.319 72.5527C188.66 72.8945 188.934 73.5097 188.934 74.2617V74.5351H186.814C185.379 74.5351 184.422 74.8769 183.67 75.4238C182.986 75.9706 182.645 76.791 182.645 77.9531C182.645 78.9101 182.918 79.662 183.533 80.2773C184.149 80.8241 184.901 81.1659 185.858 81.1659C186.541 81.1659 187.225 81.0292 187.703 80.7558C188.25 80.414 188.66 80.0038 189.002 79.457V81.2343H190.574V75.2187C190.574 74.33 190.574 73.7148 190.437 73.2363C190.301 72.6211 190.096 72.3476 189.822 72.0058Z" fill="#090F15"/>
<path d="M199.457 71.1191H197.611L193.442 75.289V68.4531H191.869V81.0995H193.442V77.1347L194.603 76.041L198.09 81.0995H200.072L195.697 74.9472L199.457 71.1191Z" fill="#090F15"/>
<path d="M219.148 79.3905C218.875 79.0488 218.738 78.5702 218.738 77.8866V72.4179H222.293V71.1191H218.738V68.4531H217.166V71.1191H214.568V72.4179H217.166V77.8866C217.166 79.1171 217.371 79.9374 217.849 80.4843C218.328 80.9628 219.148 81.2362 220.379 81.2362H222.293V79.9374H220.515C219.832 79.8007 219.422 79.664 219.148 79.3905Z" fill="#090F15"/>
<path d="M278.127 104.602H254.885V386.377H278.127" stroke="#313131" stroke-width="0.968945" stroke-miterlimit="10"/>
<path d="M244.359 375.109H180.717V386.389H244.359V375.109Z" stroke="#313131" stroke-width="0.968945" stroke-miterlimit="10"/>
<path d="M243.465 113.898H242.234V117.043H243.465V113.898Z" fill="#313131"/>
<path d="M242.857 122.984C240.465 122.984 238.551 121.07 238.551 118.678C238.551 117.242 239.234 115.943 240.396 115.123L241.148 116.148C240.328 116.695 239.85 117.652 239.85 118.678C239.85 120.387 241.217 121.754 242.926 121.754C244.635 121.754 246.002 120.387 246.002 118.678C246.002 117.652 245.455 116.695 244.635 116.08L245.318 115.055C246.549 115.875 247.301 117.242 247.301 118.678C247.164 121.002 245.25 122.984 242.857 122.984Z" fill="#313131"/>
<path d="M241.695 169.146C241.626 169.01 241.695 168.941 241.832 168.873C241.968 168.805 242.174 168.736 242.31 168.6C242.447 168.463 242.583 168.326 242.72 168.189C242.857 168.053 242.925 167.984 243.062 167.984H243.677C243.814 167.984 243.951 168.053 243.951 168.189V173.385C243.951 173.521 243.882 173.59 243.746 173.59H243.13C242.994 173.59 242.925 173.521 242.925 173.385V169.625C242.925 169.488 242.925 169.42 242.925 169.283C242.857 169.352 242.789 169.488 242.652 169.557C242.584 169.625 242.447 169.693 242.378 169.762C242.242 169.83 242.173 169.762 242.105 169.693L241.695 169.146Z" fill="#313131"/>
<path d="M241.074 186.992C240.869 186.992 240.801 186.924 240.801 186.719V186.514C240.801 186.377 240.869 186.24 241.006 186.103L242.168 184.873C242.51 184.531 242.851 184.189 243.125 183.848C243.398 183.506 243.535 183.232 243.535 182.959C243.535 182.686 243.467 182.412 243.33 182.275C243.193 182.139 242.988 182.07 242.783 182.07C242.441 182.07 242.168 182.139 242.031 182.344C241.894 182.549 241.758 182.686 241.758 182.891C241.689 183.096 241.621 183.164 241.416 183.096L241.006 182.959C240.869 182.891 240.869 182.822 240.869 182.617C240.938 182.275 241.211 181.934 241.484 181.66C241.758 181.387 242.236 181.25 242.852 181.25C243.467 181.25 243.945 181.387 244.287 181.728C244.561 182.07 244.697 182.412 244.697 182.822C244.697 183.301 244.492 183.779 244.082 184.189C243.672 184.6 243.262 184.941 242.92 185.283L242.236 185.967C242.373 185.967 242.51 185.967 242.647 185.967H244.492C244.697 185.967 244.765 186.035 244.765 186.24V186.719C244.765 186.855 244.697 186.992 244.492 186.992H241.074Z" fill="#313131"/>
<path d="M241.695 128.178C241.626 128.041 241.695 127.973 241.832 127.904C241.968 127.836 242.174 127.768 242.31 127.631C242.447 127.494 242.583 127.357 242.72 127.221C242.857 127.084 242.925 127.016 243.062 127.016H243.677C243.814 127.016 243.951 127.084 243.951 127.221V132.416C243.951 132.553 243.882 132.621 243.746 132.621H243.13C242.994 132.621 242.925 132.553 242.925 132.416V128.656C242.925 128.52 242.925 128.451 242.925 128.314C242.857 128.383 242.789 128.52 242.652 128.588C242.584 128.656 242.447 128.725 242.378 128.793C242.242 128.861 242.173 128.793 242.105 128.725L241.695 128.178Z" fill="#313131"/>
<path d="M241.074 142.031C240.869 142.031 240.801 141.963 240.801 141.758V141.553C240.801 141.416 240.869 141.279 241.006 141.143L242.168 139.912C242.51 139.57 242.851 139.228 243.125 138.887C243.398 138.545 243.535 138.271 243.535 137.998C243.535 137.725 243.467 137.451 243.33 137.314C243.193 137.178 242.988 137.109 242.783 137.109C242.441 137.109 242.168 137.178 242.031 137.383C241.894 137.588 241.758 137.725 241.758 137.93C241.689 138.135 241.621 138.203 241.416 138.135L241.006 137.998C240.869 137.93 240.869 137.861 240.869 137.656C240.938 137.314 241.211 136.973 241.484 136.699C241.758 136.426 242.236 136.289 242.852 136.289C243.467 136.289 243.945 136.426 244.287 136.768C244.561 137.109 244.697 137.451 244.697 137.861C244.697 138.34 244.492 138.818 244.082 139.228C243.672 139.639 243.262 139.98 242.92 140.322L242.236 141.006C242.373 141.006 242.51 141.006 242.647 141.006H244.492C244.697 141.006 244.765 141.074 244.765 141.279V141.758C244.765 141.894 244.697 142.031 244.492 142.031H241.074Z" fill="#313131"/>
<path d="M240.942 199.836C240.874 199.768 240.805 199.631 240.942 199.494L241.147 199.152C241.216 199.016 241.352 198.947 241.557 199.084C241.694 199.221 241.899 199.289 242.104 199.357C242.309 199.426 242.514 199.494 242.788 199.494C243.129 199.494 243.403 199.426 243.54 199.221C243.676 199.016 243.745 198.811 243.745 198.605C243.745 198.4 243.676 198.127 243.471 197.99C243.266 197.785 243.061 197.717 242.719 197.717H242.446C242.309 197.717 242.173 197.648 242.173 197.512V197.102C242.173 196.965 242.241 196.896 242.446 196.896H242.651C242.925 196.896 243.13 196.828 243.266 196.691C243.471 196.555 243.54 196.35 243.54 196.145C243.54 195.939 243.471 195.803 243.335 195.734C243.198 195.598 242.993 195.529 242.719 195.529C242.446 195.529 242.241 195.598 242.036 195.666C241.831 195.734 241.694 195.803 241.557 195.939C241.421 196.076 241.284 196.076 241.147 195.939L240.942 195.598C240.874 195.461 240.874 195.324 241.01 195.187C241.215 194.982 241.421 194.846 241.762 194.777C242.036 194.709 242.378 194.641 242.651 194.641C243.335 194.641 243.813 194.777 244.155 195.051C244.497 195.324 244.634 195.666 244.634 196.008C244.634 196.281 244.497 196.555 244.292 196.828C244.087 197.033 243.813 197.238 243.608 197.307C243.882 197.375 244.223 197.512 244.428 197.785C244.702 198.059 244.838 198.332 244.838 198.674C244.838 199.221 244.634 199.699 244.292 199.973C243.95 200.246 243.403 200.451 242.651 200.451C242.309 200.451 242.036 200.383 241.694 200.314C241.42 200.109 241.147 199.973 240.942 199.836Z" fill="#313131"/>
<path d="M240.938 212.342C240.801 212.342 240.664 212.273 240.664 212.068V211.59C240.664 211.453 240.733 211.316 240.801 211.18L242.989 208.104C243.057 207.967 243.194 207.898 243.33 207.898H243.877C244.082 207.898 244.15 207.967 244.15 208.172V211.385H244.629C244.766 211.385 244.902 211.453 244.902 211.658V212.137C244.902 212.273 244.834 212.41 244.629 212.41H244.15V213.367C244.15 213.504 244.082 213.641 243.877 213.641H243.262C243.125 213.641 242.989 213.572 242.989 213.367V212.41H240.938V212.342ZM241.758 211.385H243.057V209.881C243.057 209.744 243.057 209.676 243.057 209.539L241.758 211.385Z" fill="#313131"/>
<path d="M240.941 226.436C240.873 226.299 240.873 226.23 240.873 226.162L241.146 225.752C241.283 225.615 241.42 225.615 241.557 225.752C241.625 225.82 241.83 225.889 241.967 225.957C242.172 226.025 242.377 226.094 242.582 226.094C242.855 226.094 243.129 226.025 243.334 225.82C243.539 225.684 243.676 225.41 243.676 225.068C243.676 224.795 243.607 224.521 243.471 224.316C243.334 224.111 243.197 224.043 243.06 224.043C242.924 224.043 242.787 224.043 242.65 224.111C242.514 224.111 242.445 224.18 242.309 224.316C242.24 224.385 242.104 224.453 241.898 224.453H241.351C241.146 224.453 241.01 224.385 241.01 224.18V221.445C241.01 221.309 241.078 221.172 241.283 221.172H244.086C244.222 221.172 244.359 221.24 244.359 221.445V221.924C244.359 222.061 244.291 222.197 244.086 222.197H242.103V223.154C242.103 223.291 242.103 223.359 242.103 223.496C242.24 223.359 242.377 223.291 242.582 223.223C242.719 223.154 242.924 223.154 243.129 223.154C243.607 223.154 243.949 223.291 244.291 223.633C244.633 223.975 244.769 224.453 244.769 225.068C244.769 225.684 244.564 226.162 244.154 226.436C243.744 226.777 243.265 226.914 242.719 226.914C242.24 226.914 241.83 226.846 241.488 226.777C241.283 226.709 241.01 226.572 240.941 226.436Z" fill="#313131"/>
<path d="M240.736 237.582C240.736 236.42 240.941 235.6 241.351 235.121C241.762 234.711 242.309 234.438 242.924 234.438C243.197 234.438 243.403 234.506 243.676 234.574C243.949 234.643 244.086 234.711 244.223 234.848C244.359 234.984 244.359 235.053 244.291 235.189L244.018 235.6C243.949 235.736 243.813 235.736 243.676 235.6C243.608 235.531 243.471 235.463 243.334 235.463C243.197 235.395 242.992 235.394 242.856 235.394C242.582 235.394 242.309 235.531 242.104 235.805C241.898 236.078 241.762 236.488 241.762 237.103C241.898 236.898 242.035 236.83 242.24 236.693C242.445 236.625 242.719 236.557 242.992 236.557C243.539 236.557 243.949 236.762 244.223 237.103C244.496 237.445 244.633 237.924 244.633 238.471C244.633 239.018 244.496 239.496 244.154 239.838C243.812 240.18 243.334 240.385 242.651 240.385C241.967 240.385 241.42 240.111 241.078 239.633C240.941 239.154 240.736 238.471 240.736 237.582ZM242.035 238.471C242.035 238.812 242.104 239.018 242.24 239.223C242.377 239.428 242.582 239.496 242.787 239.496C243.061 239.496 243.266 239.428 243.402 239.291C243.539 239.154 243.608 238.881 243.608 238.471C243.608 238.129 243.539 237.855 243.402 237.719C243.266 237.582 243.061 237.514 242.856 237.514C242.582 237.514 242.377 237.65 242.24 237.855C242.104 238.061 242.035 238.197 242.035 238.471Z" fill="#313131"/>
<path d="M241.146 248.916C241.01 248.916 240.873 248.848 240.873 248.643V248.164C240.873 248.027 240.941 247.891 241.146 247.891H244.359C244.496 247.891 244.633 247.959 244.633 248.164V248.574C244.633 248.711 244.564 248.848 244.428 248.984C243.881 249.6 243.539 250.215 243.334 250.83C243.129 251.445 242.992 252.129 242.992 253.018V253.291C242.992 253.428 242.924 253.564 242.719 253.564H242.103C241.967 253.564 241.83 253.496 241.83 253.291V253.154C241.83 252.197 241.967 251.445 242.309 250.762C242.65 250.146 243.06 249.463 243.539 248.848C243.402 248.848 243.334 248.848 243.197 248.848H241.146V248.916Z" fill="#313131"/>
<path d="M240.736 265.326C240.736 264.848 240.873 264.506 241.147 264.301C241.42 264.027 241.693 263.891 241.83 263.822C241.625 263.754 241.42 263.617 241.147 263.412C240.873 263.207 240.805 262.934 240.805 262.592C240.805 262.182 240.942 261.84 241.283 261.566C241.625 261.293 242.035 261.156 242.651 261.156C243.197 261.156 243.676 261.293 244.018 261.566C244.36 261.84 244.496 262.182 244.496 262.592C244.496 262.934 244.359 263.207 244.154 263.412C243.949 263.617 243.744 263.754 243.471 263.822C243.676 263.891 243.881 264.027 244.154 264.301C244.428 264.574 244.564 264.916 244.564 265.326C244.564 265.805 244.428 266.215 244.086 266.488C243.744 266.762 243.266 266.967 242.514 266.967C241.83 266.967 241.283 266.83 240.942 266.488C240.942 266.215 240.736 265.805 240.736 265.326ZM241.967 265.189C241.967 265.463 242.035 265.736 242.172 265.873C242.309 266.01 242.514 266.078 242.787 266.078C243.061 266.078 243.334 266.01 243.402 265.873C243.539 265.736 243.608 265.531 243.608 265.189C243.608 264.984 243.539 264.779 243.402 264.574C243.266 264.369 243.061 264.301 242.787 264.301C242.514 264.301 242.309 264.369 242.172 264.574C242.035 264.779 241.967 264.984 241.967 265.189ZM242.035 262.66C242.035 262.865 242.104 263.002 242.24 263.139C242.377 263.275 242.514 263.344 242.787 263.344C242.992 263.344 243.197 263.275 243.334 263.139C243.471 263.002 243.539 262.865 243.539 262.66C243.539 262.455 243.471 262.318 243.334 262.182C243.197 262.045 243.061 261.977 242.787 261.977C242.514 261.977 242.377 262.045 242.24 262.182C242.104 262.318 242.035 262.455 242.035 262.66Z" fill="#313131"/>
<path d="M248.333 154.506L243.479 146.918C243.343 146.645 243.138 146.508 242.796 146.508C242.522 146.508 242.249 146.645 242.112 146.85L237.396 154.506C237.259 154.711 237.259 154.984 237.396 155.258C237.532 155.463 237.737 155.6 238.011 155.6H247.581C247.854 155.6 248.059 155.463 248.196 155.258C248.47 155.053 248.47 154.779 248.333 154.506ZM247.512 154.779H238.216L242.796 147.396L247.512 154.779Z" fill="#313131"/>
<path d="M242.379 149.791C242.379 149.654 242.447 149.586 242.584 149.586H243.062C243.199 149.586 243.268 149.654 243.268 149.791L243.199 152.457C243.199 152.594 243.131 152.662 242.994 152.662H242.653C242.516 152.662 242.447 152.594 242.447 152.457L242.379 149.791ZM242.584 153.961C242.447 153.961 242.379 153.893 242.379 153.756V153.346C242.379 153.209 242.447 153.141 242.584 153.141H243.062C243.199 153.141 243.268 153.209 243.268 153.346V153.756C243.268 153.893 243.199 153.961 243.062 153.961H242.584Z" fill="#313131"/>
<path d="M230.092 96.743C230.092 94.4844 230.402 92.7259 231.021 91.4675C231.641 90.2027 232.821 89.5703 234.564 89.5703C236.306 89.5703 237.487 90.2027 238.107 91.4675C238.726 92.7259 239.036 94.4844 239.036 96.743C239.036 99.0016 238.726 100.763 238.107 102.028C237.487 103.286 236.306 103.916 234.564 103.916C232.821 103.916 231.641 103.286 231.021 102.028C230.402 100.763 230.092 99.0016 230.092 96.743ZM231.892 96.743C231.892 98.5499 232.047 99.9663 232.357 100.992C232.667 102.012 233.402 102.522 234.564 102.522C235.725 102.522 236.461 102.012 236.771 100.992C237.081 99.9663 237.235 98.5499 237.235 96.743C237.235 94.9361 237.081 93.5229 236.771 92.5033C236.461 91.4772 235.725 90.9642 234.564 90.9642C233.402 90.9642 232.667 91.4772 232.357 92.5033C232.047 93.5229 231.892 94.9361 231.892 96.743Z" fill="#000912"/>
<path d="M222.867 92.4849C222.783 92.2784 222.86 92.13 223.099 92.0397C223.596 91.8525 224.067 91.5525 224.512 91.1395C224.958 90.7265 225.309 90.3586 225.567 90.036C225.754 89.8037 225.935 89.6875 226.109 89.6875H226.932C227.229 89.6875 227.377 89.8327 227.377 90.1231V103.191C227.377 103.481 227.232 103.626 226.942 103.626H226.109C225.819 103.626 225.674 103.481 225.674 103.191V92.5817C225.674 92.3881 225.68 92.1945 225.693 92.001H225.674C225.474 92.2526 225.18 92.5108 224.793 92.7753C224.406 93.0399 224.051 93.2335 223.728 93.3561C223.444 93.4658 223.257 93.4142 223.167 93.2012L222.867 92.4849Z" fill="#000912"/>
<path d="M211.892 103.625C211.537 103.625 211.359 103.48 211.359 103.19V102.725C211.359 102.473 211.466 102.241 211.679 102.028L215.473 98.2046C216.596 97.0753 217.332 96.2042 217.68 95.5911C218.035 94.9716 218.213 94.2585 218.213 93.4519C218.213 92.7743 218.013 92.2 217.612 91.7289C217.219 91.2578 216.619 91.0223 215.812 91.0223C215.089 91.0223 214.489 91.2062 214.012 91.574C213.534 91.9418 213.189 92.5581 212.976 93.4228C212.886 93.7907 212.695 93.9326 212.405 93.8488L211.65 93.6261C211.45 93.568 211.401 93.2938 211.505 92.8033C211.692 91.958 212.143 91.2094 212.86 90.5576C213.582 89.8994 214.541 89.5703 215.735 89.5703C217.251 89.5703 218.358 89.951 219.055 90.7125C219.758 91.474 220.11 92.4065 220.11 93.51C220.11 94.5876 219.819 95.5169 219.239 96.2977C218.664 97.0786 217.874 97.9562 216.867 98.9306L213.683 102.018V102.057C213.857 102.044 214.115 102.038 214.457 102.038H219.732C220.087 102.038 220.265 102.183 220.265 102.473V103.19C220.265 103.48 220.087 103.625 219.732 103.625H211.892Z" fill="#000912"/>
<path d="M198.961 103.631C198.541 103.631 198.483 103.418 198.787 102.992L203.433 96.4677L199.116 90.3889C198.812 89.963 198.871 89.75 199.29 89.75H200.481C200.765 89.75 200.99 89.8758 201.158 90.1275L204.556 95.1803L207.953 90.1275C208.121 89.8758 208.347 89.75 208.631 89.75H209.822C210.241 89.75 210.299 89.963 209.996 90.3889L205.679 96.4677L210.325 102.992C210.628 103.418 210.57 103.631 210.151 103.631H208.95C208.666 103.631 208.441 103.505 208.273 103.253L204.556 97.7551L200.839 103.253C200.671 103.505 200.445 103.631 200.161 103.631H198.961Z" fill="#000912"/>
<path d="M183.355 103.631C183.032 103.631 182.871 103.453 182.871 103.098V90.2824C182.871 89.9275 183.032 89.75 183.355 89.75H185.417C185.662 89.75 185.846 89.9436 185.969 90.3308L188.737 99.0135C189.021 99.904 189.189 100.443 189.24 100.63C189.292 100.811 189.366 101.146 189.463 101.637H189.521C189.618 101.146 189.692 100.811 189.744 100.63C189.795 100.443 189.963 99.904 190.247 99.0135L193.015 90.3308C193.138 89.9436 193.322 89.75 193.567 89.75H195.629C195.952 89.75 196.113 89.9275 196.113 90.2824V103.098C196.113 103.453 195.952 103.631 195.629 103.631H194.738C194.416 103.631 194.254 103.453 194.254 103.098V92.9443C194.254 92.6862 194.261 92.4281 194.274 92.1699H194.235L190.663 103.04C190.534 103.434 190.321 103.631 190.024 103.631H188.96C188.663 103.631 188.45 103.434 188.321 103.04L184.749 92.1699H184.71C184.723 92.4281 184.73 92.6862 184.73 92.9443V103.098C184.73 103.453 184.568 103.631 184.246 103.631H183.355Z" fill="#000912"/>
<path d="M532.328 56.3516H428.217V395.001H532.328V56.3516Z" fill="#ECECEC" stroke="#313131" stroke-width="0.968945" stroke-miterlimit="10"/>
<path d="M524.467 155.613H519.203V113.367H524.467V155.613Z" fill="#313131"/>
<path d="M524.467 378.256H519.203V167.711H524.467V378.256Z" fill="#313131"/>
<path d="M524.467 120.066H519.203V113.367H524.467V120.066Z" fill="#3AB992"/>
<path d="M524.467 133.33H519.203V126.836H524.467V133.33Z" fill="#3AB992"/>
<path d="M524.467 174.135H519.203V167.641H524.467V174.135Z" fill="#3AB992"/>
<path d="M524.467 213.791H519.203V207.297H524.467V213.791Z" fill="#3AB992"/>
<path d="M524.467 240.65H519.203V234.156H524.467V240.65Z" fill="#3AB992"/>
<path d="M478.136 74.4668C478.205 73.7832 478.41 73.2363 478.957 72.6894C479.435 72.1425 480.051 71.8691 480.803 71.8691C481.555 71.8691 482.17 72.1426 482.58 72.6211C482.99 73.0996 483.195 73.7148 483.263 74.3984L478.136 74.4668ZM480.871 70.5703C479.504 70.5703 478.41 71.0488 477.59 72.0058C476.769 72.9629 476.359 74.1933 476.359 75.8339C476.359 77.4745 476.769 78.7734 477.59 79.662C478.41 80.6191 479.572 81.0976 481.076 81.0976C481.623 81.0976 482.101 81.0292 482.648 80.8925C483.195 80.7558 483.742 80.5507 484.357 80.3456V78.705C483.742 79.0468 483.127 79.3202 482.58 79.457C482.033 79.662 481.555 79.7304 481.008 79.7304C479.982 79.7304 479.23 79.3886 478.752 78.7734C478.205 78.1581 477.932 77.2011 478 75.8339V75.7656H484.767V75.0136C484.699 73.7832 484.357 72.7578 483.674 71.8691C483.058 70.9805 482.033 70.5703 480.871 70.5703Z" fill="#090F15"/>
<path d="M490.377 71.9395C490.924 71.9395 491.402 72.0078 491.812 72.2129C492.222 72.418 492.633 72.623 493.043 73.1015V71.3926C492.564 71.1191 492.154 70.9824 491.676 70.8457C491.266 70.709 490.787 70.6406 490.308 70.6406C488.873 70.6406 487.642 71.1191 486.822 72.0762C486.002 73.0332 485.592 74.2637 485.592 75.9043C485.592 77.5449 486.002 78.8437 486.822 79.7324C487.642 80.6894 488.805 81.1679 490.308 81.1679C490.787 81.1679 491.266 81.0995 491.676 80.9628C492.154 80.8261 492.564 80.621 492.974 80.416V78.6386C492.633 78.9804 492.223 79.2539 491.744 79.4589C491.334 79.664 490.787 79.7324 490.308 79.7324C489.283 79.7324 488.531 79.3906 488.052 78.7753C487.642 78.0918 487.437 77.1347 487.437 75.9043C487.437 74.6738 487.711 73.7168 488.258 73.0332C488.6 72.3496 489.352 71.9395 490.377 71.9395Z" fill="#090F15"/>
<path d="M461.787 73.375L458.437 68.4531H455.156V71.1191H457.412L460.42 75.4941L457.412 79.7323H455.156V82.4667H458.437L461.787 77.4765L463.222 75.4941L461.787 73.375Z" fill="#009C92"/>
<path d="M465.142 68.4531L463.297 71.1191L462.34 72.623L463.775 74.7421L466.236 71.1191H468.355L468.424 68.4531" fill="#EC1D7D"/>
<path d="M443.066 76.1074C443.066 77.2011 442.861 78.0898 442.314 78.705C441.836 79.3202 441.152 79.662 440.264 79.662C439.648 79.662 439.17 79.4569 438.828 79.1835C438.486 78.8417 438.281 78.3632 438.281 77.748C438.281 77.0644 438.486 76.5859 438.965 76.2441C439.443 75.9023 440.127 75.7656 441.016 75.7656H441.631H443.066V76.1074ZM444.023 72.0058C443.682 71.5273 443.203 71.1172 442.656 70.9121C442.041 70.6387 441.426 70.5703 440.605 70.5703C440.059 70.5703 439.58 70.6387 439.102 70.7754C438.555 70.9121 438.008 71.1172 437.461 71.3222V72.9629C438.008 72.6211 438.486 72.416 439.033 72.2793C439.58 72.0742 440.127 72.0058 440.674 72.0058C441.494 72.0058 442.11 72.2109 442.52 72.5527C442.861 72.8945 443.135 73.5097 443.135 74.2617V74.5351H441.016C439.58 74.5351 438.623 74.8769 437.871 75.4238C437.187 75.9706 436.846 76.791 436.846 77.9531C436.846 78.9101 437.119 79.662 437.735 80.2773C438.35 80.8241 439.102 81.1659 440.059 81.1659C440.742 81.1659 441.426 81.0292 441.904 80.7558C442.451 80.414 442.861 80.0038 443.203 79.457V81.2343H444.775V75.2187C444.775 74.33 444.775 73.7148 444.639 73.2363C444.502 72.6211 444.297 72.3476 444.023 72.0058Z" fill="#090F15"/>
<path d="M453.656 71.1191H451.81L447.641 75.289V68.4531H446.068V81.0995H447.641V77.1347L448.803 76.041L452.289 81.0995H454.271L449.897 74.9472L453.656 71.1191Z" fill="#090F15"/>
<path d="M473.347 79.3905C473.074 79.0488 472.938 78.5702 472.938 77.8866V72.4179H476.492V71.1191H472.938V68.4531H471.365V71.1191H468.768V72.4179H471.365V77.8866C471.365 79.1171 471.57 79.9374 472.049 80.4843C472.527 80.9628 473.348 81.2362 474.578 81.2362H476.492V79.9374H474.715C474.031 79.8007 473.621 79.664 473.347 79.3905Z" fill="#090F15"/>
<path d="M532.328 104.602H509.086V386.377H532.328" stroke="#313131" stroke-width="0.968945" stroke-miterlimit="10"/>
<path d="M498.56 375.109H434.918V386.389H498.56V375.109Z" stroke="#313131" stroke-width="0.968945" stroke-miterlimit="10"/>
<path d="M497.656 113.898H496.426V117.043H497.656V113.898Z" fill="#313131"/>
<path d="M497.049 122.984C494.656 122.984 492.742 121.07 492.742 118.678C492.742 117.242 493.426 115.943 494.588 115.123L495.34 116.148C494.519 116.695 494.041 117.652 494.041 118.678C494.041 120.387 495.408 121.754 497.117 121.754C498.826 121.754 500.193 120.387 500.193 118.678C500.193 117.652 499.646 116.695 498.826 116.08L499.51 115.055C500.74 115.875 501.492 117.242 501.492 118.678C501.355 121.002 499.441 122.984 497.049 122.984Z" fill="#313131"/>
<path d="M495.896 169.146C495.828 169.01 495.896 168.941 496.033 168.873C496.17 168.805 496.375 168.736 496.511 168.6C496.648 168.463 496.785 168.326 496.921 168.189C497.058 168.053 497.126 167.984 497.263 167.984H497.879C498.015 167.984 498.152 168.053 498.152 168.189V173.385C498.152 173.521 498.083 173.59 497.947 173.59H497.332C497.195 173.59 497.127 173.521 497.127 173.385V169.625C497.127 169.488 497.127 169.42 497.127 169.283C497.058 169.352 496.99 169.488 496.853 169.557C496.785 169.625 496.648 169.693 496.58 169.762C496.443 169.83 496.375 169.762 496.306 169.693L495.896 169.146Z" fill="#313131"/>
<path d="M495.275 186.992C495.07 186.992 495.002 186.924 495.002 186.719V186.514C495.002 186.377 495.07 186.24 495.207 186.103L496.369 184.873C496.711 184.531 497.053 184.189 497.326 183.848C497.6 183.506 497.736 183.232 497.736 182.959C497.736 182.686 497.668 182.412 497.531 182.275C497.395 182.139 497.189 182.07 496.984 182.07C496.642 182.07 496.369 182.139 496.232 182.344C496.096 182.549 495.959 182.686 495.959 182.891C495.891 183.096 495.822 183.164 495.617 183.096L495.207 182.959C495.07 182.891 495.07 182.822 495.07 182.617C495.139 182.275 495.412 181.934 495.686 181.66C495.959 181.387 496.437 181.25 497.053 181.25C497.668 181.25 498.147 181.387 498.488 181.728C498.762 182.07 498.899 182.412 498.899 182.822C498.899 183.301 498.693 183.779 498.283 184.189C497.873 184.6 497.463 184.941 497.121 185.283L496.438 185.967C496.574 185.967 496.711 185.967 496.848 185.967H498.693C498.898 185.967 498.967 186.035 498.967 186.24V186.719C498.967 186.855 498.898 186.992 498.693 186.992H495.275Z" fill="#313131"/>
<path d="M495.896 128.178C495.828 128.041 495.896 127.973 496.033 127.904C496.17 127.836 496.375 127.768 496.511 127.631C496.648 127.494 496.785 127.357 496.921 127.221C497.058 127.084 497.126 127.016 497.263 127.016H497.879C498.015 127.016 498.152 127.084 498.152 127.221V132.416C498.152 132.553 498.083 132.621 497.947 132.621H497.332C497.195 132.621 497.127 132.553 497.127 132.416V128.656C497.127 128.52 497.127 128.451 497.127 128.314C497.058 128.383 496.99 128.52 496.853 128.588C496.785 128.656 496.648 128.725 496.58 128.793C496.443 128.861 496.375 128.793 496.306 128.725L495.896 128.178Z" fill="#313131"/>
<path d="M495.275 142.031C495.07 142.031 495.002 141.963 495.002 141.758V141.553C495.002 141.416 495.07 141.279 495.207 141.143L496.369 139.912C496.711 139.57 497.053 139.228 497.326 138.887C497.6 138.545 497.736 138.271 497.736 137.998C497.736 137.725 497.668 137.451 497.531 137.314C497.395 137.178 497.189 137.109 496.984 137.109C496.642 137.109 496.369 137.178 496.232 137.383C496.096 137.588 495.959 137.725 495.959 137.93C495.891 138.135 495.822 138.203 495.617 138.135L495.207 137.998C495.07 137.93 495.07 137.861 495.07 137.656C495.139 137.314 495.412 136.973 495.686 136.699C495.959 136.426 496.437 136.289 497.053 136.289C497.668 136.289 498.147 136.426 498.488 136.768C498.762 137.109 498.899 137.451 498.899 137.861C498.899 138.34 498.693 138.818 498.283 139.228C497.873 139.639 497.463 139.98 497.121 140.322L496.438 141.006C496.574 141.006 496.711 141.006 496.848 141.006H498.693C498.898 141.006 498.967 141.074 498.967 141.279V141.758C498.967 141.894 498.898 142.031 498.693 142.031H495.275Z" fill="#313131"/>
<path d="M495.143 199.836C495.075 199.768 495.007 199.631 495.143 199.494L495.348 199.152C495.417 199.016 495.553 198.947 495.759 199.084C495.895 199.221 496.1 199.289 496.305 199.357C496.51 199.426 496.715 199.494 496.989 199.494C497.331 199.494 497.604 199.426 497.741 199.221C497.878 199.016 497.946 198.811 497.946 198.605C497.946 198.4 497.878 198.127 497.672 197.99C497.467 197.785 497.262 197.717 496.92 197.717H496.647C496.51 197.717 496.374 197.648 496.374 197.512V197.102C496.374 196.965 496.442 196.896 496.647 196.896H496.852C497.126 196.896 497.331 196.828 497.468 196.691C497.673 196.555 497.741 196.35 497.741 196.145C497.741 195.939 497.673 195.803 497.536 195.734C497.399 195.598 497.194 195.529 496.92 195.529C496.647 195.529 496.442 195.598 496.237 195.666C496.032 195.734 495.895 195.803 495.759 195.939C495.622 196.076 495.485 196.076 495.348 195.939L495.143 195.598C495.075 195.461 495.075 195.324 495.211 195.187C495.417 194.982 495.622 194.846 495.963 194.777C496.237 194.709 496.579 194.641 496.852 194.641C497.536 194.641 498.014 194.777 498.356 195.051C498.698 195.324 498.835 195.666 498.835 196.008C498.835 196.281 498.698 196.555 498.493 196.828C498.288 197.033 498.014 197.238 497.809 197.307C498.083 197.375 498.424 197.512 498.629 197.785C498.903 198.059 499.04 198.332 499.04 198.674C499.04 199.221 498.835 199.699 498.493 199.973C498.151 200.246 497.604 200.451 496.852 200.451C496.511 200.451 496.237 200.383 495.895 200.314C495.622 200.109 495.348 199.973 495.143 199.836Z" fill="#313131"/>
<path d="M495.139 212.342C495.002 212.342 494.865 212.273 494.865 212.068V211.59C494.865 211.453 494.934 211.316 495.002 211.18L497.19 208.104C497.258 207.967 497.395 207.898 497.531 207.898H498.078C498.283 207.898 498.352 207.967 498.352 208.172V211.385H498.83C498.967 211.385 499.104 211.453 499.104 211.658V212.137C499.104 212.273 499.035 212.41 498.83 212.41H498.352V213.367C498.352 213.504 498.283 213.641 498.078 213.641H497.463C497.326 213.641 497.19 213.572 497.19 213.367V212.41H495.139V212.342ZM495.959 211.385H497.258V209.881C497.258 209.744 497.258 209.676 497.258 209.539L495.959 211.385Z" fill="#313131"/>
<path d="M495.143 226.436C495.074 226.299 495.074 226.23 495.074 226.162L495.348 225.752C495.484 225.615 495.621 225.615 495.758 225.752C495.826 225.82 496.031 225.889 496.168 225.957C496.373 226.025 496.578 226.094 496.783 226.094C497.057 226.094 497.33 226.025 497.535 225.82C497.74 225.684 497.877 225.41 497.877 225.068C497.877 224.795 497.808 224.521 497.672 224.316C497.535 224.111 497.398 224.043 497.262 224.043C497.125 224.043 496.988 224.043 496.852 224.111C496.715 224.111 496.647 224.18 496.51 224.316C496.441 224.385 496.305 224.453 496.1 224.453H495.553C495.347 224.453 495.211 224.385 495.211 224.18V221.445C495.211 221.309 495.279 221.172 495.484 221.172H498.287C498.424 221.172 498.561 221.24 498.561 221.445V221.924C498.561 222.061 498.492 222.197 498.287 222.197H496.305V223.154C496.305 223.291 496.305 223.359 496.305 223.496C496.441 223.359 496.578 223.291 496.783 223.223C496.92 223.154 497.125 223.154 497.33 223.154C497.808 223.154 498.15 223.291 498.492 223.633C498.834 223.975 498.97 224.453 498.97 225.068C498.97 225.684 498.765 226.162 498.355 226.436C497.945 226.777 497.467 226.914 496.92 226.914C496.441 226.914 496.031 226.846 495.689 226.777C495.484 226.709 495.211 226.572 495.143 226.436Z" fill="#313131"/>
<path d="M494.938 237.582C494.938 236.42 495.143 235.6 495.553 235.121C495.963 234.711 496.51 234.438 497.125 234.438C497.399 234.438 497.604 234.506 497.877 234.574C498.151 234.643 498.287 234.711 498.424 234.848C498.561 234.984 498.561 235.053 498.492 235.189L498.219 235.6C498.151 235.736 498.014 235.736 497.877 235.6C497.809 235.531 497.672 235.463 497.535 235.463C497.399 235.395 497.193 235.394 497.057 235.394C496.783 235.394 496.51 235.531 496.305 235.805C496.1 236.078 495.963 236.488 495.963 237.103C496.1 236.898 496.236 236.83 496.442 236.693C496.647 236.625 496.92 236.557 497.194 236.557C497.74 236.557 498.15 236.762 498.424 237.103C498.697 237.445 498.834 237.924 498.834 238.471C498.834 239.018 498.697 239.496 498.355 239.838C498.014 240.18 497.535 240.385 496.852 240.385C496.168 240.385 495.621 240.111 495.279 239.633C495.143 239.154 494.938 238.471 494.938 237.582ZM496.236 238.471C496.236 238.812 496.305 239.018 496.442 239.223C496.578 239.428 496.783 239.496 496.988 239.496C497.262 239.496 497.467 239.428 497.603 239.291C497.74 239.154 497.809 238.881 497.809 238.471C497.809 238.129 497.74 237.855 497.603 237.719C497.467 237.582 497.262 237.514 497.057 237.514C496.783 237.514 496.578 237.65 496.442 237.855C496.305 238.061 496.236 238.197 496.236 238.471Z" fill="#313131"/>
<path d="M495.348 248.916C495.211 248.916 495.074 248.848 495.074 248.643V248.164C495.074 248.027 495.143 247.891 495.348 247.891H498.561C498.697 247.891 498.834 247.959 498.834 248.164V248.574C498.834 248.711 498.765 248.848 498.629 248.984C498.082 249.6 497.74 250.215 497.535 250.83C497.33 251.445 497.193 252.129 497.193 253.018V253.291C497.193 253.428 497.125 253.564 496.92 253.564H496.305C496.168 253.564 496.031 253.496 496.031 253.291V253.154C496.031 252.197 496.168 251.445 496.51 250.762C496.852 250.146 497.262 249.463 497.74 248.848C497.603 248.848 497.535 248.848 497.398 248.848H495.348V248.916Z" fill="#313131"/>
<path d="M494.938 265.326C494.938 264.848 495.074 264.506 495.348 264.301C495.621 264.027 495.895 263.891 496.031 263.822C495.826 263.754 495.621 263.617 495.348 263.412C495.074 263.207 495.006 262.934 495.006 262.592C495.006 262.182 495.143 261.84 495.485 261.566C495.826 261.293 496.237 261.156 496.852 261.156C497.399 261.156 497.877 261.293 498.219 261.566C498.561 261.84 498.697 262.182 498.697 262.592C498.697 262.934 498.561 263.207 498.355 263.412C498.15 263.617 497.945 263.754 497.672 263.822C497.877 263.891 498.082 264.027 498.355 264.301C498.629 264.574 498.766 264.916 498.766 265.326C498.766 265.805 498.629 266.215 498.287 266.488C497.945 266.762 497.467 266.967 496.715 266.967C496.031 266.967 495.485 266.83 495.143 266.488C495.143 266.215 494.938 265.805 494.938 265.326ZM496.168 265.189C496.168 265.463 496.236 265.736 496.373 265.873C496.51 266.01 496.715 266.078 496.988 266.078C497.262 266.078 497.535 266.01 497.603 265.873C497.74 265.736 497.809 265.531 497.809 265.189C497.809 264.984 497.74 264.779 497.603 264.574C497.467 264.369 497.262 264.301 496.988 264.301C496.715 264.301 496.51 264.369 496.373 264.574C496.236 264.779 496.168 264.984 496.168 265.189ZM496.236 262.66C496.236 262.865 496.305 263.002 496.442 263.139C496.578 263.275 496.715 263.344 496.988 263.344C497.193 263.344 497.399 263.275 497.535 263.139C497.672 263.002 497.74 262.865 497.74 262.66C497.74 262.455 497.672 262.318 497.535 262.182C497.399 262.045 497.262 261.977 496.988 261.977C496.715 261.977 496.578 262.045 496.442 262.182C496.305 262.318 496.236 262.455 496.236 262.66Z" fill="#313131"/>
<path d="M502.53 154.506L497.677 146.918C497.54 146.645 497.335 146.508 496.993 146.508C496.72 146.508 496.446 146.645 496.309 146.85L491.593 154.506C491.456 154.711 491.456 154.984 491.593 155.258C491.729 155.463 491.935 155.6 492.208 155.6H501.778C502.052 155.6 502.257 155.463 502.393 155.258C502.667 155.053 502.667 154.779 502.53 154.506ZM501.71 154.779H492.413L496.993 147.396L501.71 154.779Z" fill="#313131"/>
<path d="M496.572 149.791C496.572 149.654 496.641 149.586 496.778 149.586H497.256C497.393 149.586 497.461 149.654 497.461 149.791L497.393 152.457C497.393 152.594 497.324 152.662 497.188 152.662H496.846C496.709 152.662 496.641 152.594 496.641 152.457L496.572 149.791ZM496.778 153.961C496.641 153.961 496.572 153.893 496.572 153.756V153.346C496.572 153.209 496.641 153.141 496.778 153.141H497.256C497.393 153.141 497.461 153.209 497.461 153.346V153.756C497.461 153.893 497.393 153.961 497.256 153.961H496.778Z" fill="#313131"/>
<path d="M484.293 96.743C484.293 94.4844 484.603 92.7259 485.222 91.4675C485.842 90.2027 487.023 89.5703 488.765 89.5703C490.507 89.5703 491.688 90.2027 492.308 91.4675C492.927 92.7259 493.237 94.4844 493.237 96.743C493.237 99.0016 492.927 100.763 492.308 102.028C491.688 103.286 490.507 103.916 488.765 103.916C487.023 103.916 485.842 103.286 485.222 102.028C484.603 100.763 484.293 99.0016 484.293 96.743ZM486.093 96.743C486.093 98.5499 486.248 99.9663 486.558 100.992C486.868 102.012 487.603 102.522 488.765 102.522C489.927 102.522 490.662 102.012 490.972 100.992C491.282 99.9663 491.437 98.5499 491.437 96.743C491.437 94.9361 491.282 93.5229 490.972 92.5033C490.662 91.4772 489.927 90.9642 488.765 90.9642C487.603 90.9642 486.868 91.4772 486.558 92.5033C486.248 93.5229 486.093 94.9361 486.093 96.743Z" fill="#000912"/>
<path d="M477.068 92.4849C476.984 92.2784 477.061 92.13 477.3 92.0397C477.797 91.8525 478.268 91.5525 478.713 91.1395C479.159 90.7265 479.51 90.3586 479.769 90.036C479.956 89.8037 480.136 89.6875 480.311 89.6875H481.133C481.43 89.6875 481.579 89.8327 481.579 90.1231V103.191C481.579 103.481 481.433 103.626 481.143 103.626H480.311C480.02 103.626 479.875 103.481 479.875 103.191V92.5817C479.875 92.3881 479.881 92.1945 479.894 92.001H479.875C479.675 92.2526 479.381 92.5108 478.994 92.7753C478.607 93.0399 478.252 93.2335 477.929 93.3561C477.645 93.4658 477.458 93.4142 477.368 93.2012L477.068 92.4849Z" fill="#000912"/>
<path d="M466.093 103.625C465.738 103.625 465.561 103.48 465.561 103.19V102.725C465.561 102.473 465.667 102.241 465.88 102.028L469.674 98.2046C470.797 97.0753 471.533 96.2042 471.881 95.5911C472.236 94.9716 472.414 94.2585 472.414 93.4519C472.414 92.7743 472.214 92.2 471.814 91.7289C471.42 91.2578 470.82 91.0223 470.013 91.0223C469.29 91.0223 468.69 91.2062 468.213 91.574C467.735 91.9418 467.39 92.5581 467.177 93.4228C467.087 93.7907 466.896 93.9326 466.606 93.8488L465.851 93.6261C465.651 93.568 465.602 93.2938 465.706 92.8033C465.893 91.958 466.345 91.2094 467.061 90.5576C467.784 89.8994 468.742 89.5703 469.936 89.5703C471.452 89.5703 472.559 89.951 473.256 90.7125C473.959 91.474 474.311 92.4065 474.311 93.51C474.311 94.5876 474.021 95.5169 473.44 96.2977C472.866 97.0786 472.075 97.9562 471.068 98.9306L467.884 102.018V102.057C468.058 102.044 468.316 102.038 468.658 102.038H473.934C474.288 102.038 474.466 102.183 474.466 102.473V103.19C474.466 103.48 474.288 103.625 473.934 103.625H466.093Z" fill="#000912"/>
<path d="M453.162 103.631C452.743 103.631 452.684 103.418 452.988 102.992L457.634 96.4677L453.317 90.3889C453.014 89.963 453.072 89.75 453.491 89.75H454.682C454.966 89.75 455.192 89.8758 455.359 90.1275L458.757 95.1803L462.154 90.1275C462.322 89.8758 462.548 89.75 462.832 89.75H464.023C464.442 89.75 464.5 89.963 464.197 90.3889L459.88 96.4677L464.526 102.992C464.829 103.418 464.771 103.631 464.352 103.631H463.152C462.868 103.631 462.642 103.505 462.474 103.253L458.757 97.7551L455.04 103.253C454.872 103.505 454.646 103.631 454.362 103.631H453.162Z" fill="#000912"/>
<path d="M437.556 103.631C437.234 103.631 437.072 103.453 437.072 103.098V90.2824C437.072 89.9275 437.234 89.75 437.556 89.75H439.618C439.863 89.75 440.047 89.9436 440.17 90.3308L442.938 99.0135C443.222 99.904 443.39 100.443 443.442 100.63C443.493 100.811 443.567 101.146 443.664 101.637H443.722C443.819 101.146 443.893 100.811 443.945 100.63C443.996 100.443 444.164 99.904 444.448 99.0135L447.217 90.3308C447.339 89.9436 447.523 89.75 447.768 89.75H449.83C450.153 89.75 450.314 89.9275 450.314 90.2824V103.098C450.314 103.453 450.153 103.631 449.83 103.631H448.94C448.617 103.631 448.456 103.453 448.456 103.098V92.9443C448.456 92.6862 448.462 92.4281 448.475 92.1699H448.436L444.864 103.04C444.735 103.434 444.522 103.631 444.226 103.631H443.161C442.864 103.631 442.651 103.434 442.522 103.04L438.95 92.1699H438.911C438.924 92.4281 438.931 92.6862 438.931 92.9443V103.098C438.931 103.453 438.769 103.631 438.447 103.631H437.556Z" fill="#000912"/>
<path d="M405.228 56.3516H301.117V395.001H405.228V56.3516Z" fill="#9D9D9D" stroke="#313131" stroke-width="0.968945" stroke-miterlimit="10"/>
<path d="M397.367 155.613H392.104V113.367H397.367V155.613Z" fill="#313131"/>
<path d="M397.367 378.256H392.104V167.711H397.367V378.256Z" fill="#313131"/>
<path d="M397.367 120.066H392.104V113.367H397.367V120.066Z" fill="#313131"/>
<path d="M397.367 155.689H392.104V149.195H397.367V155.689Z" fill="#FF007D"/>
<path d="M397.367 174.135H392.104V167.641H397.367V174.135Z" fill="#313131"/>
<path d="M397.367 213.791H392.104V207.297H397.367V213.791Z" fill="#313131"/>
<path d="M397.367 240.65H392.104V234.156H397.367V240.65Z" fill="#313131"/>
<path d="M351.037 74.4668C351.105 73.7832 351.31 73.2363 351.857 72.6894C352.336 72.1425 352.951 71.8691 353.703 71.8691C354.455 71.8691 355.07 72.1426 355.48 72.6211C355.89 73.0996 356.095 73.7148 356.164 74.3984L351.037 74.4668ZM353.771 70.5703C352.404 70.5703 351.31 71.0488 350.49 72.0058C349.67 72.9629 349.26 74.1933 349.26 75.8339C349.26 77.4745 349.67 78.7734 350.49 79.662C351.31 80.6191 352.473 81.0976 353.976 81.0976C354.523 81.0976 355.002 81.0292 355.549 80.8925C356.095 80.7558 356.642 80.5507 357.258 80.3456V78.705C356.642 79.0468 356.027 79.3202 355.48 79.457C354.933 79.662 354.455 79.7304 353.908 79.7304C352.883 79.7304 352.131 79.3886 351.652 78.7734C351.105 78.1581 350.832 77.2011 350.9 75.8339V75.7656H357.668V75.0136C357.599 73.7832 357.258 72.7578 356.574 71.8691C355.959 70.9805 354.933 70.5703 353.771 70.5703Z" fill="#090F15"/>
<path d="M363.277 71.9395C363.824 71.9395 364.302 72.0078 364.713 72.2129C365.123 72.418 365.533 72.623 365.943 73.1015V71.3926C365.465 71.1191 365.055 70.9824 364.576 70.8457C364.166 70.709 363.687 70.6406 363.209 70.6406C361.773 70.6406 360.543 71.1191 359.723 72.0762C358.902 73.0332 358.492 74.2637 358.492 75.9043C358.492 77.5449 358.902 78.8437 359.723 79.7324C360.543 80.6894 361.705 81.1679 363.209 81.1679C363.687 81.1679 364.166 81.0995 364.576 80.9628C365.055 80.8261 365.465 80.621 365.875 80.416V78.6386C365.533 78.9804 365.123 79.2539 364.644 79.4589C364.234 79.664 363.687 79.7324 363.209 79.7324C362.184 79.7324 361.431 79.3906 360.953 78.7753C360.543 78.0918 360.338 77.1347 360.338 75.9043C360.338 74.6738 360.611 73.7168 361.158 73.0332C361.5 72.3496 362.252 71.9395 363.277 71.9395Z" fill="#090F15"/>
<path d="M334.687 73.375L331.338 68.4531H328.057V71.1191H330.312L333.32 75.4941L330.312 79.7323H328.057V82.4667H331.338L334.687 77.4765L336.123 75.4941L334.687 73.375Z" fill="#009C92"/>
<path d="M338.043 68.4531L336.197 71.1191L335.24 72.623L336.676 74.7421L339.136 71.1191H341.256L341.324 68.4531" fill="#EC1D7D"/>
<path d="M315.967 76.1074C315.967 77.2011 315.762 78.0898 315.215 78.705C314.736 79.3202 314.053 79.662 313.164 79.662C312.549 79.662 312.07 79.4569 311.728 79.1835C311.387 78.8417 311.182 78.3632 311.182 77.748C311.182 77.0644 311.387 76.5859 311.865 76.2441C312.344 75.9023 313.027 75.7656 313.916 75.7656H314.531H315.967V76.1074ZM316.924 72.0058C316.582 71.5273 316.103 71.1172 315.557 70.9121C314.941 70.6387 314.326 70.5703 313.506 70.5703C312.959 70.5703 312.481 70.6387 312.002 70.7754C311.455 70.9121 310.908 71.1172 310.361 71.3222V72.9629C310.908 72.6211 311.387 72.416 311.934 72.2793C312.481 72.0742 313.027 72.0058 313.574 72.0058C314.395 72.0058 315.01 72.2109 315.42 72.5527C315.762 72.8945 316.035 73.5097 316.035 74.2617V74.5351H313.916C312.481 74.5351 311.523 74.8769 310.771 75.4238C310.088 75.9706 309.746 76.791 309.746 77.9531C309.746 78.9101 310.02 79.662 310.635 80.2773C311.25 80.8241 312.002 81.1659 312.959 81.1659C313.643 81.1659 314.326 81.0292 314.805 80.7558C315.351 80.414 315.762 80.0038 316.104 79.457V81.2343H317.676V75.2187C317.676 74.33 317.676 73.7148 317.539 73.2363C317.402 72.6211 317.197 72.3476 316.924 72.0058Z" fill="#090F15"/>
<path d="M326.557 71.1191H324.711L320.541 75.289V68.4531H318.969V81.0995H320.541V77.1347L321.703 76.041L325.189 81.0995H327.172L322.797 74.9472L326.557 71.1191Z" fill="#090F15"/>
<path d="M346.248 79.3905C345.974 79.0488 345.838 78.5702 345.838 77.8866V72.4179H349.392V71.1191H345.838V68.4531H344.265V71.1191H341.668V72.4179H344.265V77.8866C344.265 79.1171 344.471 79.9374 344.949 80.4843C345.428 80.9628 346.248 81.2362 347.478 81.2362H349.392V79.9374H347.615C346.931 79.8007 346.521 79.664 346.248 79.3905Z" fill="#090F15"/>
<path d="M405.228 104.602H381.986V386.377H405.228" stroke="#313131" stroke-width="0.968945" stroke-miterlimit="10"/>
<path d="M371.461 375.109H307.818V386.389H371.461V375.109Z" stroke="#313131" stroke-width="0.968945" stroke-miterlimit="10"/>
<path d="M370.556 113.898H369.326V117.043H370.556V113.898Z" fill="#313131"/>
<path d="M369.949 122.984C367.556 122.984 365.643 121.07 365.643 118.678C365.643 117.242 366.326 115.943 367.488 115.123L368.24 116.148C367.42 116.695 366.941 117.652 366.941 118.678C366.941 120.387 368.309 121.754 370.017 121.754C371.726 121.754 373.094 120.387 373.094 118.678C373.094 117.652 372.547 116.695 371.726 116.08L372.41 115.055C373.641 115.875 374.392 117.242 374.392 118.678C374.256 121.002 372.342 122.984 369.949 122.984Z" fill="#313131"/>
<path d="M368.794 169.146C368.726 169.01 368.795 168.941 368.931 168.873C369.068 168.805 369.273 168.736 369.41 168.6C369.547 168.463 369.683 168.326 369.82 168.189C369.956 168.053 370.025 167.984 370.162 167.984H370.777C370.914 167.984 371.05 168.053 371.05 168.189V173.385C371.05 173.521 370.982 173.59 370.845 173.59H370.23C370.093 173.59 370.025 173.521 370.025 173.385V169.625C370.025 169.488 370.025 169.42 370.025 169.283C369.957 169.352 369.888 169.488 369.752 169.557C369.683 169.625 369.546 169.693 369.478 169.762C369.341 169.83 369.273 169.762 369.205 169.693L368.794 169.146Z" fill="#313131"/>
<path d="M368.176 186.992C367.971 186.992 367.902 186.924 367.902 186.719V186.514C367.902 186.377 367.971 186.24 368.107 186.103L369.27 184.873C369.611 184.531 369.953 184.189 370.226 183.848C370.5 183.506 370.637 183.232 370.637 182.959C370.637 182.686 370.568 182.412 370.432 182.275C370.295 182.139 370.09 182.07 369.885 182.07C369.543 182.07 369.269 182.139 369.133 182.344C368.996 182.549 368.859 182.686 368.859 182.891C368.791 183.096 368.723 183.164 368.518 183.096L368.107 182.959C367.971 182.891 367.971 182.822 367.971 182.617C368.039 182.275 368.312 181.934 368.586 181.66C368.859 181.387 369.338 181.25 369.953 181.25C370.568 181.25 371.047 181.387 371.389 181.728C371.662 182.07 371.799 182.412 371.799 182.822C371.799 183.301 371.594 183.779 371.183 184.189C370.773 184.6 370.363 184.941 370.022 185.283L369.338 185.967C369.475 185.967 369.611 185.967 369.748 185.967H371.594C371.799 185.967 371.867 186.035 371.867 186.24V186.719C371.867 186.855 371.799 186.992 371.594 186.992H368.176Z" fill="#313131"/>
<path d="M368.794 128.178C368.726 128.041 368.795 127.973 368.931 127.904C369.068 127.836 369.273 127.768 369.41 127.631C369.547 127.494 369.683 127.357 369.82 127.221C369.956 127.084 370.025 127.016 370.162 127.016H370.777C370.914 127.016 371.05 127.084 371.05 127.221V132.416C371.05 132.553 370.982 132.621 370.845 132.621H370.23C370.093 132.621 370.025 132.553 370.025 132.416V128.656C370.025 128.52 370.025 128.451 370.025 128.314C369.957 128.383 369.888 128.52 369.752 128.588C369.683 128.656 369.546 128.725 369.478 128.793C369.341 128.861 369.273 128.793 369.205 128.725L368.794 128.178Z" fill="#313131"/>
<path d="M368.176 142.031C367.971 142.031 367.902 141.963 367.902 141.758V141.553C367.902 141.416 367.971 141.279 368.107 141.143L369.27 139.912C369.611 139.57 369.953 139.228 370.226 138.887C370.5 138.545 370.637 138.271 370.637 137.998C370.637 137.725 370.568 137.451 370.432 137.314C370.295 137.178 370.09 137.109 369.885 137.109C369.543 137.109 369.269 137.178 369.133 137.383C368.996 137.588 368.859 137.725 368.859 137.93C368.791 138.135 368.723 138.203 368.518 138.135L368.107 137.998C367.971 137.93 367.971 137.861 367.971 137.656C368.039 137.314 368.312 136.973 368.586 136.699C368.859 136.426 369.338 136.289 369.953 136.289C370.568 136.289 371.047 136.426 371.389 136.768C371.662 137.109 371.799 137.451 371.799 137.861C371.799 138.34 371.594 138.818 371.183 139.228C370.773 139.639 370.363 139.98 370.022 140.322L369.338 141.006C369.475 141.006 369.611 141.006 369.748 141.006H371.594C371.799 141.006 371.867 141.074 371.867 141.279V141.758C371.867 141.894 371.799 142.031 371.594 142.031H368.176Z" fill="#313131"/>
<path d="M368.044 199.836C367.975 199.768 367.907 199.631 368.044 199.494L368.249 199.152C368.317 199.016 368.454 198.947 368.659 199.084C368.796 199.221 369.001 199.289 369.206 199.357C369.411 199.426 369.616 199.494 369.889 199.494C370.231 199.494 370.505 199.426 370.641 199.221C370.778 199.016 370.846 198.811 370.846 198.605C370.846 198.4 370.778 198.127 370.573 197.99C370.368 197.785 370.163 197.717 369.821 197.717H369.547C369.411 197.717 369.274 197.648 369.274 197.512V197.102C369.274 196.965 369.342 196.896 369.547 196.896H369.753C370.026 196.896 370.231 196.828 370.368 196.691C370.573 196.555 370.641 196.35 370.641 196.145C370.641 195.939 370.573 195.803 370.436 195.734C370.3 195.598 370.094 195.529 369.821 195.529C369.547 195.529 369.342 195.598 369.137 195.666C368.932 195.734 368.796 195.803 368.659 195.939C368.522 196.076 368.385 196.076 368.249 195.939L368.044 195.598C367.975 195.461 367.975 195.324 368.112 195.187C368.317 194.982 368.522 194.846 368.864 194.777C369.137 194.709 369.479 194.641 369.753 194.641C370.436 194.641 370.915 194.777 371.256 195.051C371.598 195.324 371.735 195.666 371.735 196.008C371.735 196.281 371.598 196.555 371.393 196.828C371.188 197.033 370.915 197.238 370.71 197.307C370.983 197.375 371.325 197.512 371.53 197.785C371.803 198.059 371.94 198.332 371.94 198.674C371.94 199.221 371.735 199.699 371.393 199.973C371.052 200.246 370.505 200.451 369.753 200.451C369.411 200.451 369.137 200.383 368.795 200.314C368.522 200.109 368.249 199.973 368.044 199.836Z" fill="#313131"/>
<path d="M368.039 212.342C367.903 212.342 367.766 212.273 367.766 212.068V211.59C367.766 211.453 367.834 211.316 367.902 211.18L370.09 208.104C370.158 207.967 370.295 207.898 370.432 207.898H370.979C371.184 207.898 371.252 207.967 371.252 208.172V211.385H371.731C371.867 211.385 372.004 211.453 372.004 211.658V212.137C372.004 212.273 371.936 212.41 371.731 212.41H371.252V213.367C371.252 213.504 371.184 213.641 370.979 213.641H370.363C370.227 213.641 370.09 213.572 370.09 213.367V212.41H368.039V212.342ZM368.859 211.385H370.158V209.881C370.158 209.744 370.158 209.676 370.158 209.539L368.859 211.385Z" fill="#313131"/>
<path d="M368.043 226.436C367.975 226.299 367.975 226.23 367.975 226.162L368.248 225.752C368.385 225.615 368.521 225.615 368.658 225.752C368.727 225.82 368.932 225.889 369.068 225.957C369.273 226.025 369.479 226.094 369.684 226.094C369.957 226.094 370.231 226.025 370.436 225.82C370.641 225.684 370.777 225.41 370.777 225.068C370.777 224.795 370.709 224.521 370.572 224.316C370.435 224.111 370.299 224.043 370.162 224.043C370.025 224.043 369.889 224.043 369.752 224.111C369.615 224.111 369.547 224.18 369.41 224.316C369.342 224.385 369.205 224.453 369 224.453H368.453C368.248 224.453 368.111 224.385 368.111 224.18V221.445C368.111 221.309 368.18 221.172 368.385 221.172H371.187C371.324 221.172 371.461 221.24 371.461 221.445V221.924C371.461 222.061 371.392 222.197 371.187 222.197H369.205V223.154C369.205 223.291 369.205 223.359 369.205 223.496C369.342 223.359 369.479 223.291 369.684 223.223C369.82 223.154 370.025 223.154 370.23 223.154C370.709 223.154 371.051 223.291 371.393 223.633C371.734 223.975 371.871 224.453 371.871 225.068C371.871 225.684 371.666 226.162 371.256 226.436C370.846 226.777 370.367 226.914 369.82 226.914C369.342 226.914 368.932 226.846 368.59 226.777C368.385 226.709 368.111 226.572 368.043 226.436Z" fill="#313131"/>
<path d="M367.838 237.582C367.838 236.42 368.043 235.6 368.453 235.121C368.863 234.711 369.41 234.438 370.026 234.438C370.299 234.438 370.504 234.506 370.778 234.574C371.051 234.643 371.188 234.711 371.324 234.848C371.461 234.984 371.461 235.053 371.393 235.189L371.119 235.6C371.051 235.736 370.914 235.736 370.778 235.6C370.709 235.531 370.572 235.463 370.436 235.463C370.299 235.395 370.094 235.394 369.957 235.394C369.684 235.394 369.41 235.531 369.205 235.805C369 236.078 368.863 236.488 368.863 237.103C369 236.898 369.137 236.83 369.342 236.693C369.547 236.625 369.82 236.557 370.094 236.557C370.641 236.557 371.051 236.762 371.324 237.103C371.598 237.445 371.734 237.924 371.734 238.471C371.734 239.018 371.598 239.496 371.256 239.838C370.914 240.18 370.436 240.385 369.752 240.385C369.069 240.385 368.521 240.111 368.18 239.633C368.043 239.154 367.838 238.471 367.838 237.582ZM369.137 238.471C369.137 238.812 369.205 239.018 369.342 239.223C369.479 239.428 369.684 239.496 369.889 239.496C370.162 239.496 370.367 239.428 370.504 239.291C370.641 239.154 370.709 238.881 370.709 238.471C370.709 238.129 370.641 237.855 370.504 237.719C370.367 237.582 370.162 237.514 369.957 237.514C369.684 237.514 369.479 237.65 369.342 237.855C369.205 238.061 369.137 238.197 369.137 238.471Z" fill="#313131"/>
<path d="M368.248 248.916C368.111 248.916 367.975 248.848 367.975 248.643V248.164C367.975 248.027 368.043 247.891 368.248 247.891H371.461C371.598 247.891 371.734 247.959 371.734 248.164V248.574C371.734 248.711 371.666 248.848 371.529 248.984C370.982 249.6 370.641 250.215 370.436 250.83C370.231 251.445 370.094 252.129 370.094 253.018V253.291C370.094 253.428 370.025 253.564 369.82 253.564H369.205C369.068 253.564 368.932 253.496 368.932 253.291V253.154C368.932 252.197 369.068 251.445 369.41 250.762C369.752 250.146 370.162 249.463 370.641 248.848C370.504 248.848 370.435 248.848 370.299 248.848H368.248V248.916Z" fill="#313131"/>
<path d="M367.838 265.326C367.838 264.848 367.975 264.506 368.248 264.301C368.522 264.027 368.795 263.891 368.932 263.822C368.727 263.754 368.522 263.617 368.248 263.412C367.975 263.207 367.906 262.934 367.906 262.592C367.906 262.182 368.043 261.84 368.385 261.566C368.727 261.293 369.137 261.156 369.752 261.156C370.299 261.156 370.778 261.293 371.119 261.566C371.461 261.84 371.598 262.182 371.598 262.592C371.598 262.934 371.461 263.207 371.256 263.412C371.051 263.617 370.846 263.754 370.572 263.822C370.777 263.891 370.982 264.027 371.256 264.301C371.529 264.574 371.666 264.916 371.666 265.326C371.666 265.805 371.529 266.215 371.187 266.488C370.846 266.762 370.367 266.967 369.615 266.967C368.932 266.967 368.385 266.83 368.043 266.488C368.043 266.215 367.838 265.805 367.838 265.326ZM369.069 265.189C369.069 265.463 369.137 265.736 369.273 265.873C369.41 266.01 369.615 266.078 369.889 266.078C370.162 266.078 370.435 266.01 370.504 265.873C370.641 265.736 370.709 265.531 370.709 265.189C370.709 264.984 370.641 264.779 370.504 264.574C370.367 264.369 370.162 264.301 369.889 264.301C369.615 264.301 369.41 264.369 369.273 264.574C369.137 264.779 369.069 264.984 369.069 265.189ZM369.137 262.66C369.137 262.865 369.205 263.002 369.342 263.139C369.479 263.275 369.615 263.344 369.889 263.344C370.094 263.344 370.299 263.275 370.436 263.139C370.572 263.002 370.641 262.865 370.641 262.66C370.641 262.455 370.572 262.318 370.436 262.182C370.299 262.045 370.162 261.977 369.889 261.977C369.615 261.977 369.479 262.045 369.342 262.182C369.205 262.318 369.137 262.455 369.137 262.66Z" fill="#313131"/>
<path d="M375.431 154.506L370.577 146.918C370.44 146.645 370.235 146.508 369.893 146.508C369.62 146.508 369.347 146.645 369.21 146.85L364.493 154.506C364.356 154.711 364.356 154.984 364.493 155.258C364.63 155.463 364.835 155.6 365.108 155.6H374.679C374.952 155.6 375.157 155.463 375.294 155.258C375.567 155.053 375.567 154.779 375.431 154.506ZM374.61 154.779H365.314L369.893 147.396L374.61 154.779Z" fill="#313131"/>
<path d="M369.477 149.791C369.477 149.654 369.545 149.586 369.682 149.586H370.16C370.297 149.586 370.365 149.654 370.365 149.791L370.297 152.457C370.297 152.594 370.229 152.662 370.092 152.662H369.75C369.614 152.662 369.545 152.594 369.545 152.457L369.477 149.791ZM369.682 153.961C369.545 153.961 369.477 153.893 369.477 153.756V153.346C369.477 153.209 369.545 153.141 369.682 153.141H370.16C370.297 153.141 370.365 153.209 370.365 153.346V153.756C370.365 153.893 370.297 153.961 370.16 153.961H369.682Z" fill="#313131"/>
<path d="M357.197 96.743C357.197 94.4844 357.507 92.7259 358.127 91.4675C358.746 90.2027 359.927 89.5703 361.669 89.5703C363.412 89.5703 364.593 90.2027 365.212 91.4675C365.832 92.7259 366.141 94.4844 366.141 96.743C366.141 99.0016 365.832 100.763 365.212 102.028C364.593 103.286 363.412 103.916 361.669 103.916C359.927 103.916 358.746 103.286 358.127 102.028C357.507 100.763 357.197 99.0016 357.197 96.743ZM358.998 96.743C358.998 98.5499 359.153 99.9663 359.462 100.992C359.772 102.012 360.508 102.522 361.669 102.522C362.831 102.522 363.567 102.012 363.876 100.992C364.186 99.9663 364.341 98.5499 364.341 96.743C364.341 94.9361 364.186 93.5229 363.876 92.5033C363.567 91.4772 362.831 90.9642 361.669 90.9642C360.508 90.9642 359.772 91.4772 359.462 92.5033C359.153 93.5229 358.998 94.9361 358.998 96.743Z" fill="#000912"/>
<path d="M349.97 92.4849C349.886 92.2784 349.964 92.13 350.203 92.0397C350.699 91.8525 351.171 91.5525 351.616 91.1395C352.061 90.7265 352.413 90.3586 352.671 90.036C352.858 89.8037 353.039 89.6875 353.213 89.6875H354.036C354.333 89.6875 354.481 89.8327 354.481 90.1231V103.191C354.481 103.481 354.336 103.626 354.045 103.626H353.213C352.923 103.626 352.777 103.481 352.777 103.191V92.5817C352.777 92.3881 352.784 92.1945 352.797 92.001H352.777C352.577 92.2526 352.284 92.5108 351.896 92.7753C351.509 93.0399 351.154 93.2335 350.832 93.3561C350.548 93.4658 350.361 93.4142 350.27 93.2012L349.97 92.4849Z" fill="#000912"/>
<path d="M338.995 103.625C338.64 103.625 338.463 103.48 338.463 103.19V102.725C338.463 102.473 338.569 102.241 338.782 102.028L342.577 98.2046C343.7 97.0753 344.435 96.2042 344.784 95.5911C345.139 94.9716 345.316 94.2585 345.316 93.4519C345.316 92.7743 345.116 92.2 344.716 91.7289C344.322 91.2578 343.722 91.0223 342.916 91.0223C342.193 91.0223 341.593 91.2062 341.115 91.574C340.638 91.9418 340.292 92.5581 340.079 93.4228C339.989 93.7907 339.799 93.9326 339.508 93.8488L338.753 93.6261C338.553 93.568 338.505 93.2938 338.608 92.8033C338.795 91.958 339.247 91.2094 339.963 90.5576C340.686 89.8994 341.644 89.5703 342.838 89.5703C344.355 89.5703 345.461 89.951 346.158 90.7125C346.862 91.474 347.213 92.4065 347.213 93.51C347.213 94.5876 346.923 95.5169 346.342 96.2977C345.768 97.0786 344.977 97.9562 343.971 98.9306L340.786 102.018V102.057C340.96 102.044 341.218 102.038 341.56 102.038H346.836C347.191 102.038 347.368 102.183 347.368 102.473V103.19C347.368 103.48 347.191 103.625 346.836 103.625H338.995Z" fill="#000912"/>
<path d="M326.066 103.631C325.647 103.631 325.589 103.418 325.892 102.992L330.538 96.4677L326.221 90.3889C325.918 89.963 325.976 89.75 326.395 89.75H327.586C327.87 89.75 328.096 89.8758 328.264 90.1275L331.661 95.1803L335.059 90.1275C335.227 89.8758 335.452 89.75 335.736 89.75H336.927C337.346 89.75 337.405 89.963 337.101 90.3889L332.784 96.4677L337.43 102.992C337.734 103.418 337.676 103.631 337.256 103.631H336.056C335.772 103.631 335.546 103.505 335.378 103.253L331.661 97.7551L327.944 103.253C327.776 103.505 327.551 103.631 327.267 103.631H326.066Z" fill="#000912"/>
<path d="M310.459 103.631C310.136 103.631 309.975 103.453 309.975 103.098V90.2824C309.975 89.9275 310.136 89.75 310.459 89.75H312.52C312.766 89.75 312.95 89.9436 313.072 90.3308L315.841 99.0135C316.124 99.904 316.292 100.443 316.344 100.63C316.395 100.811 316.47 101.146 316.567 101.637H316.625C316.721 101.146 316.796 100.811 316.847 100.63C316.899 100.443 317.067 99.904 317.351 99.0135L320.119 90.3308C320.242 89.9436 320.425 89.75 320.671 89.75H322.732C323.055 89.75 323.216 89.9275 323.216 90.2824V103.098C323.216 103.453 323.055 103.631 322.732 103.631H321.842C321.519 103.631 321.358 103.453 321.358 103.098V92.9443C321.358 92.6862 321.364 92.4281 321.377 92.1699H321.339L317.767 103.04C317.638 103.434 317.425 103.631 317.128 103.631H316.063C315.766 103.631 315.553 103.434 315.424 103.04L311.852 92.1699H311.814C311.827 92.4281 311.833 92.6862 311.833 92.9443V103.098C311.833 103.453 311.672 103.631 311.349 103.631H310.459Z" fill="#000912"/>
<circle cx="399.171" cy="380.255" r="49.8093" fill="#FF007D"/>
<circle cx="399.17" cy="380.25" r="39.3407" stroke="white" stroke-width="8.13039"/>
<rect x="379.623" y="368.562" width="11.1086" height="44.1766" transform="rotate(-45 379.623 368.562)" fill="white"/>
<rect x="410.861" y="360.711" width="11.1086" height="44.1766" transform="rotate(45 410.861 360.711)" fill="white"/>
</svg>
