<svg width="579" height="444" viewBox="0 0 579 444" fill="none" xmlns="http://www.w3.org/2000/svg">
<path d="M413.72 73.187C402.321 20.9758 325.953 35.8915 331.362 74.5572C280.902 82.8145 301.086 134.192 325.858 134.651C367.061 134.651 403.843 135.068 431.366 134.651C466.714 134.115 468.249 62.2568 413.72 73.187Z" fill="white"/>
<path d="M331.362 74.5572C325.953 35.8915 402.321 20.9758 413.72 73.187M331.362 74.5572C280.902 82.8145 301.086 134.192 325.858 134.651C367.061 134.651 403.843 135.068 431.366 134.651C466.714 134.115 468.249 62.2568 413.72 73.187M331.362 74.5572C331.479 77.9527 334.426 84.8385 345.28 85.2171M413.72 73.187C408.533 74.5143 398.136 78.6218 395.055 86.4517" stroke="#313131" stroke-width="0.834229" stroke-linecap="round" stroke-linejoin="round"/>
<path d="M359.927 124.907C358.551 124.907 357.479 124.443 356.711 123.515C355.943 122.587 355.559 121.158 355.559 119.227C355.559 117.286 355.943 115.856 356.711 114.939C357.479 114.011 358.551 113.547 359.927 113.547C360.695 113.547 361.383 113.696 361.991 113.995C362.599 114.294 363.079 114.758 363.431 115.387C363.783 116.016 363.959 116.827 363.959 117.819H361.863C361.863 116.966 361.682 116.336 361.319 115.931C360.967 115.515 360.503 115.307 359.927 115.307C359.17 115.307 358.604 115.622 358.231 116.251C357.858 116.87 357.671 117.728 357.671 118.827V119.627C357.671 120.726 357.863 121.59 358.247 122.219C358.631 122.838 359.212 123.147 359.991 123.147C360.588 123.147 361.063 122.944 361.415 122.539C361.778 122.123 361.959 121.494 361.959 120.651H363.959C363.959 121.611 363.783 122.406 363.431 123.035C363.079 123.664 362.599 124.134 361.991 124.443C361.394 124.752 360.706 124.907 359.927 124.907ZM365.444 124.715V113.739H367.492V122.795H372.132V124.715H365.444ZM377.603 124.907C376.185 124.907 375.07 124.443 374.259 123.515C373.449 122.587 373.043 121.158 373.043 119.227C373.043 117.286 373.449 115.856 374.259 114.939C375.07 114.011 376.185 113.547 377.603 113.547C379.022 113.547 380.137 114.011 380.947 114.939C381.758 115.856 382.163 117.286 382.163 119.227C382.163 121.158 381.758 122.587 380.947 123.515C380.137 124.443 379.022 124.907 377.603 124.907ZM377.603 123.147C378.425 123.147 379.038 122.838 379.443 122.219C379.849 121.59 380.051 120.726 380.051 119.627V118.827C380.051 117.728 379.849 116.87 379.443 116.251C379.038 115.622 378.425 115.307 377.603 115.307C376.793 115.307 376.179 115.622 375.763 116.251C375.358 116.87 375.155 117.728 375.155 118.827V119.627C375.155 120.726 375.358 121.59 375.763 122.219C376.179 122.838 376.793 123.147 377.603 123.147ZM387.439 124.907C386.265 124.907 385.343 124.603 384.671 123.995C384.009 123.376 383.679 122.47 383.679 121.275V113.739H385.727V121.211C385.727 121.84 385.876 122.32 386.175 122.651C386.473 122.982 386.895 123.147 387.439 123.147C387.983 123.147 388.404 122.982 388.703 122.651C389.012 122.32 389.167 121.84 389.167 121.211V113.739H391.215V121.275C391.215 122.47 390.879 123.376 390.207 123.995C389.535 124.603 388.612 124.907 387.439 124.907ZM393.131 124.715V113.739H396.699C398.065 113.739 399.137 114.187 399.915 115.083C400.705 115.968 401.099 117.296 401.099 119.067C401.099 120.944 400.705 122.358 399.915 123.307C399.137 124.246 398.065 124.715 396.699 124.715H393.131ZM395.179 122.891H396.507C397.265 122.891 397.867 122.608 398.315 122.043C398.763 121.467 398.987 120.608 398.987 119.467V118.667C398.987 117.632 398.763 116.859 398.315 116.347C397.867 115.824 397.265 115.563 396.507 115.563H395.179V122.891Z" fill="#565656"/>
<path d="M462.373 189.473V178.497H469.365V180.321H464.421V182.945H468.661V184.769H464.421V187.649H469.461V189.473H462.373ZM473.155 189.473V180.321H470.435V178.497H477.923V180.321H475.203V189.473H473.155ZM479.139 189.473V178.497H481.187V182.945H484.643V178.497H486.691V189.473H484.643V184.769H481.187V189.473H479.139ZM488.607 189.473V178.497H495.599V180.321H490.655V182.945H494.895V184.769H490.655V187.649H495.695V189.473H488.607ZM497.357 189.473V178.497H501.949C503.059 178.497 503.896 178.795 504.461 179.393C505.027 179.979 505.309 180.726 505.309 181.633C505.309 182.294 505.144 182.87 504.813 183.361C504.483 183.851 504.035 184.214 503.469 184.449L505.581 189.473H503.357L501.533 184.897H499.405V189.473H497.357ZM499.405 183.089H501.661C502.163 183.089 502.525 182.961 502.749 182.705C502.984 182.449 503.101 182.091 503.101 181.633C503.101 181.227 502.989 180.907 502.765 180.673C502.552 180.438 502.211 180.321 501.741 180.321H499.405V183.089ZM506.826 189.473V178.497H508.634L512.026 184.545C512.09 184.63 512.16 184.758 512.234 184.929C512.309 185.089 512.373 185.238 512.426 185.377C512.49 185.505 512.522 185.569 512.522 185.569L512.57 185.521C512.57 185.521 512.57 185.457 512.57 185.329C512.57 185.201 512.565 185.062 512.554 184.913C512.554 184.763 512.554 184.662 512.554 184.609V178.497H514.378V189.473H512.554L509.162 183.425C509.12 183.35 509.056 183.233 508.97 183.073C508.896 182.902 508.826 182.747 508.762 182.609C508.698 182.47 508.666 182.401 508.666 182.401L508.602 182.449C508.602 182.449 508.602 182.507 508.602 182.625C508.613 182.731 508.618 182.859 508.618 183.009C508.629 183.147 508.634 183.265 508.634 183.361V189.473H506.826ZM516.295 189.473V178.497H523.287V180.321H518.343V182.945H522.583V184.769H518.343V187.649H523.383V189.473H516.295ZM527.077 189.473V180.321H524.357V178.497H531.845V180.321H529.125V189.473H527.077Z" fill="#FF007D"/>
<path d="M91.2707 239.042L91.2707 197.767L201.751 197.431L201.751 242.051" stroke="#FF007D" stroke-width="2.92849" stroke-linecap="square"/>
<path d="M231.357 239.042L231.357 197.767L341.837 197.431L341.837 242.051" stroke="#FF007D" stroke-width="2.92849" stroke-linecap="square"/>
<path d="M368.204 239.041L368.263 197.766L530.891 197.271L530.827 241.891" stroke="#FF007D" stroke-width="2.92849" stroke-linecap="square"/>
<path d="M115.452 227.945H49.4102V442.766H115.452V227.945Z" fill="#ECECEC" stroke="#313131" stroke-width="0.834229" stroke-miterlimit="10"/>
<path d="M110.468 290.908H107.129V264.109H110.468V290.908Z" fill="#313131"/>
<path d="M110.468 432.14H107.129V298.582H110.468V432.14Z" fill="#313131"/>
<path d="M110.468 268.359H107.129V264.109H110.468V268.359Z" fill="#3AB992"/>
<path d="M110.468 276.776H107.129V272.656H110.468V276.776Z" fill="#3AB992"/>
<path d="M110.468 302.655H107.129V298.535H110.468V302.655Z" fill="#3AB992"/>
<path d="M110.468 327.811H107.129V323.691H110.468V327.811Z" fill="#3AB992"/>
<path d="M110.468 344.854H107.129V340.734H110.468V344.854Z" fill="#3AB992"/>
<path d="M81.0804 239.452C81.1238 239.019 81.2539 238.672 81.6008 238.325C81.9044 237.978 82.2947 237.804 82.7717 237.804C83.2487 237.804 83.6388 237.978 83.899 238.281C84.1592 238.585 84.2893 238.975 84.3326 239.409L81.0804 239.452ZM82.8149 236.98C81.9477 236.98 81.2539 237.284 80.7336 237.891C80.2132 238.498 79.9531 239.279 79.9531 240.319C79.9531 241.36 80.2132 242.184 80.7336 242.748C81.2539 243.355 81.9911 243.658 82.9451 243.658C83.292 243.658 83.5955 243.615 83.9424 243.528C84.2893 243.442 84.6362 243.311 85.0265 243.181V242.141C84.6362 242.357 84.2459 242.531 83.899 242.618C83.5521 242.748 83.2486 242.791 82.9017 242.791C82.2513 242.791 81.7744 242.574 81.4708 242.184C81.1239 241.794 80.9504 241.187 80.9938 240.319V240.276H85.2867V239.799C85.2433 239.019 85.0265 238.368 84.5928 237.804C84.2026 237.241 83.5521 236.98 82.8149 236.98Z" fill="#090F15"/>
<path d="M88.844 237.847C89.1909 237.847 89.4943 237.891 89.7545 238.021C90.0146 238.151 90.2749 238.281 90.5351 238.585V237.5C90.2316 237.327 89.9714 237.24 89.6679 237.154C89.4077 237.067 89.1041 237.023 88.8006 237.023C87.89 237.023 87.1094 237.327 86.589 237.934C86.0687 238.541 85.8086 239.322 85.8086 240.362C85.8086 241.403 86.0687 242.227 86.589 242.791C87.1094 243.398 87.8466 243.701 88.8006 243.701C89.1041 243.701 89.4077 243.658 89.6679 243.571C89.9714 243.485 90.2315 243.354 90.4917 243.224V242.097C90.2749 242.314 90.0148 242.487 89.7113 242.617C89.4511 242.747 89.1041 242.791 88.8006 242.791C88.1502 242.791 87.673 242.574 87.3695 242.184C87.1093 241.75 86.9793 241.143 86.9793 240.362C86.9793 239.582 87.1528 238.975 87.4997 238.541C87.7165 238.108 88.1936 237.847 88.844 237.847Z" fill="#090F15"/>
<path d="M70.71 238.759L68.5852 235.637H66.5039V237.328H67.9348L69.8427 240.103L67.9348 242.792H66.5039V244.526H68.5852L70.71 241.361L71.6207 240.103L70.71 238.759Z" fill="#009C92"/>
<path d="M72.8363 235.637L71.6656 237.328L71.0586 238.282L71.969 239.626L73.5302 237.328H74.8745L74.9179 235.637" fill="#EC1D7D"/>
<path d="M58.8328 240.493C58.8328 241.187 58.7027 241.75 58.3558 242.141C58.0522 242.531 57.6186 242.748 57.0549 242.748C56.6646 242.748 56.361 242.618 56.1442 242.444C55.9274 242.227 55.7974 241.924 55.7974 241.534C55.7974 241.1 55.9275 240.796 56.231 240.58C56.5346 240.363 56.9682 240.276 57.5319 240.276H57.9221H58.8328V240.493ZM59.4398 237.891C59.223 237.588 58.9195 237.327 58.5726 237.197C58.1823 237.024 57.792 236.98 57.2717 236.98C56.9248 236.98 56.6214 237.024 56.3178 237.111C55.9709 237.197 55.6238 237.327 55.2769 237.457V238.498C55.6238 238.281 55.9275 238.151 56.2744 238.065C56.6213 237.934 56.9682 237.891 57.3151 237.891C57.8354 237.891 58.2258 238.021 58.486 238.238C58.7028 238.455 58.8762 238.845 58.8762 239.322V239.496H57.5319C56.6213 239.496 56.0142 239.712 55.5372 240.059C55.1035 240.406 54.8867 240.926 54.8867 241.664C54.8867 242.271 55.0603 242.748 55.4506 243.138C55.8408 243.485 56.3178 243.702 56.9249 243.702C57.3585 243.702 57.792 243.615 58.0955 243.442C58.4424 243.225 58.7028 242.965 58.9196 242.618V243.745H59.9169V239.929C59.9169 239.365 59.9168 238.975 59.8301 238.672C59.7433 238.281 59.6133 238.108 59.4398 237.891Z" fill="#090F15"/>
<path d="M65.5516 237.328H64.3807L61.7358 239.973V235.637H60.7383V243.659H61.7358V241.144L62.4728 240.45L64.6844 243.659H65.9418L63.1667 239.756L65.5516 237.328Z" fill="#090F15"/>
<path d="M78.0419 242.575C77.8685 242.358 77.7819 242.054 77.7819 241.621V238.152H80.0367V237.328H77.7819V235.637H76.7844V237.328H75.1367V238.152H76.7844V241.621C76.7844 242.401 76.9145 242.922 77.2181 243.269C77.5216 243.572 78.042 243.746 78.8226 243.746H80.0367V242.922H78.9092C78.4755 242.835 78.2154 242.748 78.0419 242.575Z" fill="#090F15"/>
<path d="M115.45 258.555H100.707V437.297H115.45" stroke="#313131" stroke-width="0.834229" stroke-miterlimit="10"/>
<path d="M94.0312 430.145H53.6602V437.299H94.0312V430.145Z" stroke="#313131" stroke-width="0.834229" stroke-miterlimit="10"/>
<path d="M93.4562 264.453H92.6758V266.448H93.4562V264.453Z" fill="#313131"/>
<path d="M93.0716 270.218C91.5539 270.218 90.3398 269.003 90.3398 267.486C90.3398 266.575 90.7733 265.751 91.5105 265.231L91.9876 265.881C91.4672 266.228 91.1637 266.835 91.1637 267.486C91.1637 268.57 92.031 269.437 93.115 269.437C94.1991 269.437 95.0664 268.57 95.0664 267.486C95.0664 266.835 94.7195 266.228 94.1991 265.838L94.6327 265.188C95.4133 265.708 95.8902 266.575 95.8902 267.486C95.8035 268.96 94.5893 270.218 93.0716 270.218Z" fill="#313131"/>
<path d="M92.3412 299.495C92.2979 299.408 92.3413 299.365 92.428 299.322C92.5148 299.278 92.6449 299.235 92.7317 299.148C92.8184 299.061 92.9049 298.975 92.9917 298.888C93.0784 298.801 93.1217 298.758 93.2085 298.758H93.5989C93.6856 298.758 93.7723 298.801 93.7723 298.888V302.183C93.7723 302.27 93.7288 302.314 93.6421 302.314H93.2519C93.1652 302.314 93.1219 302.27 93.1219 302.183V299.799C93.1219 299.712 93.1219 299.668 93.1219 299.582C93.0785 299.625 93.0352 299.712 92.9485 299.755C92.9051 299.799 92.8182 299.842 92.7748 299.885C92.6881 299.929 92.6448 299.885 92.6014 299.842L92.3412 299.495Z" fill="#313131"/>
<path d="M91.9429 310.81C91.8129 310.81 91.7695 310.767 91.7695 310.637V310.507C91.7695 310.42 91.8128 310.333 91.8995 310.247L92.6368 309.466C92.8536 309.249 93.0704 309.033 93.2438 308.816C93.4173 308.599 93.5041 308.425 93.5041 308.252C93.5041 308.079 93.4608 307.905 93.374 307.818C93.2873 307.732 93.1571 307.688 93.027 307.688C92.8102 307.688 92.6367 307.732 92.55 307.862C92.4633 307.992 92.3766 308.079 92.3766 308.209C92.3332 308.339 92.2898 308.382 92.1598 308.339L91.8995 308.252C91.8128 308.209 91.8129 308.165 91.8129 308.035C91.8563 307.818 92.0297 307.602 92.2032 307.428C92.3766 307.255 92.6802 307.168 93.0704 307.168C93.4607 307.168 93.7643 307.255 93.9811 307.472C94.1545 307.688 94.2413 307.905 94.2413 308.165C94.2413 308.469 94.111 308.772 93.8509 309.033C93.5907 309.293 93.3306 309.51 93.1138 309.726L92.6802 310.16C92.7669 310.16 92.8537 310.16 92.9404 310.16H94.1111C94.2412 310.16 94.2845 310.203 94.2845 310.333V310.637C94.2845 310.724 94.2412 310.81 94.1111 310.81H91.9429Z" fill="#313131"/>
<path d="M92.3412 273.507C92.2979 273.42 92.3413 273.377 92.428 273.333C92.5148 273.29 92.6449 273.247 92.7317 273.16C92.8184 273.073 92.9049 272.986 92.9917 272.9C93.0784 272.813 93.1217 272.77 93.2085 272.77H93.5989C93.6856 272.77 93.7723 272.813 93.7723 272.9V276.195C93.7723 276.282 93.7288 276.325 93.6421 276.325H93.2519C93.1652 276.325 93.1219 276.282 93.1219 276.195V273.81C93.1219 273.724 93.1219 273.68 93.1219 273.593C93.0785 273.637 93.0352 273.724 92.9485 273.767C92.9051 273.81 92.8182 273.854 92.7748 273.897C92.6881 273.94 92.6448 273.897 92.6014 273.854L92.3412 273.507Z" fill="#313131"/>
<path d="M91.9429 282.295C91.8129 282.295 91.7695 282.251 91.7695 282.121V281.991C91.7695 281.905 91.8128 281.818 91.8995 281.731L92.6368 280.951C92.8536 280.734 93.0704 280.517 93.2438 280.3C93.4173 280.083 93.5041 279.91 93.5041 279.736C93.5041 279.563 93.4608 279.39 93.374 279.303C93.2873 279.216 93.1571 279.173 93.027 279.173C92.8102 279.173 92.6367 279.216 92.55 279.346C92.4633 279.476 92.3766 279.563 92.3766 279.693C92.3332 279.823 92.2898 279.867 92.1598 279.823L91.8995 279.736C91.8128 279.693 91.8129 279.65 91.8129 279.52C91.8563 279.303 92.0297 279.086 92.2032 278.913C92.3766 278.739 92.6802 278.652 93.0704 278.652C93.4607 278.652 93.7643 278.739 93.9811 278.956C94.1545 279.173 94.2413 279.39 94.2413 279.65C94.2413 279.953 94.111 280.257 93.8509 280.517C93.5907 280.777 93.3306 280.994 93.1138 281.211L92.6802 281.644C92.7669 281.644 92.8537 281.644 92.9404 281.644H94.1111C94.2412 281.644 94.2845 281.688 94.2845 281.818V282.121C94.2845 282.208 94.2412 282.295 94.1111 282.295H91.9429Z" fill="#313131"/>
<path d="M91.8665 318.96C91.8231 318.916 91.7798 318.83 91.8665 318.743L91.9965 318.526C92.0398 318.439 92.1266 318.396 92.2567 318.483C92.3434 318.569 92.4734 318.613 92.6035 318.656C92.7336 318.699 92.8637 318.743 93.0372 318.743C93.254 318.743 93.4275 318.699 93.5142 318.569C93.6009 318.439 93.6442 318.309 93.6442 318.179C93.6442 318.049 93.6009 317.876 93.4708 317.789C93.3407 317.659 93.2106 317.615 92.9937 317.615H92.8203C92.7336 317.615 92.6469 317.572 92.6469 317.485V317.225C92.6469 317.138 92.6902 317.095 92.8203 317.095H92.9506C93.124 317.095 93.2541 317.052 93.3408 316.965C93.4709 316.878 93.5142 316.748 93.5142 316.618C93.5142 316.488 93.4709 316.401 93.3842 316.358C93.2975 316.271 93.1672 316.228 92.9937 316.228C92.8203 316.228 92.6902 316.271 92.5601 316.315C92.43 316.358 92.3434 316.401 92.2567 316.488C92.17 316.575 92.0832 316.575 91.9965 316.488L91.8665 316.271C91.8231 316.184 91.8229 316.098 91.9097 316.011C92.0398 315.881 92.1699 315.794 92.3867 315.751C92.5602 315.707 92.7771 315.664 92.9506 315.664C93.3842 315.664 93.6876 315.751 93.9044 315.924C94.1212 316.098 94.208 316.315 94.208 316.531C94.208 316.705 94.1213 316.878 93.9912 317.052C93.8611 317.182 93.6877 317.312 93.5576 317.355C93.731 317.399 93.9477 317.485 94.0778 317.659C94.2513 317.832 94.338 318.006 94.338 318.222C94.338 318.569 94.208 318.873 93.9912 319.046C93.7744 319.22 93.4275 319.35 92.9506 319.35C92.7337 319.35 92.5601 319.307 92.3433 319.263C92.1698 319.133 91.9966 319.046 91.8665 318.96Z" fill="#313131"/>
<path d="M91.8611 326.901C91.7744 326.901 91.6875 326.857 91.6875 326.727V326.424C91.6875 326.337 91.7309 326.25 91.7743 326.163L93.162 324.212C93.2054 324.125 93.2921 324.082 93.3788 324.082H93.7256C93.8557 324.082 93.8991 324.125 93.8991 324.255V326.294H94.2027C94.2894 326.294 94.3761 326.337 94.3761 326.467V326.771C94.3761 326.857 94.3328 326.944 94.2027 326.944H93.8991V327.551C93.8991 327.638 93.8557 327.725 93.7256 327.725H93.3354C93.2487 327.725 93.162 327.681 93.162 327.551V326.944H91.8611V326.901ZM92.3814 326.294H93.2052V325.34C93.2052 325.253 93.2052 325.209 93.2052 325.123L92.3814 326.294Z" fill="#313131"/>
<path d="M91.8676 335.839C91.8243 335.752 91.8242 335.709 91.8242 335.665L91.9976 335.405C92.0844 335.319 92.1711 335.319 92.2578 335.405C92.3012 335.449 92.4313 335.492 92.5181 335.535C92.6482 335.579 92.7782 335.622 92.9083 335.622C93.0817 335.622 93.2552 335.579 93.3853 335.449C93.5154 335.362 93.6021 335.189 93.6021 334.972C93.6021 334.798 93.5587 334.625 93.4719 334.495C93.3852 334.365 93.2984 334.321 93.2117 334.321C93.125 334.321 93.0384 334.321 92.9517 334.365C92.865 334.365 92.8216 334.408 92.7349 334.495C92.6915 334.538 92.6048 334.581 92.4747 334.581H92.1276C91.9975 334.581 91.9108 334.538 91.9108 334.408V332.673C91.9108 332.587 91.9544 332.5 92.0844 332.5H93.8622C93.9489 332.5 94.0358 332.543 94.0358 332.673V332.977C94.0358 333.064 93.9922 333.15 93.8622 333.15H92.6047V333.758C92.6047 333.844 92.6047 333.888 92.6047 333.974C92.6914 333.888 92.7782 333.844 92.9083 333.801C92.995 333.758 93.125 333.758 93.2551 333.758C93.5587 333.758 93.7756 333.844 93.9924 334.061C94.2092 334.278 94.2958 334.581 94.2958 334.972C94.2958 335.362 94.1657 335.666 93.9056 335.839C93.6454 336.056 93.3418 336.143 92.9949 336.143C92.6914 336.143 92.4313 336.099 92.2144 336.056C92.0844 336.012 91.911 335.926 91.8676 335.839Z" fill="#313131"/>
<path d="M91.7344 342.905C91.7344 342.168 91.8644 341.647 92.1246 341.344C92.3848 341.084 92.7318 340.91 93.1221 340.91C93.2955 340.91 93.4257 340.953 93.5991 340.997C93.7726 341.04 93.8592 341.084 93.9459 341.17C94.0327 341.257 94.0327 341.3 93.9893 341.387L93.8159 341.647C93.7726 341.734 93.6858 341.734 93.5991 341.647C93.5557 341.604 93.469 341.561 93.3823 341.561C93.2956 341.517 93.1654 341.517 93.0787 341.517C92.9052 341.517 92.7317 341.604 92.6016 341.777C92.4715 341.951 92.3848 342.211 92.3848 342.601C92.4715 342.471 92.5584 342.428 92.6884 342.341C92.8185 342.298 92.992 342.254 93.1655 342.254C93.5124 342.254 93.7725 342.384 93.9459 342.601C94.1194 342.818 94.2062 343.122 94.2062 343.469C94.2062 343.815 94.1193 344.119 93.9025 344.336C93.6857 344.553 93.3823 344.683 92.9487 344.683C92.515 344.683 92.168 344.509 91.9512 344.206C91.8645 343.902 91.7344 343.469 91.7344 342.905ZM92.5582 343.469C92.5582 343.685 92.6017 343.815 92.6884 343.946C92.7752 344.076 92.9052 344.119 93.0353 344.119C93.2087 344.119 93.3388 344.076 93.4255 343.989C93.5122 343.902 93.5557 343.729 93.5557 343.469C93.5557 343.252 93.5122 343.078 93.4255 342.992C93.3388 342.905 93.2088 342.861 93.0787 342.861C92.9052 342.861 92.7752 342.948 92.6884 343.078C92.6017 343.208 92.5582 343.295 92.5582 343.469Z" fill="#313131"/>
<path d="M91.9976 350.096C91.9109 350.096 91.8242 350.052 91.8242 349.922V349.619C91.8242 349.532 91.8675 349.445 91.9976 349.445H94.0358C94.1225 349.445 94.2092 349.489 94.2092 349.619V349.879C94.2092 349.966 94.1657 350.052 94.079 350.139C93.7321 350.529 93.5154 350.92 93.3853 351.31C93.2552 351.7 93.1685 352.134 93.1685 352.698V352.871C93.1685 352.958 93.125 353.044 92.9949 353.044H92.6047C92.5179 353.044 92.4313 353.001 92.4313 352.871V352.784C92.4313 352.177 92.5181 351.7 92.7349 351.267C92.9517 350.876 93.2118 350.443 93.5153 350.052C93.4286 350.052 93.3852 350.052 93.2985 350.052H91.9976V350.096Z" fill="#313131"/>
<path d="M91.7344 360.501C91.7344 360.197 91.8211 359.98 91.9946 359.85C92.168 359.677 92.3415 359.59 92.4282 359.547C92.2981 359.503 92.168 359.417 91.9946 359.286C91.8211 359.156 91.7778 358.983 91.7778 358.766C91.7778 358.506 91.8646 358.289 92.0814 358.116C92.2982 357.942 92.5584 357.855 92.9487 357.855C93.2956 357.855 93.5991 357.942 93.8159 358.116C94.0327 358.289 94.1193 358.506 94.1193 358.766C94.1193 358.983 94.0326 359.156 93.9025 359.286C93.7724 359.417 93.6423 359.503 93.4689 359.547C93.599 359.59 93.7291 359.677 93.9025 359.85C94.076 360.024 94.1627 360.24 94.1627 360.501C94.1627 360.804 94.0759 361.064 93.8591 361.238C93.6423 361.411 93.3388 361.541 92.8619 361.541C92.4282 361.541 92.0814 361.455 91.8646 361.238C91.8646 361.064 91.7344 360.804 91.7344 360.501ZM92.515 360.414C92.515 360.587 92.5583 360.761 92.645 360.848C92.7318 360.934 92.8618 360.978 93.0353 360.978C93.2087 360.978 93.3821 360.934 93.4255 360.848C93.5122 360.761 93.5557 360.631 93.5557 360.414C93.5557 360.284 93.5122 360.154 93.4255 360.024C93.3388 359.894 93.2087 359.85 93.0353 359.85C92.8618 359.85 92.7318 359.894 92.645 360.024C92.5583 360.154 92.515 360.284 92.515 360.414ZM92.5582 358.809C92.5582 358.94 92.6017 359.026 92.6884 359.113C92.7752 359.2 92.8618 359.243 93.0353 359.243C93.1654 359.243 93.2956 359.2 93.3823 359.113C93.469 359.026 93.5123 358.94 93.5123 358.809C93.5123 358.679 93.469 358.593 93.3823 358.506C93.2956 358.419 93.2087 358.376 93.0353 358.376C92.8618 358.376 92.7752 358.419 92.6884 358.506C92.6017 358.593 92.5582 358.679 92.5582 358.809Z" fill="#313131"/>
<path d="M96.55 290.21L93.4712 285.397C93.3845 285.223 93.2544 285.137 93.0376 285.137C92.8641 285.137 92.6907 285.223 92.6039 285.354L89.6119 290.21C89.5252 290.34 89.5252 290.514 89.6119 290.687C89.6986 290.817 89.8287 290.904 90.0021 290.904H96.073C96.2464 290.904 96.3765 290.817 96.4632 290.687C96.6366 290.557 96.6367 290.384 96.55 290.21ZM96.0296 290.384H90.1324L93.0376 285.7L96.0296 290.384Z" fill="#313131"/>
<path d="M92.7734 287.22C92.7734 287.133 92.8169 287.09 92.9037 287.09H93.2071C93.2938 287.09 93.3373 287.133 93.3373 287.22L93.2939 288.911C93.2939 288.998 93.2506 289.041 93.1639 289.041H92.9471C92.8603 289.041 92.8168 288.998 92.8168 288.911L92.7734 287.22ZM92.9037 289.865C92.8169 289.865 92.7734 289.822 92.7734 289.735V289.475C92.7734 289.388 92.8169 289.345 92.9037 289.345H93.2071C93.2938 289.345 93.3373 289.388 93.3373 289.475V289.735C93.3373 289.822 93.2938 289.865 93.2071 289.865H92.9037Z" fill="#313131"/>
<path d="M84.9844 253.566C84.9844 252.133 85.1809 251.017 85.5738 250.219C85.9668 249.417 86.7159 249.016 87.8212 249.016C88.9264 249.016 89.6755 249.417 90.0685 250.219C90.4615 251.017 90.658 252.133 90.658 253.566C90.658 254.998 90.4615 256.116 90.0685 256.918C89.6755 257.716 88.9264 258.116 87.8212 258.116C86.7159 258.116 85.9668 257.716 85.5738 256.918C85.1809 256.116 84.9844 254.998 84.9844 253.566ZM86.1265 253.566C86.1265 254.712 86.2247 255.61 86.4212 256.261C86.6177 256.908 87.0843 257.231 87.8212 257.231C88.558 257.231 89.0247 256.908 89.2212 256.261C89.4176 255.61 89.5159 254.712 89.5159 253.566C89.5159 252.419 89.4176 251.523 89.2212 250.876C89.0247 250.225 88.558 249.9 87.8212 249.9C87.0843 249.9 86.6177 250.225 86.4212 250.876C86.2247 251.523 86.1265 252.419 86.1265 253.566Z" fill="#000912"/>
<path d="M80.3958 250.864C80.3425 250.733 80.3917 250.639 80.5431 250.582C80.8583 250.463 81.1571 250.273 81.4396 250.011C81.7221 249.749 81.9451 249.516 82.1089 249.311C82.2276 249.164 82.3422 249.09 82.4527 249.09H82.9747C83.163 249.09 83.2571 249.182 83.2571 249.366V257.656C83.2571 257.84 83.165 257.932 82.9808 257.932H82.4527C82.2685 257.932 82.1764 257.84 82.1764 257.656V250.926C82.1764 250.803 82.1805 250.68 82.1887 250.557H82.1764C82.0495 250.717 81.8633 250.881 81.6177 251.049C81.3721 251.216 81.1469 251.339 80.9422 251.417C80.7621 251.487 80.6434 251.454 80.5861 251.319L80.3958 250.864Z" fill="#000912"/>
<path d="M73.4354 257.931C73.2102 257.931 73.0977 257.839 73.0977 257.655V257.36C73.0977 257.201 73.1652 257.053 73.3003 256.918L75.7073 254.493C76.4195 253.776 76.8862 253.224 77.1073 252.835C77.3324 252.442 77.445 251.99 77.445 251.478C77.445 251.048 77.3181 250.684 77.0643 250.385C76.8146 250.086 76.4339 249.937 75.9222 249.937C75.4637 249.937 75.083 250.053 74.7801 250.287C74.4772 250.52 74.2582 250.911 74.1231 251.459C74.0658 251.693 73.945 251.783 73.7608 251.73L73.2819 251.588C73.155 251.552 73.1243 251.378 73.1898 251.066C73.3085 250.53 73.595 250.055 74.0494 249.642C74.5079 249.224 75.1158 249.016 75.8731 249.016C76.835 249.016 77.5371 249.257 77.9792 249.74C78.4254 250.223 78.6485 250.815 78.6485 251.515C78.6485 252.198 78.4643 252.788 78.0958 253.283C77.7315 253.778 77.2301 254.335 76.5915 254.953L74.5713 256.912V256.937C74.6818 256.928 74.8456 256.924 75.0625 256.924H78.409C78.6341 256.924 78.7467 257.016 78.7467 257.201V257.655C78.7467 257.839 78.6341 257.931 78.409 257.931H73.4354Z" fill="#000912"/>
<path d="M65.2355 257.93C64.9695 257.93 64.9326 257.795 65.125 257.525L68.0723 253.386L65.3338 249.53C65.1414 249.26 65.1782 249.125 65.4443 249.125H66.1996C66.3797 249.125 66.5229 249.205 66.6294 249.364L68.7846 252.57L70.9398 249.364C71.0463 249.205 71.1896 249.125 71.3697 249.125H72.1249C72.391 249.125 72.4278 249.26 72.2354 249.53L69.4969 253.386L72.4442 257.525C72.6366 257.795 72.5998 257.93 72.3337 257.93H71.5723C71.3922 257.93 71.2489 257.85 71.1425 257.691L68.7846 254.203L66.4267 257.691C66.3203 257.85 66.177 257.93 65.9969 257.93H65.2355Z" fill="#000912"/>
<path d="M55.3344 257.93C55.1297 257.93 55.0273 257.818 55.0273 257.592V249.463C55.0273 249.238 55.1297 249.125 55.3344 249.125H56.6422C56.7978 249.125 56.9145 249.248 56.9922 249.493L58.7483 255.001C58.9285 255.566 59.0349 255.908 59.0676 256.027C59.1004 256.141 59.1475 256.354 59.2089 256.665H59.2457C59.3071 256.354 59.3542 256.141 59.3869 256.027C59.4197 255.908 59.5261 255.566 59.7062 255.001L61.4623 249.493C61.5401 249.248 61.6568 249.125 61.8123 249.125H63.1202C63.3249 249.125 63.4272 249.238 63.4272 249.463V257.592C63.4272 257.818 63.3249 257.93 63.1202 257.93H62.5553C62.3506 257.93 62.2483 257.818 62.2483 257.592V251.151C62.2483 250.988 62.2524 250.824 62.2606 250.66H62.236L59.9703 257.556C59.8884 257.805 59.7533 257.93 59.565 257.93H58.8896C58.7013 257.93 58.5662 257.805 58.4843 257.556L56.2186 250.66H56.194C56.2022 250.824 56.2063 250.988 56.2063 251.151V257.592C56.2063 257.818 56.1039 257.93 55.8993 257.93H55.3344Z" fill="#000912"/>
<path d="M251.96 227.945H185.918V442.766H251.96V227.945Z" fill="#ECECEC" stroke="#313131" stroke-width="0.834229" stroke-miterlimit="10"/>
<path d="M246.976 290.908H243.637V264.109H246.976V290.908Z" fill="#313131"/>
<path d="M246.976 432.14H243.637V298.582H246.976V432.14Z" fill="#313131"/>
<path d="M246.976 268.359H243.637V264.109H246.976V268.359Z" fill="#3AB992"/>
<path d="M246.976 276.776H243.637V272.656H246.976V276.776Z" fill="#3AB992"/>
<path d="M246.976 302.655H243.637V298.535H246.976V302.655Z" fill="#3AB992"/>
<path d="M246.976 327.811H243.637V323.691H246.976V327.811Z" fill="#3AB992"/>
<path d="M246.976 344.854H243.637V340.734H246.976V344.854Z" fill="#3AB992"/>
<path d="M217.588 239.452C217.632 239.019 217.762 238.672 218.109 238.325C218.412 237.978 218.803 237.804 219.28 237.804C219.757 237.804 220.147 237.978 220.407 238.281C220.667 238.585 220.797 238.975 220.84 239.409L217.588 239.452ZM219.323 236.98C218.455 236.98 217.762 237.284 217.241 237.891C216.721 238.498 216.461 239.279 216.461 240.319C216.461 241.36 216.721 242.184 217.241 242.748C217.762 243.355 218.499 243.658 219.453 243.658C219.8 243.658 220.103 243.615 220.45 243.528C220.797 243.442 221.144 243.311 221.534 243.181V242.141C221.144 242.357 220.754 242.531 220.407 242.618C220.06 242.748 219.756 242.791 219.41 242.791C218.759 242.791 218.282 242.574 217.979 242.184C217.632 241.794 217.458 241.187 217.502 240.319V240.276H221.795V239.799C221.751 239.019 221.534 238.368 221.101 237.804C220.71 237.241 220.06 236.98 219.323 236.98Z" fill="#090F15"/>
<path d="M225.352 237.847C225.699 237.847 226.002 237.891 226.262 238.021C226.522 238.151 226.783 238.281 227.043 238.585V237.5C226.739 237.327 226.479 237.24 226.176 237.154C225.915 237.067 225.612 237.023 225.308 237.023C224.398 237.023 223.617 237.327 223.097 237.934C222.576 238.541 222.316 239.322 222.316 240.362C222.316 241.403 222.576 242.227 223.097 242.791C223.617 243.398 224.354 243.701 225.308 243.701C225.612 243.701 225.915 243.658 226.176 243.571C226.479 243.485 226.739 243.354 227 243.224V242.097C226.783 242.314 226.523 242.487 226.219 242.617C225.959 242.747 225.612 242.791 225.308 242.791C224.658 242.791 224.181 242.574 223.877 242.184C223.617 241.75 223.487 241.143 223.487 240.362C223.487 239.582 223.661 238.975 224.008 238.541C224.224 238.108 224.701 237.847 225.352 237.847Z" fill="#090F15"/>
<path d="M207.218 238.759L205.093 235.637H203.012V237.328H204.443L206.351 240.103L204.443 242.792H203.012V244.526H205.093L207.218 241.361L208.128 240.103L207.218 238.759Z" fill="#009C92"/>
<path d="M209.344 235.637L208.173 237.328L207.566 238.282L208.477 239.626L210.038 237.328H211.382L211.426 235.637" fill="#EC1D7D"/>
<path d="M195.341 240.493C195.341 241.187 195.21 241.75 194.864 242.141C194.56 242.531 194.126 242.748 193.563 242.748C193.172 242.748 192.869 242.618 192.652 242.444C192.435 242.227 192.305 241.924 192.305 241.534C192.305 241.1 192.435 240.796 192.739 240.58C193.042 240.363 193.476 240.276 194.04 240.276H194.43H195.341V240.493ZM195.948 237.891C195.731 237.588 195.427 237.327 195.08 237.197C194.69 237.024 194.3 236.98 193.779 236.98C193.433 236.98 193.129 237.024 192.826 237.111C192.479 237.197 192.132 237.327 191.785 237.457V238.498C192.132 238.281 192.435 238.151 192.782 238.065C193.129 237.934 193.476 237.891 193.823 237.891C194.343 237.891 194.734 238.021 194.994 238.238C195.211 238.455 195.384 238.845 195.384 239.322V239.496H194.04C193.129 239.496 192.522 239.712 192.045 240.059C191.611 240.406 191.395 240.926 191.395 241.664C191.395 242.271 191.568 242.748 191.958 243.138C192.349 243.485 192.826 243.702 193.433 243.702C193.866 243.702 194.3 243.615 194.603 243.442C194.95 243.225 195.211 242.965 195.427 242.618V243.745H196.425V239.929C196.425 239.365 196.425 238.975 196.338 238.672C196.251 238.281 196.121 238.108 195.948 237.891Z" fill="#090F15"/>
<path d="M202.059 237.328H200.889L198.244 239.973V235.637H197.246V243.659H198.244V241.144L198.981 240.45L201.192 243.659H202.45L199.674 239.756L202.059 237.328Z" fill="#090F15"/>
<path d="M214.55 242.575C214.376 242.358 214.29 242.054 214.29 241.621V238.152H216.544V237.328H214.29V235.637H213.292V237.328H211.645V238.152H213.292V241.621C213.292 242.401 213.422 242.922 213.726 243.269C214.029 243.572 214.55 243.746 215.33 243.746H216.544V242.922H215.417C214.983 242.835 214.723 242.748 214.55 242.575Z" fill="#090F15"/>
<path d="M251.958 258.555H237.215V437.297H251.958" stroke="#313131" stroke-width="0.834229" stroke-miterlimit="10"/>
<path d="M230.539 430.145H190.168V437.299H230.539V430.145Z" stroke="#313131" stroke-width="0.834229" stroke-miterlimit="10"/>
<path d="M229.964 264.453H229.184V266.448H229.964V264.453Z" fill="#313131"/>
<path d="M229.579 270.218C228.062 270.218 226.848 269.003 226.848 267.486C226.848 266.575 227.281 265.751 228.018 265.231L228.495 265.881C227.975 266.228 227.672 266.835 227.672 267.486C227.672 268.57 228.539 269.437 229.623 269.437C230.707 269.437 231.574 268.57 231.574 267.486C231.574 266.835 231.227 266.228 230.707 265.838L231.141 265.188C231.921 265.708 232.398 266.575 232.398 267.486C232.311 268.96 231.097 270.218 229.579 270.218Z" fill="#313131"/>
<path d="M228.849 299.495C228.806 299.408 228.849 299.365 228.936 299.322C229.023 299.278 229.153 299.235 229.239 299.148C229.326 299.061 229.413 298.975 229.499 298.888C229.586 298.801 229.63 298.758 229.716 298.758H230.107C230.193 298.758 230.28 298.801 230.28 298.888V302.183C230.28 302.27 230.237 302.314 230.15 302.314H229.76C229.673 302.314 229.63 302.27 229.63 302.183V299.799C229.63 299.712 229.63 299.668 229.63 299.582C229.586 299.625 229.543 299.712 229.456 299.755C229.413 299.799 229.326 299.842 229.283 299.885C229.196 299.929 229.153 299.885 229.109 299.842L228.849 299.495Z" fill="#313131"/>
<path d="M228.451 310.81C228.321 310.81 228.277 310.767 228.277 310.637V310.507C228.277 310.42 228.321 310.333 228.407 310.247L229.145 309.466C229.361 309.249 229.578 309.033 229.752 308.816C229.925 308.599 230.012 308.425 230.012 308.252C230.012 308.079 229.969 307.905 229.882 307.818C229.795 307.732 229.665 307.688 229.535 307.688C229.318 307.688 229.145 307.732 229.058 307.862C228.971 307.992 228.884 308.079 228.884 308.209C228.841 308.339 228.798 308.382 228.668 308.339L228.407 308.252C228.321 308.209 228.321 308.165 228.321 308.035C228.364 307.818 228.538 307.602 228.711 307.428C228.884 307.255 229.188 307.168 229.578 307.168C229.969 307.168 230.272 307.255 230.489 307.472C230.662 307.688 230.749 307.905 230.749 308.165C230.749 308.469 230.619 308.772 230.359 309.033C230.099 309.293 229.838 309.51 229.622 309.726L229.188 310.16C229.275 310.16 229.362 310.16 229.448 310.16H230.619C230.749 310.16 230.792 310.203 230.792 310.333V310.637C230.792 310.724 230.749 310.81 230.619 310.81H228.451Z" fill="#313131"/>
<path d="M228.849 273.507C228.806 273.42 228.849 273.377 228.936 273.333C229.023 273.29 229.153 273.247 229.239 273.16C229.326 273.073 229.413 272.986 229.499 272.9C229.586 272.813 229.63 272.77 229.716 272.77H230.107C230.193 272.77 230.28 272.813 230.28 272.9V276.195C230.28 276.282 230.237 276.325 230.15 276.325H229.76C229.673 276.325 229.63 276.282 229.63 276.195V273.81C229.63 273.724 229.63 273.68 229.63 273.593C229.586 273.637 229.543 273.724 229.456 273.767C229.413 273.81 229.326 273.854 229.283 273.897C229.196 273.94 229.153 273.897 229.109 273.854L228.849 273.507Z" fill="#313131"/>
<path d="M228.451 282.295C228.321 282.295 228.277 282.251 228.277 282.121V281.991C228.277 281.905 228.321 281.818 228.407 281.731L229.145 280.951C229.361 280.734 229.578 280.517 229.752 280.3C229.925 280.083 230.012 279.91 230.012 279.736C230.012 279.563 229.969 279.39 229.882 279.303C229.795 279.216 229.665 279.173 229.535 279.173C229.318 279.173 229.145 279.216 229.058 279.346C228.971 279.476 228.884 279.563 228.884 279.693C228.841 279.823 228.798 279.867 228.668 279.823L228.407 279.736C228.321 279.693 228.321 279.65 228.321 279.52C228.364 279.303 228.538 279.086 228.711 278.913C228.884 278.739 229.188 278.652 229.578 278.652C229.969 278.652 230.272 278.739 230.489 278.956C230.662 279.173 230.749 279.39 230.749 279.65C230.749 279.953 230.619 280.257 230.359 280.517C230.099 280.777 229.838 280.994 229.622 281.211L229.188 281.644C229.275 281.644 229.362 281.644 229.448 281.644H230.619C230.749 281.644 230.792 281.688 230.792 281.818V282.121C230.792 282.208 230.749 282.295 230.619 282.295H228.451Z" fill="#313131"/>
<path d="M228.374 318.96C228.331 318.916 228.288 318.83 228.374 318.743L228.504 318.526C228.548 318.439 228.634 318.396 228.765 318.483C228.851 318.569 228.981 318.613 229.111 318.656C229.241 318.699 229.372 318.743 229.545 318.743C229.762 318.743 229.935 318.699 230.022 318.569C230.109 318.439 230.152 318.309 230.152 318.179C230.152 318.049 230.109 317.876 229.979 317.789C229.849 317.659 229.718 317.615 229.502 317.615H229.328C229.241 317.615 229.155 317.572 229.155 317.485V317.225C229.155 317.138 229.198 317.095 229.328 317.095H229.458C229.632 317.095 229.762 317.052 229.849 316.965C229.979 316.878 230.022 316.748 230.022 316.618C230.022 316.488 229.979 316.401 229.892 316.358C229.805 316.271 229.675 316.228 229.502 316.228C229.328 316.228 229.198 316.271 229.068 316.315C228.938 316.358 228.851 316.401 228.765 316.488C228.678 316.575 228.591 316.575 228.504 316.488L228.374 316.271C228.331 316.184 228.331 316.098 228.417 316.011C228.548 315.881 228.678 315.794 228.895 315.751C229.068 315.707 229.285 315.664 229.458 315.664C229.892 315.664 230.195 315.751 230.412 315.924C230.629 316.098 230.716 316.315 230.716 316.531C230.716 316.705 230.629 316.878 230.499 317.052C230.369 317.182 230.195 317.312 230.065 317.355C230.239 317.399 230.456 317.485 230.586 317.659C230.759 317.832 230.846 318.006 230.846 318.222C230.846 318.569 230.716 318.873 230.499 319.046C230.282 319.22 229.935 319.35 229.458 319.35C229.242 319.35 229.068 319.307 228.851 319.263C228.678 319.133 228.504 319.046 228.374 318.96Z" fill="#313131"/>
<path d="M228.369 326.901C228.282 326.901 228.195 326.857 228.195 326.727V326.424C228.195 326.337 228.239 326.25 228.282 326.163L229.67 324.212C229.713 324.125 229.8 324.082 229.887 324.082H230.233C230.364 324.082 230.407 324.125 230.407 324.255V326.294H230.71C230.797 326.294 230.884 326.337 230.884 326.467V326.771C230.884 326.857 230.841 326.944 230.71 326.944H230.407V327.551C230.407 327.638 230.364 327.725 230.233 327.725H229.843C229.757 327.725 229.67 327.681 229.67 327.551V326.944H228.369V326.901ZM228.889 326.294H229.713V325.34C229.713 325.253 229.713 325.209 229.713 325.123L228.889 326.294Z" fill="#313131"/>
<path d="M228.375 335.839C228.332 335.752 228.332 335.709 228.332 335.665L228.505 335.405C228.592 335.319 228.679 335.319 228.766 335.405C228.809 335.449 228.939 335.492 229.026 335.535C229.156 335.579 229.286 335.622 229.416 335.622C229.59 335.622 229.763 335.579 229.893 335.449C230.023 335.362 230.11 335.189 230.11 334.972C230.11 334.798 230.066 334.625 229.98 334.495C229.893 334.365 229.806 334.321 229.72 334.321C229.633 334.321 229.546 334.321 229.46 334.365C229.373 334.365 229.329 334.408 229.243 334.495C229.199 334.538 229.113 334.581 228.982 334.581H228.635C228.505 334.581 228.419 334.538 228.419 334.408V332.673C228.419 332.587 228.462 332.5 228.592 332.5H230.37C230.457 332.5 230.544 332.543 230.544 332.673V332.977C230.544 333.064 230.5 333.15 230.37 333.15H229.112V333.758C229.112 333.844 229.112 333.888 229.112 333.974C229.199 333.888 229.286 333.844 229.416 333.801C229.503 333.758 229.633 333.758 229.763 333.758C230.066 333.758 230.283 333.844 230.5 334.061C230.717 334.278 230.804 334.581 230.804 334.972C230.804 335.362 230.674 335.666 230.413 335.839C230.153 336.056 229.85 336.143 229.503 336.143C229.199 336.143 228.939 336.099 228.722 336.056C228.592 336.012 228.419 335.926 228.375 335.839Z" fill="#313131"/>
<path d="M228.242 342.905C228.242 342.168 228.372 341.647 228.632 341.344C228.893 341.084 229.24 340.91 229.63 340.91C229.803 340.91 229.933 340.953 230.107 340.997C230.28 341.04 230.367 341.084 230.454 341.17C230.54 341.257 230.541 341.3 230.497 341.387L230.324 341.647C230.28 341.734 230.194 341.734 230.107 341.647C230.064 341.604 229.977 341.561 229.89 341.561C229.803 341.517 229.673 341.517 229.586 341.517C229.413 341.517 229.24 341.604 229.109 341.777C228.979 341.951 228.893 342.211 228.893 342.601C228.979 342.471 229.066 342.428 229.196 342.341C229.326 342.298 229.5 342.254 229.673 342.254C230.02 342.254 230.28 342.384 230.454 342.601C230.627 342.818 230.714 343.122 230.714 343.469C230.714 343.815 230.627 344.119 230.41 344.336C230.194 344.553 229.89 344.683 229.456 344.683C229.023 344.683 228.676 344.509 228.459 344.206C228.372 343.902 228.242 343.469 228.242 342.905ZM229.066 343.469C229.066 343.685 229.11 343.815 229.196 343.946C229.283 344.076 229.413 344.119 229.543 344.119C229.717 344.119 229.847 344.076 229.933 343.989C230.02 343.902 230.064 343.729 230.064 343.469C230.064 343.252 230.02 343.078 229.933 342.992C229.847 342.905 229.717 342.861 229.586 342.861C229.413 342.861 229.283 342.948 229.196 343.078C229.11 343.208 229.066 343.295 229.066 343.469Z" fill="#313131"/>
<path d="M228.505 350.096C228.419 350.096 228.332 350.052 228.332 349.922V349.619C228.332 349.532 228.375 349.445 228.505 349.445H230.544C230.63 349.445 230.717 349.489 230.717 349.619V349.879C230.717 349.966 230.674 350.052 230.587 350.139C230.24 350.529 230.023 350.92 229.893 351.31C229.763 351.7 229.676 352.134 229.676 352.698V352.871C229.676 352.958 229.633 353.044 229.503 353.044H229.112C229.026 353.044 228.939 353.001 228.939 352.871V352.784C228.939 352.177 229.026 351.7 229.243 351.267C229.46 350.876 229.72 350.443 230.023 350.052C229.936 350.052 229.893 350.052 229.806 350.052H228.505V350.096Z" fill="#313131"/>
<path d="M228.242 360.501C228.242 360.197 228.329 359.98 228.502 359.85C228.676 359.677 228.849 359.59 228.936 359.547C228.806 359.503 228.676 359.417 228.502 359.286C228.329 359.156 228.286 358.983 228.286 358.766C228.286 358.506 228.372 358.289 228.589 358.116C228.806 357.942 229.066 357.855 229.456 357.855C229.803 357.855 230.107 357.942 230.324 358.116C230.541 358.289 230.627 358.506 230.627 358.766C230.627 358.983 230.54 359.156 230.41 359.286C230.28 359.417 230.15 359.503 229.977 359.547C230.107 359.59 230.237 359.677 230.41 359.85C230.584 360.024 230.671 360.24 230.671 360.501C230.671 360.804 230.584 361.064 230.367 361.238C230.15 361.411 229.847 361.541 229.37 361.541C228.936 361.541 228.589 361.455 228.372 361.238C228.372 361.064 228.242 360.804 228.242 360.501ZM229.023 360.414C229.023 360.587 229.066 360.761 229.153 360.848C229.24 360.934 229.37 360.978 229.543 360.978C229.717 360.978 229.89 360.934 229.933 360.848C230.02 360.761 230.064 360.631 230.064 360.414C230.064 360.284 230.02 360.154 229.933 360.024C229.847 359.894 229.717 359.85 229.543 359.85C229.37 359.85 229.24 359.894 229.153 360.024C229.066 360.154 229.023 360.284 229.023 360.414ZM229.066 358.809C229.066 358.94 229.11 359.026 229.196 359.113C229.283 359.2 229.37 359.243 229.543 359.243C229.673 359.243 229.803 359.2 229.89 359.113C229.977 359.026 230.02 358.94 230.02 358.809C230.02 358.679 229.977 358.593 229.89 358.506C229.803 358.419 229.717 358.376 229.543 358.376C229.37 358.376 229.283 358.419 229.196 358.506C229.11 358.593 229.066 358.679 229.066 358.809Z" fill="#313131"/>
<path d="M233.058 290.21L229.979 285.397C229.892 285.223 229.762 285.137 229.545 285.137C229.372 285.137 229.198 285.223 229.112 285.354L226.12 290.21C226.033 290.34 226.033 290.514 226.12 290.687C226.206 290.817 226.337 290.904 226.51 290.904H232.581C232.754 290.904 232.884 290.817 232.971 290.687C233.144 290.557 233.145 290.384 233.058 290.21ZM232.537 290.384H226.64L229.545 285.7L232.537 290.384Z" fill="#313131"/>
<path d="M229.281 287.22C229.281 287.133 229.325 287.09 229.411 287.09H229.715C229.802 287.09 229.845 287.133 229.845 287.22L229.802 288.911C229.802 288.998 229.758 289.041 229.672 289.041H229.455C229.368 289.041 229.325 288.998 229.325 288.911L229.281 287.22ZM229.411 289.865C229.325 289.865 229.281 289.822 229.281 289.735V289.475C229.281 289.388 229.325 289.345 229.411 289.345H229.715C229.802 289.345 229.845 289.388 229.845 289.475V289.735C229.845 289.822 229.802 289.865 229.715 289.865H229.411Z" fill="#313131"/>
<path d="M221.492 253.566C221.492 252.133 221.689 251.017 222.082 250.219C222.475 249.417 223.224 249.016 224.329 249.016C225.434 249.016 226.183 249.417 226.576 250.219C226.969 251.017 227.166 252.133 227.166 253.566C227.166 254.998 226.969 256.116 226.576 256.918C226.183 257.716 225.434 258.116 224.329 258.116C223.224 258.116 222.475 257.716 222.082 256.918C221.689 256.116 221.492 254.998 221.492 253.566ZM222.634 253.566C222.634 254.712 222.733 255.61 222.929 256.261C223.125 256.908 223.592 257.231 224.329 257.231C225.066 257.231 225.532 256.908 225.729 256.261C225.925 255.61 226.024 254.712 226.024 253.566C226.024 252.419 225.925 251.523 225.729 250.876C225.532 250.225 225.066 249.9 224.329 249.9C223.592 249.9 223.125 250.225 222.929 250.876C222.733 251.523 222.634 252.419 222.634 253.566Z" fill="#000912"/>
<path d="M216.904 250.864C216.85 250.733 216.899 250.639 217.051 250.582C217.366 250.463 217.665 250.273 217.947 250.011C218.23 249.749 218.453 249.516 218.617 249.311C218.735 249.164 218.85 249.09 218.961 249.09H219.482C219.671 249.09 219.765 249.182 219.765 249.366V257.656C219.765 257.84 219.673 257.932 219.489 257.932H218.961C218.776 257.932 218.684 257.84 218.684 257.656V250.926C218.684 250.803 218.688 250.68 218.697 250.557H218.684C218.557 250.717 218.371 250.881 218.125 251.049C217.88 251.216 217.655 251.339 217.45 251.417C217.27 251.487 217.151 251.454 217.094 251.319L216.904 250.864Z" fill="#000912"/>
<path d="M209.943 257.931C209.718 257.931 209.605 257.839 209.605 257.655V257.36C209.605 257.201 209.673 257.053 209.808 256.918L212.215 254.493C212.927 253.776 213.394 253.224 213.615 252.835C213.84 252.442 213.953 251.99 213.953 251.478C213.953 251.048 213.826 250.684 213.572 250.385C213.322 250.086 212.942 249.937 212.43 249.937C211.972 249.937 211.591 250.053 211.288 250.287C210.985 250.52 210.766 250.911 210.631 251.459C210.574 251.693 210.453 251.783 210.269 251.73L209.79 251.588C209.663 251.552 209.632 251.378 209.698 251.066C209.816 250.53 210.103 250.055 210.557 249.642C211.016 249.224 211.624 249.016 212.381 249.016C213.343 249.016 214.045 249.257 214.487 249.74C214.933 250.223 215.156 250.815 215.156 251.515C215.156 252.198 214.972 252.788 214.604 253.283C214.239 253.778 213.738 254.335 213.099 254.953L211.079 256.912V256.937C211.19 256.928 211.353 256.924 211.57 256.924H214.917C215.142 256.924 215.255 257.016 215.255 257.201V257.655C215.255 257.839 215.142 257.931 214.917 257.931H209.943Z" fill="#000912"/>
<path d="M201.743 257.93C201.477 257.93 201.44 257.795 201.633 257.525L204.58 253.386L201.842 249.53C201.649 249.26 201.686 249.125 201.952 249.125H202.707C202.887 249.125 203.031 249.205 203.137 249.364L205.292 252.57L207.448 249.364C207.554 249.205 207.697 249.125 207.877 249.125H208.633C208.899 249.125 208.936 249.26 208.743 249.53L206.005 253.386L208.952 257.525C209.144 257.795 209.108 257.93 208.842 257.93H208.08C207.9 257.93 207.757 257.85 207.65 257.691L205.292 254.203L202.935 257.691C202.828 257.85 202.685 257.93 202.505 257.93H201.743Z" fill="#000912"/>
<path d="M191.842 257.93C191.637 257.93 191.535 257.818 191.535 257.592V249.463C191.535 249.238 191.637 249.125 191.842 249.125H193.15C193.306 249.125 193.422 249.248 193.5 249.493L195.256 255.001C195.436 255.566 195.543 255.908 195.575 256.027C195.608 256.141 195.655 256.354 195.717 256.665H195.754C195.815 256.354 195.862 256.141 195.895 256.027C195.927 255.908 196.034 255.566 196.214 255.001L197.97 249.493C198.048 249.248 198.165 249.125 198.32 249.125H199.628C199.833 249.125 199.935 249.238 199.935 249.463V257.592C199.935 257.818 199.833 257.93 199.628 257.93H199.063C198.858 257.93 198.756 257.818 198.756 257.592V251.151C198.756 250.988 198.76 250.824 198.768 250.66H198.744L196.478 257.556C196.396 257.805 196.261 257.93 196.073 257.93H195.397C195.209 257.93 195.074 257.805 194.992 257.556L192.726 250.66H192.702C192.71 250.824 192.714 250.988 192.714 251.151V257.592C192.714 257.818 192.612 257.93 192.407 257.93H191.842Z" fill="#000912"/>
<path d="M388.468 227.945H322.426V442.766H388.468V227.945Z" fill="#ECECEC" stroke="#313131" stroke-width="0.834229" stroke-miterlimit="10"/>
<path d="M383.484 290.908H380.145V264.109H383.484V290.908Z" fill="#313131"/>
<path d="M383.484 432.14H380.145V298.582H383.484V432.14Z" fill="#313131"/>
<path d="M383.484 268.359H380.145V264.109H383.484V268.359Z" fill="#3AB992"/>
<path d="M383.484 276.776H380.145V272.656H383.484V276.776Z" fill="#3AB992"/>
<path d="M383.484 302.655H380.145V298.535H383.484V302.655Z" fill="#3AB992"/>
<path d="M383.484 327.811H380.145V323.691H383.484V327.811Z" fill="#3AB992"/>
<path d="M383.484 344.854H380.145V340.734H383.484V344.854Z" fill="#3AB992"/>
<path d="M354.096 239.452C354.139 239.019 354.27 238.672 354.616 238.325C354.92 237.978 355.31 237.804 355.787 237.804C356.264 237.804 356.654 237.978 356.915 238.281C357.175 238.585 357.305 238.975 357.348 239.409L354.096 239.452ZM355.831 236.98C354.963 236.98 354.27 237.284 353.749 237.891C353.229 238.498 352.969 239.279 352.969 240.319C352.969 241.36 353.229 242.184 353.749 242.748C354.27 243.355 355.007 243.658 355.961 243.658C356.308 243.658 356.611 243.615 356.958 243.528C357.305 243.442 357.652 243.311 358.042 243.181V242.141C357.652 242.357 357.262 242.531 356.915 242.618C356.568 242.748 356.264 242.791 355.917 242.791C355.267 242.791 354.79 242.574 354.486 242.184C354.14 241.794 353.966 241.187 354.009 240.319V240.276H358.302V239.799C358.259 239.019 358.042 238.368 357.608 237.804C357.218 237.241 356.568 236.98 355.831 236.98Z" fill="#090F15"/>
<path d="M361.86 237.847C362.207 237.847 362.51 237.891 362.77 238.021C363.03 238.151 363.291 238.281 363.551 238.585V237.5C363.247 237.327 362.987 237.24 362.683 237.154C362.423 237.067 362.12 237.023 361.816 237.023C360.906 237.023 360.125 237.327 359.605 237.934C359.084 238.541 358.824 239.322 358.824 240.362C358.824 241.403 359.084 242.227 359.605 242.791C360.125 243.398 360.862 243.701 361.816 243.701C362.12 243.701 362.423 243.658 362.683 243.571C362.987 243.485 363.247 243.354 363.507 243.224V242.097C363.291 242.314 363.03 242.487 362.727 242.617C362.467 242.747 362.12 242.791 361.816 242.791C361.166 242.791 360.689 242.574 360.385 242.184C360.125 241.75 359.995 241.143 359.995 240.362C359.995 239.582 360.168 238.975 360.515 238.541C360.732 238.108 361.209 237.847 361.86 237.847Z" fill="#090F15"/>
<path d="M343.726 238.759L341.601 235.637H339.52V237.328H340.95L342.858 240.103L340.95 242.792H339.52V244.526H341.601L343.726 241.361L344.636 240.103L343.726 238.759Z" fill="#009C92"/>
<path d="M345.852 235.637L344.681 237.328L344.074 238.282L344.985 239.626L346.546 237.328H347.89L347.933 235.637" fill="#EC1D7D"/>
<path d="M331.848 240.493C331.848 241.187 331.718 241.75 331.371 242.141C331.068 242.531 330.634 242.748 330.07 242.748C329.68 242.748 329.377 242.618 329.16 242.444C328.943 242.227 328.813 241.924 328.813 241.534C328.813 241.1 328.943 240.796 329.247 240.58C329.55 240.363 329.984 240.276 330.548 240.276H330.938H331.848V240.493ZM332.455 237.891C332.239 237.588 331.935 237.327 331.588 237.197C331.198 237.024 330.808 236.98 330.287 236.98C329.94 236.98 329.637 237.024 329.333 237.111C328.987 237.197 328.639 237.327 328.293 237.457V238.498C328.639 238.281 328.943 238.151 329.29 238.065C329.637 237.934 329.984 237.891 330.331 237.891C330.851 237.891 331.241 238.021 331.502 238.238C331.718 238.455 331.892 238.845 331.892 239.322V239.496H330.548C329.637 239.496 329.03 239.712 328.553 240.059C328.119 240.406 327.902 240.926 327.902 241.664C327.902 242.271 328.076 242.748 328.466 243.138C328.856 243.485 329.333 243.702 329.94 243.702C330.374 243.702 330.808 243.615 331.111 243.442C331.458 243.225 331.718 242.965 331.935 242.618V243.745H332.932V239.929C332.932 239.365 332.932 238.975 332.846 238.672C332.759 238.281 332.629 238.108 332.455 237.891Z" fill="#090F15"/>
<path d="M338.567 237.328H337.396L334.751 239.973V235.637H333.754V243.659H334.751V241.144L335.488 240.45L337.7 243.659H338.957L336.182 239.756L338.567 237.328Z" fill="#090F15"/>
<path d="M351.058 242.575C350.884 242.358 350.798 242.054 350.798 241.621V238.152H353.052V237.328H350.798V235.637H349.8V237.328H348.152V238.152H349.8V241.621C349.8 242.401 349.93 242.922 350.234 243.269C350.537 243.572 351.058 243.746 351.838 243.746H353.052V242.922H351.925C351.491 242.835 351.231 242.748 351.058 242.575Z" fill="#090F15"/>
<path d="M388.466 258.555H373.723V437.297H388.466" stroke="#313131" stroke-width="0.834229" stroke-miterlimit="10"/>
<path d="M367.047 430.145H326.676V437.299H367.047V430.145Z" stroke="#313131" stroke-width="0.834229" stroke-miterlimit="10"/>
<path d="M366.472 264.453H365.691V266.448H366.472V264.453Z" fill="#313131"/>
<path d="M366.087 270.218C364.57 270.218 363.355 269.003 363.355 267.486C363.355 266.575 363.789 265.751 364.526 265.231L365.003 265.881C364.483 266.228 364.179 266.835 364.179 267.486C364.179 268.57 365.047 269.437 366.131 269.437C367.215 269.437 368.082 268.57 368.082 267.486C368.082 266.835 367.735 266.228 367.215 265.838L367.648 265.188C368.429 265.708 368.906 266.575 368.906 267.486C368.819 268.96 367.605 270.218 366.087 270.218Z" fill="#313131"/>
<path d="M365.357 299.495C365.313 299.408 365.357 299.365 365.444 299.322C365.53 299.278 365.661 299.235 365.747 299.148C365.834 299.061 365.921 298.975 366.007 298.888C366.094 298.801 366.137 298.758 366.224 298.758H366.615C366.701 298.758 366.788 298.801 366.788 298.888V302.183C366.788 302.27 366.744 302.314 366.658 302.314H366.268C366.181 302.314 366.138 302.27 366.138 302.183V299.799C366.138 299.712 366.138 299.668 366.138 299.582C366.094 299.625 366.051 299.712 365.964 299.755C365.921 299.799 365.834 299.842 365.79 299.885C365.704 299.929 365.66 299.885 365.617 299.842L365.357 299.495Z" fill="#313131"/>
<path d="M364.959 310.81C364.828 310.81 364.785 310.767 364.785 310.637V310.507C364.785 310.42 364.828 310.333 364.915 310.247L365.652 309.466C365.869 309.249 366.086 309.033 366.259 308.816C366.433 308.599 366.52 308.425 366.52 308.252C366.52 308.079 366.476 307.905 366.39 307.818C366.303 307.732 366.173 307.688 366.043 307.688C365.826 307.688 365.652 307.732 365.566 307.862C365.479 307.992 365.392 308.079 365.392 308.209C365.349 308.339 365.305 308.382 365.175 308.339L364.915 308.252C364.828 308.209 364.829 308.165 364.829 308.035C364.872 307.818 365.045 307.602 365.219 307.428C365.392 307.255 365.696 307.168 366.086 307.168C366.476 307.168 366.78 307.255 366.997 307.472C367.17 307.688 367.257 307.905 367.257 308.165C367.257 308.469 367.127 308.772 366.866 309.033C366.606 309.293 366.346 309.51 366.129 309.726L365.696 310.16C365.783 310.16 365.869 310.16 365.956 310.16H367.127C367.257 310.16 367.3 310.203 367.3 310.333V310.637C367.3 310.724 367.257 310.81 367.127 310.81H364.959Z" fill="#313131"/>
<path d="M365.357 273.507C365.313 273.42 365.357 273.377 365.444 273.333C365.53 273.29 365.661 273.247 365.747 273.16C365.834 273.073 365.921 272.986 366.007 272.9C366.094 272.813 366.137 272.77 366.224 272.77H366.615C366.701 272.77 366.788 272.813 366.788 272.9V276.195C366.788 276.282 366.744 276.325 366.658 276.325H366.268C366.181 276.325 366.138 276.282 366.138 276.195V273.81C366.138 273.724 366.138 273.68 366.138 273.593C366.094 273.637 366.051 273.724 365.964 273.767C365.921 273.81 365.834 273.854 365.79 273.897C365.704 273.94 365.66 273.897 365.617 273.854L365.357 273.507Z" fill="#313131"/>
<path d="M364.959 282.295C364.828 282.295 364.785 282.251 364.785 282.121V281.991C364.785 281.905 364.828 281.818 364.915 281.731L365.652 280.951C365.869 280.734 366.086 280.517 366.259 280.3C366.433 280.083 366.52 279.91 366.52 279.736C366.52 279.563 366.476 279.39 366.39 279.303C366.303 279.216 366.173 279.173 366.043 279.173C365.826 279.173 365.652 279.216 365.566 279.346C365.479 279.476 365.392 279.563 365.392 279.693C365.349 279.823 365.305 279.867 365.175 279.823L364.915 279.736C364.828 279.693 364.829 279.65 364.829 279.52C364.872 279.303 365.045 279.086 365.219 278.913C365.392 278.739 365.696 278.652 366.086 278.652C366.476 278.652 366.78 278.739 366.997 278.956C367.17 279.173 367.257 279.39 367.257 279.65C367.257 279.953 367.127 280.257 366.866 280.517C366.606 280.777 366.346 280.994 366.129 281.211L365.696 281.644C365.783 281.644 365.869 281.644 365.956 281.644H367.127C367.257 281.644 367.3 281.688 367.3 281.818V282.121C367.3 282.208 367.257 282.295 367.127 282.295H364.959Z" fill="#313131"/>
<path d="M364.882 318.96C364.839 318.916 364.795 318.83 364.882 318.743L365.012 318.526C365.055 318.439 365.142 318.396 365.272 318.483C365.359 318.569 365.489 318.613 365.619 318.656C365.749 318.699 365.879 318.743 366.053 318.743C366.27 318.743 366.443 318.699 366.53 318.569C366.617 318.439 366.66 318.309 366.66 318.179C366.66 318.049 366.616 317.876 366.486 317.789C366.356 317.659 366.226 317.615 366.009 317.615H365.836C365.749 317.615 365.663 317.572 365.663 317.485V317.225C365.663 317.138 365.706 317.095 365.836 317.095H365.966C366.14 317.095 366.27 317.052 366.356 316.965C366.486 316.878 366.53 316.748 366.53 316.618C366.53 316.488 366.487 316.401 366.4 316.358C366.313 316.271 366.183 316.228 366.009 316.228C365.836 316.228 365.706 316.271 365.576 316.315C365.446 316.358 365.359 316.401 365.272 316.488C365.186 316.575 365.099 316.575 365.012 316.488L364.882 316.271C364.839 316.184 364.839 316.098 364.925 316.011C365.055 315.881 365.186 315.794 365.402 315.751C365.576 315.707 365.793 315.664 365.966 315.664C366.4 315.664 366.703 315.751 366.92 315.924C367.137 316.098 367.224 316.315 367.224 316.531C367.224 316.705 367.137 316.878 367.007 317.052C366.877 317.182 366.703 317.312 366.573 317.355C366.747 317.399 366.963 317.485 367.093 317.659C367.267 317.832 367.354 318.006 367.354 318.222C367.354 318.569 367.224 318.873 367.007 319.046C366.79 319.22 366.443 319.35 365.966 319.35C365.749 319.35 365.576 319.307 365.359 319.263C365.185 319.133 365.012 319.046 364.882 318.96Z" fill="#313131"/>
<path d="M364.877 326.901C364.79 326.901 364.703 326.857 364.703 326.727V326.424C364.703 326.337 364.747 326.25 364.79 326.163L366.178 324.212C366.221 324.125 366.308 324.082 366.394 324.082H366.741C366.871 324.082 366.915 324.125 366.915 324.255V326.294H367.218C367.305 326.294 367.392 326.337 367.392 326.467V326.771C367.392 326.857 367.348 326.944 367.218 326.944H366.915V327.551C366.915 327.638 366.871 327.725 366.741 327.725H366.351C366.264 327.725 366.178 327.681 366.178 327.551V326.944H364.877V326.901ZM365.397 326.294H366.221V325.34C366.221 325.253 366.221 325.209 366.221 325.123L365.397 326.294Z" fill="#313131"/>
<path d="M364.883 335.839C364.84 335.752 364.84 335.709 364.84 335.665L365.013 335.405C365.1 335.319 365.187 335.319 365.273 335.405C365.317 335.449 365.447 335.492 365.534 335.535C365.664 335.579 365.794 335.622 365.924 335.622C366.097 335.622 366.271 335.579 366.401 335.449C366.531 335.362 366.618 335.189 366.618 334.972C366.618 334.798 366.574 334.625 366.488 334.495C366.401 334.365 366.314 334.321 366.227 334.321C366.141 334.321 366.054 334.321 365.967 334.365C365.881 334.365 365.837 334.408 365.751 334.495C365.707 334.538 365.62 334.581 365.49 334.581H365.143C365.013 334.581 364.926 334.538 364.926 334.408V332.673C364.926 332.587 364.97 332.5 365.1 332.5H366.878C366.965 332.5 367.051 332.543 367.051 332.673V332.977C367.051 333.064 367.008 333.15 366.878 333.15H365.62V333.758C365.62 333.844 365.62 333.888 365.62 333.974C365.707 333.888 365.794 333.844 365.924 333.801C366.011 333.758 366.141 333.758 366.271 333.758C366.574 333.758 366.791 333.844 367.008 334.061C367.225 334.278 367.311 334.581 367.311 334.972C367.311 335.362 367.181 335.666 366.921 335.839C366.661 336.056 366.357 336.143 366.011 336.143C365.707 336.143 365.447 336.099 365.23 336.056C365.1 336.012 364.927 335.926 364.883 335.839Z" fill="#313131"/>
<path d="M364.75 342.905C364.75 342.168 364.88 341.647 365.14 341.344C365.4 341.084 365.747 340.91 366.138 340.91C366.311 340.91 366.441 340.953 366.615 340.997C366.788 341.04 366.875 341.084 366.962 341.17C367.048 341.257 367.048 341.3 367.005 341.387L366.832 341.647C366.788 341.734 366.701 341.734 366.615 341.647C366.571 341.604 366.485 341.561 366.398 341.561C366.311 341.517 366.181 341.517 366.094 341.517C365.921 341.517 365.747 341.604 365.617 341.777C365.487 341.951 365.4 342.211 365.4 342.601C365.487 342.471 365.574 342.428 365.704 342.341C365.834 342.298 366.008 342.254 366.181 342.254C366.528 342.254 366.788 342.384 366.962 342.601C367.135 342.818 367.222 343.122 367.222 343.469C367.222 343.815 367.135 344.119 366.918 344.336C366.701 344.553 366.398 344.683 365.964 344.683C365.531 344.683 365.184 344.509 364.967 344.206C364.88 343.902 364.75 343.469 364.75 342.905ZM365.574 343.469C365.574 343.685 365.617 343.815 365.704 343.946C365.791 344.076 365.921 344.119 366.051 344.119C366.224 344.119 366.354 344.076 366.441 343.989C366.528 343.902 366.571 343.729 366.571 343.469C366.571 343.252 366.528 343.078 366.441 342.992C366.354 342.905 366.224 342.861 366.094 342.861C365.921 342.861 365.791 342.948 365.704 343.078C365.617 343.208 365.574 343.295 365.574 343.469Z" fill="#313131"/>
<path d="M365.013 350.096C364.927 350.096 364.84 350.052 364.84 349.922V349.619C364.84 349.532 364.883 349.445 365.013 349.445H367.051C367.138 349.445 367.225 349.489 367.225 349.619V349.879C367.225 349.966 367.181 350.052 367.095 350.139C366.748 350.529 366.531 350.92 366.401 351.31C366.271 351.7 366.184 352.134 366.184 352.698V352.871C366.184 352.958 366.141 353.044 366.011 353.044H365.62C365.534 353.044 365.447 353.001 365.447 352.871V352.784C365.447 352.177 365.534 351.7 365.751 351.267C365.967 350.876 366.227 350.443 366.531 350.052C366.444 350.052 366.401 350.052 366.314 350.052H365.013V350.096Z" fill="#313131"/>
<path d="M364.75 360.501C364.75 360.197 364.837 359.98 365.01 359.85C365.184 359.677 365.357 359.59 365.444 359.547C365.314 359.503 365.184 359.417 365.01 359.286C364.837 359.156 364.793 358.983 364.793 358.766C364.793 358.506 364.88 358.289 365.097 358.116C365.314 357.942 365.574 357.855 365.964 357.855C366.311 357.855 366.615 357.942 366.832 358.116C367.048 358.289 367.135 358.506 367.135 358.766C367.135 358.983 367.048 359.156 366.918 359.286C366.788 359.417 366.658 359.503 366.485 359.547C366.615 359.59 366.745 359.677 366.918 359.85C367.092 360.024 367.178 360.24 367.178 360.501C367.178 360.804 367.092 361.064 366.875 361.238C366.658 361.411 366.354 361.541 365.877 361.541C365.444 361.541 365.097 361.455 364.88 361.238C364.88 361.064 364.75 360.804 364.75 360.501ZM365.531 360.414C365.531 360.587 365.574 360.761 365.661 360.848C365.747 360.934 365.877 360.978 366.051 360.978C366.224 360.978 366.398 360.934 366.441 360.848C366.528 360.761 366.571 360.631 366.571 360.414C366.571 360.284 366.528 360.154 366.441 360.024C366.354 359.894 366.224 359.85 366.051 359.85C365.877 359.85 365.747 359.894 365.661 360.024C365.574 360.154 365.531 360.284 365.531 360.414ZM365.574 358.809C365.574 358.94 365.617 359.026 365.704 359.113C365.791 359.2 365.877 359.243 366.051 359.243C366.181 359.243 366.311 359.2 366.398 359.113C366.485 359.026 366.528 358.94 366.528 358.809C366.528 358.679 366.485 358.593 366.398 358.506C366.311 358.419 366.224 358.376 366.051 358.376C365.877 358.376 365.791 358.419 365.704 358.506C365.617 358.593 365.574 358.679 365.574 358.809Z" fill="#313131"/>
<path d="M369.566 290.21L366.487 285.397C366.4 285.223 366.27 285.137 366.053 285.137C365.88 285.137 365.706 285.223 365.62 285.354L362.628 290.21C362.541 290.34 362.541 290.514 362.628 290.687C362.714 290.817 362.844 290.904 363.018 290.904H369.089C369.262 290.904 369.392 290.817 369.479 290.687C369.652 290.557 369.652 290.384 369.566 290.21ZM369.045 290.384H363.148L366.053 285.7L369.045 290.384Z" fill="#313131"/>
<path d="M365.789 287.22C365.789 287.133 365.833 287.09 365.919 287.09H366.223C366.309 287.09 366.353 287.133 366.353 287.22L366.31 288.911C366.31 288.998 366.266 289.041 366.179 289.041H365.963C365.876 289.041 365.832 288.998 365.832 288.911L365.789 287.22ZM365.919 289.865C365.833 289.865 365.789 289.822 365.789 289.735V289.475C365.789 289.388 365.833 289.345 365.919 289.345H366.223C366.309 289.345 366.353 289.388 366.353 289.475V289.735C366.353 289.822 366.309 289.865 366.223 289.865H365.919Z" fill="#313131"/>
<path d="M358 253.566C358 252.133 358.196 251.017 358.589 250.219C358.982 249.417 359.732 249.016 360.837 249.016C361.942 249.016 362.691 249.417 363.084 250.219C363.477 251.017 363.674 252.133 363.674 253.566C363.674 254.998 363.477 256.116 363.084 256.918C362.691 257.716 361.942 258.116 360.837 258.116C359.732 258.116 358.982 257.716 358.589 256.918C358.196 256.116 358 254.998 358 253.566ZM359.142 253.566C359.142 254.712 359.24 255.61 359.437 256.261C359.633 256.908 360.1 257.231 360.837 257.231C361.574 257.231 362.04 256.908 362.237 256.261C362.433 255.61 362.532 254.712 362.532 253.566C362.532 252.419 362.433 251.523 362.237 250.876C362.04 250.225 361.574 249.9 360.837 249.9C360.1 249.9 359.633 250.225 359.437 250.876C359.24 251.523 359.142 252.419 359.142 253.566Z" fill="#000912"/>
<path d="M353.411 250.864C353.358 250.733 353.407 250.639 353.559 250.582C353.874 250.463 354.173 250.273 354.455 250.011C354.738 249.749 354.961 249.516 355.125 249.311C355.243 249.164 355.358 249.09 355.468 249.09H355.99C356.179 249.09 356.273 249.182 356.273 249.366V257.656C356.273 257.84 356.181 257.932 355.996 257.932H355.468C355.284 257.932 355.192 257.84 355.192 257.656V250.926C355.192 250.803 355.196 250.68 355.204 250.557H355.192C355.065 250.717 354.879 250.881 354.633 251.049C354.388 251.216 354.163 251.339 353.958 251.417C353.778 251.487 353.659 251.454 353.602 251.319L353.411 250.864Z" fill="#000912"/>
<path d="M346.451 257.931C346.226 257.931 346.113 257.839 346.113 257.655V257.36C346.113 257.201 346.181 257.053 346.316 256.918L348.723 254.493C349.435 253.776 349.902 253.224 350.123 252.835C350.348 252.442 350.461 251.99 350.461 251.478C350.461 251.048 350.334 250.684 350.08 250.385C349.83 250.086 349.449 249.937 348.938 249.937C348.479 249.937 348.099 250.053 347.796 250.287C347.493 250.52 347.274 250.911 347.139 251.459C347.081 251.693 346.961 251.783 346.776 251.73L346.297 251.588C346.171 251.552 346.14 251.378 346.205 251.066C346.324 250.53 346.611 250.055 347.065 249.642C347.523 249.224 348.131 249.016 348.889 249.016C349.851 249.016 350.553 249.257 350.995 249.74C351.441 250.223 351.664 250.815 351.664 251.515C351.664 252.198 351.48 252.788 351.111 253.283C350.747 253.778 350.246 254.335 349.607 254.953L347.587 256.912V256.937C347.697 256.928 347.861 256.924 348.078 256.924H351.425C351.65 256.924 351.762 257.016 351.762 257.201V257.655C351.762 257.839 351.65 257.931 351.425 257.931H346.451Z" fill="#000912"/>
<path d="M338.251 257.93C337.985 257.93 337.948 257.795 338.141 257.525L341.088 253.386L338.349 249.53C338.157 249.26 338.194 249.125 338.46 249.125H339.215C339.395 249.125 339.539 249.205 339.645 249.364L341.8 252.57L343.955 249.364C344.062 249.205 344.205 249.125 344.385 249.125H345.141C345.407 249.125 345.443 249.26 345.251 249.53L342.513 253.386L345.46 257.525C345.652 257.795 345.615 257.93 345.349 257.93H344.588C344.408 257.93 344.265 257.85 344.158 257.691L341.8 254.203L339.442 257.691C339.336 257.85 339.193 257.93 339.013 257.93H338.251Z" fill="#000912"/>
<path d="M328.35 257.93C328.145 257.93 328.043 257.818 328.043 257.592V249.463C328.043 249.238 328.145 249.125 328.35 249.125H329.658C329.813 249.125 329.93 249.248 330.008 249.493L331.764 255.001C331.944 255.566 332.051 255.908 332.083 256.027C332.116 256.141 332.163 256.354 332.224 256.665H332.261C332.323 256.354 332.37 256.141 332.403 256.027C332.435 255.908 332.542 255.566 332.722 255.001L334.478 249.493C334.556 249.248 334.672 249.125 334.828 249.125H336.136C336.341 249.125 336.443 249.238 336.443 249.463V257.592C336.443 257.818 336.341 257.93 336.136 257.93H335.571C335.366 257.93 335.264 257.818 335.264 257.592V251.151C335.264 250.988 335.268 250.824 335.276 250.66H335.252L332.986 257.556C332.904 257.805 332.769 257.93 332.581 257.93H331.905C331.717 257.93 331.582 257.805 331.5 257.556L329.234 250.66H329.21C329.218 250.824 329.222 250.988 329.222 251.151V257.592C329.222 257.818 329.12 257.93 328.915 257.93H328.35Z" fill="#000912"/>
<path d="M577.772 227.945H511.73V442.766H577.772V227.945Z" fill="#ECECEC" stroke="#313131" stroke-width="0.834229" stroke-miterlimit="10"/>
<path d="M572.788 290.908H569.449V264.109H572.788V290.908Z" fill="#313131"/>
<path d="M572.788 432.14H569.449V298.582H572.788V432.14Z" fill="#313131"/>
<path d="M572.788 268.359H569.449V264.109H572.788V268.359Z" fill="#3AB992"/>
<path d="M572.788 276.776H569.449V272.656H572.788V276.776Z" fill="#3AB992"/>
<path d="M572.788 302.655H569.449V298.535H572.788V302.655Z" fill="#3AB992"/>
<path d="M572.788 327.811H569.449V323.691H572.788V327.811Z" fill="#3AB992"/>
<path d="M572.788 344.854H569.449V340.734H572.788V344.854Z" fill="#3AB992"/>
<path d="M543.401 239.452C543.444 239.019 543.574 238.672 543.921 238.325C544.225 237.978 544.615 237.804 545.092 237.804C545.569 237.804 545.959 237.978 546.219 238.281C546.479 238.585 546.61 238.975 546.653 239.409L543.401 239.452ZM545.135 236.98C544.268 236.98 543.574 237.284 543.054 237.891C542.534 238.498 542.273 239.279 542.273 240.319C542.273 241.36 542.534 242.184 543.054 242.748C543.574 243.355 544.311 243.658 545.265 243.658C545.612 243.658 545.916 243.615 546.263 243.528C546.61 243.442 546.957 243.311 547.347 243.181V242.141C546.957 242.357 546.566 242.531 546.219 242.618C545.872 242.748 545.569 242.791 545.222 242.791C544.572 242.791 544.095 242.574 543.791 242.184C543.444 241.794 543.271 241.187 543.314 240.319V240.276H547.607V239.799C547.564 239.019 547.347 238.368 546.913 237.804C546.523 237.241 545.872 236.98 545.135 236.98Z" fill="#090F15"/>
<path d="M551.164 237.847C551.511 237.847 551.815 237.891 552.075 238.021C552.335 238.151 552.595 238.281 552.855 238.585V237.5C552.552 237.327 552.292 237.24 551.988 237.154C551.728 237.067 551.424 237.023 551.121 237.023C550.21 237.023 549.43 237.327 548.909 237.934C548.389 238.541 548.129 239.322 548.129 240.362C548.129 241.403 548.389 242.227 548.909 242.791C549.43 243.398 550.167 243.701 551.121 243.701C551.424 243.701 551.728 243.658 551.988 243.571C552.292 243.485 552.552 243.354 552.812 243.224V242.097C552.595 242.314 552.335 242.487 552.032 242.617C551.771 242.747 551.424 242.791 551.121 242.791C550.47 242.791 549.993 242.574 549.69 242.184C549.43 241.75 549.3 241.143 549.3 240.362C549.3 239.582 549.473 238.975 549.82 238.541C550.037 238.108 550.514 237.847 551.164 237.847Z" fill="#090F15"/>
<path d="M533.03 238.759L530.906 235.637H528.824V237.328H530.255L532.163 240.103L530.255 242.792H528.824V244.526H530.906L533.03 241.361L533.941 240.103L533.03 238.759Z" fill="#009C92"/>
<path d="M535.157 235.637L533.986 237.328L533.379 238.282L534.289 239.626L535.85 237.328H537.195L537.238 235.637" fill="#EC1D7D"/>
<path d="M521.153 240.493C521.153 241.187 521.023 241.75 520.676 242.141C520.373 242.531 519.939 242.748 519.375 242.748C518.985 242.748 518.681 242.618 518.465 242.444C518.248 242.227 518.118 241.924 518.118 241.534C518.118 241.1 518.248 240.796 518.551 240.58C518.855 240.363 519.288 240.276 519.852 240.276H520.242H521.153V240.493ZM521.76 237.891C521.543 237.588 521.24 237.327 520.893 237.197C520.503 237.024 520.112 236.98 519.592 236.98C519.245 236.98 518.942 237.024 518.638 237.111C518.291 237.197 517.944 237.327 517.597 237.457V238.498C517.944 238.281 518.248 238.151 518.595 238.065C518.942 237.934 519.288 237.891 519.635 237.891C520.156 237.891 520.546 238.021 520.806 238.238C521.023 238.455 521.197 238.845 521.197 239.322V239.496H519.852C518.942 239.496 518.334 239.712 517.857 240.059C517.424 240.406 517.207 240.926 517.207 241.664C517.207 242.271 517.381 242.748 517.771 243.138C518.161 243.485 518.638 243.702 519.245 243.702C519.679 243.702 520.112 243.615 520.416 243.442C520.763 243.225 521.023 242.965 521.24 242.618V243.745H522.237V239.929C522.237 239.365 522.237 238.975 522.15 238.672C522.064 238.281 521.934 238.108 521.76 237.891Z" fill="#090F15"/>
<path d="M527.872 237.328H526.701L524.056 239.973V235.637H523.059V243.659H524.056V241.144L524.793 240.45L527.005 243.659H528.262L525.487 239.756L527.872 237.328Z" fill="#090F15"/>
<path d="M540.362 242.575C540.189 242.358 540.102 242.054 540.102 241.621V238.152H542.357V237.328H540.102V235.637H539.105V237.328H537.457V238.152H539.105V241.621C539.105 242.401 539.235 242.922 539.538 243.269C539.842 243.572 540.362 243.746 541.143 243.746H542.357V242.922H541.229C540.796 242.835 540.536 242.748 540.362 242.575Z" fill="#090F15"/>
<path d="M577.771 258.555H563.027V437.297H577.771" stroke="#313131" stroke-width="0.834229" stroke-miterlimit="10"/>
<path d="M556.351 430.145H515.98V437.299H556.351V430.145Z" stroke="#313131" stroke-width="0.834229" stroke-miterlimit="10"/>
<path d="M555.777 264.453H554.996V266.448H555.777V264.453Z" fill="#313131"/>
<path d="M555.392 270.218C553.874 270.218 552.66 269.003 552.66 267.486C552.66 266.575 553.094 265.751 553.831 265.231L554.308 265.881C553.788 266.228 553.484 266.835 553.484 267.486C553.484 268.57 554.351 269.437 555.435 269.437C556.519 269.437 557.387 268.57 557.387 267.486C557.387 266.835 557.04 266.228 556.519 265.838L556.953 265.188C557.734 265.708 558.211 266.575 558.211 267.486C558.124 268.96 556.91 270.218 555.392 270.218Z" fill="#313131"/>
<path d="M554.662 299.495C554.618 299.408 554.662 299.365 554.748 299.322C554.835 299.278 554.965 299.235 555.052 299.148C555.139 299.061 555.225 298.975 555.312 298.888C555.399 298.801 555.442 298.758 555.529 298.758H555.919C556.006 298.758 556.093 298.801 556.093 298.888V302.183C556.093 302.27 556.049 302.314 555.962 302.314H555.572C555.485 302.314 555.442 302.27 555.442 302.183V299.799C555.442 299.712 555.442 299.668 555.442 299.582C555.399 299.625 555.356 299.712 555.269 299.755C555.225 299.799 555.139 299.842 555.095 299.885C555.008 299.929 554.965 299.885 554.922 299.842L554.662 299.495Z" fill="#313131"/>
<path d="M554.263 310.81C554.133 310.81 554.09 310.767 554.09 310.637V310.507C554.09 310.42 554.133 310.333 554.22 310.247L554.957 309.466C555.174 309.249 555.391 309.033 555.564 308.816C555.738 308.599 555.824 308.425 555.824 308.252C555.824 308.079 555.781 307.905 555.694 307.818C555.608 307.732 555.477 307.688 555.347 307.688C555.131 307.688 554.957 307.732 554.87 307.862C554.784 307.992 554.697 308.079 554.697 308.209C554.654 308.339 554.61 308.382 554.48 308.339L554.22 308.252C554.133 308.209 554.133 308.165 554.133 308.035C554.177 307.818 554.35 307.602 554.523 307.428C554.697 307.255 555 307.168 555.391 307.168C555.781 307.168 556.085 307.255 556.301 307.472C556.475 307.688 556.562 307.905 556.562 308.165C556.562 308.469 556.431 308.772 556.171 309.033C555.911 309.293 555.651 309.51 555.434 309.726L555.001 310.16C555.087 310.16 555.174 310.16 555.261 310.16H556.431C556.561 310.16 556.605 310.203 556.605 310.333V310.637C556.605 310.724 556.561 310.81 556.431 310.81H554.263Z" fill="#313131"/>
<path d="M554.662 273.507C554.618 273.42 554.662 273.377 554.748 273.333C554.835 273.29 554.965 273.247 555.052 273.16C555.139 273.073 555.225 272.986 555.312 272.9C555.399 272.813 555.442 272.77 555.529 272.77H555.919C556.006 272.77 556.093 272.813 556.093 272.9V276.195C556.093 276.282 556.049 276.325 555.962 276.325H555.572C555.485 276.325 555.442 276.282 555.442 276.195V273.81C555.442 273.724 555.442 273.68 555.442 273.593C555.399 273.637 555.356 273.724 555.269 273.767C555.225 273.81 555.139 273.854 555.095 273.897C555.008 273.94 554.965 273.897 554.922 273.854L554.662 273.507Z" fill="#313131"/>
<path d="M554.263 282.295C554.133 282.295 554.09 282.251 554.09 282.121V281.991C554.09 281.905 554.133 281.818 554.22 281.731L554.957 280.951C555.174 280.734 555.391 280.517 555.564 280.3C555.738 280.083 555.824 279.91 555.824 279.736C555.824 279.563 555.781 279.39 555.694 279.303C555.608 279.216 555.477 279.173 555.347 279.173C555.131 279.173 554.957 279.216 554.87 279.346C554.784 279.476 554.697 279.563 554.697 279.693C554.654 279.823 554.61 279.867 554.48 279.823L554.22 279.736C554.133 279.693 554.133 279.65 554.133 279.52C554.177 279.303 554.35 279.086 554.523 278.913C554.697 278.739 555 278.652 555.391 278.652C555.781 278.652 556.085 278.739 556.301 278.956C556.475 279.173 556.562 279.39 556.562 279.65C556.562 279.953 556.431 280.257 556.171 280.517C555.911 280.777 555.651 280.994 555.434 281.211L555.001 281.644C555.087 281.644 555.174 281.644 555.261 281.644H556.431C556.561 281.644 556.605 281.688 556.605 281.818V282.121C556.605 282.208 556.561 282.295 556.431 282.295H554.263Z" fill="#313131"/>
<path d="M554.187 318.96C554.143 318.916 554.1 318.83 554.187 318.743L554.317 318.526C554.36 318.439 554.447 318.396 554.577 318.483C554.664 318.569 554.794 318.613 554.924 318.656C555.054 318.699 555.184 318.743 555.357 318.743C555.574 318.743 555.748 318.699 555.834 318.569C555.921 318.439 555.965 318.309 555.965 318.179C555.965 318.049 555.921 317.876 555.791 317.789C555.661 317.659 555.531 317.615 555.314 317.615H555.141C555.054 317.615 554.967 317.572 554.967 317.485V317.225C554.967 317.138 555.011 317.095 555.141 317.095H555.271C555.444 317.095 555.574 317.052 555.661 316.965C555.791 316.878 555.834 316.748 555.834 316.618C555.834 316.488 555.791 316.401 555.704 316.358C555.618 316.271 555.488 316.228 555.314 316.228C555.141 316.228 555.011 316.271 554.88 316.315C554.75 316.358 554.664 316.401 554.577 316.488C554.49 316.575 554.404 316.575 554.317 316.488L554.187 316.271C554.143 316.184 554.143 316.098 554.23 316.011C554.36 315.881 554.49 315.794 554.707 315.751C554.88 315.707 555.097 315.664 555.271 315.664C555.704 315.664 556.008 315.751 556.225 315.924C556.442 316.098 556.528 316.315 556.528 316.531C556.528 316.705 556.442 316.878 556.312 317.052C556.181 317.182 556.008 317.312 555.878 317.355C556.051 317.399 556.268 317.485 556.398 317.659C556.572 317.832 556.658 318.006 556.658 318.222C556.658 318.569 556.528 318.873 556.312 319.046C556.095 319.22 555.748 319.35 555.271 319.35C555.054 319.35 554.88 319.307 554.664 319.263C554.49 319.133 554.317 319.046 554.187 318.96Z" fill="#313131"/>
<path d="M554.181 326.901C554.095 326.901 554.008 326.857 554.008 326.727V326.424C554.008 326.337 554.051 326.25 554.095 326.163L555.482 324.212C555.526 324.125 555.612 324.082 555.699 324.082H556.046C556.176 324.082 556.219 324.125 556.219 324.255V326.294H556.523C556.61 326.294 556.696 326.337 556.696 326.467V326.771C556.696 326.857 556.653 326.944 556.523 326.944H556.219V327.551C556.219 327.638 556.176 327.725 556.046 327.725H555.656C555.569 327.725 555.482 327.681 555.482 327.551V326.944H554.181V326.901ZM554.702 326.294H555.526V325.34C555.526 325.253 555.526 325.209 555.526 325.123L554.702 326.294Z" fill="#313131"/>
<path d="M554.188 335.839C554.145 335.752 554.145 335.709 554.145 335.665L554.318 335.405C554.405 335.319 554.491 335.319 554.578 335.405C554.622 335.449 554.752 335.492 554.838 335.535C554.968 335.579 555.099 335.622 555.229 335.622C555.402 335.622 555.576 335.579 555.706 335.449C555.836 335.362 555.922 335.189 555.922 334.972C555.922 334.798 555.879 334.625 555.792 334.495C555.706 334.365 555.619 334.321 555.532 334.321C555.445 334.321 555.359 334.321 555.272 334.365C555.185 334.365 555.142 334.408 555.055 334.495C555.012 334.538 554.925 334.581 554.795 334.581H554.448C554.318 334.581 554.231 334.538 554.231 334.408V332.673C554.231 332.587 554.275 332.5 554.405 332.5H556.182C556.269 332.5 556.356 332.543 556.356 332.673V332.977C556.356 333.064 556.313 333.15 556.182 333.15H554.925V333.758C554.925 333.844 554.925 333.888 554.925 333.974C555.012 333.888 555.099 333.844 555.229 333.801C555.315 333.758 555.445 333.758 555.575 333.758C555.879 333.758 556.096 333.844 556.313 334.061C556.529 334.278 556.616 334.581 556.616 334.972C556.616 335.362 556.486 335.666 556.226 335.839C555.966 336.056 555.662 336.143 555.315 336.143C555.012 336.143 554.752 336.099 554.535 336.056C554.405 336.012 554.231 335.926 554.188 335.839Z" fill="#313131"/>
<path d="M554.055 342.905C554.055 342.168 554.185 341.647 554.445 341.344C554.705 341.084 555.052 340.91 555.442 340.91C555.616 340.91 555.746 340.953 555.919 340.997C556.093 341.04 556.18 341.084 556.266 341.17C556.353 341.257 556.353 341.3 556.31 341.387L556.136 341.647C556.093 341.734 556.006 341.734 555.919 341.647C555.876 341.604 555.789 341.561 555.703 341.561C555.616 341.517 555.486 341.517 555.399 341.517C555.226 341.517 555.052 341.604 554.922 341.777C554.792 341.951 554.705 342.211 554.705 342.601C554.792 342.471 554.879 342.428 555.009 342.341C555.139 342.298 555.312 342.254 555.486 342.254C555.833 342.254 556.093 342.384 556.266 342.601C556.44 342.818 556.526 343.122 556.526 343.469C556.526 343.815 556.44 344.119 556.223 344.336C556.006 344.553 555.703 344.683 555.269 344.683C554.835 344.683 554.488 344.509 554.272 344.206C554.185 343.902 554.055 343.469 554.055 342.905ZM554.879 343.469C554.879 343.685 554.922 343.815 555.009 343.946C555.095 344.076 555.225 344.119 555.356 344.119C555.529 344.119 555.659 344.076 555.746 343.989C555.833 343.902 555.876 343.729 555.876 343.469C555.876 343.252 555.833 343.078 555.746 342.992C555.659 342.905 555.529 342.861 555.399 342.861C555.226 342.861 555.095 342.948 555.009 343.078C554.922 343.208 554.879 343.295 554.879 343.469Z" fill="#313131"/>
<path d="M554.318 350.096C554.231 350.096 554.145 350.052 554.145 349.922V349.619C554.145 349.532 554.188 349.445 554.318 349.445H556.356C556.443 349.445 556.529 349.489 556.529 349.619V349.879C556.529 349.966 556.486 350.052 556.399 350.139C556.052 350.529 555.836 350.92 555.706 351.31C555.576 351.7 555.489 352.134 555.489 352.698V352.871C555.489 352.958 555.445 353.044 555.315 353.044H554.925C554.838 353.044 554.752 353.001 554.752 352.871V352.784C554.752 352.177 554.838 351.7 555.055 351.267C555.272 350.876 555.532 350.443 555.836 350.052C555.749 350.052 555.706 350.052 555.619 350.052H554.318V350.096Z" fill="#313131"/>
<path d="M554.055 360.501C554.055 360.197 554.141 359.98 554.315 359.85C554.488 359.677 554.662 359.59 554.749 359.547C554.618 359.503 554.488 359.417 554.315 359.286C554.141 359.156 554.098 358.983 554.098 358.766C554.098 358.506 554.185 358.289 554.402 358.116C554.619 357.942 554.879 357.855 555.269 357.855C555.616 357.855 555.919 357.942 556.136 358.116C556.353 358.289 556.44 358.506 556.44 358.766C556.44 358.983 556.353 359.156 556.223 359.286C556.093 359.417 555.963 359.503 555.789 359.547C555.919 359.59 556.049 359.677 556.223 359.85C556.396 360.024 556.483 360.24 556.483 360.501C556.483 360.804 556.396 361.064 556.179 361.238C555.963 361.411 555.659 361.541 555.182 361.541C554.749 361.541 554.402 361.455 554.185 361.238C554.185 361.064 554.055 360.804 554.055 360.501ZM554.835 360.414C554.835 360.587 554.879 360.761 554.965 360.848C555.052 360.934 555.182 360.978 555.356 360.978C555.529 360.978 555.702 360.934 555.746 360.848C555.833 360.761 555.876 360.631 555.876 360.414C555.876 360.284 555.833 360.154 555.746 360.024C555.659 359.894 555.529 359.85 555.356 359.85C555.182 359.85 555.052 359.894 554.965 360.024C554.879 360.154 554.835 360.284 554.835 360.414ZM554.879 358.809C554.879 358.94 554.922 359.026 555.009 359.113C555.095 359.2 555.182 359.243 555.356 359.243C555.486 359.243 555.616 359.2 555.703 359.113C555.789 359.026 555.833 358.94 555.833 358.809C555.833 358.679 555.789 358.593 555.703 358.506C555.616 358.419 555.529 358.376 555.356 358.376C555.182 358.376 555.095 358.419 555.009 358.506C554.922 358.593 554.879 358.679 554.879 358.809Z" fill="#313131"/>
<path d="M558.87 290.21L555.791 285.397C555.705 285.223 555.575 285.137 555.358 285.137C555.184 285.137 555.011 285.223 554.924 285.354L551.932 290.21C551.846 290.34 551.846 290.514 551.932 290.687C552.019 290.817 552.149 290.904 552.322 290.904H558.393C558.567 290.904 558.697 290.817 558.784 290.687C558.957 290.557 558.957 290.384 558.87 290.21ZM558.35 290.384H552.453L555.358 285.7L558.35 290.384Z" fill="#313131"/>
<path d="M555.094 287.22C555.094 287.133 555.137 287.09 555.224 287.09H555.527C555.614 287.09 555.658 287.133 555.658 287.22L555.614 288.911C555.614 288.998 555.571 289.041 555.484 289.041H555.267C555.181 289.041 555.137 288.998 555.137 288.911L555.094 287.22ZM555.224 289.865C555.137 289.865 555.094 289.822 555.094 289.735V289.475C555.094 289.388 555.137 289.345 555.224 289.345H555.527C555.614 289.345 555.658 289.388 555.658 289.475V289.735C555.658 289.822 555.614 289.865 555.527 289.865H555.224Z" fill="#313131"/>
<path d="M547.305 253.566C547.305 252.133 547.501 251.017 547.894 250.219C548.287 249.417 549.036 249.016 550.141 249.016C551.247 249.016 551.996 249.417 552.389 250.219C552.782 251.017 552.978 252.133 552.978 253.566C552.978 254.998 552.782 256.116 552.389 256.918C551.996 257.716 551.247 258.116 550.141 258.116C549.036 258.116 548.287 257.716 547.894 256.918C547.501 256.116 547.305 254.998 547.305 253.566ZM548.447 253.566C548.447 254.712 548.545 255.61 548.742 256.261C548.938 256.908 549.405 257.231 550.141 257.231C550.878 257.231 551.345 256.908 551.541 256.261C551.738 255.61 551.836 254.712 551.836 253.566C551.836 252.419 551.738 251.523 551.541 250.876C551.345 250.225 550.878 249.9 550.141 249.9C549.405 249.9 548.938 250.225 548.742 250.876C548.545 251.523 548.447 252.419 548.447 253.566Z" fill="#000912"/>
<path d="M542.716 250.864C542.663 250.733 542.712 250.639 542.863 250.582C543.179 250.463 543.477 250.273 543.76 250.011C544.042 249.749 544.265 249.516 544.429 249.311C544.548 249.164 544.663 249.09 544.773 249.09H545.295C545.483 249.09 545.577 249.182 545.577 249.366V257.656C545.577 257.84 545.485 257.932 545.301 257.932H544.773C544.589 257.932 544.497 257.84 544.497 257.656V250.926C544.497 250.803 544.501 250.68 544.509 250.557H544.497C544.37 250.717 544.184 250.881 543.938 251.049C543.692 251.216 543.467 251.339 543.263 251.417C543.082 251.487 542.964 251.454 542.906 251.319L542.716 250.864Z" fill="#000912"/>
<path d="M535.756 257.931C535.531 257.931 535.418 257.839 535.418 257.655V257.36C535.418 257.201 535.486 257.053 535.621 256.918L538.028 254.493C538.74 253.776 539.207 253.224 539.428 252.835C539.653 252.442 539.765 251.99 539.765 251.478C539.765 251.048 539.638 250.684 539.385 250.385C539.135 250.086 538.754 249.937 538.242 249.937C537.784 249.937 537.403 250.053 537.1 250.287C536.797 250.52 536.578 250.911 536.443 251.459C536.386 251.693 536.265 251.783 536.081 251.73L535.602 251.588C535.475 251.552 535.445 251.378 535.51 251.066C535.629 250.53 535.915 250.055 536.37 249.642C536.828 249.224 537.436 249.016 538.193 249.016C539.155 249.016 539.857 249.257 540.299 249.74C540.746 250.223 540.969 250.815 540.969 251.515C540.969 252.198 540.785 252.788 540.416 253.283C540.052 253.778 539.55 254.335 538.912 254.953L536.892 256.912V256.937C537.002 256.928 537.166 256.924 537.383 256.924H540.729C540.954 256.924 541.067 257.016 541.067 257.201V257.655C541.067 257.839 540.954 257.931 540.729 257.931H535.756Z" fill="#000912"/>
<path d="M527.556 257.93C527.29 257.93 527.253 257.795 527.445 257.525L530.393 253.386L527.654 249.53C527.462 249.26 527.499 249.125 527.765 249.125H528.52C528.7 249.125 528.843 249.205 528.95 249.364L531.105 252.57L533.26 249.364C533.367 249.205 533.51 249.125 533.69 249.125H534.445C534.711 249.125 534.748 249.26 534.556 249.53L531.817 253.386L534.765 257.525C534.957 257.795 534.92 257.93 534.654 257.93H533.893C533.712 257.93 533.569 257.85 533.463 257.691L531.105 254.203L528.747 257.691C528.641 257.85 528.497 257.93 528.317 257.93H527.556Z" fill="#000912"/>
<path d="M517.655 257.93C517.45 257.93 517.348 257.818 517.348 257.592V249.463C517.348 249.238 517.45 249.125 517.655 249.125H518.963C519.118 249.125 519.235 249.248 519.313 249.493L521.069 255.001C521.249 255.566 521.355 255.908 521.388 256.027C521.421 256.141 521.468 256.354 521.529 256.665H521.566C521.627 256.354 521.674 256.141 521.707 256.027C521.74 255.908 521.846 255.566 522.027 255.001L523.783 249.493C523.86 249.248 523.977 249.125 524.133 249.125H525.441C525.645 249.125 525.748 249.238 525.748 249.463V257.592C525.748 257.818 525.645 257.93 525.441 257.93H524.876C524.671 257.93 524.569 257.818 524.569 257.592V251.151C524.569 250.988 524.573 250.824 524.581 250.66H524.556L522.291 257.556C522.209 257.805 522.074 257.93 521.885 257.93H521.21C521.022 257.93 520.886 257.805 520.805 257.556L518.539 250.66H518.514C518.522 250.824 518.527 250.988 518.527 251.151V257.592C518.527 257.818 518.424 257.93 518.22 257.93H517.655Z" fill="#000912"/>
<path d="M68.6445 227.527L68.6445 95.2109" stroke="#FF007D" stroke-width="2.93"/>
<path d="M41.0343 86.6641V75.6881H45.6263C46.7356 75.6881 47.573 75.9867 48.1383 76.5841C48.7036 77.1707 48.9863 77.9174 48.9863 78.8241C48.9863 79.4854 48.821 80.0614 48.4903 80.5521C48.1596 81.0427 47.7116 81.4054 47.1463 81.6401L49.2583 86.6641H47.0343L45.2103 82.0881H43.0823V86.6641H41.0343ZM43.0823 80.2801H45.3383C45.8396 80.2801 46.2023 80.1521 46.4263 79.8961C46.661 79.6401 46.7783 79.2827 46.7783 78.8241C46.7783 78.4187 46.6663 78.0987 46.4423 77.8641C46.229 77.6294 45.8876 77.5121 45.4183 77.5121H43.0823V80.2801ZM54.647 86.8561C53.2284 86.8561 52.1137 86.3921 51.303 85.4641C50.4924 84.5361 50.087 83.1067 50.087 81.1761C50.087 79.2347 50.4924 77.8054 51.303 76.8881C52.1137 75.9601 53.2284 75.4961 54.647 75.4961C56.0657 75.4961 57.1804 75.9601 57.991 76.8881C58.8017 77.8054 59.207 79.2347 59.207 81.1761C59.207 83.1067 58.8017 84.5361 57.991 85.4641C57.1804 86.3921 56.0657 86.8561 54.647 86.8561ZM54.647 85.0961C55.4684 85.0961 56.0817 84.7867 56.487 84.1681C56.8924 83.5387 57.095 82.6747 57.095 81.5761V80.7761C57.095 79.6774 56.8924 78.8187 56.487 78.2001C56.0817 77.5707 55.4684 77.2561 54.647 77.2561C53.8364 77.2561 53.223 77.5707 52.807 78.2001C52.4017 78.8187 52.199 79.6774 52.199 80.7761V81.5761C52.199 82.6747 52.4017 83.5387 52.807 84.1681C53.223 84.7867 53.8364 85.0961 54.647 85.0961ZM64.4822 86.8561C63.3088 86.8561 62.3862 86.5521 61.7142 85.9441C61.0528 85.3254 60.7222 84.4187 60.7222 83.2241V75.6881H62.7702V83.1601C62.7702 83.7894 62.9195 84.2694 63.2182 84.6001C63.5168 84.9307 63.9382 85.0961 64.4822 85.0961C65.0262 85.0961 65.4475 84.9307 65.7462 84.6001C66.0555 84.2694 66.2102 83.7894 66.2102 83.1601V75.6881H68.2582V83.2241C68.2582 84.4187 67.9222 85.3254 67.2502 85.9441C66.5782 86.5521 65.6555 86.8561 64.4822 86.8561ZM72.2069 86.6641V77.5121H69.4869V75.6881H76.9749V77.5121H74.2549V86.6641H72.2069ZM78.1905 86.6641V75.6881H85.1825V77.5121H80.2385V80.1361H84.4785V81.9601H80.2385V84.8401H85.2785V86.6641H78.1905ZM86.9405 86.6641V75.6881H91.5325C92.6419 75.6881 93.4792 75.9867 94.0445 76.5841C94.6099 77.1707 94.8925 77.9174 94.8925 78.8241C94.8925 79.4854 94.7272 80.0614 94.3965 80.5521C94.0659 81.0427 93.6179 81.4054 93.0525 81.6401L95.1645 86.6641H92.9405L91.1165 82.0881H88.9885V86.6641H86.9405ZM88.9885 80.2801H91.2445C91.7459 80.2801 92.1085 80.1521 92.3325 79.8961C92.5672 79.6401 92.6845 79.2827 92.6845 78.8241C92.6845 78.4187 92.5725 78.0987 92.3485 77.8641C92.1352 77.6294 91.7939 77.5121 91.3245 77.5121H88.9885V80.2801Z" fill="#565656"/>
<path d="M7.91867 129.174L0.597656 1.51172L11.2408 9.2076L17.0148 119.83H23.2719L21.1279 124.66V128.116L15.8921 128.14C14.4744 132.038 9.98578 130.454 7.91867 129.174Z" fill="#C9C9C9"/>
<path d="M15.8921 128.14C14.4744 132.038 9.98578 130.454 7.91867 129.174L0.597656 1.51172L11.2408 9.2076L17.0148 119.83M15.8921 128.14C15.8233 127.756 15.7464 127.305 15.6691 126.822C15.309 124.574 14.9425 121.649 15.3651 121.709C15.8784 121.782 16.6788 120.487 17.0148 119.83M15.8921 128.14L21.1279 128.116V124.66L23.2719 119.83H17.0148" stroke="#313131" stroke-width="0.83"/>
<path d="M19.1491 106.78L13.2266 3.50391L21.8366 9.7297L26.5077 99.2208H31.4211L28.7871 106.005L25.5994 105.943C24.4525 109.097 20.8213 107.815 19.1491 106.78Z" fill="#C9C9C9"/>
<path d="M25.5994 105.943C24.4525 109.097 20.8213 107.815 19.1491 106.78L13.2266 3.50391L21.8366 9.7297L26.5077 99.2208M25.5994 105.943C25.2843 104.184 24.7579 100.681 25.1731 100.741C25.5883 100.8 26.2358 99.7522 26.5077 99.2208M25.5994 105.943L28.7871 106.005L31.4211 99.2208H26.5077" stroke="#313131" stroke-width="0.83"/>
<path d="M116.156 106.78L122.078 3.50391L113.468 9.7297L108.798 99.2208C108.807 99.2401 108.818 99.2601 108.829 99.2807H103.881L106.801 105.943H109.706C110.853 109.097 114.484 107.815 116.156 106.78Z" fill="#C9C9C9"/>
<path d="M109.706 105.943C110.853 109.097 114.484 107.815 116.156 106.78L122.078 3.50391L113.468 9.7297L108.798 99.2208C108.807 99.2401 108.818 99.2601 108.829 99.2807M109.706 105.943C110.021 104.184 110.547 100.681 110.132 100.741C109.732 100.798 109.116 99.8269 108.829 99.2807M109.706 105.943H106.801L103.881 99.2807H108.829" stroke="#313131" stroke-width="0.83"/>
<path d="M127.603 129.174L134.926 1.51172L124.28 9.2076L118.505 119.83H112.12L114.321 125.039L114.231 128.093L119.628 128.14C121.046 132.038 125.535 130.454 127.603 129.174Z" fill="#C9C9C9"/>
<path d="M119.628 128.14C121.046 132.038 125.535 130.454 127.603 129.174L134.926 1.51172L124.28 9.2076L118.505 119.83M119.628 128.14C120.017 125.966 120.668 121.636 120.155 121.709C119.641 121.782 118.841 120.487 118.505 119.83M119.628 128.14L114.231 128.093L114.321 125.039L112.12 119.83H118.505" stroke="#313131" stroke-width="0.83"/>
<path d="M101.851 94.0469L114.319 125.047L114.21 127.705L113.699 140.277L112.544 140.288V142.73H23.3353V140.288L21.8129 140.207L21.1055 124.861L33.6565 94.0469H101.851Z" fill="#D9D9D9"/>
<path d="M21.1055 124.861L114.319 125.047M21.1055 124.861L33.6565 94.0469H101.851L114.319 125.047M21.1055 124.861L21.8129 140.207L23.3353 140.288M114.319 125.047L114.21 127.705L113.699 140.277L112.544 140.288M112.544 140.288V142.73H23.3353V140.288M112.544 140.288H23.3353" stroke="#313131" stroke-width="0.83"/>
<path d="M94.9853 134.942H91.4062V130.387H94.9853V134.942Z" fill="#3AB992"/>
<path d="M102.321 134.942H98.7422V130.387H102.321V134.942Z" fill="#3AB992"/>
<path d="M109.657 134.942H106.078V130.387H109.657V134.942Z" fill="#3AB992"/>
<path fill-rule="evenodd" clip-rule="evenodd" d="M197.937 109.381C203.979 103.707 203.957 94.3067 198.357 88.6322C197.398 87.6601 197.126 86.1279 197.923 85.0192V85.0192C198.721 83.9105 200.281 83.6482 201.281 84.5779C209.389 92.1108 209.637 105.179 201.323 112.986V112.986C200.38 113.871 198.899 113.825 198.014 112.882L197.833 112.689C196.948 111.747 196.994 110.266 197.937 109.381V109.381Z" stroke="#313131" stroke-width="0.83"/>
<path fill-rule="evenodd" clip-rule="evenodd" d="M204.738 117.164C215.725 106.846 215.203 89.458 204.135 79.7576C203.108 78.8574 202.844 77.3193 203.642 76.2106V76.2106C204.44 75.1019 205.995 74.8441 207.037 75.728C220.625 87.2614 221.381 108.32 208.123 120.769L207.138 121.695C206.142 122.63 204.577 122.581 203.642 121.585V121.585C202.707 120.589 202.756 119.024 203.752 118.089L204.738 117.164Z" stroke="#313131" stroke-width="0.83"/>
<path fill-rule="evenodd" clip-rule="evenodd" d="M212.471 124.355C228.021 109.753 227.025 84.9865 210.891 71.6066C209.839 70.7347 209.579 69.1943 210.377 68.0856V68.0856C211.174 66.9769 212.726 66.7196 213.785 67.5825C232.444 82.7883 233.677 111.227 215.857 127.96L213.872 129.824C212.877 130.759 211.311 130.71 210.377 129.714V129.714C209.442 128.718 209.491 127.153 210.486 126.218L212.471 124.355Z" stroke="#313131" stroke-width="0.83"/>
<path d="M457.786 435.287C457.412 435.287 457.092 435.16 456.826 434.907C456.559 434.64 456.426 434.307 456.426 433.907C456.426 433.507 456.559 433.18 456.826 432.927C457.092 432.674 457.412 432.547 457.786 432.547C458.146 432.547 458.452 432.674 458.706 432.927C458.972 433.18 459.106 433.507 459.106 433.907C459.106 434.307 458.972 434.64 458.706 434.907C458.452 435.16 458.146 435.287 457.786 435.287Z" fill="#565656"/>
<path d="M453.255 435.287C452.881 435.287 452.561 435.16 452.295 434.907C452.028 434.64 451.895 434.307 451.895 433.907C451.895 433.507 452.028 433.18 452.295 432.927C452.561 432.674 452.881 432.547 453.255 432.547C453.615 432.547 453.921 432.674 454.175 432.927C454.441 433.18 454.575 433.507 454.575 433.907C454.575 434.307 454.441 434.64 454.175 434.907C453.921 435.16 453.615 435.287 453.255 435.287Z" fill="#565656"/>
<path d="M448.723 435.287C448.35 435.287 448.03 435.16 447.763 434.907C447.497 434.64 447.363 434.307 447.363 433.907C447.363 433.507 447.497 433.18 447.763 432.927C448.03 432.674 448.35 432.547 448.723 432.547C449.083 432.547 449.39 432.674 449.643 432.927C449.91 433.18 450.043 433.507 450.043 433.907C450.043 434.307 449.91 434.64 449.643 434.907C449.39 435.16 449.083 435.287 448.723 435.287Z" fill="#565656"/>
</svg>
