<svg width="598" height="383" viewBox="0 0 598 383" fill="none" xmlns="http://www.w3.org/2000/svg">
<path d="M558.904 267.59V330.172C558.904 330.724 558.457 331.172 557.904 331.172H452.059C451.506 331.172 451.059 330.724 451.059 330.172V267.59C451.059 267.038 451.506 266.59 452.059 266.59H557.904C558.457 266.59 558.904 267.038 558.904 267.59Z" fill="#D9D9D9" stroke="#313131" stroke-width="0.83"/>
<rect x="456.329" y="272.153" width="97.2614" height="54.5394" fill="white" stroke="#313131" stroke-width="0.83"/>
<path d="M576.337 282.598V346.18L596.738 380.312C597.137 380.979 596.656 381.825 595.88 381.825H446.821C446.025 381.825 445.548 380.939 445.987 380.275L468.491 346.18V282.598C468.491 282.045 468.939 281.598 469.491 281.598H575.337C575.89 281.598 576.337 282.045 576.337 282.598Z" fill="#D9D9D9"/>
<path d="M576.337 346.18V282.598C576.337 282.045 575.89 281.598 575.337 281.598H469.491C468.939 281.598 468.491 282.045 468.491 282.598V346.18M576.337 346.18H468.491M576.337 346.18L596.738 380.312C597.137 380.979 596.656 381.825 595.88 381.825H446.821C446.025 381.825 445.548 380.939 445.987 380.275L468.491 346.18" stroke="#313131" stroke-width="0.83"/>
<path d="M545.462 377.788H500.914C500.2 377.788 499.717 377.062 499.991 376.403L504.222 366.248C504.377 365.876 504.741 365.633 505.145 365.633H540.808C541.199 365.633 541.554 365.861 541.717 366.216L546.371 376.371C546.675 377.034 546.191 377.788 545.462 377.788Z" fill="#D9D9D9" stroke="#313131" stroke-width="0.83"/>
<path d="M469.087 349.69L462.439 361.541C462.066 362.206 462.544 363.027 463.307 363.03L581.551 363.522C582.33 363.526 582.813 362.676 582.412 362.008L575.007 349.665C574.826 349.364 574.501 349.18 574.149 349.18H469.959C469.597 349.18 469.264 349.375 469.087 349.69Z" fill="#313131" stroke="#313131" stroke-width="0.83"/>
<mask id="mask0_1250_71047" style="mask-type:alpha" maskUnits="userSpaceOnUse" x="461" y="348" width="122" height="16">
<path d="M469.087 349.69L462.439 361.541C462.066 362.206 462.544 363.027 463.307 363.03L581.551 363.522C582.33 363.526 582.813 362.676 582.412 362.008L575.007 349.665C574.826 349.364 574.501 349.18 574.149 349.18H469.959C469.597 349.18 469.264 349.375 469.087 349.69Z" fill="black" stroke="black" stroke-width="0.83"/>
</mask>
<g mask="url(#mask0_1250_71047)">
<path d="M460.592 354H590.254" stroke="#D9D9D9" stroke-width="0.83"/>
<path d="M460.592 351.379H590.254" stroke="#D9D9D9" stroke-width="0.83"/>
<path d="M460.592 356.852H590.254" stroke="#D9D9D9" stroke-width="0.83"/>
<path d="M460.592 359.703H590.254" stroke="#D9D9D9" stroke-width="0.83"/>
</g>
<rect x="473.763" y="287.161" width="97.2614" height="54.5394" fill="white" stroke="#313131" stroke-width="0.83"/>
<path d="M456.336 306.371V352.369C456.336 352.921 455.888 353.369 455.336 353.369H431.498C430.946 353.369 430.498 352.921 430.498 352.369V306.371C430.498 305.819 430.946 305.371 431.498 305.371H455.336C455.888 305.371 456.336 305.819 456.336 306.371Z" fill="#D9D9D9" stroke="#313131" stroke-width="0.83"/>
<rect x="432.565" y="307.524" width="21.7022" height="39.3413" fill="white" stroke="#313131" stroke-width="0.83"/>
<circle cx="443.418" cy="350.119" r="1.6855" fill="#313131"/>
<path d="M209.309 41.9141L34.2031 41.9102V158.097" stroke="#00A197" stroke-width="2.93"/>
<rect width="3.03693" height="13.1405" transform="matrix(-0.707113 -0.7071 -0.707113 0.7071 520.674 235.367)" fill="#00A197"/>
<rect width="3.03693" height="13.1405" transform="matrix(-0.707113 0.7071 0.707113 0.7071 504.172 233.312)" fill="#00A197"/>
<path d="M315.766 63.0391H511.377V240.988" stroke="#00A197" stroke-width="2.93"/>
<path d="M123.887 83.8335C123.215 83.8328 122.592 83.7041 122.016 83.4474C121.44 83.1908 120.977 82.8116 120.625 82.3098C120.274 81.7974 120.098 81.1679 120.099 80.4213C120.099 80.3573 120.099 80.2933 120.099 80.2293C120.11 80.1653 120.116 80.1119 120.116 80.0693L122.244 80.0717C122.244 80.0823 122.238 80.1197 122.227 80.1836C122.227 80.237 122.227 80.285 122.227 80.3276C122.227 80.8503 122.381 81.2718 122.69 81.5922C122.999 81.9125 123.431 82.073 123.985 82.0736C124.604 82.0743 125.036 81.9415 125.282 81.6751C125.527 81.398 125.65 81.0995 125.651 80.7795C125.651 80.4062 125.556 80.1074 125.364 79.8832C125.172 79.659 124.916 79.4773 124.596 79.3383C124.287 79.1886 123.941 79.0549 123.557 78.9371C123.184 78.8194 122.805 78.6856 122.421 78.5359C122.038 78.3861 121.686 78.1937 121.366 77.9587C121.057 77.713 120.807 77.398 120.615 77.0138C120.424 76.6296 120.328 76.1388 120.329 75.5415C120.33 74.8482 120.501 74.2777 120.843 73.8301C121.185 73.3718 121.633 73.031 122.188 72.8076C122.753 72.5842 123.356 72.4729 123.996 72.4736C124.647 72.4744 125.239 72.587 125.772 72.8116C126.316 73.0363 126.747 73.3887 127.067 73.8691C127.397 74.3388 127.561 74.9523 127.561 75.7097L127.56 75.9017L125.464 75.8993L125.464 75.7553C125.465 75.286 125.332 74.9178 125.066 74.6508C124.81 74.3732 124.448 74.2341 123.978 74.2336C123.488 74.2331 123.109 74.3446 122.842 74.5683C122.575 74.7814 122.441 75.0586 122.441 75.3999C122.441 75.7199 122.536 75.976 122.728 76.1682C122.92 76.3604 123.17 76.5207 123.479 76.6491C123.799 76.7774 124.151 76.9005 124.535 77.0182C124.919 77.1253 125.297 77.2538 125.671 77.4035C126.054 77.5533 126.401 77.751 126.71 77.9967C127.03 78.2317 127.285 78.5413 127.477 78.9256C127.668 79.2991 127.764 79.7739 127.763 80.3499C127.762 81.1926 127.596 81.8697 127.265 82.3813C126.934 82.8823 126.475 83.2498 125.888 83.4838C125.312 83.7178 124.645 83.8344 123.887 83.8335ZM133.101 83.8439C131.928 83.8426 131.006 83.5375 130.334 82.9288C129.674 82.3094 129.344 81.4023 129.345 80.2077L129.354 72.6717L131.402 72.674L131.394 80.146C131.393 80.7753 131.542 81.2555 131.84 81.5865C132.138 81.9175 132.559 82.0833 133.103 82.0839C133.647 82.0845 134.069 81.9197 134.368 81.5893C134.678 81.259 134.833 80.7792 134.834 80.1499L134.842 72.6779L136.89 72.6802L136.881 80.2162C136.88 81.4108 136.543 82.3171 135.87 82.935C135.198 83.5423 134.275 83.8452 133.101 83.8439ZM138.794 83.6583L138.807 72.6823L143.527 72.6876C144.103 72.6883 144.615 72.8062 145.062 73.0414C145.521 73.2659 145.878 73.581 146.133 73.9866C146.389 74.3922 146.516 74.867 146.516 75.411C146.515 76.0404 146.349 76.5735 146.018 77.0105C145.697 77.4368 145.302 77.735 144.833 77.9051L144.833 77.9691C145.377 78.1404 145.835 78.4663 146.208 78.9467C146.58 79.4271 146.766 80.0193 146.766 80.7233C146.765 81.342 146.615 81.8698 146.316 82.3068C146.017 82.7438 145.622 83.0793 145.131 83.3135C144.64 83.5476 144.101 83.6643 143.514 83.6636L138.794 83.6583ZM140.844 81.8366L143.18 81.8393C143.607 81.8397 143.959 81.7228 144.237 81.4885C144.525 81.2541 144.669 80.9129 144.67 80.4649C144.67 80.0383 144.537 79.6808 144.271 79.3925C144.015 79.0935 143.621 78.9438 143.088 78.9432L140.848 78.9406L140.844 81.8366ZM140.85 77.1326L142.962 77.135C143.452 77.1356 143.815 77.0026 144.05 76.7362C144.296 76.4592 144.419 76.1393 144.419 75.7767C144.42 75.3607 144.292 75.0458 144.036 74.8322C143.791 74.6186 143.466 74.5116 143.061 74.5111L140.853 74.5086L140.85 77.1326ZM151.575 83.8647C150.903 83.864 150.279 83.7353 149.703 83.4786C149.128 83.222 148.664 82.8428 148.313 82.341C147.961 81.8287 147.786 81.1991 147.787 80.4525C147.787 80.3885 147.787 80.3245 147.787 80.2605C147.798 80.1965 147.803 80.1431 147.803 80.1005L149.931 80.1029C149.931 80.1135 149.926 80.1509 149.915 80.2149C149.915 80.2682 149.915 80.3162 149.915 80.3589C149.914 80.8815 150.068 81.303 150.377 81.6234C150.686 81.9437 151.118 82.1042 151.673 82.1048C152.292 82.1055 152.724 81.9727 152.969 81.7063C153.215 81.4292 153.338 81.1307 153.338 80.8107C153.339 80.4374 153.243 80.1386 153.051 79.9144C152.86 79.6902 152.604 79.5085 152.284 79.3695C151.975 79.2198 151.628 79.0861 151.244 78.9684C150.871 78.8506 150.493 78.7168 150.109 78.5671C149.725 78.4173 149.373 78.2249 149.053 77.9899C148.744 77.7442 148.494 77.4293 148.303 77.045C148.111 76.6608 148.016 76.17 148.016 75.5727C148.017 74.8794 148.188 74.3089 148.53 73.8613C148.872 73.403 149.32 73.0622 149.875 72.8388C150.441 72.6154 151.044 72.5041 151.684 72.5048C152.334 72.5056 152.926 72.6182 153.459 72.8428C154.003 73.0675 154.435 73.4199 154.754 73.9003C155.084 74.37 155.249 74.9835 155.248 75.7409L155.248 75.9329L153.152 75.9305L153.152 75.7865C153.153 75.3172 153.02 74.949 152.753 74.682C152.498 74.4044 152.135 74.2654 151.666 74.2648C151.175 74.2643 150.796 74.3758 150.529 74.5995C150.262 74.8126 150.129 75.0898 150.128 75.4311C150.128 75.7511 150.224 76.0072 150.416 76.1994C150.607 76.3916 150.858 76.5519 151.167 76.6803C151.487 76.8086 151.839 76.9317 152.223 77.0495C152.606 77.1566 152.985 77.285 153.358 77.4347C153.742 77.5845 154.088 77.7822 154.397 78.0279C154.717 78.2629 154.973 78.5726 155.164 78.9568C155.356 79.3303 155.451 79.8051 155.451 80.3811C155.45 81.2238 155.284 81.9009 154.953 82.4125C154.621 82.9135 154.162 83.281 153.575 83.515C152.999 83.749 152.332 83.8656 151.575 83.8647ZM160.965 83.8753C159.589 83.8738 158.517 83.4086 157.75 82.4797C156.983 81.5508 156.601 80.1211 156.603 78.1904C156.605 76.2491 156.991 74.8202 157.76 73.9037C158.529 72.9766 159.602 72.5138 160.978 72.5153C161.746 72.5162 162.433 72.6663 163.041 72.9656C163.649 73.265 164.128 73.7295 164.48 74.3593C164.831 74.989 165.006 75.7999 165.005 76.7919L162.909 76.7895C162.91 75.9362 162.729 75.3066 162.367 74.9009C162.015 74.4845 161.552 74.276 160.976 74.2753C160.218 74.2745 159.653 74.5885 159.279 75.2174C158.905 75.8356 158.717 76.6941 158.716 77.7928L158.715 78.5928C158.714 79.6914 158.905 80.5557 159.288 81.1854C159.671 81.8045 160.252 82.1145 161.031 82.1154C161.628 82.1161 162.103 81.9139 162.456 81.509C162.819 81.0934 163.001 80.4643 163.002 79.6216L165.002 79.6239C165.001 80.5839 164.824 81.3783 164.471 82.0073C164.118 82.6362 163.638 83.105 163.029 83.4136C162.432 83.7223 161.744 83.8762 160.965 83.8753ZM166.482 83.6895L166.494 72.7135L171.086 72.7187C172.196 72.72 173.033 73.0196 173.597 73.6175C174.162 74.2048 174.444 74.9518 174.443 75.8585C174.442 76.5198 174.276 77.0956 173.945 77.5859C173.613 78.0762 173.165 78.4384 172.599 78.6724L174.706 83.6988L172.482 83.6963L170.663 79.1182L168.535 79.1158L168.53 83.6918L166.482 83.6895ZM168.537 77.3078L170.793 77.3104C171.294 77.3109 171.657 77.1834 171.881 76.9276C172.116 76.6719 172.234 76.3147 172.235 75.856C172.235 75.4507 172.123 75.1305 171.9 74.8956C171.687 74.6607 171.345 74.543 170.876 74.5425L168.54 74.5398L168.537 77.3078ZM175.791 83.7L175.803 72.724L177.851 72.7263L177.839 83.7023L175.791 83.7ZM179.591 83.7043L179.604 72.7283L184.324 72.7336C184.9 72.7343 185.411 72.8522 185.859 73.0874C186.318 73.3119 186.675 73.6269 186.93 74.0326C187.186 74.4382 187.313 74.913 187.312 75.457C187.312 76.0863 187.146 76.6195 186.815 77.0564C186.494 77.4827 186.099 77.781 185.63 77.9511L185.63 78.0151C186.173 78.1864 186.632 78.5122 187.005 78.9927C187.377 79.4731 187.563 80.0653 187.563 80.7693C187.562 81.3879 187.412 81.9158 187.113 82.3528C186.814 82.7898 186.419 83.1253 185.928 83.3594C185.437 83.5936 184.898 83.7103 184.311 83.7096L179.591 83.7043ZM181.641 81.8826L183.977 81.8852C184.404 81.8857 184.756 81.7688 185.034 81.5344C185.322 81.3001 185.466 80.9589 185.467 80.5109C185.467 80.0843 185.334 79.7268 185.068 79.4385C184.812 79.1395 184.418 78.9897 183.885 78.9891L181.645 78.9866L181.641 81.8826ZM181.647 77.1786L183.759 77.181C184.249 77.1815 184.612 77.0486 184.847 76.7822C185.093 76.5052 185.216 76.1853 185.216 75.8226C185.217 75.4066 185.089 75.0918 184.833 74.8782C184.588 74.6646 184.263 74.5576 183.858 74.5571L181.65 74.5546L181.647 77.1786ZM189.06 83.715L189.072 72.739L196.064 72.7469L196.062 74.5709L191.118 74.5653L191.115 77.1893L195.355 77.1941L195.353 79.0181L191.113 79.0133L191.11 81.8933L196.15 81.899L196.148 83.723L189.06 83.715Z" fill="#565656"/>
<path d="M313.568 142.669L313.58 131.693L317.5 131.697C318.257 131.698 318.892 131.843 319.404 132.132C319.915 132.41 320.299 132.799 320.554 133.301C320.81 133.792 320.937 134.357 320.936 134.997C320.936 135.68 320.791 136.283 320.502 136.805C320.214 137.317 319.813 137.716 319.301 138.003C318.789 138.28 318.186 138.418 317.493 138.417L315.621 138.415L315.616 142.671L313.568 142.669ZM315.623 136.607L317.287 136.609C317.788 136.61 318.167 136.466 318.423 136.179C318.69 135.891 318.824 135.496 318.824 134.995C318.825 134.547 318.692 134.189 318.426 133.923C318.159 133.656 317.781 133.522 317.29 133.521L315.626 133.519L315.623 136.607ZM326.094 142.875C324.92 142.874 323.998 142.569 323.327 141.96C322.666 141.341 322.336 140.434 322.338 139.239L322.346 131.703L324.394 131.705L324.386 139.177C324.385 139.807 324.534 140.287 324.832 140.618C325.13 140.949 325.552 141.115 326.096 141.115C326.64 141.116 327.061 140.951 327.36 140.621C327.67 140.29 327.825 139.81 327.826 139.181L327.834 131.709L329.882 131.711L329.874 139.247C329.872 140.442 329.535 141.348 328.863 141.966C328.19 142.574 327.267 142.876 326.094 142.875ZM331.787 142.69L331.799 131.714L336.519 131.719C337.095 131.72 337.607 131.837 338.055 132.073C338.513 132.297 338.87 132.612 339.125 133.018C339.381 133.423 339.508 133.898 339.508 134.442C339.507 135.072 339.341 135.605 339.01 136.042C338.69 136.468 338.295 136.766 337.825 136.936L337.825 137C338.369 137.172 338.827 137.498 339.2 137.978C339.573 138.458 339.759 139.051 339.758 139.755C339.757 140.373 339.607 140.901 339.308 141.338C339.009 141.775 338.614 142.111 338.123 142.345C337.632 142.579 337.093 142.696 336.507 142.695L331.787 142.69ZM333.837 140.868L336.173 140.871C336.599 140.871 336.951 140.754 337.229 140.52C337.517 140.285 337.662 139.944 337.662 139.496C337.663 139.07 337.53 138.712 337.263 138.424C337.008 138.125 336.613 137.975 336.08 137.974L333.84 137.972L333.837 140.868ZM333.842 136.164L335.954 136.166C336.445 136.167 336.807 136.034 337.042 135.767C337.288 135.49 337.411 135.171 337.411 134.808C337.412 134.392 337.284 134.077 337.028 133.863C336.783 133.65 336.458 133.543 336.053 133.542L333.845 133.54L333.842 136.164ZM341.255 142.7L341.268 131.724L343.316 131.727L343.305 140.783L347.945 140.788L347.943 142.708L341.255 142.7ZM349.111 142.709L349.123 131.733L351.171 131.735L351.159 142.711L349.111 142.709ZM356.223 142.909C355.551 142.908 354.927 142.78 354.352 142.523C353.776 142.266 353.312 141.887 352.961 141.385C352.61 140.873 352.434 140.244 352.435 139.497C352.435 139.433 352.435 139.369 352.435 139.305C352.446 139.241 352.451 139.188 352.452 139.145L354.58 139.147C354.58 139.158 354.574 139.195 354.563 139.259C354.563 139.313 354.563 139.361 354.563 139.403C354.563 139.926 354.717 140.347 355.026 140.668C355.335 140.988 355.767 141.149 356.321 141.149C356.94 141.15 357.372 141.017 357.618 140.751C357.863 140.474 357.986 140.175 357.987 139.855C357.987 139.482 357.891 139.183 357.7 138.959C357.508 138.735 357.252 138.553 356.932 138.414C356.623 138.264 356.277 138.131 355.893 138.013C355.52 137.895 355.141 137.761 354.757 137.611C354.373 137.462 354.022 137.269 353.702 137.034C353.393 136.789 353.143 136.474 352.951 136.089C352.759 135.705 352.664 135.214 352.665 134.617C352.665 133.924 352.837 133.353 353.179 132.906C353.52 132.447 353.969 132.107 354.524 131.883C355.089 131.66 355.692 131.549 356.332 131.549C356.983 131.55 357.575 131.663 358.108 131.887C358.651 132.112 359.083 132.464 359.403 132.945C359.733 133.414 359.897 134.028 359.896 134.785L359.896 134.977L357.8 134.975L357.8 134.831C357.801 134.362 357.668 133.993 357.402 133.726C357.146 133.449 356.783 133.31 356.314 133.309C355.823 133.309 355.445 133.42 355.178 133.644C354.911 133.857 354.777 134.134 354.777 134.475C354.776 134.795 354.872 135.052 355.064 135.244C355.256 135.436 355.506 135.596 355.815 135.725C356.135 135.853 356.487 135.976 356.871 136.094C357.255 136.201 357.633 136.329 358.007 136.479C358.39 136.629 358.737 136.827 359.046 137.072C359.366 137.307 359.621 137.617 359.813 138.001C360.004 138.375 360.1 138.849 360.099 139.425C360.098 140.268 359.932 140.945 359.601 141.457C359.27 141.958 358.811 142.325 358.224 142.559C357.647 142.793 356.981 142.91 356.223 142.909ZM361.662 142.723L361.674 131.747L363.722 131.75L363.717 136.198L367.173 136.201L367.178 131.753L369.226 131.756L369.214 142.732L367.166 142.729L367.171 138.025L363.715 138.022L363.71 142.726L361.662 142.723Z" fill="#565656"/>
<path d="M240.363 89.1445H121.748V158.241" stroke="#00A197" stroke-width="2.93"/>
<rect x="112.97" y="152.016" width="2.25869" height="12.3622" transform="rotate(-45 112.97 152.016)" fill="#00A197" stroke="#00A197" stroke-width="0.778214"/>
<rect x="128.92" y="150.511" width="2.25869" height="12.3622" transform="rotate(45 128.92 150.511)" fill="#00A197" stroke="#00A197" stroke-width="0.778214"/>
<rect x="25.5151" y="152.016" width="2.25869" height="12.3622" transform="rotate(-45 25.5151 152.016)" fill="#00A197" stroke="#00A197" stroke-width="0.778214"/>
<rect x="41.4648" y="150.511" width="2.25869" height="12.3622" transform="rotate(45 41.4648 150.511)" fill="#00A197" stroke="#00A197" stroke-width="0.778214"/>
<path d="M36.2546 36.8726C35.5826 36.8718 34.9587 36.7431 34.383 36.4865C33.8073 36.2298 33.3437 35.8506 32.9923 35.3489C32.6409 34.8365 32.4656 34.207 32.4664 33.4603C32.4665 33.3963 32.4666 33.3323 32.4666 33.2683C32.4774 33.2043 32.4828 33.151 32.4828 33.1083L34.6108 33.1107C34.6108 33.1214 34.6054 33.1587 34.5947 33.2227C34.5946 33.276 34.5946 33.324 34.5945 33.3667C34.5939 33.8894 34.7481 34.3109 35.0571 34.6312C35.3661 34.9516 35.7979 35.1121 36.3526 35.1127C36.9712 35.1134 37.4034 34.9805 37.649 34.7142C37.8947 34.4371 38.0177 34.1386 38.018 33.8186C38.0184 33.4452 37.9228 33.1465 37.731 32.9222C37.5393 32.698 37.2835 32.5164 36.9636 32.3774C36.6545 32.2277 36.308 32.094 35.9241 31.9762C35.5509 31.8585 35.1724 31.7247 34.7885 31.5749C34.4047 31.4252 34.0529 31.2328 33.7332 30.9977C33.4241 30.7521 33.1738 30.4371 32.9823 30.0529C32.7907 29.6687 32.6952 29.1779 32.6959 28.5806C32.6967 27.8872 32.868 27.3168 33.2098 26.8691C33.5517 26.4109 34.0001 26.07 34.555 25.8467C35.1206 25.6233 35.7234 25.512 36.3634 25.5127C37.014 25.5134 37.6059 25.6261 38.139 25.8507C38.6827 26.0753 39.1143 26.4278 39.4338 26.9082C39.7639 27.3779 39.9286 27.9914 39.9277 28.7487L39.9275 28.9407L37.8315 28.9384L37.8317 28.7944C37.8322 28.325 37.6993 27.9569 37.4329 27.6899C37.1772 27.4123 36.8147 27.2732 36.3454 27.2727C35.8547 27.2721 35.4759 27.3837 35.209 27.6074C34.9421 27.8204 34.8085 28.0976 34.8081 28.4389C34.8077 28.7589 34.9034 29.0151 35.0952 29.2073C35.287 29.3995 35.5375 29.5598 35.8467 29.6881C36.1665 29.8165 36.5184 29.9395 36.9023 30.0573C37.2861 30.1644 37.6647 30.2928 38.0378 30.4426C38.4217 30.5924 38.7681 30.7901 39.0772 31.0358C39.3969 31.2708 39.6525 31.5804 39.8441 31.9646C40.0357 32.3382 40.1312 32.813 40.1305 33.389C40.1296 34.2316 39.9635 34.9088 39.6322 35.4204C39.301 35.9214 38.8419 36.2888 38.255 36.5228C37.6787 36.7569 37.0119 36.8734 36.2546 36.8726ZM45.4686 36.883C44.2952 36.8816 43.3729 36.5766 42.7016 35.9678C42.041 35.3484 41.7113 34.4414 41.7127 33.2467L41.7212 25.7107L43.7692 25.713L43.7607 33.185C43.76 33.8144 43.9088 34.2945 44.2071 34.6255C44.5054 34.9565 44.9266 35.1224 45.4706 35.123C46.0146 35.1236 46.4361 34.9587 46.7351 34.6284C47.0448 34.2981 47.2 33.8183 47.2007 33.1889L47.2092 25.7169L49.2572 25.7192L49.2487 33.2552C49.2473 34.4499 48.9103 35.3562 48.2376 35.9741C47.5649 36.5813 46.6419 36.8843 45.4686 36.883ZM51.1615 36.6974L51.1739 25.7214L55.8939 25.7267C56.4699 25.7274 56.9818 25.8453 57.4295 26.0804C57.8879 26.305 58.2449 26.62 58.5004 27.0256C58.756 27.4313 58.8834 27.9061 58.8828 28.4501C58.8821 29.0794 58.7162 29.6126 58.385 30.0495C58.0645 30.4758 57.6695 30.774 57.2 30.9442L57.1999 31.0082C57.7438 31.1795 58.2021 31.5053 58.5748 31.9857C58.9476 32.4662 59.1336 33.0584 59.1328 33.7624C59.1321 34.381 58.9822 34.9089 58.6831 35.3459C58.3839 35.7829 57.9889 36.1184 57.4979 36.3525C57.007 36.5866 56.4682 36.7034 55.8815 36.7027L51.1615 36.6974ZM53.2116 34.8757L55.5476 34.8783C55.9743 34.8788 56.3264 34.7619 56.604 34.5275C56.8922 34.2932 57.0366 33.952 57.0371 33.504C57.0376 33.0773 56.9047 32.7199 56.6383 32.4316C56.3827 32.1326 55.9882 31.9828 55.4548 31.9822L53.2148 31.9797L53.2116 34.8757ZM53.2169 30.1717L55.3289 30.1741C55.8196 30.1746 56.1824 30.0417 56.4173 29.7753C56.663 29.4982 56.786 29.1784 56.7864 28.8157C56.7869 28.3997 56.6592 28.0849 56.4035 27.8713C56.1584 27.6577 55.8332 27.5506 55.4278 27.5502L53.2198 27.5477L53.2169 30.1717ZM63.9421 36.9038C63.2701 36.903 62.6462 36.7743 62.0705 36.5177C61.4948 36.261 61.0312 35.8818 60.6798 35.3801C60.3283 34.8677 60.1531 34.2382 60.1539 33.4915C60.154 33.4275 60.154 33.3635 60.1541 33.2995C60.1649 33.2355 60.1702 33.1822 60.1703 33.1395L62.2983 33.1419C62.2983 33.1526 62.2929 33.1899 62.2822 33.2539C62.2821 33.3072 62.2821 33.3552 62.282 33.3979C62.2814 33.9206 62.4356 34.3421 62.7446 34.6624C63.0536 34.9828 63.4854 35.1433 64.04 35.1439C64.6587 35.1446 65.0909 35.0117 65.3365 34.7454C65.5821 34.4683 65.7051 34.1698 65.7055 33.8498C65.7059 33.4764 65.6103 33.1777 65.4185 32.9535C65.2268 32.7292 64.971 32.5476 64.6511 32.4086C64.342 32.2589 63.9954 32.1252 63.6116 32.0074C63.2384 31.8897 62.8599 31.7559 62.476 31.6061C62.0922 31.4564 61.7404 31.264 61.4207 31.0289C61.1116 30.7833 60.8613 30.4683 60.6697 30.0841C60.4782 29.6999 60.3827 29.2091 60.3834 28.6118C60.3842 27.9184 60.5555 27.348 60.8973 26.9004C61.2392 26.4421 61.6876 26.1012 62.2425 25.8779C62.8081 25.6545 63.4109 25.5432 64.0509 25.5439C64.7015 25.5446 65.2934 25.6573 65.8265 25.8819C66.3702 26.1065 66.8018 26.459 67.1213 26.9394C67.4514 27.4091 67.6161 28.0226 67.6152 28.7799L67.615 28.9719L65.519 28.9696L65.5192 28.8256C65.5197 28.3562 65.3868 27.9881 65.1204 27.7211C64.8647 27.4435 64.5022 27.3044 64.0329 27.3039C63.5422 27.3033 63.1634 27.4149 62.8965 27.6386C62.6296 27.8516 62.4959 28.1288 62.4956 28.4702C62.4952 28.7902 62.5909 29.0463 62.7827 29.2385C62.9745 29.4307 63.225 29.591 63.5342 29.7193C63.854 29.8477 64.2059 29.9707 64.5897 30.0885C64.9736 30.1956 65.3521 30.324 65.7253 30.4738C66.1091 30.6236 66.4556 30.8213 66.7646 31.067C67.0844 31.302 67.34 31.6116 67.5316 31.9958C67.7232 32.3694 67.8186 32.8442 67.818 33.4202C67.817 34.2628 67.6509 34.94 67.3197 35.4516C66.9885 35.9526 66.5294 36.32 65.9425 36.554C65.3662 36.7881 64.6994 36.9046 63.9421 36.9038ZM73.3321 36.9144C71.9561 36.9128 70.8846 36.4476 70.1176 35.5187C69.3507 34.5899 68.9683 33.1601 68.9705 31.2295C68.9726 29.2881 69.3583 27.8592 70.1273 26.9428C70.8963 26.0156 71.9689 25.5528 73.3449 25.5544C74.1129 25.5552 74.8007 25.7054 75.4083 26.0047C76.016 26.3041 76.4955 26.7686 76.8468 27.3983C77.1981 28.0281 77.3732 28.8389 77.372 29.8309L75.276 29.8286C75.277 28.9752 75.0964 28.3457 74.7342 27.9399C74.3826 27.5235 73.9189 27.315 73.3429 27.3144C72.5855 27.3135 72.0198 27.6276 71.6458 28.2565C71.2718 28.8747 71.0841 29.7332 71.0829 30.8318L71.082 31.6318C71.0808 32.7305 71.2718 33.5947 71.6551 34.2245C72.0384 34.8436 72.6194 35.1536 73.398 35.1544C73.9954 35.1551 74.4703 34.953 74.8227 34.5481C75.1859 34.1325 75.3679 33.5033 75.3688 32.6607L77.3688 32.6629C77.3678 33.6229 77.1909 34.4174 76.8382 35.0463C76.4854 35.6753 76.0049 36.1441 75.3966 36.4527C74.7989 36.7614 74.1107 36.9152 73.3321 36.9144ZM78.849 36.7286L78.8614 25.7526L83.4534 25.7578C84.5627 25.759 85.3997 26.0586 85.9644 26.6566C86.529 27.2439 86.8109 27.9909 86.8098 28.8976C86.8091 29.5589 86.6431 30.1347 86.3119 30.625C85.9807 31.1153 85.5323 31.4775 84.9667 31.7115L87.073 36.7379L84.849 36.7354L83.0302 32.1573L80.9022 32.1549L80.897 36.7309L78.849 36.7286ZM80.9042 30.3469L83.1602 30.3494C83.6615 30.35 84.0243 30.2224 84.2486 29.9667C84.4836 29.7109 84.6013 29.3537 84.6018 28.8951C84.6023 28.4897 84.4907 28.1696 84.2669 27.9347C84.0539 27.6998 83.7127 27.5821 83.2433 27.5815L80.9073 27.5789L80.9042 30.3469ZM88.1578 36.7391L88.1701 25.7631L90.2181 25.7654L90.2058 36.7414L88.1578 36.7391ZM91.9584 36.7434L91.9707 25.7674L96.6907 25.7727C97.2667 25.7733 97.7786 25.8912 98.2263 26.1264C98.6848 26.3509 99.0417 26.666 99.2973 27.0716C99.5528 27.4773 99.6803 27.9521 99.6797 28.4961C99.679 29.1254 99.513 29.6585 99.1819 30.0955C98.8614 30.5218 98.4664 30.82 97.9969 30.9902L97.9968 31.0542C98.5406 31.2254 98.9989 31.5513 99.3717 32.0317C99.7445 32.5121 99.9305 33.1043 99.9297 33.8083C99.929 34.427 99.7791 34.9548 99.4799 35.3918C99.1807 35.8288 98.7857 36.1644 98.2948 36.3985C97.8038 36.6326 97.265 36.7493 96.6784 36.7487L91.9584 36.7434ZM94.0084 34.9217L96.3444 34.9243C96.7711 34.9248 97.1232 34.8079 97.4008 34.5735C97.6891 34.3392 97.8335 33.998 97.834 33.55C97.8345 33.1233 97.7015 32.7658 97.4352 32.4775C97.1795 32.1786 96.785 32.0288 96.2517 32.0282L94.0117 32.0257L94.0084 34.9217ZM94.0137 30.2177L96.1257 30.2201C96.6164 30.2206 96.9792 30.0877 97.2142 29.8213C97.4598 29.5442 97.5829 29.2244 97.5833 28.8617C97.5837 28.4457 97.4561 28.1309 97.2003 27.9173C96.9552 27.7037 96.63 27.5966 96.2247 27.5962L94.0167 27.5937L94.0137 30.2177ZM101.427 36.754L101.439 25.778L108.431 25.7859L108.429 27.6099L103.485 27.6043L103.482 30.2283L107.722 30.2331L107.72 32.0571L103.48 32.0523L103.477 34.9323L108.517 34.938L108.515 36.762L101.427 36.754ZM112.873 37.5509L115.159 25.0095L116.519 25.011L114.249 37.5525L112.873 37.5509ZM121.099 36.7762L121.111 25.8002L125.031 25.8046C125.789 25.8055 126.423 25.9502 126.935 26.2388C127.447 26.5167 127.83 26.9065 128.086 27.4081C128.341 27.899 128.468 28.4645 128.468 29.1045C128.467 29.7872 128.322 30.3897 128.034 30.912C127.745 31.4237 127.345 31.8232 126.832 32.1107C126.32 32.3874 125.717 32.5254 125.024 32.5246L123.152 32.5225L123.147 36.7785L121.099 36.7762ZM123.154 30.7145L124.818 30.7164C125.319 30.717 125.698 30.5734 125.954 30.2857C126.221 29.998 126.355 29.6035 126.356 29.1021C126.356 28.6541 126.223 28.2966 125.957 28.0297C125.69 27.7627 125.312 27.6289 124.821 27.6284L123.157 27.6265L123.154 30.7145ZM133.625 36.9823C132.451 36.981 131.529 36.676 130.858 36.0672C130.197 35.4478 129.868 34.5408 129.869 33.3461L129.877 25.8101L131.925 25.8124L131.917 33.2844C131.916 33.9137 132.065 34.3939 132.363 34.7249C132.662 35.0559 133.083 35.2217 133.627 35.2223C134.171 35.2229 134.592 35.0581 134.891 34.7277C135.201 34.3974 135.356 33.9176 135.357 33.2883L135.365 25.8163L137.413 25.8186L137.405 33.3546C137.404 34.5492 137.066 35.4555 136.394 36.0734C135.721 36.6807 134.798 36.9836 133.625 36.9823ZM139.318 36.7967L139.33 25.8207L144.05 25.8261C144.626 25.8267 145.138 25.9446 145.586 26.1798C146.044 26.4043 146.401 26.7194 146.657 27.125C146.912 27.5306 147.04 28.0054 147.039 28.5494C147.038 29.1788 146.872 29.7119 146.541 30.1489C146.221 30.5752 145.826 30.8734 145.356 31.0435L145.356 31.1075C145.9 31.2788 146.358 31.6047 146.731 32.0851C147.104 32.5655 147.29 33.1577 147.289 33.8617C147.288 34.4804 147.138 35.0082 146.839 35.4452C146.54 35.8822 146.145 36.2178 145.654 36.4519C145.163 36.686 144.624 36.8027 144.038 36.8021L139.318 36.7967ZM141.368 34.975L143.704 34.9777C144.13 34.9782 144.483 34.8612 144.76 34.6269C145.048 34.3925 145.193 34.0514 145.193 33.6034C145.194 33.1767 145.061 32.8192 144.795 32.5309C144.539 32.232 144.144 32.0822 143.611 32.0816L141.371 32.079L141.368 34.975ZM141.373 30.2711L143.485 30.2734C143.976 30.274 144.339 30.1411 144.574 29.8747C144.819 29.5976 144.942 29.2777 144.943 28.9151C144.943 28.4991 144.815 28.1843 144.56 27.9706C144.315 27.757 143.989 27.65 143.584 27.6495L141.376 27.6471L141.373 30.2711ZM148.786 36.8074L148.799 25.8314L150.847 25.8337L150.837 34.8897L155.477 34.8949L155.474 36.8149L148.786 36.8074ZM156.642 36.8163L156.654 25.8403L158.702 25.8426L158.69 36.8186L156.642 36.8163ZM163.754 37.0163C163.082 37.0155 162.459 36.8868 161.883 36.6302C161.307 36.3735 160.844 35.9943 160.492 35.4926C160.141 34.9802 159.965 34.3507 159.966 33.604C159.966 33.54 159.966 33.476 159.967 33.412C159.977 33.348 159.983 33.2947 159.983 33.252L162.111 33.2544C162.111 33.2651 162.105 33.3024 162.095 33.3664C162.095 33.4197 162.094 33.4677 162.094 33.5104C162.094 34.0331 162.248 34.4546 162.557 34.7749C162.866 35.0953 163.298 35.2558 163.852 35.2564C164.471 35.2571 164.903 35.1242 165.149 34.8578C165.395 34.5808 165.518 34.2823 165.518 33.9623C165.518 33.5889 165.423 33.2902 165.231 33.0659C165.039 32.8417 164.783 32.6601 164.464 32.5211C164.154 32.3714 163.808 32.2377 163.424 32.1199C163.051 32.0022 162.672 31.8684 162.288 31.7186C161.905 31.5689 161.553 31.3765 161.233 31.1414C160.924 30.8958 160.674 30.5808 160.482 30.1966C160.291 29.8124 160.195 29.3216 160.196 28.7243C160.197 28.0309 160.368 27.4605 160.71 27.0128C161.052 26.5546 161.5 26.2137 162.055 25.9904C162.621 25.767 163.223 25.6557 163.863 25.6564C164.514 25.6571 165.106 25.7698 165.639 25.9944C166.183 26.219 166.614 26.5715 166.934 27.0519C167.264 27.5216 167.429 28.1351 167.428 28.8924L167.427 29.0844L165.331 29.0821L165.332 28.9381C165.332 28.4687 165.199 28.1006 164.933 27.8336C164.677 27.556 164.315 27.4169 163.845 27.4164C163.355 27.4158 162.976 27.5274 162.709 27.7511C162.442 27.9641 162.308 28.2413 162.308 28.5826C162.308 28.9026 162.403 29.1588 162.595 29.351C162.787 29.5432 163.037 29.7035 163.347 29.8318C163.666 29.9602 164.018 30.0832 164.402 30.201C164.786 30.3081 165.165 30.4365 165.538 30.5863C165.922 30.7361 166.268 30.9338 166.577 31.1795C166.897 31.4145 167.152 31.7241 167.344 32.1083C167.536 32.4819 167.631 32.9566 167.63 33.5326C167.629 34.3753 167.463 35.0525 167.132 35.5641C166.801 36.065 166.342 36.4325 165.755 36.6665C165.179 36.9006 164.512 37.0171 163.754 37.0163ZM169.193 36.8304L169.205 25.8544L171.253 25.8567L171.248 30.3047L174.704 30.3086L174.709 25.8606L176.757 25.8629L176.745 36.8389L174.697 36.8366L174.702 32.1326L171.246 32.1287L171.241 36.8327L169.193 36.8304Z" fill="#565656"/>
<rect x="203.355" y="51.3125" width="3.0369" height="13.1404" transform="rotate(-135 203.355 51.3125)" fill="#00A197"/>
<rect x="201.301" y="34.8125" width="3.0369" height="13.1404" transform="rotate(-45 201.301 34.8125)" fill="#00A197"/>
<path d="M335.044 34.6401C323.645 -17.571 247.278 -2.65539 252.686 36.0103C202.227 44.2676 222.41 95.6455 247.182 96.1042C288.385 96.1042 325.167 96.5213 352.69 96.1042C388.038 95.5685 389.573 23.7099 335.044 34.6401Z" fill="white"/>
<path d="M252.686 36.0103C247.278 -2.65539 323.645 -17.571 335.044 34.6401M252.686 36.0103C202.227 44.2676 222.41 95.6455 247.182 96.1042C288.385 96.1042 325.167 96.5213 352.69 96.1042C388.038 95.5685 389.573 23.7099 335.044 34.6401M252.686 36.0103C252.803 39.4058 255.751 46.2916 266.604 46.6702M335.044 34.6401C329.857 35.9674 319.46 40.0749 316.379 47.9048" stroke="#313131" stroke-width="0.834229" stroke-linecap="round" stroke-linejoin="round"/>
<path d="M267.463 86.168V75.192H272.183C272.759 75.192 273.271 75.3093 273.719 75.544C274.178 75.768 274.535 76.0826 274.791 76.488C275.047 76.8933 275.175 77.368 275.175 77.912C275.175 78.5413 275.01 79.0746 274.679 79.512C274.359 79.9386 273.965 80.2373 273.495 80.408V80.472C274.039 80.6426 274.498 80.968 274.871 81.448C275.245 81.928 275.431 82.52 275.431 83.224C275.431 83.8426 275.282 84.3706 274.983 84.808C274.685 85.2453 274.29 85.5813 273.799 85.816C273.309 86.0506 272.77 86.168 272.183 86.168H267.463ZM269.511 84.344H271.847C272.274 84.344 272.626 84.2266 272.903 83.992C273.191 83.7573 273.335 83.416 273.335 82.968C273.335 82.5413 273.202 82.184 272.935 81.896C272.679 81.5973 272.285 81.448 271.751 81.448H269.511V84.344ZM269.511 79.64H271.623C272.114 79.64 272.477 79.5066 272.711 79.24C272.957 78.9626 273.079 78.6426 273.079 78.28C273.079 77.864 272.951 77.5493 272.695 77.336C272.45 77.1226 272.125 77.016 271.719 77.016H269.511V79.64ZM276.932 86.168V75.192H281.524C282.633 75.192 283.471 75.4906 284.036 76.088C284.601 76.6746 284.884 77.4213 284.884 78.328C284.884 78.9893 284.719 79.5653 284.388 80.056C284.057 80.5466 283.609 80.9093 283.044 81.144L285.156 86.168H282.932L281.108 81.592H278.98V86.168H276.932ZM278.98 79.784H281.236C281.737 79.784 282.1 79.656 282.324 79.4C282.559 79.144 282.676 78.7866 282.676 78.328C282.676 77.9226 282.564 77.6026 282.34 77.368C282.127 77.1333 281.785 77.016 281.316 77.016H278.98V79.784ZM290.545 86.36C289.126 86.36 288.012 85.896 287.201 84.968C286.39 84.04 285.985 82.6106 285.985 80.68C285.985 78.7386 286.39 77.3093 287.201 76.392C288.012 75.464 289.126 75 290.545 75C291.964 75 293.078 75.464 293.889 76.392C294.7 77.3093 295.105 78.7386 295.105 80.68C295.105 82.6106 294.7 84.04 293.889 84.968C293.078 85.896 291.964 86.36 290.545 86.36ZM290.545 84.6C291.366 84.6 291.98 84.2906 292.385 83.672C292.79 83.0426 292.993 82.1786 292.993 81.08V80.28C292.993 79.1813 292.79 78.3226 292.385 77.704C291.98 77.0746 291.366 76.76 290.545 76.76C289.734 76.76 289.121 77.0746 288.705 77.704C288.3 78.3226 288.097 79.1813 288.097 80.28V81.08C288.097 82.1786 288.3 83.0426 288.705 83.672C289.121 84.2906 289.734 84.6 290.545 84.6ZM300.556 86.36C299.18 86.36 298.108 85.896 297.34 84.968C296.572 84.04 296.188 82.6106 296.188 80.68C296.188 78.7386 296.572 77.3093 297.34 76.392C298.108 75.464 299.18 75 300.556 75C301.324 75 302.012 75.1493 302.62 75.448C303.228 75.7466 303.708 76.2106 304.06 76.84C304.412 77.4693 304.588 78.28 304.588 79.272H302.492C302.492 78.4186 302.311 77.7893 301.948 77.384C301.596 76.968 301.132 76.76 300.556 76.76C299.799 76.76 299.233 77.0746 298.86 77.704C298.487 78.3226 298.3 79.1813 298.3 80.28V81.08C298.3 82.1786 298.492 83.0426 298.876 83.672C299.26 84.2906 299.841 84.6 300.62 84.6C301.217 84.6 301.692 84.3973 302.044 83.992C302.407 83.576 302.588 82.9466 302.588 82.104H304.588C304.588 83.064 304.412 83.8586 304.06 84.488C303.708 85.1173 303.228 85.5866 302.62 85.896C302.023 86.2053 301.335 86.36 300.556 86.36ZM306.073 86.168V75.192H308.137V80.808L312.153 75.192H314.441L311.193 79.656L314.537 86.168H312.233L309.849 81.272L308.137 83.368V86.168H306.073ZM315.542 86.168V75.192H322.534V77.016H317.59V79.64H321.83V81.464H317.59V84.344H322.63V86.168H315.542ZM324.292 86.168V75.192H328.884C329.993 75.192 330.83 75.4906 331.396 76.088C331.961 76.6746 332.244 77.4213 332.244 78.328C332.244 78.9893 332.078 79.5653 331.748 80.056C331.417 80.5466 330.969 80.9093 330.404 81.144L332.516 86.168H330.292L328.468 81.592H326.34V86.168H324.292ZM326.34 79.784H328.596C329.097 79.784 329.46 79.656 329.684 79.4C329.918 79.144 330.036 78.7866 330.036 78.328C330.036 77.9226 329.924 77.6026 329.7 77.368C329.486 77.1333 329.145 77.016 328.676 77.016H326.34V79.784Z" fill="#565656"/>
<path d="M290.146 64.8619C290.256 65.1023 290.36 65.3491 290.457 65.6025C290.555 65.3426 290.659 65.0958 290.776 64.8489C290.886 64.6086 291.003 64.3682 291.12 64.1409L294.394 57.6839C294.452 57.5735 294.511 57.489 294.576 57.4241C294.634 57.3656 294.706 57.3201 294.784 57.2877C294.862 57.2552 294.946 57.2422 295.043 57.2422C295.141 57.2422 295.251 57.2422 295.381 57.2422H297.642V70.0132H295.03V62.6598C295.03 62.3025 295.05 61.9193 295.082 61.5035L291.698 68.0709C291.594 68.2788 291.451 68.4282 291.276 68.5386C291.1 68.6426 290.893 68.6945 290.665 68.6945H290.262C290.035 68.6945 289.834 68.6426 289.652 68.5386C289.476 68.4347 289.334 68.2788 289.23 68.0709L285.819 61.497C285.845 61.7049 285.858 61.9063 285.871 62.1076C285.884 62.309 285.891 62.4974 285.891 62.6663V70.0132H283.279V57.2422H285.54C285.67 57.2422 285.78 57.2422 285.878 57.2422C285.975 57.2422 286.06 57.2552 286.138 57.2877C286.215 57.3201 286.28 57.3591 286.345 57.4241C286.404 57.4825 286.469 57.5735 286.527 57.6839L289.814 64.1734C289.925 64.3942 290.042 64.6216 290.146 64.8619Z" fill="#565656"/>
<path d="M311.653 63.6209C311.653 64.173 311.594 64.6992 311.484 65.2059C311.367 65.7125 311.204 66.1867 310.99 66.6285C310.776 67.0702 310.516 67.4859 310.198 67.8627C309.886 68.246 309.529 68.5772 309.132 68.8696L312.367 72.4034H309.931C309.58 72.4034 309.262 72.3579 308.976 72.2734C308.691 72.189 308.437 72.0201 308.216 71.7603L306.631 69.9804C306.372 70.0323 306.112 70.0713 305.845 70.1038C305.579 70.1298 305.306 70.1493 305.027 70.1493C304.033 70.1493 303.124 69.9804 302.305 69.6491C301.487 69.3178 300.785 68.8566 300.207 68.2654C299.622 67.6808 299.174 66.9857 298.856 66.1932C298.537 65.4007 298.375 64.5368 298.375 63.6144C298.375 62.6919 298.537 61.8345 298.856 61.0355C299.174 60.243 299.622 59.5479 300.207 58.9633C300.791 58.3786 301.487 57.9174 302.305 57.5861C303.124 57.2548 304.026 57.0859 305.027 57.0859C306.021 57.0859 306.924 57.2548 307.742 57.5926C308.561 57.9304 309.256 58.3916 309.834 58.9763C310.412 59.5609 310.86 60.2495 311.178 61.0485C311.497 61.841 311.653 62.6984 311.653 63.6209ZM308.619 63.6209C308.619 62.9907 308.535 62.4191 308.372 61.9124C308.21 61.4057 307.976 60.977 307.664 60.6262C307.359 60.2754 306.982 60.0091 306.54 59.8207C306.099 59.6323 305.592 59.5414 305.02 59.5414C304.449 59.5414 303.936 59.6323 303.487 59.8207C303.039 60.0091 302.662 60.2754 302.357 60.6262C302.052 60.977 301.818 61.4057 301.649 61.9124C301.487 62.4191 301.402 62.9842 301.402 63.6209C301.402 64.2575 301.487 64.8291 301.649 65.3358C301.811 65.8425 302.045 66.2712 302.357 66.622C302.662 66.9728 303.039 67.2391 303.487 67.4275C303.936 67.6094 304.442 67.7068 305.02 67.7068C305.585 67.7068 306.092 67.6159 306.54 67.4275C306.982 67.2456 307.359 66.9728 307.664 66.622C307.969 66.2712 308.203 65.8425 308.372 65.3358C308.541 64.8291 308.619 64.2575 308.619 63.6209Z" fill="#565656"/>
<path d="M321.168 57.2344V59.5859H317.706V70.0119H314.744V59.5859H311.281V57.2344H321.168Z" fill="#565656"/>
<path d="M332.511 57.2344V59.5859H328.919V70.0119H325.956V59.5859H322.494V57.2344H332.511Z" fill="#565656"/>
<path d="M267.213 64.4688C267.2 64.4688 267.187 64.4688 267.174 64.4688V69.5096C267.174 69.8734 267.473 70.1722 267.836 70.1722H273.027C272.981 67.0217 270.396 64.4688 267.213 64.4688Z" fill="#565656"/>
<path d="M267.213 60.3125C267.2 60.3125 267.187 60.3125 267.174 60.3125V62.4562C271.455 62.4756 274.936 65.9185 274.982 70.1733H277.204C277.165 64.7297 272.702 60.3125 267.213 60.3125Z" fill="#565656"/>
<path d="M280.354 69.5138V64.9601C278.847 61.2704 275.813 58.3537 272.039 56.9961H267.836C267.473 56.9961 267.174 57.2949 267.174 57.6587V58.3018C273.761 58.3213 279.12 63.6284 279.159 70.1764H279.691C280.062 70.1699 280.354 69.8775 280.354 69.5138Z" fill="#565656"/>
<path d="M278.619 58.8344C279.229 59.4451 279.853 60.2181 280.353 60.9002V57.6522C280.353 57.2884 280.061 56.9961 279.697 56.9961H276.352C277.131 57.5353 277.937 58.1524 278.619 58.8344Z" fill="#565656"/>
<path d="M304.871 176.348V104.758" stroke="#00A197" stroke-width="2.93"/>
<rect x="314.195" y="111.172" width="3.0369" height="13.1404" transform="rotate(135 314.195 111.172)" fill="#00A197"/>
<rect x="297.695" y="113.227" width="3.0369" height="13.1404" transform="rotate(-135 297.695 113.227)" fill="#00A197"/>
<path d="M66.8271 167.008H0.785156V381.828H66.8271V167.008Z" fill="#ECECEC" stroke="#313131" stroke-width="0.834229" stroke-miterlimit="10"/>
<path d="M61.841 229.97H58.502V203.172H61.841V229.97Z" fill="#313131"/>
<path d="M61.841 371.203H58.502V237.645H61.841V371.203Z" fill="#313131"/>
<path d="M61.841 207.421H58.502V203.172H61.841V207.421Z" fill="#3AB992"/>
<path d="M61.841 215.838H58.502V211.719H61.841V215.838Z" fill="#3AB992"/>
<path d="M61.841 241.717H58.502V237.598H61.841V241.717Z" fill="#3AB992"/>
<path d="M61.841 266.873H58.502V262.754H61.841V266.873Z" fill="#3AB992"/>
<path d="M61.841 283.916H58.502V279.797H61.841V283.916Z" fill="#3AB992"/>
<path d="M32.4554 178.515C32.4988 178.081 32.6289 177.734 32.9758 177.387C33.2794 177.04 33.6697 176.867 34.1467 176.867C34.6237 176.867 35.0138 177.04 35.274 177.344C35.5342 177.647 35.6643 178.038 35.7076 178.471L32.4554 178.515ZM34.1899 176.043C33.3227 176.043 32.6289 176.346 32.1086 176.954C31.5882 177.561 31.3281 178.341 31.3281 179.382C31.3281 180.423 31.5882 181.247 32.1086 181.81C32.6289 182.417 33.3661 182.721 34.3201 182.721C34.667 182.721 34.9705 182.677 35.3174 182.591C35.6643 182.504 36.0112 182.374 36.4015 182.244V181.203C36.0112 181.42 35.6209 181.593 35.274 181.68C34.9271 181.81 34.6236 181.854 34.2767 181.854C33.6263 181.854 33.1494 181.637 32.8458 181.247C32.4989 180.856 32.3254 180.249 32.3688 179.382V179.339H36.6617V178.862C36.6183 178.081 36.4015 177.431 35.9678 176.867C35.5776 176.303 34.9271 176.043 34.1899 176.043Z" fill="#090F15"/>
<path d="M40.2171 176.91C40.564 176.91 40.8673 176.953 41.1275 177.083C41.3877 177.213 41.648 177.343 41.9082 177.647V176.563C41.6046 176.389 41.3444 176.303 41.0409 176.216C40.7807 176.129 40.4772 176.086 40.1736 176.086C39.263 176.086 38.4824 176.389 37.9621 176.997C37.4417 177.604 37.1816 178.384 37.1816 179.425C37.1816 180.466 37.4417 181.29 37.9621 181.853C38.4824 182.46 39.2197 182.764 40.1736 182.764C40.4772 182.764 40.7807 182.72 41.0409 182.634C41.3444 182.547 41.6046 182.417 41.8648 182.287V181.159C41.6479 181.376 41.3879 181.55 41.0843 181.68C40.8241 181.81 40.4772 181.853 40.1736 181.853C39.5232 181.853 39.0461 181.636 38.7425 181.246C38.4824 180.813 38.3523 180.205 38.3523 179.425C38.3523 178.644 38.5259 178.037 38.8728 177.604C39.0896 177.17 39.5666 176.91 40.2171 176.91Z" fill="#090F15"/>
<path d="M22.085 177.821L19.9602 174.699H17.8789V176.39H19.3098L21.2177 179.166L19.3098 181.854H17.8789V183.589H19.9602L22.085 180.423L22.9957 179.166L22.085 177.821Z" fill="#009C92"/>
<path d="M24.2133 174.699L23.0426 176.39L22.4355 177.344L23.346 178.689L24.9071 176.39H26.2514L26.2948 174.699" fill="#EC1D7D"/>
<path d="M10.2078 179.555C10.2078 180.249 10.0777 180.813 9.73076 181.203C9.42722 181.593 8.99359 181.81 8.42987 181.81C8.0396 181.81 7.73602 181.68 7.5192 181.507C7.30239 181.29 7.17238 180.986 7.17238 180.596C7.17238 180.162 7.30247 179.859 7.60601 179.642C7.90956 179.425 8.34319 179.339 8.9069 179.339H9.29713H10.2078V179.555ZM10.8148 176.954C10.598 176.65 10.2945 176.39 9.94757 176.26C9.55731 176.086 9.16704 176.043 8.64668 176.043C8.29978 176.043 7.99637 176.086 7.69282 176.173C7.34592 176.26 6.99885 176.39 6.65194 176.52V177.561C6.99885 177.344 7.30252 177.214 7.64942 177.127C7.99632 176.997 8.34319 176.954 8.69009 176.954C9.21045 176.954 9.6008 177.084 9.86098 177.3C10.0778 177.517 10.2512 177.908 10.2512 178.385V178.558H8.9069C7.99628 178.558 7.38916 178.775 6.91216 179.122C6.47853 179.469 6.26172 179.989 6.26172 180.726C6.26172 181.333 6.4353 181.81 6.82556 182.201C7.21583 182.547 7.69278 182.764 8.29986 182.764C8.73349 182.764 9.167 182.678 9.47054 182.504C9.81744 182.287 10.0778 182.027 10.2946 181.68V182.808H11.2919V178.992C11.2919 178.428 11.2918 178.038 11.2051 177.734C11.1183 177.344 10.9883 177.17 10.8148 176.954Z" fill="#090F15"/>
<path d="M16.9266 176.39H15.7557L13.1108 179.036V174.699H12.1133V182.721H13.1108V180.206L13.8478 179.513L16.0594 182.721H17.3168L14.5417 178.819L16.9266 176.39Z" fill="#090F15"/>
<path d="M29.4169 181.637C29.2435 181.42 29.1569 181.117 29.1569 180.683V177.214H31.4117V176.39H29.1569V174.699H28.1594V176.39H26.5117V177.214H28.1594V180.683C28.1594 181.464 28.2895 181.984 28.5931 182.331C28.8966 182.635 29.417 182.808 30.1976 182.808H31.4117V181.984H30.2842C29.8505 181.897 29.5904 181.811 29.4169 181.637Z" fill="#090F15"/>
<path d="M66.8255 197.617H52.082V376.359H66.8255" stroke="#313131" stroke-width="0.834229" stroke-miterlimit="10"/>
<path d="M45.4062 369.207H5.03516V376.362H45.4062V369.207Z" stroke="#313131" stroke-width="0.834229" stroke-miterlimit="10"/>
<path d="M44.8351 203.516H44.0547V205.51H44.8351V203.516Z" fill="#313131"/>
<path d="M44.4486 209.28C42.9309 209.28 41.7168 208.066 41.7168 206.548C41.7168 205.638 42.1503 204.814 42.8875 204.293L43.3645 204.944C42.8442 205.291 42.5407 205.898 42.5407 206.548C42.5407 207.632 43.4079 208.5 44.492 208.5C45.5761 208.5 46.4433 207.632 46.4433 206.548C46.4433 205.898 46.0964 205.291 45.5761 204.9L46.0097 204.25C46.7902 204.77 47.2672 205.638 47.2672 206.548C47.1805 208.023 45.9663 209.28 44.4486 209.28Z" fill="#313131"/>
<path d="M43.7162 238.557C43.6729 238.471 43.7163 238.427 43.803 238.384C43.8898 238.341 44.0199 238.297 44.1067 238.211C44.1934 238.124 44.2799 238.037 44.3667 237.95C44.4534 237.864 44.4967 237.82 44.5835 237.82H44.9739C45.0606 237.82 45.1473 237.864 45.1473 237.95V241.246C45.1473 241.333 45.1038 241.376 45.0171 241.376H44.6269C44.5402 241.376 44.4969 241.333 44.4969 241.246V238.861C44.4969 238.774 44.4969 238.731 44.4969 238.644C44.4535 238.688 44.4102 238.774 44.3235 238.818C44.2801 238.861 44.1932 238.904 44.1498 238.948C44.0631 238.991 44.0198 238.948 43.9764 238.904L43.7162 238.557Z" fill="#313131"/>
<path d="M43.3199 249.873C43.1898 249.873 43.1465 249.83 43.1465 249.7V249.569C43.1465 249.483 43.1898 249.396 43.2765 249.309L44.0137 248.529C44.2306 248.312 44.4473 248.095 44.6208 247.878C44.7942 247.661 44.881 247.488 44.881 247.315C44.881 247.141 44.8377 246.968 44.751 246.881C44.6643 246.794 44.5341 246.751 44.404 246.751C44.1872 246.751 44.0137 246.794 43.9269 246.924C43.8402 247.054 43.7535 247.141 43.7535 247.271C43.7102 247.401 43.6668 247.445 43.5367 247.401L43.2765 247.315C43.1898 247.271 43.1899 247.228 43.1899 247.098C43.2333 246.881 43.4067 246.664 43.5801 246.491C43.7536 246.317 44.0571 246.23 44.4474 246.23C44.8376 246.23 45.1412 246.317 45.358 246.534C45.5315 246.751 45.6183 246.968 45.6183 247.228C45.6183 247.531 45.488 247.835 45.2278 248.095C44.9676 248.355 44.7076 248.572 44.4908 248.789L44.0571 249.223C44.1439 249.223 44.2306 249.223 44.3174 249.223H45.488C45.6181 249.223 45.6615 249.266 45.6615 249.396V249.7C45.6615 249.786 45.6181 249.873 45.488 249.873H43.3199Z" fill="#313131"/>
<path d="M43.7162 212.569C43.6729 212.482 43.7163 212.439 43.803 212.396C43.8898 212.352 44.0199 212.309 44.1067 212.222C44.1934 212.136 44.2799 212.049 44.3667 211.962C44.4534 211.875 44.4967 211.832 44.5835 211.832H44.9739C45.0606 211.832 45.1473 211.875 45.1473 211.962V215.258C45.1473 215.344 45.1038 215.388 45.0171 215.388H44.6269C44.5402 215.388 44.4969 215.344 44.4969 215.258V212.873C44.4969 212.786 44.4969 212.743 44.4969 212.656C44.4535 212.699 44.4102 212.786 44.3235 212.829C44.2801 212.873 44.1932 212.916 44.1498 212.959C44.0631 213.003 44.0198 212.959 43.9764 212.916L43.7162 212.569Z" fill="#313131"/>
<path d="M43.3199 221.357C43.1898 221.357 43.1465 221.314 43.1465 221.184V221.054C43.1465 220.967 43.1898 220.88 43.2765 220.794L44.0137 220.013C44.2306 219.796 44.4473 219.579 44.6208 219.363C44.7942 219.146 44.881 218.972 44.881 218.799C44.881 218.625 44.8377 218.452 44.751 218.365C44.6643 218.279 44.5341 218.235 44.404 218.235C44.1872 218.235 44.0137 218.279 43.9269 218.409C43.8402 218.539 43.7535 218.625 43.7535 218.756C43.7102 218.886 43.6668 218.929 43.5367 218.886L43.2765 218.799C43.1898 218.756 43.1899 218.712 43.1899 218.582C43.2333 218.365 43.4067 218.148 43.5801 217.975C43.7536 217.802 44.0571 217.715 44.4474 217.715C44.8376 217.715 45.1412 217.802 45.358 218.018C45.5315 218.235 45.6183 218.452 45.6183 218.712C45.6183 219.016 45.488 219.319 45.2278 219.579C44.9676 219.84 44.7076 220.056 44.4908 220.273L44.0571 220.707C44.1439 220.707 44.2306 220.707 44.3174 220.707H45.488C45.6181 220.707 45.6615 220.75 45.6615 220.88V221.184C45.6615 221.271 45.6181 221.357 45.488 221.357H43.3199Z" fill="#313131"/>
<path d="M43.2395 258.022C43.1962 257.979 43.1528 257.892 43.2395 257.805L43.3695 257.589C43.4129 257.502 43.4997 257.458 43.6297 257.545C43.7165 257.632 43.8465 257.675 43.9766 257.719C44.1067 257.762 44.2367 257.805 44.4102 257.805C44.627 257.805 44.8005 257.762 44.8872 257.632C44.974 257.502 45.0172 257.372 45.0172 257.242C45.0172 257.112 44.9739 256.938 44.8438 256.851C44.7137 256.721 44.5836 256.678 44.3668 256.678H44.1934C44.1067 256.678 44.02 256.635 44.02 256.548V256.288C44.02 256.201 44.0633 256.158 44.1934 256.158H44.3236C44.4971 256.158 44.6271 256.114 44.7138 256.027C44.8439 255.941 44.8872 255.811 44.8872 255.681C44.8872 255.55 44.844 255.464 44.7572 255.42C44.6705 255.334 44.5402 255.29 44.3668 255.29C44.1933 255.29 44.0633 255.334 43.9332 255.377C43.8031 255.42 43.7165 255.464 43.6297 255.55C43.543 255.637 43.4563 255.637 43.3695 255.55L43.2395 255.334C43.1962 255.247 43.196 255.16 43.2827 255.073C43.4128 254.943 43.5429 254.857 43.7598 254.813C43.9332 254.77 44.1501 254.727 44.3236 254.727C44.7572 254.727 45.0606 254.813 45.2775 254.987C45.4943 255.16 45.5811 255.377 45.5811 255.594C45.5811 255.767 45.4944 255.941 45.3643 256.114C45.2342 256.244 45.0607 256.374 44.9306 256.418C45.1041 256.461 45.3208 256.548 45.4509 256.721C45.6243 256.895 45.7111 257.068 45.7111 257.285C45.7111 257.632 45.5811 257.935 45.3643 258.109C45.1475 258.282 44.8006 258.412 44.3236 258.412C44.1068 258.412 43.9332 258.369 43.7163 258.326C43.5429 258.196 43.3696 258.109 43.2395 258.022Z" fill="#313131"/>
<path d="M43.2361 265.963C43.1494 265.963 43.0625 265.92 43.0625 265.79V265.486C43.0625 265.399 43.1059 265.313 43.1493 265.226L44.537 263.275C44.5804 263.188 44.6671 263.145 44.7538 263.145H45.1006C45.2307 263.145 45.2741 263.188 45.2741 263.318V265.356H45.5777C45.6644 265.356 45.7511 265.399 45.7511 265.529V265.833C45.7511 265.92 45.7078 266.007 45.5777 266.007H45.2741V266.614C45.2741 266.7 45.2307 266.787 45.1006 266.787H44.7104C44.6237 266.787 44.537 266.744 44.537 266.614V266.007H43.2361V265.963ZM43.7564 265.356H44.5802V264.402C44.5802 264.315 44.5802 264.272 44.5802 264.185L43.7564 265.356Z" fill="#313131"/>
<path d="M43.2407 274.901C43.1973 274.815 43.1973 274.771 43.1973 274.728L43.3707 274.468C43.4574 274.381 43.5442 274.381 43.6309 274.468C43.6743 274.511 43.8044 274.555 43.8911 274.598C44.0212 274.641 44.1513 274.685 44.2813 274.685C44.4548 274.685 44.6283 274.641 44.7584 274.511C44.8885 274.424 44.9752 274.251 44.9752 274.034C44.9752 273.861 44.9317 273.687 44.845 273.557C44.7582 273.427 44.6715 273.384 44.5848 273.384C44.498 273.384 44.4115 273.384 44.3247 273.427C44.238 273.427 44.1947 273.47 44.1079 273.557C44.0646 273.601 43.9778 273.644 43.8477 273.644H43.5007C43.3706 273.644 43.2839 273.601 43.2839 273.47V271.736C43.2839 271.649 43.3274 271.562 43.4575 271.562H45.2352C45.3219 271.562 45.4088 271.606 45.4088 271.736V272.039C45.4088 272.126 45.3653 272.213 45.2352 272.213H43.9777V272.82C43.9777 272.907 43.9777 272.95 43.9777 273.037C44.0644 272.95 44.1513 272.907 44.2813 272.863C44.3681 272.82 44.4981 272.82 44.6282 272.82C44.9317 272.82 45.1486 272.907 45.3654 273.124C45.5822 273.34 45.6688 273.644 45.6688 274.034C45.6688 274.424 45.5388 274.728 45.2786 274.901C45.0184 275.118 44.7148 275.205 44.3679 275.205C44.0644 275.205 43.8043 275.162 43.5875 275.118C43.4574 275.075 43.284 274.988 43.2407 274.901Z" fill="#313131"/>
<path d="M43.1094 281.967C43.1094 281.23 43.2394 280.71 43.4996 280.406C43.7598 280.146 44.1068 279.973 44.4971 279.973C44.6705 279.973 44.8007 280.016 44.9741 280.059C45.1476 280.103 45.2342 280.146 45.3209 280.233C45.4077 280.32 45.4077 280.363 45.3643 280.45L45.1909 280.71C45.1476 280.797 45.0608 280.797 44.9741 280.71C44.9307 280.666 44.844 280.623 44.7573 280.623C44.6706 280.58 44.5404 280.58 44.4537 280.58C44.2802 280.58 44.1067 280.666 43.9766 280.84C43.8465 281.013 43.7598 281.274 43.7598 281.664C43.8465 281.534 43.9334 281.49 44.0634 281.404C44.1935 281.36 44.367 281.317 44.5405 281.317C44.8874 281.317 45.1475 281.447 45.3209 281.664C45.4944 281.881 45.5812 282.184 45.5812 282.531C45.5812 282.878 45.4943 283.182 45.2775 283.398C45.0607 283.615 44.7573 283.745 44.3237 283.745C43.89 283.745 43.543 283.572 43.3262 283.268C43.2395 282.965 43.1094 282.531 43.1094 281.967ZM43.9332 282.531C43.9332 282.748 43.9767 282.878 44.0634 283.008C44.1502 283.138 44.2802 283.182 44.4103 283.182C44.5837 283.182 44.7138 283.138 44.8005 283.051C44.8872 282.965 44.9307 282.791 44.9307 282.531C44.9307 282.314 44.8872 282.141 44.8005 282.054C44.7138 281.967 44.5838 281.924 44.4537 281.924C44.2802 281.924 44.1502 282.011 44.0634 282.141C43.9767 282.271 43.9332 282.358 43.9332 282.531Z" fill="#313131"/>
<path d="M43.3707 289.158C43.2839 289.158 43.1973 289.115 43.1973 288.985V288.681C43.1973 288.595 43.2406 288.508 43.3707 288.508H45.4088C45.4955 288.508 45.5822 288.551 45.5822 288.681V288.941C45.5822 289.028 45.5387 289.115 45.452 289.202C45.1051 289.592 44.8885 289.982 44.7584 290.372C44.6283 290.763 44.5416 291.196 44.5416 291.76V291.934C44.5416 292.02 44.498 292.107 44.3679 292.107H43.9777C43.891 292.107 43.8043 292.064 43.8043 291.934V291.847C43.8043 291.24 43.8911 290.763 44.1079 290.329C44.3247 289.939 44.5848 289.505 44.8884 289.115C44.8017 289.115 44.7583 289.115 44.6716 289.115H43.3707V289.158Z" fill="#313131"/>
<path d="M43.1094 299.563C43.1094 299.26 43.1961 299.043 43.3696 298.913C43.543 298.739 43.7165 298.652 43.8032 298.609C43.6731 298.566 43.543 298.479 43.3696 298.349C43.1961 298.219 43.1528 298.045 43.1528 297.829C43.1528 297.568 43.2396 297.352 43.4564 297.178C43.6732 297.005 43.9334 296.918 44.3237 296.918C44.6706 296.918 44.9741 297.005 45.1909 297.178C45.4077 297.352 45.4943 297.568 45.4943 297.829C45.4943 298.045 45.4076 298.219 45.2775 298.349C45.1474 298.479 45.0173 298.566 44.8439 298.609C44.974 298.652 45.1041 298.739 45.2775 298.913C45.451 299.086 45.5377 299.303 45.5377 299.563C45.5377 299.867 45.4509 300.127 45.2341 300.3C45.0173 300.474 44.7138 300.604 44.2369 300.604C43.8032 300.604 43.4564 300.517 43.2396 300.3C43.2396 300.127 43.1094 299.867 43.1094 299.563ZM43.89 299.476C43.89 299.65 43.9333 299.823 44.02 299.91C44.1068 299.997 44.2368 300.04 44.4103 300.04C44.5837 300.04 44.7571 299.997 44.8005 299.91C44.8872 299.823 44.9307 299.693 44.9307 299.476C44.9307 299.346 44.8872 299.216 44.8005 299.086C44.7138 298.956 44.5837 298.913 44.4103 298.913C44.2368 298.913 44.1068 298.956 44.02 299.086C43.9333 299.216 43.89 299.346 43.89 299.476ZM43.9332 297.872C43.9332 298.002 43.9767 298.089 44.0634 298.176C44.1502 298.262 44.2368 298.306 44.4103 298.306C44.5404 298.306 44.6706 298.262 44.7573 298.176C44.844 298.089 44.8873 298.002 44.8873 297.872C44.8873 297.742 44.844 297.655 44.7573 297.568C44.6706 297.482 44.5837 297.438 44.4103 297.438C44.2368 297.438 44.1502 297.482 44.0634 297.568C43.9767 297.655 43.9332 297.742 43.9332 297.872Z" fill="#313131"/>
<path d="M47.925 229.273L44.8462 224.459C44.7595 224.286 44.6294 224.199 44.4126 224.199C44.2391 224.199 44.0657 224.286 43.9789 224.416L40.9869 229.273C40.9002 229.403 40.9002 229.576 40.9869 229.75C41.0736 229.88 41.2037 229.967 41.3771 229.967H47.448C47.6214 229.967 47.7515 229.88 47.8382 229.75C48.0116 229.62 48.0117 229.446 47.925 229.273ZM47.4046 229.446H41.5074L44.4126 224.763L47.4046 229.446Z" fill="#313131"/>
<path d="M44.1484 226.282C44.1484 226.196 44.1919 226.152 44.2787 226.152H44.5821C44.6688 226.152 44.7123 226.196 44.7123 226.282L44.6689 227.974C44.6689 228.06 44.6256 228.104 44.5389 228.104H44.3221C44.2353 228.104 44.1918 228.06 44.1918 227.974L44.1484 226.282ZM44.2787 228.928C44.1919 228.928 44.1484 228.884 44.1484 228.797V228.537C44.1484 228.451 44.1919 228.407 44.2787 228.407H44.5821C44.6688 228.407 44.7123 228.451 44.7123 228.537V228.797C44.7123 228.884 44.6688 228.928 44.5821 228.928H44.2787Z" fill="#313131"/>
<path d="M37.3457 192.586C37.3457 191.105 37.5488 189.952 37.9551 189.127C38.3613 188.298 39.1357 187.883 40.2783 187.883C41.4209 187.883 42.1953 188.298 42.6016 189.127C43.0078 189.952 43.2109 191.105 43.2109 192.586C43.2109 194.068 43.0078 195.223 42.6016 196.052C42.1953 196.877 41.4209 197.29 40.2783 197.29C39.1357 197.29 38.3613 196.877 37.9551 196.052C37.5488 195.223 37.3457 194.068 37.3457 192.586ZM38.5264 192.586C38.5264 193.771 38.6279 194.7 38.8311 195.373C39.0342 196.042 39.5166 196.376 40.2783 196.376C41.04 196.376 41.5225 196.042 41.7256 195.373C41.9287 194.7 42.0303 193.771 42.0303 192.586C42.0303 191.402 41.9287 190.475 41.7256 189.806C41.5225 189.133 41.04 188.797 40.2783 188.797C39.5166 188.797 39.0342 189.133 38.8311 189.806C38.6279 190.475 38.5264 191.402 38.5264 192.586Z" fill="black"/>
<path d="M32.6035 189.795C32.5485 189.66 32.5993 189.563 32.7558 189.503C33.0817 189.381 33.3906 189.184 33.6826 188.913C33.9746 188.642 34.2052 188.401 34.3745 188.189C34.4972 188.037 34.6157 187.961 34.73 187.961H35.2695C35.4642 187.961 35.5615 188.056 35.5615 188.247V196.816C35.5615 197.006 35.4663 197.102 35.2758 197.102H34.73C34.5395 197.102 34.4443 197.006 34.4443 196.816V189.859C34.4443 189.732 34.4485 189.605 34.457 189.478H34.4443C34.3131 189.643 34.1206 189.812 33.8667 189.986C33.6128 190.159 33.38 190.286 33.1684 190.367C32.9822 190.439 32.8595 190.405 32.8003 190.265L32.6035 189.795Z" fill="black"/>
<path d="M25.4058 197.1C25.173 197.1 25.0566 197.004 25.0566 196.814V196.509C25.0566 196.344 25.1265 196.192 25.2661 196.052L27.7544 193.545C28.4907 192.804 28.9731 192.233 29.2017 191.831C29.4344 191.425 29.5508 190.957 29.5508 190.428C29.5508 189.984 29.4196 189.607 29.1572 189.298C28.8991 188.989 28.5055 188.835 27.9766 188.835C27.5026 188.835 27.109 188.956 26.7959 189.197C26.4827 189.438 26.2563 189.842 26.1167 190.409C26.0575 190.65 25.9326 190.743 25.7422 190.688L25.2471 190.542C25.1159 190.504 25.0841 190.325 25.1519 190.003C25.2746 189.449 25.5708 188.958 26.0405 188.53C26.5145 188.099 27.1429 187.883 27.9258 187.883C28.9202 187.883 29.646 188.132 30.103 188.632C30.5643 189.131 30.7949 189.743 30.7949 190.466C30.7949 191.173 30.6045 191.782 30.2236 192.294C29.847 192.806 29.3286 193.382 28.6685 194.021L26.5801 196.046V196.071C26.6943 196.063 26.8636 196.059 27.0879 196.059H30.5474C30.7801 196.059 30.8965 196.154 30.8965 196.344V196.814C30.8965 197.004 30.7801 197.1 30.5474 197.1H25.4058Z" fill="black"/>
<path d="M17.4209 197.099C17.2093 197.099 17.1035 196.982 17.1035 196.75V188.345C17.1035 188.112 17.2093 187.996 17.4209 187.996H18.0049C18.2165 187.996 18.3223 188.112 18.3223 188.345V192.078C18.3223 192.247 18.318 192.416 18.3096 192.585H18.335L22.5752 188.244C22.736 188.079 22.8841 187.996 23.0195 187.996H23.7876C24.1388 187.996 24.1769 188.136 23.9019 188.415L20.6772 191.703L24.0732 196.68C24.2594 196.959 24.2214 197.099 23.959 197.099H23.1846C22.9984 197.099 22.8503 197.016 22.7402 196.851L19.8394 192.566L18.3223 194.109V196.75C18.3223 196.982 18.2165 197.099 18.0049 197.099H17.4209Z" fill="black"/>
<path d="M6.5791 197.099C6.36751 197.099 6.26172 196.982 6.26172 196.75V188.345C6.26172 188.112 6.36751 187.996 6.5791 187.996H7.93115C8.09196 187.996 8.21257 188.123 8.29297 188.377L10.1084 194.071C10.2946 194.655 10.4046 195.008 10.4385 195.131C10.4723 195.249 10.521 195.469 10.5845 195.791H10.6226C10.686 195.469 10.7347 195.249 10.7686 195.131C10.8024 195.008 10.9124 194.655 11.0986 194.071L12.9141 188.377C12.9945 188.123 13.1151 187.996 13.2759 187.996H14.6279C14.8395 187.996 14.9453 188.112 14.9453 188.345V196.75C14.9453 196.982 14.8395 197.099 14.6279 197.099H14.0439C13.8324 197.099 13.7266 196.982 13.7266 196.75V190.091C13.7266 189.922 13.7308 189.752 13.7393 189.583H13.7139L11.3716 196.711C11.2869 196.97 11.1473 197.099 10.9526 197.099H10.2544C10.0597 197.099 9.92008 196.97 9.83545 196.711L7.49316 189.583H7.46777C7.47624 189.752 7.48047 189.922 7.48047 190.091V196.75C7.48047 196.982 7.37467 197.099 7.16309 197.099H6.5791Z" fill="black"/>
<path d="M159.472 167.008H93.4297V381.828H159.472V167.008Z" fill="#ECECEC" stroke="#313131" stroke-width="0.834229" stroke-miterlimit="10"/>
<path d="M154.486 229.97H151.146V203.172H154.486V229.97Z" fill="#313131"/>
<path d="M154.486 371.203H151.146V237.645H154.486V371.203Z" fill="#313131"/>
<path d="M154.486 207.421H151.146V203.172H154.486V207.421Z" fill="#3AB992"/>
<path d="M154.486 215.838H151.146V211.719H154.486V215.838Z" fill="#3AB992"/>
<path d="M154.486 241.717H151.146V237.598H154.486V241.717Z" fill="#3AB992"/>
<path d="M154.486 266.873H151.146V262.754H154.486V266.873Z" fill="#3AB992"/>
<path d="M154.486 283.916H151.146V279.797H154.486V283.916Z" fill="#3AB992"/>
<path d="M125.1 178.515C125.143 178.081 125.273 177.734 125.62 177.387C125.924 177.04 126.314 176.867 126.791 176.867C127.268 176.867 127.658 177.04 127.919 177.344C128.179 177.647 128.309 178.038 128.352 178.471L125.1 178.515ZM126.834 176.043C125.967 176.043 125.273 176.346 124.753 176.954C124.233 177.561 123.973 178.341 123.973 179.382C123.973 180.423 124.233 181.247 124.753 181.81C125.273 182.417 126.011 182.721 126.965 182.721C127.312 182.721 127.615 182.677 127.962 182.591C128.309 182.504 128.656 182.374 129.046 182.244V181.203C128.656 181.42 128.265 181.593 127.919 181.68C127.572 181.81 127.268 181.854 126.921 181.854C126.271 181.854 125.794 181.637 125.49 181.247C125.143 180.856 124.97 180.249 125.013 179.382V179.339H129.306V178.862C129.263 178.081 129.046 177.431 128.612 176.867C128.222 176.303 127.572 176.043 126.834 176.043Z" fill="#090F15"/>
<path d="M132.862 176.91C133.208 176.91 133.512 176.953 133.772 177.083C134.032 177.213 134.293 177.343 134.553 177.647V176.563C134.249 176.389 133.989 176.303 133.685 176.216C133.425 176.129 133.122 176.086 132.818 176.086C131.908 176.086 131.127 176.389 130.607 176.997C130.086 177.604 129.826 178.384 129.826 179.425C129.826 180.466 130.086 181.29 130.607 181.853C131.127 182.46 131.864 182.764 132.818 182.764C133.122 182.764 133.425 182.72 133.685 182.634C133.989 182.547 134.249 182.417 134.509 182.287V181.159C134.292 181.376 134.032 181.55 133.729 181.68C133.469 181.81 133.122 181.853 132.818 181.853C132.168 181.853 131.691 181.636 131.387 181.246C131.127 180.813 130.997 180.205 130.997 179.425C130.997 178.644 131.17 178.037 131.517 177.604C131.734 177.17 132.211 176.91 132.862 176.91Z" fill="#090F15"/>
<path d="M114.73 177.821L112.605 174.699H110.523V176.39H111.954L113.862 179.166L111.954 181.854H110.523V183.589H112.605L114.73 180.423L115.64 179.166L114.73 177.821Z" fill="#009C92"/>
<path d="M116.858 174.699L115.687 176.39L115.08 177.344L115.991 178.689L117.552 176.39H118.896L118.939 174.699" fill="#EC1D7D"/>
<path d="M102.852 179.555C102.852 180.249 102.722 180.813 102.375 181.203C102.072 181.593 101.638 181.81 101.074 181.81C100.684 181.81 100.381 181.68 100.164 181.507C99.9469 181.29 99.8169 180.986 99.8169 180.596C99.8169 180.162 99.947 179.859 100.251 179.642C100.554 179.425 100.988 179.339 101.551 179.339H101.942H102.852V179.555ZM103.459 176.954C103.243 176.65 102.939 176.39 102.592 176.26C102.202 176.086 101.812 176.043 101.291 176.043C100.944 176.043 100.641 176.086 100.337 176.173C99.9905 176.26 99.6434 176.39 99.2965 176.52V177.561C99.6434 177.344 99.947 177.214 100.294 177.127C100.641 176.997 100.988 176.954 101.335 176.954C101.855 176.954 102.245 177.084 102.506 177.3C102.722 177.517 102.896 177.908 102.896 178.385V178.558H101.551C100.641 178.558 100.034 178.775 99.5567 179.122C99.1231 179.469 98.9062 179.989 98.9062 180.726C98.9062 181.333 99.0798 181.81 99.4701 182.201C99.8604 182.547 100.337 182.764 100.944 182.764C101.378 182.764 101.812 182.678 102.115 182.504C102.462 182.287 102.722 182.027 102.939 181.68V182.808H103.936V178.992C103.936 178.428 103.936 178.038 103.85 177.734C103.763 177.344 103.633 177.17 103.459 176.954Z" fill="#090F15"/>
<path d="M109.571 176.39H108.4L105.755 179.036V174.699H104.758V182.721H105.755V180.206L106.492 179.513L108.704 182.721H109.961L107.186 178.819L109.571 176.39Z" fill="#090F15"/>
<path d="M122.061 181.637C121.888 181.42 121.801 181.117 121.801 180.683V177.214H124.056V176.39H121.801V174.699H120.804V176.39H119.156V177.214H120.804V180.683C120.804 181.464 120.934 181.984 121.238 182.331C121.541 182.635 122.062 182.808 122.842 182.808H124.056V181.984H122.929C122.495 181.897 122.235 181.811 122.061 181.637Z" fill="#090F15"/>
<path d="M159.47 197.617H144.727V376.359H159.47" stroke="#313131" stroke-width="0.834229" stroke-miterlimit="10"/>
<path d="M138.051 369.207H97.6797V376.362H138.051V369.207Z" stroke="#313131" stroke-width="0.834229" stroke-miterlimit="10"/>
<path d="M137.48 203.516H136.699V205.51H137.48V203.516Z" fill="#313131"/>
<path d="M137.093 209.28C135.575 209.28 134.361 208.066 134.361 206.548C134.361 205.638 134.795 204.814 135.532 204.293L136.009 204.944C135.489 205.291 135.185 205.898 135.185 206.548C135.185 207.632 136.052 208.5 137.137 208.5C138.221 208.5 139.088 207.632 139.088 206.548C139.088 205.898 138.741 205.291 138.221 204.9L138.654 204.25C139.435 204.77 139.912 205.638 139.912 206.548C139.825 208.023 138.611 209.28 137.093 209.28Z" fill="#313131"/>
<path d="M136.361 238.557C136.317 238.471 136.361 238.427 136.448 238.384C136.534 238.341 136.664 238.297 136.751 238.211C136.838 238.124 136.924 238.037 137.011 237.95C137.098 237.864 137.141 237.82 137.228 237.82H137.618C137.705 237.82 137.792 237.864 137.792 237.95V241.246C137.792 241.333 137.748 241.376 137.662 241.376H137.271C137.185 241.376 137.141 241.333 137.141 241.246V238.861C137.141 238.774 137.141 238.731 137.141 238.644C137.098 238.688 137.055 238.774 136.968 238.818C136.925 238.861 136.838 238.904 136.794 238.948C136.708 238.991 136.664 238.948 136.621 238.904L136.361 238.557Z" fill="#313131"/>
<path d="M135.964 249.873C135.834 249.873 135.791 249.83 135.791 249.7V249.569C135.791 249.483 135.834 249.396 135.921 249.309L136.658 248.529C136.875 248.312 137.092 248.095 137.265 247.878C137.439 247.661 137.526 247.488 137.526 247.315C137.526 247.141 137.482 246.968 137.396 246.881C137.309 246.794 137.179 246.751 137.049 246.751C136.832 246.751 136.658 246.794 136.571 246.924C136.485 247.054 136.398 247.141 136.398 247.271C136.355 247.401 136.311 247.445 136.181 247.401L135.921 247.315C135.834 247.271 135.834 247.228 135.834 247.098C135.878 246.881 136.051 246.664 136.225 246.491C136.398 246.317 136.702 246.23 137.092 246.23C137.482 246.23 137.786 246.317 138.003 246.534C138.176 246.751 138.263 246.968 138.263 247.228C138.263 247.531 138.133 247.835 137.872 248.095C137.612 248.355 137.352 248.572 137.135 248.789L136.702 249.223C136.788 249.223 136.875 249.223 136.962 249.223H138.133C138.263 249.223 138.306 249.266 138.306 249.396V249.7C138.306 249.786 138.263 249.873 138.133 249.873H135.964Z" fill="#313131"/>
<path d="M136.361 212.569C136.317 212.482 136.361 212.439 136.448 212.396C136.534 212.352 136.664 212.309 136.751 212.222C136.838 212.136 136.924 212.049 137.011 211.962C137.098 211.875 137.141 211.832 137.228 211.832H137.618C137.705 211.832 137.792 211.875 137.792 211.962V215.258C137.792 215.344 137.748 215.388 137.662 215.388H137.271C137.185 215.388 137.141 215.344 137.141 215.258V212.873C137.141 212.786 137.141 212.743 137.141 212.656C137.098 212.699 137.055 212.786 136.968 212.829C136.925 212.873 136.838 212.916 136.794 212.959C136.708 213.003 136.664 212.959 136.621 212.916L136.361 212.569Z" fill="#313131"/>
<path d="M135.964 221.357C135.834 221.357 135.791 221.314 135.791 221.184V221.054C135.791 220.967 135.834 220.88 135.921 220.794L136.658 220.013C136.875 219.796 137.092 219.579 137.265 219.363C137.439 219.146 137.526 218.972 137.526 218.799C137.526 218.625 137.482 218.452 137.396 218.365C137.309 218.279 137.179 218.235 137.049 218.235C136.832 218.235 136.658 218.279 136.571 218.409C136.485 218.539 136.398 218.625 136.398 218.756C136.355 218.886 136.311 218.929 136.181 218.886L135.921 218.799C135.834 218.756 135.834 218.712 135.834 218.582C135.878 218.365 136.051 218.148 136.225 217.975C136.398 217.802 136.702 217.715 137.092 217.715C137.482 217.715 137.786 217.802 138.003 218.018C138.176 218.235 138.263 218.452 138.263 218.712C138.263 219.016 138.133 219.319 137.872 219.579C137.612 219.84 137.352 220.056 137.135 220.273L136.702 220.707C136.788 220.707 136.875 220.707 136.962 220.707H138.133C138.263 220.707 138.306 220.75 138.306 220.88V221.184C138.306 221.271 138.263 221.357 138.133 221.357H135.964Z" fill="#313131"/>
<path d="M135.884 258.022C135.841 257.979 135.797 257.892 135.884 257.805L136.014 257.589C136.057 257.502 136.144 257.458 136.274 257.545C136.361 257.632 136.491 257.675 136.621 257.719C136.751 257.762 136.881 257.805 137.055 257.805C137.272 257.805 137.445 257.762 137.532 257.632C137.618 257.502 137.662 257.372 137.662 257.242C137.662 257.112 137.618 256.938 137.488 256.851C137.358 256.721 137.228 256.678 137.011 256.678H136.838C136.751 256.678 136.665 256.635 136.665 256.548V256.288C136.665 256.201 136.708 256.158 136.838 256.158H136.968C137.142 256.158 137.272 256.114 137.358 256.027C137.488 255.941 137.532 255.811 137.532 255.681C137.532 255.55 137.488 255.464 137.402 255.42C137.315 255.334 137.185 255.29 137.011 255.29C136.838 255.29 136.708 255.334 136.578 255.377C136.448 255.42 136.361 255.464 136.274 255.55C136.188 255.637 136.101 255.637 136.014 255.55L135.884 255.334C135.841 255.247 135.841 255.16 135.927 255.073C136.057 254.943 136.187 254.857 136.404 254.813C136.578 254.77 136.795 254.727 136.968 254.727C137.402 254.727 137.705 254.813 137.922 254.987C138.139 255.16 138.226 255.377 138.226 255.594C138.226 255.767 138.139 255.941 138.009 256.114C137.879 256.244 137.705 256.374 137.575 256.418C137.749 256.461 137.965 256.548 138.095 256.721C138.269 256.895 138.356 257.068 138.356 257.285C138.356 257.632 138.226 257.935 138.009 258.109C137.792 258.282 137.445 258.412 136.968 258.412C136.751 258.412 136.578 258.369 136.361 258.326C136.187 258.196 136.014 258.109 135.884 258.022Z" fill="#313131"/>
<path d="M135.881 265.963C135.794 265.963 135.707 265.92 135.707 265.79V265.486C135.707 265.399 135.75 265.313 135.794 265.226L137.182 263.275C137.225 263.188 137.312 263.145 137.398 263.145H137.745C137.875 263.145 137.919 263.188 137.919 263.318V265.356H138.222C138.309 265.356 138.396 265.399 138.396 265.529V265.833C138.396 265.92 138.352 266.007 138.222 266.007H137.919V266.614C137.919 266.7 137.875 266.787 137.745 266.787H137.355C137.268 266.787 137.182 266.744 137.182 266.614V266.007H135.881V265.963ZM136.401 265.356H137.225V264.402C137.225 264.315 137.225 264.272 137.225 264.185L136.401 265.356Z" fill="#313131"/>
<path d="M135.885 274.901C135.842 274.815 135.842 274.771 135.842 274.728L136.015 274.468C136.102 274.381 136.189 274.381 136.275 274.468C136.319 274.511 136.449 274.555 136.536 274.598C136.666 274.641 136.796 274.685 136.926 274.685C137.099 274.685 137.273 274.641 137.403 274.511C137.533 274.424 137.62 274.251 137.62 274.034C137.62 273.861 137.576 273.687 137.49 273.557C137.403 273.427 137.316 273.384 137.229 273.384C137.143 273.384 137.056 273.384 136.969 273.427C136.883 273.427 136.839 273.47 136.752 273.557C136.709 273.601 136.622 273.644 136.492 273.644H136.145C136.015 273.644 135.928 273.601 135.928 273.47V271.736C135.928 271.649 135.972 271.562 136.102 271.562H137.88C137.966 271.562 138.053 271.606 138.053 271.736V272.039C138.053 272.126 138.01 272.213 137.88 272.213H136.622V272.82C136.622 272.907 136.622 272.95 136.622 273.037C136.709 272.95 136.796 272.907 136.926 272.863C137.013 272.82 137.143 272.82 137.273 272.82C137.576 272.82 137.793 272.907 138.01 273.124C138.227 273.34 138.313 273.644 138.313 274.034C138.313 274.424 138.183 274.728 137.923 274.901C137.663 275.118 137.359 275.205 137.012 275.205C136.709 275.205 136.449 275.162 136.232 275.118C136.102 275.075 135.929 274.988 135.885 274.901Z" fill="#313131"/>
<path d="M135.754 281.967C135.754 281.23 135.884 280.71 136.144 280.406C136.404 280.146 136.751 279.973 137.142 279.973C137.315 279.973 137.445 280.016 137.619 280.059C137.792 280.103 137.879 280.146 137.965 280.233C138.052 280.32 138.052 280.363 138.009 280.45L137.835 280.71C137.792 280.797 137.705 280.797 137.619 280.71C137.575 280.666 137.489 280.623 137.402 280.623C137.315 280.58 137.185 280.58 137.098 280.58C136.925 280.58 136.751 280.666 136.621 280.84C136.491 281.013 136.404 281.274 136.404 281.664C136.491 281.534 136.578 281.49 136.708 281.404C136.838 281.36 137.012 281.317 137.185 281.317C137.532 281.317 137.792 281.447 137.965 281.664C138.139 281.881 138.226 282.184 138.226 282.531C138.226 282.878 138.139 283.182 137.922 283.398C137.705 283.615 137.402 283.745 136.968 283.745C136.535 283.745 136.188 283.572 135.971 283.268C135.884 282.965 135.754 282.531 135.754 281.967ZM136.578 282.531C136.578 282.748 136.621 282.878 136.708 283.008C136.795 283.138 136.925 283.182 137.055 283.182C137.228 283.182 137.358 283.138 137.445 283.051C137.532 282.965 137.575 282.791 137.575 282.531C137.575 282.314 137.532 282.141 137.445 282.054C137.358 281.967 137.228 281.924 137.098 281.924C136.925 281.924 136.795 282.011 136.708 282.141C136.621 282.271 136.578 282.358 136.578 282.531Z" fill="#313131"/>
<path d="M136.015 289.158C135.928 289.158 135.842 289.115 135.842 288.985V288.681C135.842 288.595 135.885 288.508 136.015 288.508H138.053C138.14 288.508 138.227 288.551 138.227 288.681V288.941C138.227 289.028 138.183 289.115 138.097 289.202C137.75 289.592 137.533 289.982 137.403 290.372C137.273 290.763 137.186 291.196 137.186 291.76V291.934C137.186 292.02 137.143 292.107 137.012 292.107H136.622C136.536 292.107 136.449 292.064 136.449 291.934V291.847C136.449 291.24 136.536 290.763 136.752 290.329C136.969 289.939 137.229 289.505 137.533 289.115C137.446 289.115 137.403 289.115 137.316 289.115H136.015V289.158Z" fill="#313131"/>
<path d="M135.754 299.563C135.754 299.26 135.841 299.043 136.014 298.913C136.188 298.739 136.361 298.652 136.448 298.609C136.318 298.566 136.188 298.479 136.014 298.349C135.841 298.219 135.797 298.045 135.797 297.829C135.797 297.568 135.884 297.352 136.101 297.178C136.318 297.005 136.578 296.918 136.968 296.918C137.315 296.918 137.619 297.005 137.835 297.178C138.052 297.352 138.139 297.568 138.139 297.829C138.139 298.045 138.052 298.219 137.922 298.349C137.792 298.479 137.662 298.566 137.488 298.609C137.619 298.652 137.749 298.739 137.922 298.913C138.096 299.086 138.182 299.303 138.182 299.563C138.182 299.867 138.095 300.127 137.879 300.3C137.662 300.474 137.358 300.604 136.881 300.604C136.448 300.604 136.101 300.517 135.884 300.3C135.884 300.127 135.754 299.867 135.754 299.563ZM136.535 299.476C136.535 299.65 136.578 299.823 136.665 299.91C136.751 299.997 136.881 300.04 137.055 300.04C137.228 300.04 137.402 299.997 137.445 299.91C137.532 299.823 137.575 299.693 137.575 299.476C137.575 299.346 137.532 299.216 137.445 299.086C137.358 298.956 137.228 298.913 137.055 298.913C136.881 298.913 136.751 298.956 136.665 299.086C136.578 299.216 136.535 299.346 136.535 299.476ZM136.578 297.872C136.578 298.002 136.621 298.089 136.708 298.176C136.795 298.262 136.881 298.306 137.055 298.306C137.185 298.306 137.315 298.262 137.402 298.176C137.489 298.089 137.532 298.002 137.532 297.872C137.532 297.742 137.489 297.655 137.402 297.568C137.315 297.482 137.228 297.438 137.055 297.438C136.881 297.438 136.795 297.482 136.708 297.568C136.621 297.655 136.578 297.742 136.578 297.872Z" fill="#313131"/>
<path d="M140.57 229.273L137.491 224.459C137.404 224.286 137.274 224.199 137.057 224.199C136.884 224.199 136.71 224.286 136.623 224.416L133.631 229.273C133.545 229.403 133.545 229.576 133.631 229.75C133.718 229.88 133.848 229.967 134.022 229.967H140.092C140.266 229.967 140.396 229.88 140.483 229.75C140.656 229.62 140.656 229.446 140.57 229.273ZM140.049 229.446H134.152L137.057 224.763L140.049 229.446Z" fill="#313131"/>
<path d="M136.793 226.282C136.793 226.196 136.836 226.152 136.923 226.152H137.227C137.313 226.152 137.357 226.196 137.357 226.282L137.313 227.974C137.313 228.06 137.27 228.104 137.183 228.104H136.967C136.88 228.104 136.836 228.06 136.836 227.974L136.793 226.282ZM136.923 228.928C136.836 228.928 136.793 228.884 136.793 228.797V228.537C136.793 228.451 136.836 228.407 136.923 228.407H137.227C137.313 228.407 137.357 228.451 137.357 228.537V228.797C137.357 228.884 137.313 228.928 137.227 228.928H136.923Z" fill="#313131"/>
<path d="M130.055 192.641C130.055 191.16 130.258 190.007 130.664 189.182C131.07 188.352 131.845 187.938 132.987 187.938C134.13 187.938 134.904 188.352 135.311 189.182C135.717 190.007 135.92 191.16 135.92 192.641C135.92 194.122 135.717 195.278 135.311 196.107C134.904 196.932 134.13 197.345 132.987 197.345C131.845 197.345 131.07 196.932 130.664 196.107C130.258 195.278 130.055 194.122 130.055 192.641ZM131.235 192.641C131.235 193.826 131.337 194.755 131.54 195.428C131.743 196.096 132.226 196.431 132.987 196.431C133.749 196.431 134.231 196.096 134.435 195.428C134.638 194.755 134.739 193.826 134.739 192.641C134.739 191.456 134.638 190.529 134.435 189.861C134.231 189.188 133.749 188.852 132.987 188.852C132.226 188.852 131.743 189.188 131.54 189.861C131.337 190.529 131.235 191.456 131.235 192.641Z" fill="black"/>
<path d="M125.312 189.85C125.257 189.715 125.308 189.617 125.465 189.558C125.791 189.435 126.1 189.239 126.392 188.968C126.684 188.697 126.914 188.456 127.083 188.244C127.206 188.092 127.325 188.016 127.439 188.016H127.978C128.173 188.016 128.27 188.111 128.27 188.301V196.871C128.27 197.061 128.175 197.156 127.985 197.156H127.439C127.249 197.156 127.153 197.061 127.153 196.871V189.914C127.153 189.787 127.158 189.66 127.166 189.533H127.153C127.022 189.698 126.83 189.867 126.576 190.041C126.322 190.214 126.089 190.341 125.877 190.421C125.691 190.493 125.568 190.459 125.509 190.32L125.312 189.85Z" fill="black"/>
<path d="M118.115 197.154C117.882 197.154 117.766 197.059 117.766 196.869V196.564C117.766 196.399 117.835 196.247 117.975 196.107L120.463 193.6C121.2 192.859 121.682 192.288 121.911 191.886C122.143 191.479 122.26 191.012 122.26 190.483C122.26 190.039 122.129 189.662 121.866 189.353C121.608 189.044 121.215 188.89 120.686 188.89C120.212 188.89 119.818 189.01 119.505 189.251C119.192 189.493 118.965 189.897 118.826 190.464C118.766 190.705 118.642 190.798 118.451 190.743L117.956 190.597C117.825 190.559 117.793 190.379 117.861 190.058C117.984 189.503 118.28 189.012 118.75 188.585C119.223 188.153 119.852 187.938 120.635 187.938C121.629 187.938 122.355 188.187 122.812 188.687C123.273 189.186 123.504 189.797 123.504 190.521C123.504 191.228 123.313 191.837 122.933 192.349C122.556 192.861 122.038 193.437 121.377 194.076L119.289 196.101V196.126C119.403 196.118 119.573 196.113 119.797 196.113H123.256C123.489 196.113 123.605 196.208 123.605 196.399V196.869C123.605 197.059 123.489 197.154 123.256 197.154H118.115Z" fill="black"/>
<path d="M109.12 188.47C109.014 188.19 109.071 188.051 109.291 188.051H109.939C110.167 188.051 110.32 188.154 110.396 188.362L112.459 194.043C112.548 194.293 112.658 194.629 112.789 195.052C112.924 195.471 113.015 195.806 113.062 196.055H113.087C113.134 195.806 113.223 195.471 113.354 195.052C113.489 194.629 113.601 194.293 113.69 194.043L115.753 188.362C115.829 188.154 115.982 188.051 116.21 188.051H116.858C117.078 188.051 117.135 188.19 117.029 188.47L113.938 196.766C113.84 197.024 113.701 197.153 113.519 197.153H112.63C112.448 197.153 112.309 197.024 112.211 196.766L109.12 188.47Z" fill="black"/>
<path d="M99.2236 197.153C99.012 197.153 98.9062 197.037 98.9062 196.804V188.4C98.9062 188.167 99.012 188.051 99.2236 188.051H100.576C100.736 188.051 100.857 188.178 100.938 188.432L102.753 194.125C102.939 194.709 103.049 195.063 103.083 195.186C103.117 195.304 103.166 195.524 103.229 195.846H103.267C103.331 195.524 103.379 195.304 103.413 195.186C103.447 195.063 103.557 194.709 103.743 194.125L105.559 188.432C105.639 188.178 105.76 188.051 105.92 188.051H107.272C107.484 188.051 107.59 188.167 107.59 188.4V196.804C107.59 197.037 107.484 197.153 107.272 197.153H106.688C106.477 197.153 106.371 197.037 106.371 196.804V190.146C106.371 189.976 106.375 189.807 106.384 189.638H106.358L104.016 196.766C103.931 197.024 103.792 197.153 103.597 197.153H102.899C102.704 197.153 102.565 197.024 102.48 196.766L100.138 189.638H100.112C100.121 189.807 100.125 189.976 100.125 190.146V196.804C100.125 197.037 100.019 197.153 99.8076 197.153H99.2236Z" fill="black"/>
<path d="M339.843 167.008H273.801V381.828H339.843V167.008Z" fill="#ECECEC" stroke="#313131" stroke-width="0.834229" stroke-miterlimit="10"/>
<path d="M334.857 229.97H331.518V203.172H334.857V229.97Z" fill="#313131"/>
<path d="M334.857 371.203H331.518V237.645H334.857V371.203Z" fill="#313131"/>
<path d="M334.857 207.421H331.518V203.172H334.857V207.421Z" fill="#3AB992"/>
<path d="M334.857 215.838H331.518V211.719H334.857V215.838Z" fill="#3AB992"/>
<path d="M334.857 241.717H331.518V237.598H334.857V241.717Z" fill="#3AB992"/>
<path d="M334.857 266.873H331.518V262.754H334.857V266.873Z" fill="#3AB992"/>
<path d="M334.857 283.916H331.518V279.797H334.857V283.916Z" fill="#3AB992"/>
<path d="M305.471 178.515C305.514 178.081 305.645 177.734 305.991 177.387C306.295 177.04 306.685 176.867 307.162 176.867C307.639 176.867 308.029 177.04 308.29 177.344C308.55 177.647 308.68 178.038 308.723 178.471L305.471 178.515ZM307.206 176.043C306.338 176.043 305.645 176.346 305.124 176.954C304.604 177.561 304.344 178.341 304.344 179.382C304.344 180.423 304.604 181.247 305.124 181.81C305.645 182.417 306.382 182.721 307.336 182.721C307.683 182.721 307.986 182.677 308.333 182.591C308.68 182.504 309.027 182.374 309.417 182.244V181.203C309.027 181.42 308.637 181.593 308.29 181.68C307.943 181.81 307.639 181.854 307.292 181.854C306.642 181.854 306.165 181.637 305.861 181.247C305.515 180.856 305.341 180.249 305.384 179.382V179.339H309.677V178.862C309.634 178.081 309.417 177.431 308.983 176.867C308.593 176.303 307.943 176.043 307.206 176.043Z" fill="#090F15"/>
<path d="M313.233 176.91C313.58 176.91 313.883 176.953 314.143 177.083C314.403 177.213 314.664 177.343 314.924 177.647V176.563C314.62 176.389 314.36 176.303 314.057 176.216C313.796 176.129 313.493 176.086 313.189 176.086C312.279 176.086 311.498 176.389 310.978 176.997C310.457 177.604 310.197 178.384 310.197 179.425C310.197 180.466 310.457 181.29 310.978 181.853C311.498 182.46 312.235 182.764 313.189 182.764C313.493 182.764 313.796 182.72 314.057 182.634C314.36 182.547 314.62 182.417 314.88 182.287V181.159C314.664 181.376 314.403 181.55 314.1 181.68C313.84 181.81 313.493 181.853 313.189 181.853C312.539 181.853 312.062 181.636 311.758 181.246C311.498 180.813 311.368 180.205 311.368 179.425C311.368 178.644 311.541 178.037 311.888 177.604C312.105 177.17 312.582 176.91 313.233 176.91Z" fill="#090F15"/>
<path d="M295.101 177.821L292.976 174.699H290.895V176.39H292.325L294.233 179.166L292.325 181.854H290.895V183.589H292.976L295.101 180.423L296.011 179.166L295.101 177.821Z" fill="#009C92"/>
<path d="M297.229 174.699L296.058 176.39L295.451 177.344L296.362 178.689L297.923 176.39H299.267L299.31 174.699" fill="#EC1D7D"/>
<path d="M283.223 179.555C283.223 180.249 283.093 180.813 282.746 181.203C282.443 181.593 282.009 181.81 281.445 181.81C281.055 181.81 280.752 181.68 280.535 181.507C280.318 181.29 280.188 180.986 280.188 180.596C280.188 180.162 280.318 179.859 280.622 179.642C280.925 179.425 281.359 179.339 281.923 179.339H282.313H283.223V179.555ZM283.83 176.954C283.614 176.65 283.31 176.39 282.963 176.26C282.573 176.086 282.183 176.043 281.662 176.043C281.315 176.043 281.012 176.086 280.708 176.173C280.362 176.26 280.014 176.39 279.668 176.52V177.561C280.014 177.344 280.318 177.214 280.665 177.127C281.012 176.997 281.359 176.954 281.706 176.954C282.226 176.954 282.616 177.084 282.877 177.3C283.093 177.517 283.267 177.908 283.267 178.385V178.558H281.923C281.012 178.558 280.405 178.775 279.928 179.122C279.494 179.469 279.277 179.989 279.277 180.726C279.277 181.333 279.451 181.81 279.841 182.201C280.231 182.547 280.708 182.764 281.315 182.764C281.749 182.764 282.183 182.678 282.486 182.504C282.833 182.287 283.093 182.027 283.31 181.68V182.808H284.307V178.992C284.307 178.428 284.307 178.038 284.221 177.734C284.134 177.344 284.004 177.17 283.83 176.954Z" fill="#090F15"/>
<path d="M289.942 176.39H288.771L286.126 179.036V174.699H285.129V182.721H286.126V180.206L286.863 179.513L289.075 182.721H290.332L287.557 178.819L289.942 176.39Z" fill="#090F15"/>
<path d="M302.433 181.637C302.259 181.42 302.173 181.117 302.173 180.683V177.214H304.427V176.39H302.173V174.699H301.175V176.39H299.527V177.214H301.175V180.683C301.175 181.464 301.305 181.984 301.609 182.331C301.912 182.635 302.433 182.808 303.213 182.808H304.427V181.984H303.3C302.866 181.897 302.606 181.811 302.433 181.637Z" fill="#090F15"/>
<path d="M339.841 197.617H325.098V376.359H339.841" stroke="#313131" stroke-width="0.834229" stroke-miterlimit="10"/>
<path d="M318.422 369.207H278.051V376.362H318.422V369.207Z" stroke="#313131" stroke-width="0.834229" stroke-miterlimit="10"/>
<path d="M317.851 203.516H317.07V205.51H317.851V203.516Z" fill="#313131"/>
<path d="M317.464 209.28C315.947 209.28 314.732 208.066 314.732 206.548C314.732 205.638 315.166 204.814 315.903 204.293L316.38 204.944C315.86 205.291 315.556 205.898 315.556 206.548C315.556 207.632 316.424 208.5 317.508 208.5C318.592 208.5 319.459 207.632 319.459 206.548C319.459 205.898 319.112 205.291 318.592 204.9L319.025 204.25C319.806 204.77 320.283 205.638 320.283 206.548C320.196 208.023 318.982 209.28 317.464 209.28Z" fill="#313131"/>
<path d="M316.732 238.557C316.688 238.471 316.732 238.427 316.819 238.384C316.905 238.341 317.036 238.297 317.122 238.211C317.209 238.124 317.296 238.037 317.382 237.95C317.469 237.864 317.512 237.82 317.599 237.82H317.99C318.076 237.82 318.163 237.864 318.163 237.95V241.246C318.163 241.333 318.119 241.376 318.033 241.376H317.643C317.556 241.376 317.513 241.333 317.513 241.246V238.861C317.513 238.774 317.513 238.731 317.513 238.644C317.469 238.688 317.426 238.774 317.339 238.818C317.296 238.861 317.209 238.904 317.165 238.948C317.079 238.991 317.035 238.948 316.992 238.904L316.732 238.557Z" fill="#313131"/>
<path d="M316.336 249.873C316.205 249.873 316.162 249.83 316.162 249.7V249.569C316.162 249.483 316.205 249.396 316.292 249.309L317.029 248.529C317.246 248.312 317.463 248.095 317.636 247.878C317.81 247.661 317.897 247.488 317.897 247.315C317.897 247.141 317.853 246.968 317.767 246.881C317.68 246.794 317.55 246.751 317.42 246.751C317.203 246.751 317.029 246.794 316.943 246.924C316.856 247.054 316.769 247.141 316.769 247.271C316.726 247.401 316.682 247.445 316.552 247.401L316.292 247.315C316.205 247.271 316.206 247.228 316.206 247.098C316.249 246.881 316.422 246.664 316.596 246.491C316.769 246.317 317.073 246.23 317.463 246.23C317.853 246.23 318.157 246.317 318.374 246.534C318.547 246.751 318.634 246.968 318.634 247.228C318.634 247.531 318.504 247.835 318.243 248.095C317.983 248.355 317.723 248.572 317.506 248.789L317.073 249.223C317.16 249.223 317.246 249.223 317.333 249.223H318.504C318.634 249.223 318.677 249.266 318.677 249.396V249.7C318.677 249.786 318.634 249.873 318.504 249.873H316.336Z" fill="#313131"/>
<path d="M316.732 212.569C316.688 212.482 316.732 212.439 316.819 212.396C316.905 212.352 317.036 212.309 317.122 212.222C317.209 212.136 317.296 212.049 317.382 211.962C317.469 211.875 317.512 211.832 317.599 211.832H317.99C318.076 211.832 318.163 211.875 318.163 211.962V215.258C318.163 215.344 318.119 215.388 318.033 215.388H317.643C317.556 215.388 317.513 215.344 317.513 215.258V212.873C317.513 212.786 317.513 212.743 317.513 212.656C317.469 212.699 317.426 212.786 317.339 212.829C317.296 212.873 317.209 212.916 317.165 212.959C317.079 213.003 317.035 212.959 316.992 212.916L316.732 212.569Z" fill="#313131"/>
<path d="M316.336 221.357C316.205 221.357 316.162 221.314 316.162 221.184V221.054C316.162 220.967 316.205 220.88 316.292 220.794L317.029 220.013C317.246 219.796 317.463 219.579 317.636 219.363C317.81 219.146 317.897 218.972 317.897 218.799C317.897 218.625 317.853 218.452 317.767 218.365C317.68 218.279 317.55 218.235 317.42 218.235C317.203 218.235 317.029 218.279 316.943 218.409C316.856 218.539 316.769 218.625 316.769 218.756C316.726 218.886 316.682 218.929 316.552 218.886L316.292 218.799C316.205 218.756 316.206 218.712 316.206 218.582C316.249 218.365 316.422 218.148 316.596 217.975C316.769 217.802 317.073 217.715 317.463 217.715C317.853 217.715 318.157 217.802 318.374 218.018C318.547 218.235 318.634 218.452 318.634 218.712C318.634 219.016 318.504 219.319 318.243 219.579C317.983 219.84 317.723 220.056 317.506 220.273L317.073 220.707C317.16 220.707 317.246 220.707 317.333 220.707H318.504C318.634 220.707 318.677 220.75 318.677 220.88V221.184C318.677 221.271 318.634 221.357 318.504 221.357H316.336Z" fill="#313131"/>
<path d="M316.255 258.022C316.212 257.979 316.168 257.892 316.255 257.805L316.385 257.589C316.429 257.502 316.515 257.458 316.645 257.545C316.732 257.632 316.862 257.675 316.992 257.719C317.122 257.762 317.252 257.805 317.426 257.805C317.643 257.805 317.816 257.762 317.903 257.632C317.99 257.502 318.033 257.372 318.033 257.242C318.033 257.112 317.99 256.938 317.859 256.851C317.729 256.721 317.599 256.678 317.382 256.678H317.209C317.122 256.678 317.036 256.635 317.036 256.548V256.288C317.036 256.201 317.079 256.158 317.209 256.158H317.339C317.513 256.158 317.643 256.114 317.729 256.027C317.86 255.941 317.903 255.811 317.903 255.681C317.903 255.55 317.86 255.464 317.773 255.42C317.686 255.334 317.556 255.29 317.382 255.29C317.209 255.29 317.079 255.334 316.949 255.377C316.819 255.42 316.732 255.464 316.645 255.55C316.559 255.637 316.472 255.637 316.385 255.55L316.255 255.334C316.212 255.247 316.212 255.16 316.298 255.073C316.428 254.943 316.559 254.857 316.775 254.813C316.949 254.77 317.166 254.727 317.339 254.727C317.773 254.727 318.076 254.813 318.293 254.987C318.51 255.16 318.597 255.377 318.597 255.594C318.597 255.767 318.51 255.941 318.38 256.114C318.25 256.244 318.076 256.374 317.946 256.418C318.12 256.461 318.336 256.548 318.466 256.721C318.64 256.895 318.727 257.068 318.727 257.285C318.727 257.632 318.597 257.935 318.38 258.109C318.163 258.282 317.816 258.412 317.339 258.412C317.122 258.412 316.949 258.369 316.732 258.326C316.559 258.196 316.385 258.109 316.255 258.022Z" fill="#313131"/>
<path d="M316.252 265.963C316.165 265.963 316.078 265.92 316.078 265.79V265.486C316.078 265.399 316.122 265.313 316.165 265.226L317.553 263.275C317.596 263.188 317.683 263.145 317.769 263.145H318.116C318.246 263.145 318.29 263.188 318.29 263.318V265.356H318.593C318.68 265.356 318.767 265.399 318.767 265.529V265.833C318.767 265.92 318.723 266.007 318.593 266.007H318.29V266.614C318.29 266.7 318.246 266.787 318.116 266.787H317.726C317.639 266.787 317.553 266.744 317.553 266.614V266.007H316.252V265.963ZM316.772 265.356H317.596V264.402C317.596 264.315 317.596 264.272 317.596 264.185L316.772 265.356Z" fill="#313131"/>
<path d="M316.256 274.901C316.213 274.815 316.213 274.771 316.213 274.728L316.386 274.468C316.473 274.381 316.56 274.381 316.647 274.468C316.69 274.511 316.82 274.555 316.907 274.598C317.037 274.641 317.167 274.685 317.297 274.685C317.47 274.685 317.644 274.641 317.774 274.511C317.904 274.424 317.991 274.251 317.991 274.034C317.991 273.861 317.947 273.687 317.861 273.557C317.774 273.427 317.687 273.384 317.6 273.384C317.514 273.384 317.427 273.384 317.34 273.427C317.254 273.427 317.21 273.47 317.124 273.557C317.08 273.601 316.993 273.644 316.863 273.644H316.516C316.386 273.644 316.299 273.601 316.299 273.47V271.736C316.299 271.649 316.343 271.562 316.473 271.562H318.251C318.338 271.562 318.424 271.606 318.424 271.736V272.039C318.424 272.126 318.381 272.213 318.251 272.213H316.993V272.82C316.993 272.907 316.993 272.95 316.993 273.037C317.08 272.95 317.167 272.907 317.297 272.863C317.384 272.82 317.514 272.82 317.644 272.82C317.947 272.82 318.164 272.907 318.381 273.124C318.598 273.34 318.684 273.644 318.684 274.034C318.684 274.424 318.554 274.728 318.294 274.901C318.034 275.118 317.73 275.205 317.384 275.205C317.08 275.205 316.82 275.162 316.603 275.118C316.473 275.075 316.3 274.988 316.256 274.901Z" fill="#313131"/>
<path d="M316.125 281.967C316.125 281.23 316.255 280.71 316.515 280.406C316.775 280.146 317.122 279.973 317.513 279.973C317.686 279.973 317.816 280.016 317.99 280.059C318.163 280.103 318.25 280.146 318.337 280.233C318.423 280.32 318.423 280.363 318.38 280.45L318.207 280.71C318.163 280.797 318.076 280.797 317.99 280.71C317.946 280.666 317.86 280.623 317.773 280.623C317.686 280.58 317.556 280.58 317.469 280.58C317.296 280.58 317.122 280.666 316.992 280.84C316.862 281.013 316.775 281.274 316.775 281.664C316.862 281.534 316.949 281.49 317.079 281.404C317.209 281.36 317.383 281.317 317.556 281.317C317.903 281.317 318.163 281.447 318.337 281.664C318.51 281.881 318.597 282.184 318.597 282.531C318.597 282.878 318.51 283.182 318.293 283.398C318.076 283.615 317.773 283.745 317.339 283.745C316.906 283.745 316.559 283.572 316.342 283.268C316.255 282.965 316.125 282.531 316.125 281.967ZM316.949 282.531C316.949 282.748 316.992 282.878 317.079 283.008C317.166 283.138 317.296 283.182 317.426 283.182C317.599 283.182 317.729 283.138 317.816 283.051C317.903 282.965 317.946 282.791 317.946 282.531C317.946 282.314 317.903 282.141 317.816 282.054C317.729 281.967 317.599 281.924 317.469 281.924C317.296 281.924 317.166 282.011 317.079 282.141C316.992 282.271 316.949 282.358 316.949 282.531Z" fill="#313131"/>
<path d="M316.386 289.158C316.3 289.158 316.213 289.115 316.213 288.985V288.681C316.213 288.595 316.256 288.508 316.386 288.508H318.424C318.511 288.508 318.598 288.551 318.598 288.681V288.941C318.598 289.028 318.554 289.115 318.468 289.202C318.121 289.592 317.904 289.982 317.774 290.372C317.644 290.763 317.557 291.196 317.557 291.76V291.934C317.557 292.02 317.514 292.107 317.384 292.107H316.993C316.907 292.107 316.82 292.064 316.82 291.934V291.847C316.82 291.24 316.907 290.763 317.124 290.329C317.34 289.939 317.6 289.505 317.904 289.115C317.817 289.115 317.774 289.115 317.687 289.115H316.386V289.158Z" fill="#313131"/>
<path d="M316.125 299.563C316.125 299.26 316.212 299.043 316.385 298.913C316.559 298.739 316.732 298.652 316.819 298.609C316.689 298.566 316.559 298.479 316.385 298.349C316.212 298.219 316.168 298.045 316.168 297.829C316.168 297.568 316.255 297.352 316.472 297.178C316.689 297.005 316.949 296.918 317.339 296.918C317.686 296.918 317.99 297.005 318.207 297.178C318.423 297.352 318.51 297.568 318.51 297.829C318.51 298.045 318.423 298.219 318.293 298.349C318.163 298.479 318.033 298.566 317.86 298.609C317.99 298.652 318.12 298.739 318.293 298.913C318.467 299.086 318.553 299.303 318.553 299.563C318.553 299.867 318.467 300.127 318.25 300.3C318.033 300.474 317.729 300.604 317.252 300.604C316.819 300.604 316.472 300.517 316.255 300.3C316.255 300.127 316.125 299.867 316.125 299.563ZM316.906 299.476C316.906 299.65 316.949 299.823 317.036 299.91C317.122 299.997 317.252 300.04 317.426 300.04C317.599 300.04 317.773 299.997 317.816 299.91C317.903 299.823 317.946 299.693 317.946 299.476C317.946 299.346 317.903 299.216 317.816 299.086C317.729 298.956 317.599 298.913 317.426 298.913C317.252 298.913 317.122 298.956 317.036 299.086C316.949 299.216 316.906 299.346 316.906 299.476ZM316.949 297.872C316.949 298.002 316.992 298.089 317.079 298.176C317.166 298.262 317.252 298.306 317.426 298.306C317.556 298.306 317.686 298.262 317.773 298.176C317.86 298.089 317.903 298.002 317.903 297.872C317.903 297.742 317.86 297.655 317.773 297.568C317.686 297.482 317.599 297.438 317.426 297.438C317.252 297.438 317.166 297.482 317.079 297.568C316.992 297.655 316.949 297.742 316.949 297.872Z" fill="#313131"/>
<path d="M320.941 229.273L317.862 224.459C317.775 224.286 317.645 224.199 317.428 224.199C317.255 224.199 317.081 224.286 316.995 224.416L314.003 229.273C313.916 229.403 313.916 229.576 314.003 229.75C314.089 229.88 314.219 229.967 314.393 229.967H320.464C320.637 229.967 320.767 229.88 320.854 229.75C321.027 229.62 321.027 229.446 320.941 229.273ZM320.42 229.446H314.523L317.428 224.763L320.42 229.446Z" fill="#313131"/>
<path d="M317.164 226.282C317.164 226.196 317.208 226.152 317.294 226.152H317.598C317.684 226.152 317.728 226.196 317.728 226.282L317.685 227.974C317.685 228.06 317.641 228.104 317.554 228.104H317.338C317.251 228.104 317.207 228.06 317.207 227.974L317.164 226.282ZM317.294 228.928C317.208 228.928 317.164 228.884 317.164 228.797V228.537C317.164 228.451 317.208 228.407 317.294 228.407H317.598C317.684 228.407 317.728 228.451 317.728 228.537V228.797C317.728 228.884 317.684 228.928 317.598 228.928H317.294Z" fill="#313131"/>
<path d="M310.832 192.641C310.832 191.16 311.035 190.007 311.441 189.182C311.848 188.352 312.622 187.938 313.765 187.938C314.907 187.938 315.682 188.352 316.088 189.182C316.494 190.007 316.697 191.16 316.697 192.641C316.697 194.122 316.494 195.278 316.088 196.107C315.682 196.932 314.907 197.345 313.765 197.345C312.622 197.345 311.848 196.932 311.441 196.107C311.035 195.278 310.832 194.122 310.832 192.641ZM312.013 192.641C312.013 193.826 312.114 194.755 312.317 195.428C312.521 196.096 313.003 196.431 313.765 196.431C314.526 196.431 315.009 196.096 315.212 195.428C315.415 194.755 315.517 193.826 315.517 192.641C315.517 191.456 315.415 190.529 315.212 189.861C315.009 189.188 314.526 188.852 313.765 188.852C313.003 188.852 312.521 189.188 312.317 189.861C312.114 190.529 312.013 191.456 312.013 192.641Z" fill="black"/>
<path d="M306.09 189.85C306.035 189.715 306.086 189.617 306.242 189.558C306.568 189.435 306.877 189.239 307.169 188.968C307.461 188.697 307.692 188.456 307.861 188.244C307.984 188.092 308.102 188.016 308.216 188.016H308.756C308.95 188.016 309.048 188.111 309.048 188.301V196.871C309.048 197.061 308.953 197.156 308.762 197.156H308.216C308.026 197.156 307.931 197.061 307.931 196.871V189.914C307.931 189.787 307.935 189.66 307.943 189.533H307.931C307.799 189.698 307.607 189.867 307.353 190.041C307.099 190.214 306.866 190.341 306.655 190.421C306.469 190.493 306.346 190.459 306.287 190.32L306.09 189.85Z" fill="black"/>
<path d="M298.892 197.154C298.659 197.154 298.543 197.059 298.543 196.869V196.564C298.543 196.399 298.613 196.247 298.752 196.107L301.241 193.6C301.977 192.859 302.459 192.288 302.688 191.886C302.921 191.479 303.037 191.012 303.037 190.483C303.037 190.039 302.906 189.662 302.644 189.353C302.385 189.044 301.992 188.89 301.463 188.89C300.989 188.89 300.595 189.01 300.282 189.251C299.969 189.493 299.743 189.897 299.603 190.464C299.544 190.705 299.419 190.798 299.229 190.743L298.733 190.597C298.602 190.559 298.57 190.379 298.638 190.058C298.761 189.503 299.057 189.012 299.527 188.585C300.001 188.153 300.629 187.938 301.412 187.938C302.407 187.938 303.132 188.187 303.589 188.687C304.051 189.186 304.281 189.797 304.281 190.521C304.281 191.228 304.091 191.837 303.71 192.349C303.333 192.861 302.815 193.437 302.155 194.076L300.066 196.101V196.126C300.181 196.118 300.35 196.113 300.574 196.113H304.034C304.266 196.113 304.383 196.208 304.383 196.399V196.869C304.383 197.059 304.266 197.154 304.034 197.154H298.892Z" fill="black"/>
<path d="M290.119 193.681V188.4C290.119 188.167 290.225 188.051 290.437 188.051H291.021C291.232 188.051 291.338 188.167 291.338 188.4V193.491C291.338 194.676 291.505 195.45 291.839 195.814C292.178 196.174 292.728 196.354 293.49 196.354C294.251 196.354 294.799 196.174 295.134 195.814C295.472 195.45 295.642 194.676 295.642 193.491V188.4C295.642 188.167 295.747 188.051 295.959 188.051H296.543C296.755 188.051 296.86 188.167 296.86 188.4V193.681C296.86 195.023 296.551 195.968 295.934 196.519C295.32 197.069 294.505 197.344 293.49 197.344C292.474 197.344 291.657 197.069 291.04 196.519C290.426 195.968 290.119 195.023 290.119 193.681Z" fill="black"/>
<path d="M279.595 197.153C279.383 197.153 279.277 197.037 279.277 196.804V188.4C279.277 188.167 279.383 188.051 279.595 188.051H280.947C281.108 188.051 281.228 188.178 281.309 188.432L283.124 194.125C283.31 194.709 283.42 195.063 283.454 195.186C283.488 195.304 283.537 195.524 283.6 195.846H283.638C283.702 195.524 283.75 195.304 283.784 195.186C283.818 195.063 283.928 194.709 284.114 194.125L285.93 188.432C286.01 188.178 286.131 188.051 286.292 188.051H287.644C287.855 188.051 287.961 188.167 287.961 188.4V196.804C287.961 197.037 287.855 197.153 287.644 197.153H287.06C286.848 197.153 286.742 197.037 286.742 196.804V190.146C286.742 189.976 286.746 189.807 286.755 189.638H286.729L284.387 196.766C284.303 197.024 284.163 197.153 283.968 197.153H283.27C283.075 197.153 282.936 197.024 282.851 196.766L280.509 189.638H280.483C280.492 189.807 280.496 189.976 280.496 190.146V196.804C280.496 197.037 280.39 197.153 280.179 197.153H279.595Z" fill="black"/>
</svg>
