<svg width="575" height="217" viewBox="0 0 575 217" fill="none" xmlns="http://www.w3.org/2000/svg">
<path d="M127.877 108.379H536.396" stroke="#565656" stroke-width="2.93"/>
<path d="M146.573 53.5664V124.492L169.396 162.677C169.795 163.343 169.315 164.19 168.538 164.19H2.11999C1.32337 164.19 0.846561 163.304 1.2854 162.639L26.4654 124.492V53.5664C26.4654 53.0141 26.9131 52.5664 27.4654 52.5664H145.573C146.125 52.5664 146.573 53.0141 146.573 53.5664Z" fill="#D9D9D9"/>
<path d="M146.573 124.492V53.5664C146.573 53.0141 146.125 52.5664 145.573 52.5664H27.4654C26.9131 52.5664 26.4654 53.0141 26.4654 53.5664V124.492M146.573 124.492H26.4654M146.573 124.492L169.396 162.677C169.795 163.343 169.315 164.19 168.538 164.19H2.11999C1.32337 164.19 0.846561 163.304 1.2854 162.639L26.4654 124.492" stroke="#313131" stroke-width="0.83"/>
<path d="M112.365 159.694H62.4043C61.6907 159.694 61.2067 158.968 61.4812 158.309L66.2882 146.772C66.4434 146.399 66.8076 146.156 67.2113 146.156H107.078C107.469 146.156 107.824 146.384 107.987 146.74L113.274 158.277C113.578 158.939 113.094 159.694 112.365 159.694Z" fill="#D9D9D9" stroke="#313131" stroke-width="0.83"/>
<path d="M27.1631 128.343L19.6322 141.767C19.2592 142.432 19.7378 143.253 20.5002 143.257L152.583 143.806C153.362 143.809 153.846 142.96 153.445 142.292L145.06 128.318C144.88 128.016 144.554 127.832 144.203 127.832H28.0352C27.6735 127.832 27.34 128.027 27.1631 128.343Z" fill="#313131" stroke="#313131" stroke-width="0.83"/>
<mask id="mask0_1250_74881" style="mask-type:alpha" maskUnits="userSpaceOnUse" x="19" y="127" width="136" height="18">
<path d="M27.1631 128.343L19.6322 141.767C19.2592 142.432 19.7378 143.253 20.5002 143.257L152.583 143.806C153.362 143.809 153.846 142.96 153.445 142.292L145.06 128.318C144.88 128.016 144.554 127.832 144.203 127.832H28.0352C27.6735 127.832 27.34 128.027 27.1631 128.343Z" fill="black" stroke="black" stroke-width="0.83"/>
</mask>
<g mask="url(#mask0_1250_74881)">
<path d="M17.6699 133.199H162.074" stroke="#D9D9D9" stroke-width="0.83"/>
<path d="M17.6699 130.273H162.074" stroke="#D9D9D9" stroke-width="0.83"/>
<path d="M17.6699 136.371H162.074" stroke="#D9D9D9" stroke-width="0.83"/>
<path d="M17.6699 139.543H162.074" stroke="#D9D9D9" stroke-width="0.83"/>
</g>
<rect x="32.29" y="58.7119" width="108.414" height="60.8348" fill="white" stroke="#313131" stroke-width="0.83"/>
<path d="M73.3905 85.3424C72.7185 85.3417 72.0946 85.213 71.5189 84.9563C70.9432 84.6997 70.4796 84.3205 70.1282 83.8188C69.7768 83.3064 69.6015 82.6768 69.6023 81.9302C69.6024 81.8662 69.6025 81.8022 69.6026 81.7382C69.6133 81.6742 69.6187 81.6208 69.6187 81.5782L71.7467 81.5806C71.7467 81.5912 71.7414 81.6286 71.7306 81.6926C71.7306 81.7459 71.7305 81.7939 71.7304 81.8366C71.7299 82.3592 71.8841 82.7807 72.193 83.1011C72.502 83.4214 72.9338 83.5819 73.4885 83.5825C74.1071 83.5832 74.5393 83.4504 74.7849 83.184C75.0306 82.9069 75.1536 82.6084 75.1539 82.2884C75.1544 81.9151 75.0587 81.6163 74.867 81.3921C74.6752 81.1679 74.4194 80.9863 74.0996 80.8472C73.7904 80.6975 73.4439 80.5638 73.06 80.4461C72.6868 80.3283 72.3083 80.1945 71.9245 80.0448C71.5406 79.895 71.1889 79.7026 70.8691 79.4676C70.5601 79.2219 70.3098 78.907 70.1182 78.5227C69.9266 78.1385 69.8312 77.6477 69.8318 77.0504C69.8326 76.3571 70.0039 75.7866 70.3458 75.339C70.6876 74.8807 71.136 74.5399 71.6909 74.3165C72.2565 74.0931 72.8593 73.9818 73.4993 73.9825C74.15 73.9833 74.7418 74.0959 75.2749 74.3205C75.8187 74.5452 76.2503 74.8976 76.5697 75.378C76.8999 75.8477 77.0645 76.4612 77.0637 77.2186L77.0634 77.4106L74.9674 77.4082L74.9676 77.2642C74.9681 76.7949 74.8352 76.4267 74.5688 76.1598C74.3132 75.8821 73.9507 75.7431 73.4813 75.7425C72.9907 75.742 72.6119 75.8535 72.3449 76.0772C72.078 76.2903 71.9444 76.5675 71.944 76.9088C71.9436 77.2288 72.0394 77.4849 72.2311 77.6771C72.4229 77.8693 72.6734 78.0296 72.9826 78.158C73.3025 78.2863 73.6543 78.4094 74.0382 78.5272C74.4221 78.6343 74.8006 78.7627 75.1737 78.9124C75.5576 79.0622 75.904 79.2599 76.2131 79.5056C76.5328 79.7406 76.7885 80.0503 76.98 80.4345C77.1716 80.808 77.2671 81.2828 77.2664 81.8588C77.2655 82.7015 77.0994 83.3786 76.7681 83.8902C76.4369 84.3912 75.9778 84.7587 75.3909 84.9927C74.8146 85.2267 74.1478 85.3433 73.3905 85.3424ZM78.8287 85.1566L78.8411 74.1806L80.6491 74.1826L84.0343 80.2344C84.0982 80.3198 84.1674 80.4479 84.2418 80.6187C84.3163 80.7787 84.3801 80.9281 84.4333 81.0669C84.4972 81.1949 84.5291 81.259 84.5291 81.259L84.5772 81.211C84.5772 81.211 84.5772 81.147 84.5774 81.019C84.5775 80.891 84.5723 80.7524 84.5618 80.603C84.562 80.4537 84.5621 80.3524 84.5622 80.299L84.5691 74.187L86.3931 74.1891L86.3807 85.1651L84.5567 85.163L81.1715 79.1112C81.1289 79.0365 81.0651 78.9191 80.9799 78.759C80.9054 78.5882 80.8363 78.4335 80.7724 78.2947C80.7086 78.156 80.6767 78.0866 80.6767 78.0866L80.6126 78.1346C80.6126 78.1346 80.6126 78.1932 80.6124 78.3106C80.623 78.4172 80.6282 78.5453 80.628 78.6946C80.6385 78.8333 80.6437 78.9506 80.6436 79.0466L80.6367 85.1586L78.8287 85.1566ZM90.3295 85.1695L90.3398 76.0175L87.6198 76.0145L87.6218 74.1905L95.1098 74.1989L95.1078 76.0229L92.3878 76.0198L92.3775 85.1718L90.3295 85.1695ZM96.3131 85.1763L96.3254 74.2003L100.245 74.2047C101.003 74.2055 101.637 74.3503 102.149 74.6388C102.661 74.9167 103.044 75.3065 103.3 75.8081C103.555 76.2991 103.682 76.8646 103.682 77.5046C103.681 78.1872 103.536 78.7897 103.248 79.3121C102.959 79.8238 102.559 80.2233 102.046 80.5107C101.534 80.7875 100.931 80.9255 100.238 80.9247L98.3659 80.9226L98.3611 85.1786L96.3131 85.1763ZM98.3679 79.1146L100.032 79.1165C100.533 79.117 100.912 78.9734 101.168 78.6857C101.435 78.398 101.569 78.0035 101.57 77.5022C101.57 77.0542 101.437 76.6967 101.171 76.4297C100.905 76.1628 100.526 76.029 100.035 76.0285L98.3714 76.0266L98.3679 79.1146ZM63.8914 105.332C63.2194 105.331 62.5955 105.202 62.0198 104.946C61.4441 104.689 60.9806 104.31 60.6291 103.808C60.2777 103.296 60.1024 102.666 60.1032 101.919C60.1033 101.855 60.1034 101.791 60.1035 101.727C60.1142 101.663 60.1196 101.61 60.1196 101.567L62.2476 101.57C62.2476 101.581 62.2423 101.618 62.2315 101.682C62.2315 101.735 62.2314 101.783 62.2314 101.826C62.2308 102.349 62.385 102.77 62.6939 103.09C63.0029 103.411 63.4347 103.571 63.9894 103.572C64.6081 103.573 65.0402 103.44 65.2858 103.173C65.5315 102.896 65.6545 102.598 65.6548 102.278C65.6553 101.904 65.5596 101.606 65.3679 101.381C65.1761 101.157 64.9203 100.976 64.6005 100.837C64.2913 100.687 63.9448 100.553 63.5609 100.435C63.1877 100.318 62.8092 100.184 62.4254 100.034C62.0415 99.8843 61.6898 99.6919 61.37 99.4569C61.061 99.2112 60.8107 98.8963 60.6191 98.512C60.4275 98.1278 60.3321 97.6371 60.3327 97.0397C60.3335 96.3464 60.5048 95.7759 60.8467 95.3283C61.1885 94.87 61.6369 94.5292 62.1918 94.3058C62.7574 94.0825 63.3602 93.9711 64.0002 93.9719C64.6509 93.9726 65.2427 94.0853 65.7758 94.3099C66.3196 94.5345 66.7512 94.887 67.0706 95.3673C67.4008 95.837 67.5654 96.4505 67.5646 97.2079L67.5643 97.3999L65.4683 97.3975L65.4685 97.2535C65.469 96.7842 65.3361 96.416 65.0698 96.1491C64.8141 95.8714 64.4516 95.7324 63.9822 95.7318C63.4916 95.7313 63.1128 95.8429 62.8458 96.0666C62.5789 96.2796 62.4453 96.5568 62.4449 96.8981C62.4445 97.2181 62.5403 97.4742 62.732 97.6664C62.9238 97.8586 63.1743 98.0189 63.4835 98.1473C63.8034 98.2756 64.1552 98.3987 64.5391 98.5165C64.923 98.6236 65.3015 98.752 65.6747 98.9017C66.0585 99.0515 66.4049 99.2492 66.714 99.4949C67.0337 99.7299 67.2894 100.04 67.4809 100.424C67.6725 100.797 67.768 101.272 67.7673 101.848C67.7664 102.691 67.6003 103.368 67.269 103.88C66.9378 104.381 66.4787 104.748 65.8918 104.982C65.3155 105.216 64.6487 105.333 63.8914 105.332ZM69.3296 105.146L69.342 94.1699L76.334 94.1778L76.3319 96.0018L71.3879 95.9962L71.385 98.6202L75.625 98.625L75.6229 100.449L71.3829 100.444L71.3797 103.324L76.4197 103.33L76.4176 105.154L69.3296 105.146ZM78.0796 105.156L78.092 94.1797L82.684 94.1849C83.7933 94.1862 84.6303 94.4858 85.195 95.0837C85.7596 95.671 86.0415 96.418 86.0404 97.3247C86.0397 97.986 85.8737 98.5618 85.5425 99.0521C85.2113 99.5424 84.7629 99.9046 84.1973 100.139L86.3036 105.165L84.0796 105.162L82.2608 100.584L80.1328 100.582L80.1276 105.158L78.0796 105.156ZM80.1348 98.774L82.3908 98.7766C82.8921 98.7771 83.2549 98.6496 83.4792 98.3938C83.7142 98.1381 83.8319 97.7809 83.8324 97.3222C83.8329 96.9169 83.7213 96.5967 83.4975 96.3618C83.2845 96.1269 82.9433 96.0092 82.4739 96.0087L80.1379 96.006L80.1348 98.774ZM89.7136 105.169L86.382 94.1891L88.494 94.1915L90.7891 102.05L90.8531 102.05L93.134 94.1967L95.134 94.1989L91.7776 105.171L89.7136 105.169ZM96.0796 105.176L96.092 94.2L103.084 94.2079L103.082 96.0319L98.1379 96.0263L98.135 98.6503L102.375 98.6551L102.373 100.479L98.1329 100.474L98.1297 103.354L103.17 103.36L103.168 105.184L96.0796 105.176ZM104.83 105.186L104.842 94.2099L109.434 94.2151C110.543 94.2163 111.38 94.5159 111.945 95.1139C112.51 95.7012 112.791 96.4482 112.79 97.3548C112.79 98.0162 112.624 98.592 112.292 99.0823C111.961 99.5726 111.513 99.9347 110.947 100.169L113.054 105.195L110.83 105.193L109.011 100.615L106.883 100.612L106.878 105.188L104.83 105.186ZM106.885 98.8042L109.141 98.8067C109.642 98.8073 110.005 98.6797 110.229 98.424C110.464 98.1682 110.582 97.811 110.582 97.3524C110.583 96.947 110.471 96.6269 110.248 96.392C110.034 96.1571 109.693 96.0394 109.224 96.0388L106.888 96.0362L106.885 98.8042Z" fill="#565656"/>
<path d="M574.427 0.96875H508.385V215.789H574.427V0.96875Z" fill="#ECECEC" stroke="#313131" stroke-width="0.834229" stroke-miterlimit="10"/>
<path d="M569.441 63.9312H566.102V37.1328H569.441V63.9312Z" fill="#313131"/>
<path d="M569.441 205.164H566.102V71.6055H569.441V205.164Z" fill="#313131"/>
<path d="M569.441 41.3824H566.102V37.1328H569.441V41.3824Z" fill="#3AB992"/>
<path d="M569.441 49.7992H566.102V45.6797H569.441V49.7992Z" fill="#3AB992"/>
<path d="M569.441 75.6781H566.102V71.5586H569.441V75.6781Z" fill="#3AB992"/>
<path d="M569.441 100.834H566.102V96.7148H569.441V100.834Z" fill="#3AB992"/>
<path d="M569.441 117.877H566.102V113.758H569.441V117.877Z" fill="#3AB992"/>
<path d="M540.055 12.4756C540.098 12.042 540.229 11.6951 540.575 11.3481C540.879 11.0012 541.269 10.8278 541.746 10.8278C542.223 10.8278 542.613 11.0013 542.874 11.3048C543.134 11.6083 543.264 11.9986 543.307 12.4322L540.055 12.4756ZM541.79 10.0039C540.922 10.0039 540.229 10.3074 539.708 10.9145C539.188 11.5216 538.928 12.3021 538.928 13.3428C538.928 14.3836 539.188 15.2075 539.708 15.7712C540.229 16.3783 540.966 16.6818 541.92 16.6818C542.267 16.6818 542.57 16.6384 542.917 16.5517C543.264 16.465 543.611 16.3349 544.001 16.2048V15.1641C543.611 15.3809 543.221 15.5544 542.874 15.6411C542.527 15.7712 542.223 15.8145 541.876 15.8145C541.226 15.8145 540.749 15.5977 540.445 15.2075C540.099 14.8172 539.925 14.2101 539.968 13.3428V13.2995H544.261V12.8225C544.218 12.042 544.001 11.3915 543.567 10.8278C543.177 10.2641 542.527 10.0039 541.79 10.0039Z" fill="#090F15"/>
<path d="M547.817 10.8708C548.164 10.8708 548.467 10.9141 548.727 11.0442C548.987 11.1743 549.248 11.3044 549.508 11.6079V10.5239C549.204 10.3504 548.944 10.2637 548.641 10.177C548.38 10.0902 548.077 10.0469 547.773 10.0469C546.863 10.0469 546.082 10.3504 545.562 10.9575C545.041 11.5646 544.781 12.3451 544.781 13.3858C544.781 14.4265 545.041 15.2504 545.562 15.8142C546.082 16.4212 546.819 16.7248 547.773 16.7248C548.077 16.7248 548.38 16.6814 548.641 16.5947C548.944 16.508 549.204 16.3779 549.464 16.2478V15.1204C549.248 15.3372 548.987 15.5106 548.684 15.6407C548.424 15.7708 548.077 15.8142 547.773 15.8142C547.123 15.8142 546.646 15.5973 546.342 15.2071C546.082 14.7735 545.952 14.1664 545.952 13.3858C545.952 12.6053 546.125 11.9982 546.472 11.5646C546.689 11.131 547.166 10.8708 547.817 10.8708Z" fill="#090F15"/>
<path d="M529.685 11.7823L527.56 8.66016H525.479V10.3513H526.909L528.817 13.1265L526.909 15.8151H525.479V17.5496H527.56L529.685 14.3841L530.595 13.1265L529.685 11.7823Z" fill="#009C92"/>
<path d="M531.813 8.66016L530.642 10.3513L530.035 11.3053L530.946 12.6495L532.507 10.3513H533.851L533.894 8.66016" fill="#EC1D7D"/>
<path d="M517.807 13.5163C517.807 14.2101 517.677 14.7738 517.33 15.1641C517.027 15.5544 516.593 15.7712 516.029 15.7712C515.639 15.7712 515.336 15.6411 515.119 15.4676C514.902 15.2508 514.772 14.9473 514.772 14.557C514.772 14.1234 514.902 13.8198 515.206 13.603C515.509 13.3862 515.943 13.2995 516.507 13.2995H516.897H517.807V13.5163ZM518.414 10.9145C518.198 10.611 517.894 10.3508 517.547 10.2207C517.157 10.0473 516.767 10.0039 516.246 10.0039C515.899 10.0039 515.596 10.0473 515.292 10.134C514.946 10.2207 514.598 10.3508 514.252 10.4809V11.5216C514.598 11.3048 514.902 11.1747 515.249 11.088C515.596 10.9579 515.943 10.9145 516.29 10.9145C516.81 10.9145 517.2 11.0446 517.461 11.2614C517.677 11.4782 517.851 11.8685 517.851 12.3455V12.519H516.507C515.596 12.519 514.989 12.7358 514.512 13.0827C514.078 13.4296 513.861 13.9499 513.861 14.6871C513.861 15.2942 514.035 15.7712 514.425 16.1614C514.815 16.5083 515.292 16.7252 515.899 16.7252C516.333 16.7252 516.767 16.6384 517.07 16.465C517.417 16.2482 517.677 15.988 517.894 15.6411V16.7685H518.891V12.9526C518.891 12.3889 518.891 11.9986 518.805 11.6951C518.718 11.3048 518.588 11.1313 518.414 10.9145Z" fill="#090F15"/>
<path d="M524.526 10.3513H523.355L520.71 12.9965V8.66016H519.713V16.6823H520.71V14.1673L521.447 13.4735L523.659 16.6823H524.916L522.141 12.7796L524.526 10.3513Z" fill="#090F15"/>
<path d="M537.017 15.5982C536.843 15.3814 536.757 15.0779 536.757 14.6442V11.1752H539.011V10.3513H536.757V8.66016H535.759V10.3513H534.111V11.1752H535.759V14.6442C535.759 15.4248 535.889 15.9451 536.193 16.292C536.496 16.5956 537.017 16.769 537.797 16.769H539.011V15.9451H537.884C537.45 15.8584 537.19 15.7717 537.017 15.5982Z" fill="#090F15"/>
<path d="M574.425 31.5781H559.682V210.32H574.425" stroke="#313131" stroke-width="0.834229" stroke-miterlimit="10"/>
<path d="M553.006 203.168H512.635V210.323H553.006V203.168Z" stroke="#313131" stroke-width="0.834229" stroke-miterlimit="10"/>
<path d="M552.435 37.4766H551.654V39.4713H552.435V37.4766Z" fill="#313131"/>
<path d="M552.048 43.241C550.53 43.241 549.316 42.0269 549.316 40.5092C549.316 39.5986 549.75 38.7747 550.487 38.2543L550.964 38.9047C550.444 39.2517 550.14 39.8587 550.14 40.5092C550.14 41.5933 551.008 42.4605 552.092 42.4605C553.176 42.4605 554.043 41.5933 554.043 40.5092C554.043 39.8587 553.696 39.2516 553.176 38.8614L553.609 38.2109C554.39 38.7313 554.867 39.5986 554.867 40.5092C554.78 41.9835 553.566 43.241 552.048 43.241Z" fill="#313131"/>
<path d="M551.316 72.5184C551.272 72.4317 551.316 72.3883 551.403 72.345C551.489 72.3016 551.62 72.2582 551.706 72.1715C551.793 72.0848 551.88 71.9981 551.966 71.9113C552.053 71.8246 552.096 71.7812 552.183 71.7812H552.574C552.66 71.7812 552.747 71.8246 552.747 71.9113V75.2069C552.747 75.2937 552.703 75.337 552.617 75.337H552.226C552.14 75.337 552.096 75.2937 552.096 75.2069V72.822C552.096 72.7352 552.096 72.6919 552.096 72.6051C552.053 72.6485 552.01 72.7352 551.923 72.7786C551.88 72.822 551.793 72.8653 551.749 72.9087C551.663 72.952 551.619 72.9087 551.576 72.8653L551.316 72.5184Z" fill="#313131"/>
<path d="M550.92 83.8339C550.789 83.8339 550.746 83.7905 550.746 83.6604V83.5303C550.746 83.4436 550.789 83.3569 550.876 83.2702L551.613 82.4896C551.83 82.2728 552.047 82.056 552.22 81.8392C552.394 81.6224 552.481 81.4489 552.481 81.2755C552.481 81.102 552.437 80.9286 552.351 80.8419C552.264 80.7551 552.134 80.7118 552.004 80.7118C551.787 80.7118 551.613 80.7551 551.527 80.8852C551.44 81.0153 551.353 81.102 551.353 81.2321C551.31 81.3622 551.266 81.4056 551.136 81.3622L550.876 81.2755C550.789 81.2321 550.789 81.1888 550.789 81.0587C550.833 80.8419 551.006 80.625 551.18 80.4516C551.353 80.2781 551.657 80.1914 552.047 80.1914C552.437 80.1914 552.741 80.2781 552.958 80.4949C553.131 80.7118 553.218 80.9286 553.218 81.1888C553.218 81.4923 553.088 81.7958 552.827 82.056C552.567 82.3162 552.307 82.533 552.09 82.7498L551.657 83.1835C551.743 83.1835 551.83 83.1835 551.917 83.1835H553.088C553.218 83.1835 553.261 83.2268 553.261 83.3569V83.6604C553.261 83.7472 553.218 83.8339 553.088 83.8339H550.92Z" fill="#313131"/>
<path d="M551.316 46.5301C551.272 46.4434 551.316 46.4 551.403 46.3567C551.489 46.3133 551.62 46.27 551.706 46.1832C551.793 46.0965 551.88 46.0098 551.966 45.9231C552.053 45.8363 552.096 45.793 552.183 45.793H552.574C552.66 45.793 552.747 45.8363 552.747 45.9231V49.2186C552.747 49.3054 552.703 49.3487 552.617 49.3487H552.226C552.14 49.3487 552.096 49.3054 552.096 49.2186V46.8337C552.096 46.747 552.096 46.7036 552.096 46.6169C552.053 46.6602 552.01 46.7469 551.923 46.7903C551.88 46.8337 551.793 46.877 551.749 46.9204C551.663 46.9638 551.619 46.9204 551.576 46.877L551.316 46.5301Z" fill="#313131"/>
<path d="M550.92 55.3183C550.789 55.3183 550.746 55.2749 550.746 55.1448V55.0147C550.746 54.928 550.789 54.8413 550.876 54.7546L551.613 53.974C551.83 53.7572 552.047 53.5404 552.22 53.3236C552.394 53.1068 552.481 52.9333 552.481 52.7599C552.481 52.5864 552.437 52.413 552.351 52.3262C552.264 52.2395 552.134 52.1961 552.004 52.1961C551.787 52.1961 551.613 52.2395 551.527 52.3696C551.44 52.4997 551.353 52.5864 551.353 52.7165C551.31 52.8466 551.266 52.8899 551.136 52.8466L550.876 52.7599C550.789 52.7165 550.789 52.6731 550.789 52.543C550.833 52.3262 551.006 52.1094 551.18 51.936C551.353 51.7625 551.657 51.6758 552.047 51.6758C552.437 51.6758 552.741 51.7625 552.958 51.9793C553.131 52.1961 553.218 52.4129 553.218 52.6731C553.218 52.9767 553.088 53.2802 552.827 53.5404C552.567 53.8006 552.307 54.0174 552.09 54.2342L551.657 54.6678C551.743 54.6678 551.83 54.6678 551.917 54.6678H553.088C553.218 54.6678 553.261 54.7112 553.261 54.8413V55.1448C553.261 55.2315 553.218 55.3183 553.088 55.3183H550.92Z" fill="#313131"/>
<path d="M550.839 91.9831C550.796 91.9397 550.752 91.853 550.839 91.7663L550.969 91.5494C551.013 91.4627 551.099 91.4194 551.229 91.5061C551.316 91.5928 551.446 91.6362 551.576 91.6795C551.706 91.7229 551.836 91.7663 552.01 91.7663C552.227 91.7663 552.4 91.7229 552.487 91.5928C552.574 91.4627 552.617 91.3326 552.617 91.2025C552.617 91.0725 552.574 90.899 552.443 90.8123C552.313 90.6822 552.183 90.6388 551.966 90.6388H551.793C551.706 90.6388 551.62 90.5955 551.62 90.5088V90.2486C551.62 90.1618 551.663 90.1185 551.793 90.1185H551.923C552.097 90.1185 552.227 90.0751 552.313 89.9884C552.444 89.9017 552.487 89.7716 552.487 89.6415C552.487 89.5114 552.444 89.4247 552.357 89.3813C552.27 89.2946 552.14 89.2512 551.966 89.2512C551.793 89.2512 551.663 89.2946 551.533 89.3379C551.403 89.3813 551.316 89.4247 551.229 89.5114C551.143 89.5981 551.056 89.5981 550.969 89.5114L550.839 89.2946C550.796 89.2078 550.796 89.1211 550.882 89.0344C551.012 88.9043 551.143 88.8176 551.359 88.7742C551.533 88.7309 551.75 88.6875 551.923 88.6875C552.357 88.6875 552.66 88.7742 552.877 88.9477C553.094 89.1211 553.181 89.3379 553.181 89.5548C553.181 89.7282 553.094 89.9017 552.964 90.0751C552.834 90.2052 552.66 90.3353 552.53 90.3786C552.704 90.422 552.92 90.5087 553.05 90.6822C553.224 90.8556 553.311 91.0291 553.311 91.2459C553.311 91.5928 553.181 91.8964 552.964 92.0698C552.747 92.2433 552.4 92.3734 551.923 92.3734C551.706 92.3734 551.533 92.33 551.316 92.2866C551.143 92.1565 550.969 92.0698 550.839 91.9831Z" fill="#313131"/>
<path d="M550.836 99.9241C550.749 99.9241 550.662 99.8807 550.662 99.7506V99.4471C550.662 99.3604 550.706 99.2736 550.749 99.1869L552.137 97.2356C552.18 97.1489 552.267 97.1055 552.353 97.1055H552.7C552.83 97.1055 552.874 97.1488 552.874 97.2789V99.317H553.177C553.264 99.317 553.351 99.3603 553.351 99.4904V99.794C553.351 99.8807 553.307 99.9674 553.177 99.9674H552.874V100.575C552.874 100.661 552.83 100.748 552.7 100.748H552.31C552.223 100.748 552.137 100.705 552.137 100.575V99.9674H550.836V99.9241ZM551.356 99.317H552.18V98.363C552.18 98.2763 552.18 98.2329 552.18 98.1462L551.356 99.317Z" fill="#313131"/>
<path d="M550.84 108.862C550.797 108.776 550.797 108.732 550.797 108.689L550.97 108.429C551.057 108.342 551.144 108.342 551.231 108.429C551.274 108.472 551.404 108.515 551.491 108.559C551.621 108.602 551.751 108.646 551.881 108.646C552.054 108.646 552.228 108.602 552.358 108.472C552.488 108.385 552.575 108.212 552.575 107.995C552.575 107.822 552.531 107.648 552.445 107.518C552.358 107.388 552.271 107.345 552.184 107.345C552.098 107.345 552.011 107.345 551.924 107.388C551.838 107.388 551.794 107.431 551.708 107.518C551.664 107.561 551.577 107.605 551.447 107.605H551.1C550.97 107.605 550.883 107.562 550.883 107.431V105.697C550.883 105.61 550.927 105.523 551.057 105.523H552.835C552.922 105.523 553.008 105.567 553.008 105.697V106C553.008 106.087 552.965 106.174 552.835 106.174H551.577V106.781C551.577 106.868 551.577 106.911 551.577 106.998C551.664 106.911 551.751 106.868 551.881 106.824C551.968 106.781 552.098 106.781 552.228 106.781C552.531 106.781 552.748 106.868 552.965 107.084C553.182 107.301 553.268 107.605 553.268 107.995C553.268 108.385 553.138 108.689 552.878 108.862C552.618 109.079 552.314 109.166 551.968 109.166C551.664 109.166 551.404 109.123 551.187 109.079C551.057 109.036 550.884 108.949 550.84 108.862Z" fill="#313131"/>
<path d="M550.709 115.928C550.709 115.191 550.839 114.671 551.099 114.367C551.359 114.107 551.706 113.934 552.097 113.934C552.27 113.934 552.4 113.977 552.574 114.02C552.747 114.064 552.834 114.107 552.921 114.194C553.007 114.28 553.007 114.324 552.964 114.411L552.791 114.671C552.747 114.757 552.66 114.757 552.574 114.671C552.53 114.627 552.444 114.584 552.357 114.584C552.27 114.541 552.14 114.541 552.053 114.541C551.88 114.541 551.706 114.627 551.576 114.801C551.446 114.974 551.359 115.234 551.359 115.625C551.446 115.495 551.533 115.451 551.663 115.365C551.793 115.321 551.967 115.278 552.14 115.278C552.487 115.278 552.747 115.408 552.921 115.625C553.094 115.842 553.181 116.145 553.181 116.492C553.181 116.839 553.094 117.142 552.877 117.359C552.66 117.576 552.357 117.706 551.923 117.706C551.49 117.706 551.143 117.533 550.926 117.229C550.839 116.926 550.709 116.492 550.709 115.928ZM551.533 116.492C551.533 116.709 551.576 116.839 551.663 116.969C551.75 117.099 551.88 117.142 552.01 117.142C552.183 117.142 552.313 117.099 552.4 117.012C552.487 116.926 552.53 116.752 552.53 116.492C552.53 116.275 552.487 116.102 552.4 116.015C552.313 115.928 552.183 115.885 552.053 115.885C551.88 115.885 551.75 115.972 551.663 116.102C551.576 116.232 551.533 116.319 551.533 116.492Z" fill="#313131"/>
<path d="M550.97 123.119C550.884 123.119 550.797 123.076 550.797 122.946V122.642C550.797 122.555 550.84 122.469 550.97 122.469H553.008C553.095 122.469 553.182 122.512 553.182 122.642V122.902C553.182 122.989 553.138 123.076 553.052 123.163C552.705 123.553 552.488 123.943 552.358 124.333C552.228 124.724 552.141 125.157 552.141 125.721V125.894C552.141 125.981 552.098 126.068 551.968 126.068H551.577C551.491 126.068 551.404 126.025 551.404 125.894V125.808C551.404 125.201 551.491 124.724 551.708 124.29C551.924 123.9 552.184 123.466 552.488 123.076C552.401 123.076 552.358 123.076 552.271 123.076H550.97V123.119Z" fill="#313131"/>
<path d="M550.709 133.524C550.709 133.22 550.796 133.004 550.969 132.874C551.143 132.7 551.316 132.613 551.403 132.57C551.273 132.527 551.143 132.44 550.969 132.31C550.796 132.18 550.752 132.006 550.752 131.79C550.752 131.529 550.839 131.313 551.056 131.139C551.273 130.966 551.533 130.879 551.923 130.879C552.27 130.879 552.574 130.966 552.791 131.139C553.007 131.313 553.094 131.529 553.094 131.79C553.094 132.006 553.007 132.18 552.877 132.31C552.747 132.44 552.617 132.527 552.444 132.57C552.574 132.613 552.704 132.7 552.877 132.874C553.051 133.047 553.137 133.264 553.137 133.524C553.137 133.828 553.051 134.088 552.834 134.261C552.617 134.435 552.313 134.565 551.836 134.565C551.403 134.565 551.056 134.478 550.839 134.261C550.839 134.088 550.709 133.828 550.709 133.524ZM551.49 133.437C551.49 133.611 551.533 133.784 551.62 133.871C551.706 133.958 551.836 134.001 552.01 134.001C552.183 134.001 552.357 133.958 552.4 133.871C552.487 133.784 552.53 133.654 552.53 133.437C552.53 133.307 552.487 133.177 552.4 133.047C552.313 132.917 552.183 132.874 552.01 132.874C551.836 132.874 551.706 132.917 551.62 133.047C551.533 133.177 551.49 133.307 551.49 133.437ZM551.533 131.833C551.533 131.963 551.576 132.05 551.663 132.136C551.75 132.223 551.836 132.267 552.01 132.267C552.14 132.267 552.27 132.223 552.357 132.136C552.444 132.05 552.487 131.963 552.487 131.833C552.487 131.703 552.444 131.616 552.357 131.529C552.27 131.443 552.183 131.399 552.01 131.399C551.836 131.399 551.75 131.443 551.663 131.529C551.576 131.616 551.533 131.703 551.533 131.833Z" fill="#313131"/>
<path d="M555.525 63.2336L552.446 58.4203C552.359 58.2469 552.229 58.1602 552.012 58.1602C551.839 58.1602 551.665 58.2469 551.579 58.377L548.587 63.2336C548.5 63.3637 548.5 63.5372 548.587 63.7106C548.673 63.8407 548.803 63.9274 548.977 63.9274H555.048C555.221 63.9274 555.351 63.8407 555.438 63.7106C555.611 63.5805 555.611 63.4071 555.525 63.2336ZM555.004 63.4071H549.107L552.012 58.7239L555.004 63.4071Z" fill="#313131"/>
<path d="M551.748 60.2434C551.748 60.1567 551.792 60.1133 551.878 60.1133H552.182C552.268 60.1133 552.312 60.1567 552.312 60.2434L552.268 61.9345C552.268 62.0213 552.225 62.0646 552.138 62.0646H551.922C551.835 62.0646 551.791 62.0213 551.791 61.9345L551.748 60.2434ZM551.878 62.8885C551.792 62.8885 551.748 62.8452 551.748 62.7584V62.4982C551.748 62.4115 551.792 62.3682 551.878 62.3682H552.182C552.268 62.3682 552.312 62.4115 552.312 62.4982V62.7584C552.312 62.8452 552.268 62.8885 552.182 62.8885H551.878Z" fill="#313131"/>
<path d="M543.959 26.589C543.959 25.1563 544.155 24.0408 544.548 23.2426C544.941 22.4402 545.691 22.0391 546.796 22.0391C547.901 22.0391 548.65 22.4402 549.043 23.2426C549.436 24.0408 549.633 25.1563 549.633 26.589C549.633 28.0217 549.436 29.1393 549.043 29.9416C548.65 30.7398 547.901 31.1389 546.796 31.1389C545.691 31.1389 544.941 30.7398 544.548 29.9416C544.155 29.1393 543.959 28.0217 543.959 26.589ZM545.101 26.589C545.101 27.7352 545.199 28.6337 545.396 29.2846C545.592 29.9314 546.059 30.2547 546.796 30.2547C547.533 30.2547 547.999 29.9314 548.196 29.2846C548.392 28.6337 548.491 27.7352 548.491 26.589C548.491 25.4428 548.392 24.5463 548.196 23.8996C547.999 23.2487 547.533 22.9233 546.796 22.9233C546.059 22.9233 545.592 23.2487 545.396 23.8996C545.199 24.5463 545.101 25.4428 545.101 26.589Z" fill="#000912"/>
<path d="M539.37 23.8878C539.317 23.7568 539.366 23.6627 539.518 23.6054C539.833 23.4867 540.132 23.2963 540.414 23.0343C540.697 22.7723 540.92 22.539 541.083 22.3343C541.202 22.187 541.317 22.1133 541.427 22.1133H541.949C542.138 22.1133 542.232 22.2054 542.232 22.3896V30.679C542.232 30.8632 542.14 30.9553 541.955 30.9553H541.427C541.243 30.9553 541.151 30.8632 541.151 30.679V23.9492C541.151 23.8264 541.155 23.7036 541.163 23.5808H541.151C541.024 23.7405 540.838 23.9042 540.592 24.072C540.347 24.2399 540.122 24.3627 539.917 24.4404C539.737 24.51 539.618 24.4773 539.561 24.3422L539.37 23.8878Z" fill="#000912"/>
<path d="M532.41 30.9547C532.185 30.9547 532.072 30.8626 532.072 30.6784V30.3837C532.072 30.224 532.14 30.0767 532.275 29.9416L534.682 27.5162C535.394 26.7998 535.861 26.2472 536.082 25.8583C536.307 25.4653 536.42 25.013 536.42 24.5013C536.42 24.0715 536.293 23.7072 536.039 23.4083C535.789 23.1095 535.408 22.9601 534.897 22.9601C534.438 22.9601 534.058 23.0768 533.755 23.3101C533.452 23.5434 533.233 23.9344 533.098 24.4829C533.04 24.7162 532.92 24.8063 532.735 24.7531L532.256 24.6118C532.13 24.575 532.099 24.401 532.164 24.0899C532.283 23.5537 532.57 23.0788 533.024 22.6654C533.482 22.2478 534.09 22.0391 534.848 22.0391C535.81 22.0391 536.512 22.2806 536.954 22.7636C537.4 23.2466 537.623 23.8382 537.623 24.5382C537.623 25.2218 537.439 25.8112 537.07 26.3065C536.706 26.8019 536.205 27.3586 535.566 27.9767L533.546 29.9354V29.96C533.656 29.9518 533.82 29.9477 534.037 29.9477H537.384C537.609 29.9477 537.721 30.0398 537.721 30.224V30.6784C537.721 30.8626 537.609 30.9547 537.384 30.9547H532.41Z" fill="#000912"/>
<path d="M524.21 30.9536C523.944 30.9536 523.907 30.8185 524.1 30.5483L527.047 26.4098L524.308 22.5537C524.116 22.2835 524.153 22.1484 524.419 22.1484H525.174C525.354 22.1484 525.498 22.2283 525.604 22.3879L527.759 25.5931L529.914 22.3879C530.021 22.2283 530.164 22.1484 530.344 22.1484H531.1C531.366 22.1484 531.402 22.2835 531.21 22.5537L528.471 26.4098L531.419 30.5483C531.611 30.8185 531.574 30.9536 531.308 30.9536H530.547C530.367 30.9536 530.224 30.8738 530.117 30.7141L527.759 27.2264L525.401 30.7141C525.295 30.8738 525.152 30.9536 524.972 30.9536H524.21Z" fill="#000912"/>
<path d="M514.309 30.9536C514.104 30.9536 514.002 30.841 514.002 30.6159V22.4862C514.002 22.261 514.104 22.1484 514.309 22.1484H515.617C515.772 22.1484 515.889 22.2712 515.967 22.5169L517.723 28.0247C517.903 28.5896 518.01 28.9314 518.042 29.0501C518.075 29.1647 518.122 29.3776 518.183 29.6887H518.22C518.282 29.3776 518.329 29.1647 518.362 29.0501C518.394 28.9314 518.501 28.5896 518.681 28.0247L520.437 22.5169C520.515 22.2712 520.631 22.1484 520.787 22.1484H522.095C522.3 22.1484 522.402 22.261 522.402 22.4862V30.6159C522.402 30.841 522.3 30.9536 522.095 30.9536H521.53C521.325 30.9536 521.223 30.841 521.223 30.6159V24.1747C521.223 24.011 521.227 23.8472 521.235 23.6835H521.211L518.945 30.579C518.863 30.8287 518.728 30.9536 518.54 30.9536H517.864C517.676 30.9536 517.541 30.8287 517.459 30.579L515.193 23.6835H515.169C515.177 23.8472 515.181 24.011 515.181 24.1747V30.6159C515.181 30.841 515.079 30.9536 514.874 30.9536H514.309Z" fill="#000912"/>
<path d="M355.718 94.3823C344.319 42.1712 267.951 57.0868 273.36 95.7525C222.9 104.01 243.084 155.388 267.856 155.846C309.059 155.846 345.841 156.264 373.364 155.846C408.712 155.311 410.247 83.4521 355.718 94.3823Z" fill="white"/>
<path d="M273.36 95.7525C267.951 57.0868 344.319 42.1712 355.718 94.3823M273.36 95.7525C222.9 104.01 243.084 155.388 267.856 155.846C309.059 155.846 345.841 156.264 373.364 155.846C408.712 155.311 410.247 83.4521 355.718 94.3823M273.36 95.7525C273.477 99.148 276.424 106.034 287.278 106.412M355.718 94.3823C350.531 95.7096 340.134 99.8171 337.053 107.647" stroke="#313131" stroke-width="0.834229" stroke-linecap="round" stroke-linejoin="round"/>
<path d="M288.337 145.91V134.934H290.385V145.91H288.337ZM292.137 145.91V134.934H293.945L297.337 140.982C297.401 141.067 297.471 141.195 297.545 141.366C297.62 141.526 297.684 141.675 297.737 141.814C297.801 141.942 297.833 142.006 297.833 142.006L297.881 141.958C297.881 141.958 297.881 141.894 297.881 141.766C297.881 141.638 297.876 141.499 297.865 141.35C297.865 141.201 297.865 141.099 297.865 141.046V134.934H299.689V145.91H297.865L294.473 139.862C294.431 139.787 294.367 139.67 294.281 139.51C294.207 139.339 294.137 139.185 294.073 139.046C294.009 138.907 293.977 138.838 293.977 138.838L293.913 138.886C293.913 138.886 293.913 138.945 293.913 139.062C293.924 139.169 293.929 139.297 293.929 139.446C293.94 139.585 293.945 139.702 293.945 139.798V145.91H292.137ZM303.638 145.91V136.758H300.918V134.934H308.406V136.758H305.686V145.91H303.638ZM309.622 145.91V134.934H316.614V136.758H311.67V139.382H315.91V141.206H311.67V144.086H316.71V145.91H309.622ZM318.372 145.91V134.934H322.964C324.073 134.934 324.91 135.233 325.476 135.83C326.041 136.417 326.324 137.163 326.324 138.07C326.324 138.731 326.158 139.307 325.828 139.798C325.497 140.289 325.049 140.651 324.484 140.886L326.596 145.91H324.372L322.548 141.334H320.42V145.91H318.372ZM320.42 139.526H322.676C323.177 139.526 323.54 139.398 323.764 139.142C323.998 138.886 324.116 138.529 324.116 138.07C324.116 137.665 324.004 137.345 323.78 137.11C323.566 136.875 323.225 136.758 322.756 136.758H320.42V139.526ZM327.84 145.91V134.934H329.648L333.04 140.982C333.104 141.067 333.174 141.195 333.248 141.366C333.323 141.526 333.387 141.675 333.44 141.814C333.504 141.942 333.536 142.006 333.536 142.006L333.584 141.958C333.584 141.958 333.584 141.894 333.584 141.766C333.584 141.638 333.579 141.499 333.568 141.35C333.568 141.201 333.568 141.099 333.568 141.046V134.934H335.392V145.91H333.568L330.176 139.862C330.134 139.787 330.07 139.67 329.984 139.51C329.91 139.339 329.84 139.185 329.776 139.046C329.712 138.907 329.68 138.838 329.68 138.838L329.616 138.886C329.616 138.886 329.616 138.945 329.616 139.062C329.627 139.169 329.632 139.297 329.632 139.446C329.643 139.585 329.648 139.702 329.648 139.798V145.91H327.84ZM337.309 145.91V134.934H344.301V136.758H339.357V139.382H343.597V141.206H339.357V144.086H344.397V145.91H337.309ZM348.091 145.91V136.758H345.371V134.934H352.859V136.758H350.139V145.91H348.091Z" fill="#565656"/>
</svg>
