<svg width="34" height="29" viewBox="0 0 34 29" fill="none" xmlns="http://www.w3.org/2000/svg">
<path d="M27.1029 7.49596H6.54428L9.11506 18.3697L25.1362 16.5319C25.5815 16.4809 25.9545 16.1713 26.0868 15.7431L28.1821 8.95889C28.4066 8.23226 27.8634 7.49596 27.1029 7.49596Z" fill="white"/>
<path fill-rule="evenodd" clip-rule="evenodd" d="M0.460938 3.97333C0.460938 3.34948 0.966668 2.84375 1.59052 2.84375H4.75282C5.78109 2.84375 6.67965 3.53815 6.93896 4.53319L7.41789 6.37096H27.1035C28.6245 6.37096 29.7109 7.84357 29.2621 9.29681L28.1828 8.96347L29.2621 9.29682L27.1667 16.081C26.9022 16.9375 26.1562 17.5566 25.2656 17.6587L10.481 19.3546L10.6577 20.1792H25.2293C25.8531 20.1792 26.3589 20.6849 26.3589 21.3088C26.3589 21.9326 25.8531 22.4383 25.2293 22.4383H10.6577C9.59237 22.4383 8.67184 21.6941 8.44865 20.6525L8.01372 18.6226L5.44864 7.77294L4.75282 5.10291H1.59052C0.966668 5.10291 0.460938 4.59718 0.460938 3.97333ZM7.97273 8.63012L9.9841 17.1377L25.0082 15.4143L27.1035 8.63012H7.97273Z" fill="white"/>
<path d="M13.9661 26.0358C13.9661 27.2896 12.9497 28.3059 11.6959 28.3059C10.4422 28.3059 9.42578 27.2896 9.42578 26.0358C9.42578 24.782 10.4422 23.7656 11.6959 23.7656C12.9497 23.7656 13.9661 24.782 13.9661 26.0358Z" fill="white"/>
<path d="M25.6009 26.0358C25.6009 27.2896 24.5845 28.3059 23.3307 28.3059C22.0769 28.3059 21.0605 27.2896 21.0605 26.0358C21.0605 24.782 22.0769 23.7656 23.3307 23.7656C24.5845 23.7656 25.6009 24.782 25.6009 26.0358Z" fill="white"/>
<path d="M32.1309 6.78418C32.1309 9.66803 29.793 12.0059 26.9092 12.0059C24.0253 12.0059 21.6875 9.66803 21.6875 6.78418C21.6875 3.90033 24.0253 1.5625 26.9092 1.5625C29.793 1.5625 32.1309 3.90033 32.1309 6.78418Z" fill="#FF007D" stroke="white" stroke-width="2"/>
<path d="M24.6777 6.78125H29.1392" stroke="white" stroke-width="2" stroke-linecap="round"/>
<path d="M26.9082 4.55469V9.01611" stroke="white" stroke-width="2" stroke-linecap="round"/>
</svg>
