<svg width="23" height="23" viewBox="0 0 23 23" fill="none" xmlns="http://www.w3.org/2000/svg">
<circle cx="11.3086" cy="11.3203" r="11.043" transform="rotate(-180 11.3086 11.3203)" fill="#32BD94"/>
<path fill-rule="evenodd" clip-rule="evenodd" d="M4.25195 11.3203C4.25195 10.4919 4.92353 9.82031 5.75195 9.82031H16.8633C17.6917 9.82031 18.3633 10.4919 18.3633 11.3203C18.3633 12.1487 17.6917 12.8203 16.8633 12.8203H5.75195C4.92353 12.8203 4.25195 12.1487 4.25195 11.3203Z" fill="white"/>
<path fill-rule="evenodd" clip-rule="evenodd" d="M11.3086 18.375C10.4802 18.375 9.80859 17.7034 9.80859 16.875V5.76367C9.80859 4.93524 10.4802 4.26367 11.3086 4.26367C12.137 4.26367 12.8086 4.93524 12.8086 5.76367V16.875C12.8086 17.7034 12.137 18.375 11.3086 18.375Z" fill="white"/>
</svg>
