<svg width="25" height="25" viewBox="0 0 25 25" fill="none" xmlns="http://www.w3.org/2000/svg">
<path d="M12.4406 24.7093C11.7959 24.7093 11.1488 24.6577 10.5186 24.556C7.73565 24.1082 5.18509 22.6776 3.33732 20.528C1.46938 18.3551 0.441406 15.5786 0.441406 12.7101C0.441406 6.09369 5.82414 0.710938 12.4414 0.710938C19.0587 0.710938 24.4414 6.09369 24.4414 12.7101C24.4414 15.623 23.3844 18.4326 21.4656 20.62C19.5646 22.7873 16.9527 24.1986 14.1125 24.5947C13.563 24.6714 13.0014 24.7101 12.4422 24.7101L12.4406 24.7093ZM12.4406 1.67841C6.35749 1.67841 1.40886 6.62704 1.40886 12.7093C1.40886 18.1558 5.3045 22.7357 10.6727 23.5999C11.7547 23.7742 12.8892 23.7863 13.9777 23.6346C19.3903 22.8801 23.4723 18.1832 23.4723 12.7093C23.4723 6.62704 18.5237 1.67841 12.4406 1.67841Z" fill="white"/>
<path d="M14.0442 10.443V12.9516H17.1475L16.6561 16.3308H14.0442V24.1165C13.5206 24.1891 12.9848 24.227 12.4409 24.227C11.8132 24.227 11.1967 24.177 10.5964 24.0802V16.3308H7.73438V12.9516H10.5964V9.88222C10.5964 7.97797 12.14 6.43359 14.045 6.43359V6.43521C14.0507 6.43521 14.0555 6.43359 14.0612 6.43359H17.1483V9.35613H15.1311C14.5316 9.35613 14.045 9.84268 14.045 10.4422L14.0442 10.443Z" fill="white"/>
</svg>
