<svg width="160" height="39" viewBox="0 0 160 39" fill="none" xmlns="http://www.w3.org/2000/svg">
<path d="M71.6969 13.9172L62.0781 0.238281H52.791V7.66882H59.2588L67.7167 19.659L59.2588 31.4803H52.791V38.9109H62.0781L71.6969 25.2319L75.6771 19.659L71.6969 13.9172Z" fill="#00A197"/>
<path d="M81.1557 0.234375L75.8488 7.66492L73.1953 11.8868L77.1755 17.6286L84.3067 7.66492H90.2769L90.4428 0.234375" fill="#FF007D"/>
<path d="M21.4471 10.2015C20.4521 8.85045 19.1253 7.8372 17.6328 7.16169C15.9744 6.48619 14.1501 6.14844 11.8283 6.14844C10.3358 6.14844 9.00903 6.31731 7.51646 6.65507C6.02389 6.99282 4.36548 7.49944 2.87291 8.17495V12.7346C4.36548 11.8902 5.85805 11.2147 7.35062 10.877C8.84319 10.3703 10.5016 10.2015 11.9942 10.2015C14.3159 10.2015 16.1402 10.7081 17.1352 11.7213C18.1303 12.7346 18.7937 14.2545 18.7937 16.4499V17.1254H12.8234C8.84319 17.1254 6.02389 17.9698 3.86795 19.4896C1.87786 21.0095 0.882812 23.3738 0.882812 26.4135C0.882812 29.1156 1.71202 31.1421 3.37043 32.8308C5.02884 34.3507 7.18477 35.1951 10.0041 35.1951C11.9942 35.1951 13.8184 34.8573 15.311 34.013C16.8036 33.1686 17.9644 31.9865 18.9595 30.4666V35.364H23.4372V18.8141C23.4372 16.4499 23.2714 14.5922 23.1055 13.4101C22.4422 12.0591 22.1105 11.0458 21.4471 10.2015ZM18.6278 21.5161C18.6278 24.5559 17.9644 26.9202 16.4719 28.6089C15.1451 30.2977 13.1551 31.1421 10.6674 31.1421C9.00903 31.1421 7.51646 30.6354 6.52141 29.7911C5.52636 28.9467 5.02884 27.5957 5.02884 25.9069C5.02884 24.0493 5.6922 22.6983 7.01893 21.685C8.34566 20.8406 10.3358 20.334 12.8234 20.334H14.4818H18.6278V21.5161Z" fill="#000912"/>
<path d="M21.4471 10.2015C20.4521 8.85045 19.1253 7.8372 17.6328 7.16169C15.9744 6.48619 14.1501 6.14844 11.8283 6.14844C10.3358 6.14844 9.00903 6.31731 7.51646 6.65507C6.02389 6.99282 4.36548 7.49944 2.87291 8.17495V12.7346C4.36548 11.8902 5.85805 11.2147 7.35062 10.877C8.84319 10.3703 10.5016 10.2015 11.9942 10.2015C14.3159 10.2015 16.1402 10.7081 17.1352 11.7213C18.1303 12.7346 18.7937 14.2545 18.7937 16.4499V17.1254H12.8234C8.84319 17.1254 6.02389 17.9698 3.86795 19.4896C1.87786 21.0095 0.882812 23.3738 0.882812 26.4135C0.882812 29.1156 1.71202 31.1421 3.37043 32.8308C5.02884 34.3507 7.18477 35.1951 10.0041 35.1951C11.9942 35.1951 13.8184 34.8573 15.311 34.013C16.8036 33.1686 17.9644 31.9865 18.9595 30.4666V35.364H23.4372V18.8141C23.4372 16.4499 23.2714 14.5922 23.1055 13.4101C22.4422 12.0591 22.1105 11.0458 21.4471 10.2015ZM18.6278 21.5161C18.6278 24.5559 17.9644 26.9202 16.4719 28.6089C15.1451 30.2977 13.1551 31.1421 10.6674 31.1421C9.00903 31.1421 7.51646 30.6354 6.52141 29.7911C5.52636 28.9467 5.02884 27.5957 5.02884 25.9069C5.02884 24.0493 5.6922 22.6983 7.01893 21.685C8.34566 20.8406 10.3358 20.334 12.8234 20.334H14.4818H18.6278V21.5161Z" fill="#000912"/>
<path d="M48.6492 7.66883H43.3423L31.5676 19.1524V0.238281H27.0898V35.1956H31.5676V24.2187L34.8844 21.1789L44.8348 35.1956H50.3076L38.0354 18.1391L48.6492 7.66883Z" fill="#000912"/>
<path d="M104.369 30.4671C103.54 29.6227 103.208 28.2717 103.208 26.2452V11.2152H113.325V7.66882H103.208V0.238281H98.7306V7.66882H91.4336V11.2152H98.7306V26.2452C98.7306 29.6227 99.394 31.987 100.721 33.338C102.047 34.689 104.369 35.3645 107.852 35.3645H113.325V31.8181H108.349C106.359 31.6492 105.033 31.1426 104.369 30.4671Z" fill="#000912"/>
<path d="M125.598 6.14844C121.784 6.14844 118.633 7.49945 116.311 10.0326C113.989 12.7346 112.828 16.1121 112.828 20.5029C112.828 25.0625 113.989 28.6089 116.311 31.1421C118.633 33.6752 121.949 35.0262 126.095 35.0262C127.588 35.0262 129.081 34.8573 130.573 34.5196C132.066 34.1818 133.724 33.6752 135.383 32.9997V28.4401C133.558 29.4533 131.9 30.1288 130.407 30.4666C128.915 30.9732 127.422 31.1421 125.93 31.1421C123.11 31.1421 120.954 30.2977 119.462 28.6089C117.969 26.9202 117.14 24.2182 117.306 20.5029V20.334H136.543V18.3075C136.378 14.93 135.382 12.0591 133.392 9.69483C131.734 7.33057 128.915 6.14844 125.598 6.14844ZM117.803 16.9565C117.969 15.0989 118.633 13.579 120.125 12.0591C121.452 10.5392 123.276 9.86371 125.432 9.86371C127.588 9.86371 129.246 10.5392 130.407 11.8902C131.568 13.2412 132.232 14.93 132.397 16.7876L117.803 16.9565Z" fill="#000912"/>
<path d="M152.46 10.0317C153.953 10.0317 155.28 10.2006 156.441 10.7072C157.602 11.2138 158.762 11.8893 159.923 13.0714V8.34292C158.597 7.66742 157.436 7.16079 156.109 6.82303C154.948 6.48528 153.621 6.31641 152.295 6.31641C148.149 6.31641 144.832 7.66741 142.51 10.2006C140.188 12.7337 139.027 16.2801 139.027 20.8397C139.027 25.3994 140.188 28.9458 142.51 31.4789C144.832 34.0121 148.149 35.3631 152.295 35.3631C153.621 35.3631 154.948 35.1942 156.109 34.8564C157.436 34.5187 158.597 34.0121 159.757 33.3366V28.4392C158.762 29.4524 157.602 30.1279 156.275 30.6345C155.114 31.1412 153.621 31.3101 152.129 31.3101C149.309 31.3101 147.154 30.4657 145.661 28.608C144.5 26.7504 143.837 24.0484 143.837 20.6709C143.837 17.2933 144.666 14.5913 146.159 12.7337C147.485 11.0449 149.641 10.0317 152.46 10.0317Z" fill="#000912"/>
</svg>
