<svg width="25" height="25" viewBox="0 0 25 25" fill="none" xmlns="http://www.w3.org/2000/svg">
<circle cx="12.7812" cy="12.5664" r="11.5" stroke="#919191"/>
<path fill-rule="evenodd" clip-rule="evenodd" d="M19.1371 8.62109L12.7505 13.3729C11.0469 12.1072 9.4143 10.8889 8.11399 9.90391C7.45458 9.40439 6.88725 8.96977 6.44102 8.62109H19.1371ZM19.7651 9.40032L16.0345 12.176L19.7651 15.8872V9.40032ZM18.9722 16.509L15.2232 12.7795L13.0492 14.3971L12.751 14.619L12.4526 14.3974C11.6786 13.8226 10.9155 13.2549 10.1877 12.7116L6.53008 16.509H18.9722ZM5.79688 15.8287L9.3804 12.1083C8.70861 11.6054 8.07796 11.1312 7.51016 10.701C6.84696 10.1986 6.26255 9.75126 5.79688 9.38685V15.8287Z" fill="#919191"/>
</svg>
