<svg width="71" height="71" viewBox="0 0 71 71" fill="none" xmlns="http://www.w3.org/2000/svg">
<circle cx="35.7852" cy="35.4258" r="34.25" stroke="white" stroke-width="1.5"/>
<rect x="8.58984" y="19.9648" width="17.1417" height="7.54824" rx="2" fill="white"/>
<rect x="54.5273" y="23.2734" width="8.45895" height="7.54824" rx="2" fill="white"/>
<rect x="54.5273" y="34.8984" width="8.45895" height="7.54824" rx="2" fill="white"/>
<path d="M23.3125 35.9141H34.5868C35.078 35.9141 35.552 35.7333 35.9185 35.4062L44.7291 27.543C45.0955 27.2159 45.5696 27.0352 46.0608 27.0352H57.3348" stroke="white" stroke-width="1.5"/>
<path d="M24.1758 23.6406H36.8951C37.6122 23.6406 38.2744 24.0245 38.6307 24.6468L46.0759 37.6489C46.4322 38.2712 47.0944 38.6551 47.8115 38.6551H55.8638" stroke="white" stroke-width="1.5"/>
<path d="M24.5391 47.273H37.7922C38.3478 47.273 38.8784 47.0419 39.2568 46.635L46.6913 38.6406" stroke="white" stroke-width="1.5"/>
<rect x="8.58984" y="32.0078" width="17.1417" height="7.54824" rx="2" fill="white"/>
<rect x="8.58984" y="43.3477" width="17.1417" height="7.54824" rx="2" fill="white"/>
</svg>
