<svg width="71" height="70" viewBox="0 0 71 70" fill="none" xmlns="http://www.w3.org/2000/svg">
<circle cx="35.1953" cy="34.9922" r="34.25" stroke="white" stroke-width="1.5"/>
<path d="M53.4432 40.462C53.2477 40.2013 53.2211 39.9762 53.3632 39.7866L53.9853 38.9335C54.2341 38.5899 54.5363 38.581 54.8918 38.9068C55.105 39.1023 55.4338 39.2801 55.8782 39.44C56.3225 39.5941 56.7669 39.6711 57.2112 39.6711C57.8866 39.6711 58.4553 39.4815 58.9174 39.1023C59.3855 38.7232 59.6195 38.1692 59.6195 37.4405C59.6195 36.7474 59.4714 36.1875 59.1752 35.7609C58.8789 35.3344 58.5205 35.1211 58.0999 35.1211C57.7385 35.1211 57.4067 35.1507 57.1045 35.21C56.8024 35.2633 56.4884 35.4321 56.1626 35.7165C55.9374 35.912 55.6649 36.0098 55.345 36.0098H54.3763C53.9912 36.0098 53.7987 35.8172 53.7987 35.4321V29.3003C53.7987 28.9152 53.9912 28.7227 54.3763 28.7227H60.7748C61.1599 28.7227 61.3524 28.9152 61.3524 29.3003V30.3489C61.3524 30.734 61.1599 30.9266 60.7748 30.9266H56.287V33.1038C56.287 33.3408 56.2751 33.5778 56.2514 33.8147H56.3047C56.6187 33.5422 56.9683 33.3615 57.3534 33.2727C57.7385 33.1779 58.1502 33.1305 58.5886 33.1305C59.6254 33.1305 60.4993 33.4859 61.2102 34.1969C61.9271 34.9019 62.2855 35.995 62.2855 37.4761C62.2855 38.8387 61.8293 39.8785 60.917 40.5953C60.0105 41.3062 58.9323 41.6617 57.6822 41.6617C56.6395 41.6617 55.736 41.5492 54.9717 41.324C54.2134 41.093 53.7039 40.8056 53.4432 40.462Z" fill="white"/>
<path d="M42.4297 37.9612C42.4297 36.9422 42.7407 36.1513 43.3628 35.5885C43.9908 35.0197 44.5299 34.6731 44.9802 34.5487V34.5043C44.4766 34.3443 43.9849 34.0303 43.505 33.5623C43.031 33.0883 42.794 32.4663 42.794 31.6961C42.794 30.7719 43.1673 29.9958 43.9138 29.3678C44.6662 28.7398 45.6941 28.4258 46.9975 28.4258C48.3008 28.4258 49.3258 28.7398 50.0723 29.3678C50.8247 29.9958 51.2009 30.7719 51.2009 31.6961C51.2009 32.4663 50.9609 33.0883 50.4811 33.5623C50.0071 34.0303 49.5183 34.3443 49.0147 34.5043V34.5487C49.465 34.6731 50.0012 35.0197 50.6232 35.5885C51.2512 36.1513 51.5652 36.9422 51.5652 37.9612C51.5652 39.0573 51.2068 39.9489 50.4899 40.6361C49.779 41.3234 48.6148 41.667 46.9975 41.667C45.3801 41.667 44.213 41.3234 43.4961 40.6361C42.7852 39.9489 42.4297 39.0573 42.4297 37.9612ZM45.0957 37.6946C45.0957 38.3641 45.2438 38.8618 45.54 39.1876C45.8363 39.5134 46.3221 39.6764 46.9975 39.6764C47.6729 39.6764 48.1587 39.5134 48.4549 39.1876C48.7511 38.8618 48.8992 38.3641 48.8992 37.6946C48.8992 37.1851 48.7363 36.7171 48.4104 36.2905C48.0905 35.858 47.6195 35.6418 46.9975 35.6418C46.3754 35.6418 45.9014 35.858 45.5756 36.2905C45.2557 36.7171 45.0957 37.1851 45.0957 37.6946ZM45.389 31.9627C45.389 32.4367 45.5223 32.8099 45.7889 33.0824C46.0614 33.3549 46.4643 33.4912 46.9975 33.4912C47.5307 33.4912 47.9306 33.3549 48.1972 33.0824C48.4697 32.8099 48.606 32.4367 48.606 31.9627C48.606 31.4887 48.4638 31.1125 48.1794 30.8341C47.9009 30.5556 47.507 30.4164 46.9975 30.4164C46.488 30.4164 46.091 30.5556 45.8066 30.8341C45.5282 31.1125 45.389 31.4887 45.389 31.9627Z" fill="white"/>
<path d="M32.1323 38.5906C31.7472 38.5906 31.5547 38.3981 31.5547 38.013V36.8399C31.5547 36.5022 31.6436 36.209 31.8213 35.9602L36.7445 29.0285C36.9637 28.7204 37.2392 28.5664 37.571 28.5664H38.8773C39.2684 28.5664 39.4639 28.759 39.4639 29.144V36.3867H40.5392C40.9243 36.3867 41.1168 36.5793 41.1168 36.9644V38.013C41.1168 38.3981 40.9272 38.5906 40.548 38.5906H39.4639V40.7856C39.4639 41.1707 39.2713 41.3633 38.8862 41.3633H37.5532C37.1681 41.3633 36.9756 41.1707 36.9756 40.7856V38.5906H32.1323ZM34.0341 36.3867H36.9756V32.9476C36.9756 32.7106 36.9874 32.4736 37.0111 32.2366H36.9756L34.0341 36.3867Z" fill="white"/>
<path d="M20.9493 40.4112C20.582 40.1328 20.4932 39.8514 20.6827 39.567L21.367 38.5361C21.5922 38.1984 21.921 38.1807 22.3534 38.4828C22.6852 38.7139 23.1177 38.9538 23.6509 39.2026C24.19 39.4455 24.7558 39.567 25.3483 39.567C25.763 39.567 26.1629 39.5196 26.548 39.4248C26.9331 39.33 27.2263 39.1464 27.4278 38.8738C27.6292 38.6013 27.7299 38.2784 27.7299 37.9052C27.7299 37.6386 27.6855 37.4046 27.5966 37.2031C27.5077 37.0017 27.3626 36.8358 27.1612 36.7055C26.9597 36.5751 26.7524 36.4655 26.5391 36.3767C26.1659 36.2226 25.6949 36.0715 25.1261 35.9234C24.5633 35.7694 24.0064 35.5857 23.4554 35.3725C22.9637 35.1829 22.5134 34.9222 22.1046 34.5904C21.6958 34.2587 21.3789 33.8854 21.1537 33.4707C20.9286 33.056 20.816 32.5021 20.816 31.8089C20.816 30.9854 21.0826 30.2804 21.6159 29.6938C22.1491 29.1073 22.7622 28.7311 23.4554 28.5652C24.1486 28.3993 24.8477 28.3164 25.5527 28.3164C26.2518 28.3164 26.9716 28.423 27.7121 28.6363C28.4586 28.8496 29.0215 29.1162 29.4006 29.4361C29.7739 29.7501 29.8657 30.0345 29.6761 30.2893L28.9563 31.2579C28.7134 31.5897 28.3875 31.6163 27.9787 31.3379C27.7181 31.1602 27.3596 30.9617 26.9034 30.7425C26.4532 30.5233 25.9822 30.4137 25.4905 30.4137C25.1409 30.4137 24.818 30.4433 24.5218 30.5025C24.2315 30.5618 23.9738 30.704 23.7487 30.9291C23.5235 31.1542 23.411 31.4327 23.411 31.7645C23.411 32.0844 23.4939 32.3451 23.6598 32.5465C23.8257 32.742 24.0093 32.8901 24.2108 32.9908C24.4122 33.0856 24.6166 33.1656 24.824 33.2308C25.4638 33.4381 26.0355 33.6218 26.5391 33.7817C27.0427 33.9358 27.5077 34.1076 27.9343 34.2972C28.5268 34.5638 28.98 34.8304 29.294 35.097C29.608 35.3636 29.8657 35.7279 30.0671 36.19C30.2745 36.6521 30.3782 37.2031 30.3782 37.843C30.3782 38.7909 30.076 39.5759 29.4717 40.1979C28.8674 40.8141 28.195 41.211 27.4544 41.3888C26.7198 41.5724 26.0029 41.6643 25.3038 41.6643C24.273 41.6643 23.4347 41.5635 22.7889 41.3621C22.1431 41.1666 21.5299 40.8496 20.9493 40.4112Z" fill="white"/>
<path d="M8.73145 41.3646C8.31673 41.3646 8.10938 41.1425 8.10938 40.6981V29.2876C8.10938 28.8433 8.31673 28.6211 8.73145 28.6211H12.846C14.6767 28.6211 16.0126 28.9055 16.8539 29.4742C17.6952 30.037 18.1158 30.9553 18.1158 32.2291C18.1158 33.177 17.7752 33.9324 17.0938 34.4952C16.4125 35.058 15.5476 35.4313 14.4989 35.6149V35.6327C15.0677 35.846 15.4972 36.1422 15.7875 36.5214C16.0778 36.9006 16.3148 37.2323 16.4984 37.5167L18.4535 40.6004C18.7794 41.1099 18.6668 41.3646 18.1158 41.3646H16.5695C16.2437 41.3646 15.9771 41.1899 15.7697 40.8403L13.9746 37.8455C13.7791 37.5256 13.4207 37.176 12.8993 36.7969C12.3839 36.4118 11.8714 36.2192 11.3619 36.2192H10.7043V40.6981C10.7043 41.1425 10.4969 41.3646 10.0822 41.3646H8.73145ZM10.7043 34.0153H12.295C13.4799 34.0153 14.3212 33.882 14.8188 33.6154C15.3224 33.3429 15.5742 32.9134 15.5742 32.3269C15.5742 31.687 15.3313 31.2723 14.8455 31.0827C14.3656 30.8872 13.6576 30.7895 12.7216 30.7895H10.7043V34.0153Z" fill="white"/>
</svg>
