<svg width="71" height="71" viewBox="0 0 71 71" fill="none" xmlns="http://www.w3.org/2000/svg">
<circle cx="35.6055" cy="35.3359" r="34.25" stroke="white" stroke-width="1.5"/>
<mask id="mask0_1326_2846" style="mask-type:alpha" maskUnits="userSpaceOnUse" x="1" y="11" width="69" height="49">
<path fill-rule="evenodd" clip-rule="evenodd" d="M52.3815 11.75H68.8156V12.4348H52.838V16.9237H52.0011C49.2621 17.1519 47.1318 19.054 47.1318 21.3365C47.1318 23.7712 49.5664 25.7494 52.6098 25.7494V26.4341C49.5664 26.4341 47.1318 28.4123 47.1318 30.847C47.1318 33.2817 49.5664 35.2599 52.6098 35.2599V35.9446H52.5337C49.4904 35.9446 47.0557 37.9228 47.0557 40.3575C47.0557 42.7921 49.4904 44.7703 52.5337 44.7703V45.4551C49.4904 45.4551 47.0557 47.4332 47.0557 49.8679C47.0557 52.1504 49.2621 54.0525 52.0011 54.2808H52.7619V58.161H68.9678V58.9219H52.3054H51.925V58.6175V55.0416C48.7295 54.8134 46.2188 52.6069 46.2188 49.944C46.2188 47.7376 47.8926 45.9116 50.2512 45.1507C47.8926 44.3899 46.2188 42.5639 46.2188 40.3575C46.2188 38.151 47.8926 36.325 50.3273 35.5642C47.9687 34.8034 46.2948 32.9773 46.2948 30.847C46.2948 28.6406 47.9687 26.8146 50.3273 26.0537C47.9687 25.2929 46.2948 23.4669 46.2948 21.2605C46.2948 18.5975 48.8056 16.3911 52.0011 16.1629V11.9783V11.75H52.3815Z" fill="white"/>
<path fill-rule="evenodd" clip-rule="evenodd" d="M51.6261 11.375H69.1906V12.8098H53.213V17.2987H52.0169C49.4141 17.522 47.5068 19.3129 47.5068 21.3365C47.5068 23.4933 49.6948 25.3744 52.6098 25.3744H52.9848V26.8091H52.6098C49.6948 26.8091 47.5068 28.6903 47.5068 30.847C47.5068 33.0037 49.6948 34.8849 52.6098 34.8849H52.9848V36.3196H52.5337C49.6187 36.3196 47.4307 38.2007 47.4307 40.3575C47.4307 42.5142 49.6187 44.3953 52.5337 44.3953H52.9087V45.8301H52.5337C49.6187 45.8301 47.4307 47.7112 47.4307 49.8679C47.4307 51.8851 49.4059 53.6818 52.0169 53.9058H53.1369V57.786H69.3428V59.2969H51.55V55.383C48.3855 55.0148 45.8438 52.7621 45.8438 49.944C45.8438 47.8341 47.2381 46.0886 49.2304 45.1507C47.2381 44.2128 45.8438 42.4674 45.8438 40.3575C45.8438 38.242 47.2449 36.4944 49.2938 35.5583C47.3106 34.6211 45.9198 32.8885 45.9198 30.847C45.9198 28.7371 47.3142 26.9916 49.3065 26.0537C47.3142 25.1158 45.9198 23.3704 45.9198 21.2605C45.9198 18.4423 48.4616 16.1897 51.6261 15.8215V11.375ZM51.5021 26.0387L51.5488 26.0537L50.8498 26.2792C51.1961 26.1903 51.5553 26.127 51.9238 26.0918C51.7818 26.0782 51.6411 26.0604 51.5021 26.0387ZM49.2168 26.9414C47.6549 27.8147 46.6698 29.2392 46.6698 30.847C46.6698 31.7843 47.0319 32.6734 47.6661 33.4225C47.0922 32.6862 46.7568 31.8064 46.7568 30.847C46.7568 29.2055 47.7386 27.7975 49.2168 26.9414ZM51.502 35.5491C51.629 35.569 51.7574 35.5855 51.8868 35.5986C51.6234 35.6223 51.3647 35.6604 51.1119 35.7119L51.5663 35.5699L51.502 35.5491ZM48.4714 36.9037C47.2926 37.7785 46.5938 39.0035 46.5938 40.3575C46.5938 41.9653 47.5789 43.3898 49.1408 44.2631C47.6625 43.4071 46.6807 41.999 46.6807 40.3575C46.6807 38.9786 47.3735 37.7643 48.4714 36.9037ZM50.7737 44.9253L51.4727 45.1507L51.426 45.1658C51.565 45.144 51.7057 45.1263 51.8477 45.1127C51.4792 45.0774 51.12 45.0142 50.7737 44.9253ZM47.4819 47.4368C46.9742 48.1427 46.6807 48.9704 46.6807 49.8679C46.6807 52.4118 49.1106 54.4162 51.97 54.6545L51.9855 54.6558H52.3869V58.536H68.5928V58.5469H52.3V54.6924L51.9517 54.6676C48.885 54.4485 46.5938 52.3491 46.5938 49.944C46.5938 49.0256 46.9152 48.167 47.4819 47.4368ZM47.5579 23.7676C47.0503 23.0617 46.7568 22.234 46.7568 21.3365C46.7568 18.7991 49.1026 16.7889 51.97 16.55L51.9855 16.5487H52.463V12.125H52.3761V16.512L52.0278 16.5369C48.9611 16.756 46.6698 18.8554 46.6698 21.2605C46.6698 22.1789 46.9912 23.0374 47.5579 23.7676Z" fill="white"/>
<path fill-rule="evenodd" clip-rule="evenodd" d="M18.8314 58.9219H2.39729V58.2371H18.3749V53.7482H19.2118C21.9508 53.5199 24.0811 51.6178 24.0811 49.3353C24.0811 46.9007 21.6465 44.9225 18.6031 44.9225V44.2377C21.6465 44.2377 24.0811 42.2596 24.0811 39.8249C24.0811 37.3902 21.6465 35.412 18.6031 35.412V34.7273H18.6792C21.7225 34.7273 24.1572 32.7491 24.1572 30.3144C24.1572 27.8797 21.7225 25.9016 18.6792 25.9016V25.2168C21.7225 25.2168 24.1572 23.2386 24.1572 20.804C24.1572 18.5214 21.9508 16.6194 19.2118 16.3911H18.4509V12.5108H2.24512V11.75H18.9074H19.2879V12.0543V15.6303C22.4834 15.8585 24.9941 18.0649 24.9941 20.7279C24.9941 22.9343 23.3203 24.7603 20.9617 25.5211C23.3203 26.282 24.9941 28.108 24.9941 30.3144C24.9941 32.5208 23.3203 34.3468 20.8856 35.1077C23.2442 35.8685 24.9181 37.6945 24.9181 39.8249C24.9181 42.0313 23.2442 43.8573 20.8856 44.6181C23.2442 45.379 24.9181 47.205 24.9181 49.4114C24.9181 52.0743 22.4073 54.2808 19.2118 54.509V58.6936V58.9219H18.8314Z" fill="white"/>
<path fill-rule="evenodd" clip-rule="evenodd" d="M19.5868 59.2969H2.02229V57.8621H17.9999V53.3732H19.196C21.7988 53.1499 23.7061 51.359 23.7061 49.3353C23.7061 47.1786 21.5181 45.2975 18.6031 45.2975H18.2281V43.8627H18.6031C21.5181 43.8627 23.7061 41.9816 23.7061 39.8249C23.7061 37.6681 21.5181 35.787 18.6031 35.787H18.2281V34.3523H18.6792C21.5942 34.3523 23.7822 32.4712 23.7822 30.3144C23.7822 28.1577 21.5942 26.2766 18.6792 26.2766H18.3042V24.8418H18.6792C21.5942 24.8418 23.7822 22.9607 23.7822 20.804C23.7822 18.7868 21.807 16.9901 19.196 16.7661H18.0759V12.8858H1.87012V11.375H19.6629V15.2889C22.8274 15.6571 25.3691 17.9097 25.3691 20.7279C25.3691 22.8378 23.9748 24.5832 21.9825 25.5211C23.9748 26.4591 25.3691 28.2045 25.3691 30.3144C25.3691 32.4299 23.968 34.1774 21.919 35.1135C23.9023 36.0508 25.2931 37.7834 25.2931 39.8249C25.2931 41.9348 23.8987 43.6802 21.9064 44.6181C23.8987 45.5561 25.2931 47.3015 25.2931 49.4114C25.2931 52.2295 22.7513 54.4822 19.5868 54.8504V59.2969ZM19.7108 44.6332L19.6641 44.6181L20.3631 44.3927C20.0168 44.4816 19.6576 44.5449 19.2891 44.5801C19.4311 44.5937 19.5718 44.6114 19.7108 44.6332ZM21.9961 43.7305C23.558 42.8572 24.5431 41.4327 24.5431 39.8249C24.5431 38.8876 24.1809 37.9985 23.5468 37.2494C24.1207 37.9857 24.4561 38.8654 24.4561 39.8249C24.4561 41.4663 23.4743 42.8744 21.9961 43.7305ZM19.7108 35.1228C19.5838 35.1029 19.4555 35.0863 19.326 35.0733C19.5895 35.0495 19.8482 35.0115 20.101 34.96L19.6465 35.102L19.7108 35.1228ZM22.7414 33.7682C23.9203 32.8934 24.6191 31.6684 24.6191 30.3144C24.6191 28.7065 23.634 27.2821 22.0721 26.4087C23.5503 27.2648 24.5322 28.6729 24.5322 30.3144C24.5322 31.6933 23.8394 32.9075 22.7414 33.7682ZM20.4392 25.7466L19.7402 25.5211L19.7869 25.5061C19.6478 25.5279 19.5072 25.5456 19.3652 25.5592C19.7337 25.5944 20.0929 25.6577 20.4392 25.7466ZM23.731 23.2351C24.2387 22.5292 24.5322 21.7015 24.5322 20.804C24.5322 18.2601 22.1023 16.2557 19.2429 16.0174L19.2274 16.0161H18.8259V12.1358H2.62012V12.125H18.9129V15.9794L19.2611 16.0043C22.3279 16.2234 24.6191 18.3228 24.6191 20.7279C24.6191 21.6463 24.2977 22.5049 23.731 23.2351ZM23.6549 46.9043C24.1626 47.6101 24.4561 48.4378 24.4561 49.3353C24.4561 51.8728 22.1103 53.8829 19.2429 54.1219L19.2274 54.1232H18.7499V58.5469H18.8368V54.1599L19.1851 54.135C22.2518 53.9159 24.5431 51.8165 24.5431 49.4114C24.5431 48.493 24.2217 47.6345 23.6549 46.9043Z" fill="white"/>
<path d="M39.4988 12.3672H31.7129V57.8616H39.4988V12.3672Z" fill="white"/>
</mask>
<g mask="url(#mask0_1326_2846)">
<circle cx="35.7754" cy="35.043" r="35" fill="white"/>
</g>
</svg>
