<svg width="71" height="71" viewBox="0 0 71 71" fill="none" xmlns="http://www.w3.org/2000/svg">
<circle cx="35.7656" cy="35.4961" r="34.25" stroke="white" stroke-width="1.5"/>
<path d="M35.7664 12.0469C22.8864 12.0469 12.3164 22.6169 12.3164 35.4969C12.3164 48.3769 22.8864 58.9469 35.7664 58.9469C48.6464 58.9469 59.2164 48.3769 59.2164 35.4969C59.2164 22.6169 48.6464 12.0469 35.7664 12.0469ZM35.7664 57.3369C23.7264 57.3369 13.9264 47.4669 13.9264 35.4969C13.9264 23.5269 23.7264 13.6569 35.7664 13.6569C47.8064 13.6569 57.6064 23.4569 57.6064 35.4969C57.6064 47.5369 47.8064 57.3369 35.7664 57.3369Z" fill="white"/>
<path d="M30.4491 18.6978C30.8691 18.6278 31.1491 18.1378 31.0091 17.7878C30.9391 17.3678 30.4491 17.0878 30.0991 17.2278C27.0191 17.9278 24.2191 19.6078 21.9791 21.7078C19.7391 23.8078 18.1991 26.6778 17.4991 29.8278C17.4291 30.2478 17.7091 30.7378 18.0591 30.7378C18.1291 30.7378 18.2691 30.7378 18.2691 30.7378C18.6891 30.7378 18.9691 30.5278 19.0391 30.1078C19.7391 27.3078 21.1391 24.7878 23.1691 22.7578C25.0591 20.7978 27.6491 19.3278 30.4491 18.6978Z" fill="white"/>
<path d="M53.545 40.2569C53.125 40.1869 52.635 40.4669 52.635 40.8169C51.935 43.6169 50.535 46.1369 48.505 48.1669C46.475 50.1969 43.885 51.5969 41.155 52.2969C40.735 52.3669 40.455 52.8569 40.595 53.2069C40.665 53.6269 41.015 53.8369 41.365 53.8369C41.435 53.8369 41.575 53.8369 41.575 53.8369C44.655 53.1369 47.455 51.5269 49.695 49.3569C52.005 47.0469 53.475 44.3869 54.175 41.2369C54.245 40.8169 53.965 40.3969 53.545 40.2569Z" fill="white"/>
<path d="M31.4967 22.4088C31.9167 22.3388 32.1967 21.8488 32.0567 21.4988C31.9867 21.0788 31.4967 20.7988 31.1467 20.9388C28.7667 21.4988 26.5267 22.7588 24.8467 24.4388C23.1667 26.1188 21.8367 28.4288 21.3467 30.7388C21.2767 31.1588 21.5567 31.6488 21.9067 31.6488C21.9767 31.6488 22.1167 31.6488 22.1167 31.6488C22.5367 31.6488 22.8167 31.4388 22.8867 31.0188C23.3767 28.9188 24.4967 26.9588 25.9667 25.4188C27.2967 23.8788 29.2567 22.8988 31.4967 22.4088Z" fill="white"/>
<path d="M50.3988 40.1864C50.4688 39.7664 50.1888 39.2764 49.8388 39.2764C49.4188 39.2064 48.9288 39.4864 48.9288 39.8364C48.4388 41.9364 47.3188 43.8964 45.8488 45.4364C44.2388 47.0464 42.3488 48.0964 40.2488 48.5164C39.8288 48.5864 39.5488 49.0764 39.6888 49.4264C39.7588 49.8464 40.1088 50.0564 40.4588 50.0564C40.5288 50.0564 40.6688 50.0564 40.6688 50.0564C43.0488 49.4964 45.2888 48.2364 46.9688 46.5564C48.5788 44.8064 49.7688 42.5664 50.3988 40.1864Z" fill="white"/>
<path d="M33.0376 25.2071C32.9676 24.7871 32.4776 24.5071 32.1276 24.5771C28.5576 25.3471 25.8276 28.1471 25.0576 31.6471C24.9876 32.0671 25.2676 32.5571 25.6876 32.5571C25.7576 32.5571 25.7576 32.5571 25.8976 32.5571C26.3176 32.5571 26.5976 32.3471 26.6676 31.9271C27.2976 28.9171 29.6776 26.6071 32.6176 25.9771C32.8976 26.1171 33.1076 25.6971 33.0376 25.2071Z" fill="white"/>
<path d="M46.5487 39.2059C46.6187 38.7859 46.3387 38.2959 45.9187 38.2959C45.4987 38.2259 45.0087 38.5059 45.0087 38.9259C44.3787 41.9359 41.9987 44.2459 39.0587 44.8759C38.6387 44.9459 38.3587 45.4359 38.4287 45.7859C38.4987 46.2059 38.8487 46.4159 39.1987 46.4159C39.2687 46.4159 39.2687 46.4159 39.4087 46.4159C43.0487 45.5059 45.7787 42.7759 46.5487 39.2059Z" fill="white"/>
<path d="M42.0648 35.4953C42.0648 31.9953 39.2648 29.1953 35.7648 29.1953C32.2648 29.1953 29.4648 31.9953 29.4648 35.4953C29.4648 38.9953 32.2648 41.7953 35.7648 41.7953C39.2648 41.7953 42.0648 38.9953 42.0648 35.4953Z" fill="white"/>
</svg>
