<svg width="71" height="75" viewBox="0 0 71 75" fill="none" xmlns="http://www.w3.org/2000/svg">
<circle cx="35.5117" cy="35.9648" r="34.25" stroke="white" stroke-width="1.5"/>
<mask id="mask0_1250_41897" style="mask-type:alpha" maskUnits="userSpaceOnUse" x="32" y="5" width="31" height="62">
<path d="M49.6602 58.3684V14.207H61.6294V58.3684H49.6602Z" stroke="white" stroke-width="1.5"/>
<path d="M62.6052 5.77734H60.7461V66.7969H62.6052V5.77734Z" fill="white"/>
<path fill-rule="evenodd" clip-rule="evenodd" d="M32.5664 19.6172H32.0664V20.1172V27.2138V27.7138H32.5664H34.3768C34.9426 27.7138 35.3837 27.2727 35.3837 26.7069V25.6153H44.2959H44.4378L44.5586 25.5407L47.0207 24.02L47.7444 23.5731L47.0019 23.1582L44.5398 21.7823L44.4261 21.7188H44.2959H35.3837V20.6241C35.3837 20.0583 34.9426 19.6172 34.3768 19.6172H32.5664ZM34.4805 22.2677H34.3837V20.6241C34.3837 20.6214 34.3835 20.6192 34.3834 20.6175C34.3816 20.6173 34.3794 20.6172 34.3768 20.6172H33.0664V26.7138H34.3768C34.3794 26.7138 34.3816 26.7137 34.3834 26.7135C34.3835 26.7118 34.3837 26.7096 34.3837 26.7069V25.1365H34.4805V24.6153H44.1539L45.7716 23.6162L44.1657 22.7188H34.4805V22.2677Z" fill="white"/>
<path fill-rule="evenodd" clip-rule="evenodd" d="M32.5664 44.3398H32.0664V44.8398V51.9365V52.4365H32.5664H34.3768C34.9426 52.4365 35.3837 51.9954 35.3837 51.4296V50.338H44.2959H44.4378L44.5586 50.2634L47.0207 48.7427L47.7444 48.2957L47.0019 47.8808L44.5398 46.5049L44.4261 46.4414H44.2959H35.3837V45.3468C35.3837 44.781 34.9426 44.3398 34.3768 44.3398H32.5664ZM34.4805 46.9903H34.3837V45.3468C34.3837 45.3441 34.3835 45.3419 34.3834 45.3402C34.3816 45.34 34.3794 45.3398 34.3768 45.3398H33.0664V51.4365H34.3768C34.3794 51.4365 34.3816 51.4364 34.3834 51.4362C34.3835 51.4344 34.3837 51.4322 34.3837 51.4296V49.8592H34.4805V49.338H44.1539L45.7716 48.3388L44.1657 47.4414H34.4805V46.9903Z" fill="white"/>
</mask>
<g mask="url(#mask0_1250_41897)">
<circle cx="35.5117" cy="35.9648" r="34.25" fill="white" stroke="white" stroke-width="1.5"/>
</g>
<mask id="mask1_1250_41897" style="mask-type:alpha" maskUnits="userSpaceOnUse" x="0" y="3" width="26" height="72">
<mask id="path-7-inside-1_1250_41897" fill="white">
<path fill-rule="evenodd" clip-rule="evenodd" d="M25.9861 74.125H5.85547L5.85547 3.79095H25.9861L25.9861 74.125ZM19.1208 65.2106V54.8219C19.1208 53.6988 18.0284 52.7161 16.78 52.7161H15.0634C13.737 52.7161 12.7227 53.6286 12.7227 54.8219V65.2106C12.7227 66.4039 13.737 67.3164 15.0634 67.3164H16.78C18.1064 67.3164 19.1208 66.4039 19.1208 65.2106ZM19.1208 33.8335V44.152C19.1208 45.3453 18.1064 46.2578 16.78 46.2578H15.0634C13.737 46.2578 12.7227 45.3453 12.7227 44.152L12.7227 33.7633C12.7227 32.57 13.737 31.6575 15.0634 31.6575H16.78C18.0284 31.7277 19.1208 32.6402 19.1208 33.8335ZM19.1208 23.1637V12.7751C19.1208 11.5818 18.0284 10.6693 16.78 10.6693H15.0634C13.737 10.6693 12.7227 11.5818 12.7227 12.7751V23.1637C12.7227 24.357 13.737 25.2695 15.0634 25.2695H16.78C18.1064 25.2695 19.1208 24.357 19.1208 23.1637Z"/>
</mask>
<path fill-rule="evenodd" clip-rule="evenodd" d="M25.9861 74.125H5.85547L5.85547 3.79095H25.9861L25.9861 74.125ZM19.1208 65.2106V54.8219C19.1208 53.6988 18.0284 52.7161 16.78 52.7161H15.0634C13.737 52.7161 12.7227 53.6286 12.7227 54.8219V65.2106C12.7227 66.4039 13.737 67.3164 15.0634 67.3164H16.78C18.1064 67.3164 19.1208 66.4039 19.1208 65.2106ZM19.1208 33.8335V44.152C19.1208 45.3453 18.1064 46.2578 16.78 46.2578H15.0634C13.737 46.2578 12.7227 45.3453 12.7227 44.152L12.7227 33.7633C12.7227 32.57 13.737 31.6575 15.0634 31.6575H16.78C18.0284 31.7277 19.1208 32.6402 19.1208 33.8335ZM19.1208 23.1637V12.7751C19.1208 11.5818 18.0284 10.6693 16.78 10.6693H15.0634C13.737 10.6693 12.7227 11.5818 12.7227 12.7751V23.1637C12.7227 24.357 13.737 25.2695 15.0634 25.2695H16.78C18.1064 25.2695 19.1208 24.357 19.1208 23.1637Z" fill="white"/>
<path d="M19.0418 73.3048H12.7998V74.8048H19.0418V73.3048ZM5.85547 74.125H4.35547V75.625H5.85547V74.125ZM25.9861 74.125V75.625H27.4861V74.125H25.9861ZM5.85547 3.79095V2.29095H4.35547V3.79095H5.85547ZM25.9861 3.79095H27.4861V2.29095H25.9861V3.79095ZM16.78 31.6575L16.8642 30.1599L16.8221 30.1575H16.78L16.78 31.6575ZM5.85547 75.625H25.9861V72.625H5.85547V75.625ZM4.35547 3.79095L4.35547 74.125H7.35547L7.35547 3.79095H4.35547ZM25.9861 2.29095H5.85547V5.29095H25.9861V2.29095ZM27.4861 74.125L27.4861 3.79095H24.4861L24.4861 74.125H27.4861ZM17.6208 54.8219V65.2106H20.6208V54.8219H17.6208ZM16.78 54.2161C17.0136 54.2161 17.2463 54.3109 17.4153 54.463C17.5866 54.6171 17.6208 54.7584 17.6208 54.8219H20.6208C20.6208 52.7251 18.7036 51.2161 16.78 51.2161V54.2161ZM15.0634 54.2161H16.78V51.2161H15.0634V54.2161ZM14.2227 54.8219C14.2227 54.6716 14.2797 54.5438 14.3988 54.4367C14.5241 54.324 14.7447 54.2161 15.0634 54.2161V51.2161C13.0618 51.2161 11.2227 52.6549 11.2227 54.8219H14.2227ZM14.2227 65.2106L14.2227 54.8219H11.2227V65.2106H14.2227ZM15.0634 65.8164C14.7447 65.8164 14.5241 65.7085 14.3988 65.5958C14.2797 65.4887 14.2227 65.3609 14.2227 65.2106H11.2227C11.2227 67.3776 13.0618 68.8164 15.0634 68.8164V65.8164ZM16.78 65.8164H15.0634V68.8164H16.78V65.8164ZM17.6208 65.2106C17.6208 65.3609 17.5637 65.4887 17.4446 65.5958C17.3193 65.7085 17.0987 65.8164 16.78 65.8164V68.8164C18.7817 68.8164 20.6208 67.3776 20.6208 65.2106H17.6208ZM20.6208 44.152V33.8335H17.6208V44.152H20.6208ZM16.78 47.7578C18.7817 47.7578 20.6208 46.319 20.6208 44.152H17.6208C17.6208 44.3023 17.5637 44.4301 17.4446 44.5372C17.3193 44.6499 17.0987 44.7578 16.78 44.7578V47.7578ZM15.0634 47.7578H16.78V44.7578H15.0634V47.7578ZM11.2227 44.152C11.2227 46.319 13.0618 47.7578 15.0634 47.7578V44.7578C14.7447 44.7578 14.5241 44.6499 14.3988 44.5372C14.2797 44.4301 14.2227 44.3023 14.2227 44.152H11.2227ZM11.2227 33.7633L11.2227 44.152H14.2227V33.7633H11.2227ZM15.0634 30.1575C13.0618 30.1575 11.2227 31.5963 11.2227 33.7633H14.2227C14.2227 33.613 14.2797 33.4853 14.3988 33.3781C14.5241 33.2654 14.7447 33.1575 15.0634 33.1575L15.0634 30.1575ZM16.78 30.1575H15.0634L15.0634 33.1575H16.78L16.78 30.1575ZM20.6208 33.8335C20.6208 31.6317 18.6756 30.2617 16.8642 30.1599L16.6958 33.1552C16.9897 33.1717 17.2479 33.2889 17.4153 33.4395C17.5748 33.583 17.6208 33.721 17.6208 33.8335H20.6208ZM17.6208 12.7751V23.1637H20.6208V12.7751H17.6208ZM16.78 12.1693C17.0439 12.1693 17.2759 12.2674 17.4281 12.4012C17.5734 12.5289 17.6208 12.6604 17.6208 12.7751H20.6208C20.6208 10.5777 18.6695 9.16925 16.78 9.16925V12.1693ZM15.0634 12.1693H16.78V9.16925H15.0634V12.1693ZM14.2227 12.7751C14.2227 12.6247 14.2797 12.497 14.3988 12.3898C14.5241 12.2771 14.7447 12.1693 15.0634 12.1693V9.16925C13.0618 9.16925 11.2227 10.608 11.2227 12.7751H14.2227ZM14.2227 23.1637V12.7751H11.2227V23.1637H14.2227ZM15.0634 23.7695C14.7447 23.7695 14.5241 23.6616 14.3988 23.549C14.2797 23.4418 14.2227 23.3141 14.2227 23.1637H11.2227C11.2227 25.3308 13.0618 26.7695 15.0634 26.7695V23.7695ZM16.78 23.7695H15.0634V26.7695H16.78V23.7695ZM17.6208 23.1637C17.6208 23.3141 17.5637 23.4418 17.4446 23.549C17.3193 23.6616 17.0987 23.7695 16.78 23.7695V26.7695C18.7817 26.7695 20.6208 25.3307 20.6208 23.1637H17.6208Z" fill="white" mask="url(#path-7-inside-1_1250_41897)"/>
<mask id="path-9-inside-2_1250_41897" fill="white">
<path d="M0.214844 32.1094C0.214844 32.1874 0.285434 32.1874 0.214844 32.1094V32.1094Z"/>
</mask>
<path d="M0.214844 32.1094C0.214844 32.1874 0.285434 32.1874 0.214844 32.1094V32.1094Z" fill="white"/>
<path d="M0.214844 32.1094L1.32718 31.103L-1.28516 28.2155V32.1094H0.214844ZM-1.28516 32.1094C-1.28516 32.3513 -1.23058 32.6269 -1.08095 32.8916C-1.0085 33.0197 -0.897983 33.1724 -0.732782 33.3116C-0.605132 33.4191 -0.267025 33.6679 0.241315 33.6679C0.527672 33.6679 0.86858 33.5841 1.17111 33.3463C1.46896 33.1122 1.62077 32.8147 1.68929 32.5723C1.81119 32.1411 1.70569 31.791 1.6651 31.6713C1.56619 31.3798 1.40227 31.186 1.32718 31.103L-0.897491 33.1157C-0.937287 33.0717 -1.08356 32.9072 -1.17585 32.6352C-1.21313 32.5253 -1.31808 32.1825 -1.19756 31.7562C-1.12973 31.5163 -0.979093 31.2206 -0.682792 30.9877C-0.381814 30.7511 -0.042836 30.6679 0.241315 30.6679C0.745244 30.6679 1.07784 30.9143 1.19969 31.0169C1.35911 31.1511 1.46355 31.2966 1.53049 31.415C1.66909 31.6601 1.71484 31.9065 1.71484 32.1094H-1.28516Z" fill="white" mask="url(#path-9-inside-2_1250_41897)"/>
<mask id="path-11-inside-3_1250_41897" fill="white">
<path d="M0.144531 32.1094C0.215061 32.1094 0.215061 32.1094 0.285591 32.1874L0.144531 32.1094Z"/>
</mask>
<path d="M0.144531 32.1094C0.215061 32.1094 0.215061 32.1094 0.285591 32.1874L0.144531 32.1094Z" fill="white"/>
<path d="M0.144531 33.6094C0.192827 33.6094 0.111236 33.6114 0.0214873 33.6015C-0.11552 33.5863 -0.307919 33.544 -0.510963 33.4317C-0.682813 33.3367 -0.78993 33.2299 -0.814628 33.2053C-0.838162 33.1818 -0.855677 33.1617 -0.827174 33.1933L1.39836 31.1815C1.39159 31.1741 1.34763 31.1247 1.30206 31.0793C1.25532 31.0328 1.13057 30.9113 0.941085 30.8065C0.720409 30.6845 0.510377 30.6373 0.351329 30.6197C0.283994 30.6122 0.229073 30.6105 0.201123 30.6099C0.174287 30.6093 0.148636 30.6094 0.144531 30.6094V33.6094Z" fill="white" mask="url(#path-11-inside-3_1250_41897)"/>
</mask>
<g mask="url(#mask1_1250_41897)">
<circle cx="35.5117" cy="35.9648" r="35" fill="white"/>
</g>
</svg>
