<svg width="71" height="71" viewBox="0 0 71 71" fill="none" xmlns="http://www.w3.org/2000/svg">
<path fill-rule="evenodd" clip-rule="evenodd" d="M54.4375 15.8828H17.2749C16.4517 15.8828 15.7461 16.2356 15.7461 17.2352V52.2222C15.7461 53.3394 16.3929 54.1626 17.2749 54.1626H54.4375C55.2607 54.1626 55.9664 53.2806 55.9664 52.2222V17.8233C55.9664 16.706 55.3195 15.8828 54.4375 15.8828ZM51.0853 21.5859H20.5673C19.8029 21.5859 19.2148 22.174 19.2148 22.9972V40.9905H26.565V44.2245H29.5639V48.517H42.0886V44.2245H45.0875V40.9905H52.5553V23.056C52.5553 22.2328 51.8497 21.5859 51.0853 21.5859Z" fill="white"/>
<mask id="path-2-inside-1_1250_42641" fill="white">
<path d="M22.7617 24.1133H24.0554V31.8751H22.7617V24.1133Z"/>
</mask>
<path d="M22.7617 24.1133H24.0554V31.8751H22.7617V24.1133Z" fill="white"/>
<path d="M22.7617 24.1133V22.6133H21.2617V24.1133H22.7617ZM24.0554 24.1133H25.5554V22.6133H24.0554V24.1133ZM24.0554 31.8751V33.3751H25.5554V31.8751H24.0554ZM22.7617 31.8751H21.2617V33.3751H22.7617V31.8751ZM22.7617 25.6133H24.0554V22.6133H22.7617V25.6133ZM22.5554 24.1133V31.8751H25.5554V24.1133H22.5554ZM24.0554 30.3751H22.7617V33.3751H24.0554V30.3751ZM24.2617 31.8751V24.1133H21.2617V31.8751H24.2617Z" fill="white" mask="url(#path-2-inside-1_1250_42641)"/>
<mask id="path-4-inside-2_1250_42641" fill="white">
<path d="M47.6328 24.1133H48.9264V31.8751H47.6328V24.1133Z"/>
</mask>
<path d="M47.6328 24.1133H48.9264V31.8751H47.6328V24.1133Z" fill="white"/>
<path d="M47.6328 24.1133V22.6133H46.1328V24.1133H47.6328ZM48.9264 24.1133H50.4264V22.6133H48.9264V24.1133ZM48.9264 31.8751V33.3751H50.4264V31.8751H48.9264ZM47.6328 31.8751H46.1328V33.3751H47.6328V31.8751ZM47.6328 25.6133H48.9264V22.6133H47.6328V25.6133ZM47.4264 24.1133V31.8751H50.4264V24.1133H47.4264ZM48.9264 30.3751H47.6328V33.3751H48.9264V30.3751ZM49.1328 31.8751V24.1133H46.1328V31.8751H49.1328Z" fill="white" mask="url(#path-4-inside-2_1250_42641)"/>
<mask id="path-6-inside-3_1250_42641" fill="white">
<path d="M40.5195 24.1133H41.8132V31.8751H40.5195V24.1133Z"/>
</mask>
<path d="M40.5195 24.1133H41.8132V31.8751H40.5195V24.1133Z" fill="white"/>
<path d="M40.5195 24.1133V22.6133H39.0195V24.1133H40.5195ZM41.8132 24.1133H43.3132V22.6133H41.8132V24.1133ZM41.8132 31.8751V33.3751H43.3132V31.8751H41.8132ZM40.5195 31.8751H39.0195V33.3751H40.5195V31.8751ZM40.5195 25.6133H41.8132V22.6133H40.5195V25.6133ZM40.3132 24.1133V31.8751H43.3132V24.1133H40.3132ZM41.8132 30.3751H40.5195V33.3751H41.8132V30.3751ZM42.0195 31.8751V24.1133H39.0195V31.8751H42.0195Z" fill="white" mask="url(#path-6-inside-3_1250_42641)"/>
<mask id="path-8-inside-4_1250_42641" fill="white">
<path d="M36.9336 24.1133H38.2272V31.8751H36.9336V24.1133Z"/>
</mask>
<path d="M36.9336 24.1133H38.2272V31.8751H36.9336V24.1133Z" fill="white"/>
<path d="M36.9336 24.1133V22.6133H35.4336V24.1133H36.9336ZM38.2272 24.1133H39.7272V22.6133H38.2272V24.1133ZM38.2272 31.8751V33.3751H39.7272V31.8751H38.2272ZM36.9336 31.8751H35.4336V33.3751H36.9336V31.8751ZM36.9336 25.6133H38.2272V22.6133H36.9336V25.6133ZM36.7272 24.1133V31.8751H39.7272V24.1133H36.7272ZM38.2272 30.3751H36.9336V33.3751H38.2272V30.3751ZM38.4336 31.8751V24.1133H35.4336V31.8751H38.4336Z" fill="white" mask="url(#path-8-inside-4_1250_42641)"/>
<mask id="path-10-inside-5_1250_42641" fill="white">
<path d="M33.4062 24.1133H34.6999V31.8751H33.4062V24.1133Z"/>
</mask>
<path d="M33.4062 24.1133H34.6999V31.8751H33.4062V24.1133Z" fill="white"/>
<path d="M33.4062 24.1133V22.6133H31.9062V24.1133H33.4062ZM34.6999 24.1133H36.1999V22.6133H34.6999V24.1133ZM34.6999 31.8751V33.3751H36.1999V31.8751H34.6999ZM33.4062 31.8751H31.9062V33.3751H33.4062V31.8751ZM33.4062 25.6133H34.6999V22.6133H33.4062V25.6133ZM33.1999 24.1133V31.8751H36.1999V24.1133H33.1999ZM34.6999 30.3751H33.4062V33.3751H34.6999V30.3751ZM34.9062 31.8751V24.1133H31.9062V31.8751H34.9062Z" fill="white" mask="url(#path-10-inside-5_1250_42641)"/>
<mask id="path-12-inside-6_1250_42641" fill="white">
<path d="M29.875 24.1133H31.1686V31.8751H29.875V24.1133Z"/>
</mask>
<path d="M29.875 24.1133H31.1686V31.8751H29.875V24.1133Z" fill="white"/>
<path d="M29.875 24.1133V22.6133H28.375V24.1133H29.875ZM31.1686 24.1133H32.6686V22.6133H31.1686V24.1133ZM31.1686 31.8751V33.3751H32.6686V31.8751H31.1686ZM29.875 31.8751H28.375V33.3751H29.875V31.8751ZM29.875 25.6133H31.1686V22.6133H29.875V25.6133ZM29.6686 24.1133V31.8751H32.6686V24.1133H29.6686ZM31.1686 30.3751H29.875V33.3751H31.1686V30.3751ZM31.375 31.8751V24.1133H28.375V31.8751H31.375Z" fill="white" mask="url(#path-12-inside-6_1250_42641)"/>
<mask id="path-14-inside-7_1250_42641" fill="white">
<path d="M26.2891 24.1133H27.5827V31.8751H26.2891V24.1133Z"/>
</mask>
<path d="M26.2891 24.1133H27.5827V31.8751H26.2891V24.1133Z" fill="white"/>
<path d="M26.2891 24.1133V22.6133H24.7891V24.1133H26.2891ZM27.5827 24.1133H29.0827V22.6133H27.5827V24.1133ZM27.5827 31.8751V33.3751H29.0827V31.8751H27.5827ZM26.2891 31.8751H24.7891V33.3751H26.2891V31.8751ZM26.2891 25.6133H27.5827V22.6133H26.2891V25.6133ZM26.0827 24.1133V31.8751H29.0827V24.1133H26.0827ZM27.5827 30.3751H26.2891V33.3751H27.5827V30.3751ZM27.7891 31.8751V24.1133H24.7891V31.8751H27.7891Z" fill="white" mask="url(#path-14-inside-7_1250_42641)"/>
<mask id="path-16-inside-8_1250_42641" fill="white">
<path d="M44.1055 24.1133H45.3991V31.8751H44.1055V24.1133Z"/>
</mask>
<path d="M44.1055 24.1133H45.3991V31.8751H44.1055V24.1133Z" fill="white"/>
<path d="M44.1055 24.1133V22.6133H42.6055V24.1133H44.1055ZM45.3991 24.1133H46.8991V22.6133H45.3991V24.1133ZM45.3991 31.8751V33.3751H46.8991V31.8751H45.3991ZM44.1055 31.8751H42.6055V33.3751H44.1055V31.8751ZM44.1055 25.6133H45.3991V22.6133H44.1055V25.6133ZM43.8991 24.1133V31.8751H46.8991V24.1133H43.8991ZM45.3991 30.3751H44.1055V33.3751H45.3991V30.3751ZM45.6055 31.8751V24.1133H42.6055V31.8751H45.6055Z" fill="white" mask="url(#path-16-inside-8_1250_42641)"/>
<circle cx="35.8555" cy="35.0234" r="34.25" stroke="white" stroke-width="1.5"/>
</svg>
