<svg width="71" height="71" viewBox="0 0 71 71" fill="none" xmlns="http://www.w3.org/2000/svg">
<path fill-rule="evenodd" clip-rule="evenodd" d="M51.4472 29.2892H52.4763C53.8688 29.2892 54.9585 30.379 54.8979 31.7108V44.4242C54.8979 45.7561 53.8082 46.8458 52.4763 46.8458H51.4472V55.5636C51.4472 56.4717 50.7207 57.2587 49.752 57.2587H21.5404C20.6323 57.2587 19.8453 56.5322 19.8453 55.5636V46.8458H18.8161C17.4843 46.8458 16.3945 45.7561 16.3945 44.4242V31.7108C16.3945 30.379 17.4843 29.2892 18.8161 29.2892H19.8453V15.4256C19.8453 14.5175 20.5718 13.7305 21.5404 13.7305H42.1845H42.3662H42.4267C42.457 13.7305 42.4872 13.7456 42.5175 13.7607C42.5478 13.7759 42.5781 13.791 42.6083 13.791C42.6083 13.8515 42.6689 13.8515 42.6689 13.8515C42.7294 13.8515 42.7899 13.9121 42.8505 13.9726L51.2655 23.5985C51.3866 23.7196 51.4472 23.9617 51.4472 24.1433V24.2644V29.2892ZM41.337 15.365H21.5404V29.2287H49.752V24.9304H42.1845C41.7002 24.9304 41.337 24.5671 41.337 24.0828V15.365ZM21.5404 55.0793H49.752V46.8458H21.5404V55.0793ZM44.9814 37.231V38.8976H46.7841V42.0949C46.495 42.214 46.0358 42.316 45.5256 42.316C43.2977 42.316 42.0903 40.6153 42.0903 37.9453C42.0903 35.4793 43.3318 33.5745 45.6447 33.5745C46.7331 33.5745 47.6855 33.8807 48.3828 34.3058L48.5018 32.35C48.0426 32.146 46.9712 31.8398 45.6107 31.8398C41.8011 31.8398 39.7773 34.4249 39.7773 37.9453C39.7773 41.4657 41.8011 44.0507 45.6107 44.0507C47.1583 44.0507 48.2127 43.7616 48.8249 43.4385V37.231H44.9814ZM30.9988 37.9453C30.9988 41.2106 32.1042 42.384 33.4818 42.384C34.8593 42.384 35.9648 41.2106 35.9648 37.9453C35.9648 34.68 34.8593 33.5065 33.4818 33.5065C32.1042 33.5065 30.9988 34.68 30.9988 37.9453ZM28.7539 37.9453C28.7539 33.6766 31.0158 31.8398 33.4818 31.8398C35.9478 31.8398 38.2097 33.6766 38.2097 37.9453C38.2097 42.214 35.9478 44.0507 33.4818 44.0507C31.0158 44.0507 28.7539 42.214 28.7539 37.9453ZM21.5703 32.0078V43.8785H27.6587V42.1438H23.7472V32.0078H21.5703Z" fill="white"/>
<circle cx="35.6523" cy="35.4961" r="34.25" stroke="white" stroke-width="1.5"/>
</svg>
