<svg width="71" height="71" viewBox="0 0 71 71" fill="none" xmlns="http://www.w3.org/2000/svg">
<circle cx="35.4297" cy="35.7461" r="34.25" stroke="white" stroke-width="1.5"/>
<path d="M41.538 32.0972L43.3668 30.2653C43.5603 30.0707 43.581 29.7375 43.4113 29.5232L42.309 28.1219C42.6516 27.5299 42.9155 26.8902 43.0966 26.2134L44.8716 26.0012C45.1438 25.9691 45.3653 25.7207 45.3653 25.4454V22.86C45.3653 22.5868 45.1428 22.3394 44.8696 22.3063M41.538 32.0972L41.1414 31.7007L41.2599 31.5496L41.2578 31.548M41.538 32.0972L41.1411 31.701L40.7969 32.1397M41.538 32.0972C41.3454 32.2897 41.0122 32.3073 40.7969 32.1397M41.2578 31.548L41.1281 31.4462M41.2578 31.548L41.1399 31.6992L41.0076 31.5669M41.2578 31.548C41.2078 31.509 41.1616 31.5032 41.1341 31.5047C41.1065 31.5062 41.0567 31.5178 41.0076 31.5669M41.1281 31.4462L42.7174 29.8542M41.1281 31.4462L39.8565 30.4484L39.4577 30.1355L39.0187 30.3888C38.4827 30.698 37.9041 30.9395 37.2929 31.1024L36.802 31.2332L36.7414 31.7377L36.5482 33.3458M41.1281 31.4462L41.0076 31.5669M42.7174 29.8542L42.8218 29.9869C42.7809 29.9343 42.7749 29.8848 42.7766 29.8563C42.7784 29.8275 42.7903 29.7814 42.835 29.7364M42.7174 29.8542L42.835 29.7364M42.7174 29.8542L41.7195 28.5855L41.4053 28.1861L41.6599 27.7462C41.9686 27.2127 42.2076 26.6344 42.3721 26.0195L42.5034 25.5289L43.0076 25.4687L44.6153 25.2765M42.835 29.7364L42.9698 29.8705L42.9712 29.8719L43.3666 30.2652L42.972 29.8712L42.9706 29.8698L42.836 29.7354L42.835 29.7364ZM44.6153 25.2765V25.4454C44.6153 25.3812 44.64 25.3388 44.6601 25.3161C44.68 25.2937 44.719 25.2643 44.7826 25.2565L44.6153 25.2765ZM44.6153 25.2765V23.0312M44.6153 23.0312L44.7793 23.0509M44.6153 23.0312V22.86C44.6153 22.9279 44.6417 22.9718 44.6615 22.9938C44.6812 23.0158 44.7186 23.0435 44.7793 23.0509M44.6153 23.0312L43.0075 22.8388L42.5041 22.7786L42.3724 22.2891C42.2072 21.6751 41.9662 21.0968 41.657 20.5599L41.4042 20.121L41.717 19.7225L42.7138 18.4529M44.7793 23.0509L44.7804 23.051L44.8033 22.86L44.8696 22.3063M44.7793 23.0509L44.8024 22.86L44.8696 22.3063M44.8696 22.3063L43.0966 22.0942C42.9145 21.4173 42.6485 20.7787 42.3069 20.1856L43.4071 18.7843M42.7138 18.4529L42.8321 18.5713M42.7138 18.4529L41.123 16.8613L39.8531 17.8605L39.4539 18.1747L39.0141 17.9205C38.4798 17.6118 37.9025 17.3712 37.2908 17.2082L36.7993 17.0773L36.7392 16.5721L36.548 14.9648H34.2994L34.1063 16.572L34.0456 17.0764L33.5547 17.2072C32.9435 17.3701 32.365 17.6116 31.8305 17.9205L31.3912 18.1743L30.9921 17.8611L29.72 16.8628L28.1302 18.4544L29.1281 19.723L29.4423 20.1225L29.1877 20.5623C28.879 21.0959 28.64 21.6742 28.4755 22.2891L28.3442 22.7795L27.8401 22.8399L26.2344 23.032V25.2798M42.7138 18.4529L42.8171 18.3213M42.8321 18.5713C42.8327 18.5719 42.8332 18.5724 42.8337 18.5729L42.8321 18.5713ZM42.8321 18.5713C42.7866 18.5253 42.7746 18.4779 42.7728 18.4488C42.7711 18.4195 42.7776 18.3716 42.8171 18.3213M42.8171 18.3213L42.9657 18.4379L42.967 18.4389L43.4071 18.7843M42.8171 18.3213L42.8172 18.3211L42.9658 18.4378L42.9671 18.4388L43.4071 18.7843M43.4071 18.7843C43.5769 18.568 43.5572 18.2347 43.3626 18.0412L41.5349 16.2124C41.3413 16.0188 41.008 15.9991 40.7928 16.1668M39.3935 31.0384C38.8015 31.38 38.1618 31.647 37.486 31.8271L37.2728 33.6021C37.2407 33.8733 36.9903 34.0958 36.717 34.0958H34.1306C33.8574 34.0958 33.6069 33.8733 33.5748 33.6021L33.3616 31.8281C32.6858 31.6481 32.0462 31.381 31.4552 31.0395L30.0507 32.1448M39.3935 31.0384L36.528 33.514L36.5282 33.5127M39.3935 31.0384L40.7969 32.1397M39.3935 31.0384L36.5282 33.5127M30.0507 32.1448L29.7068 31.7054L29.7051 31.7033L29.5885 31.5542M30.0507 32.1448L29.7057 31.7065L29.704 31.7043L29.5869 31.5555L29.5885 31.5542M30.0507 32.1448C29.8365 32.3125 29.5022 32.2928 29.3097 32.0983L27.4829 30.2695C27.2894 30.0759 27.2697 29.7427 27.4384 29.5253M29.5885 31.5542C29.6414 31.5128 29.6904 31.5071 29.7181 31.5088C29.7457 31.5105 29.7933 31.5221 29.8403 31.5683C29.8405 31.5685 29.8408 31.5687 29.841 31.569L29.8403 31.5682L29.7216 31.4494M29.5885 31.5542L29.7216 31.4494M29.7216 31.4494L30.9913 30.4501L31.3906 30.1359L31.8305 30.3901C32.365 30.6991 32.9435 30.9405 33.5547 31.1034L34.0456 31.2342L34.1063 31.7386L34.2994 33.3458M29.7216 31.4494L28.1313 29.8574M34.2994 33.3458H34.1306C34.1976 33.3458 34.2396 33.3715 34.2604 33.3899C34.2809 33.4082 34.3113 33.4466 34.3195 33.5126L34.2994 33.3458ZM34.2994 33.3458H36.5482M36.5482 33.3458L36.5282 33.5127M36.5482 33.3458H36.717C36.65 33.3458 36.608 33.3715 36.5872 33.3899C36.5667 33.4082 36.5363 33.4466 36.5282 33.5127M41.0076 31.5669L41.0072 31.5674L41.1397 31.6996L40.7969 32.1397M28.1313 29.8574L28.0309 29.9852M28.1313 29.8574L28.0136 29.7394M28.1313 29.8574L29.1293 28.5873L29.4428 28.1885L29.1893 27.7492C28.8807 27.2144 28.6407 26.6354 28.4763 26.0238L28.3448 25.5347L27.8419 25.474L26.2344 25.2798M27.4384 29.5253L27.88 29.8723L27.8803 29.8725L28.0281 29.9887L28.0309 29.9852M27.4384 29.5253L27.8824 29.87L27.8827 29.8701L28.0309 29.9852M27.4384 29.5253L28.5396 28.1239C28.1981 27.5319 27.9331 26.8923 27.752 26.2185L25.9781 26.0043C25.7069 25.9733 25.4844 25.7238 25.4844 25.4496V22.8642C25.4844 22.5889 25.7069 22.3394 25.9781 22.3074L27.751 22.0952L28.0136 29.7394M28.0309 29.9852C28.0691 29.936 28.0752 29.8898 28.0735 29.8617C28.0718 29.8338 28.0601 29.7861 28.0136 29.7394M28.0136 29.7394L34.1306 14.2148H36.717C36.9903 14.2148 37.2407 14.4374 37.2728 14.7085L37.4839 16.4835C38.1598 16.6636 38.7984 16.9296 39.3893 17.2711L40.7928 16.1668M28.0136 29.7394C28.0135 29.7393 28.0134 29.7392 28.0133 29.7391L28.0136 29.7394ZM26.2344 25.2798L26.068 25.2597L26.068 25.2597L26.0634 25.2592C26.0649 25.2594 26.0665 25.2595 26.068 25.2597C26.1323 25.2683 26.1708 25.2982 26.1896 25.3193C26.209 25.3411 26.2344 25.3835 26.2344 25.4496V25.2798ZM40.7928 16.1668L41.1395 16.6075L41.534 16.2132L41.1396 16.6076L41.2566 16.7562L41.2536 16.7585L41.1376 16.6096L41.0045 16.7427L41.0044 16.7425L41.1375 16.6095L40.7928 16.1668ZM35.4254 29.8717C32.2676 29.8717 29.7064 27.3129 29.7064 24.1527C29.7064 20.9938 32.2673 18.4327 35.4254 18.4327C38.5844 18.4327 41.1442 20.9927 41.1443 24.1524L35.4254 29.8717ZM35.4254 29.8717C38.5839 29.8717 41.1453 27.3132 41.1443 24.1527L35.4254 29.8717Z" fill="white" stroke="white" stroke-width="1.5"/>
<path fill-rule="evenodd" clip-rule="evenodd" d="M17.9414 29.3438H34.1163V36.3795H32.6656V30.7944H19.3921V36.3795H17.9414V29.3438Z" fill="white"/>
<path fill-rule="evenodd" clip-rule="evenodd" d="M36.7305 29.2734H52.9053V36.4542H51.4547V30.7241H38.1811V36.4542H36.7305V29.2734Z" fill="white"/>
<path fill-rule="evenodd" clip-rule="evenodd" d="M29.9805 36.0195H41.0055V57.2717H29.9805V36.0195ZM31.4311 37.4702V55.8211H39.5548V37.4702H35.493H31.4311Z" fill="white"/>
<path fill-rule="evenodd" clip-rule="evenodd" d="M13.1055 36.0195H24.1305V57.2717H13.1055V36.0195ZM14.5561 37.4702V55.8211H22.6798V37.4702H18.618H14.5561Z" fill="white"/>
<path fill-rule="evenodd" clip-rule="evenodd" d="M46.7188 36.0195H57.7438V57.2717H46.7188V36.0195ZM48.1694 37.4702V55.8211H56.2931V37.4702H52.2313H48.1694Z" fill="white"/>
</svg>
