<svg width="71" height="71" viewBox="0 0 71 71" fill="none" xmlns="http://www.w3.org/2000/svg">
<circle cx="35.8359" cy="35.4375" r="34.25" stroke="white" stroke-width="1.5"/>
<path d="M43.9 35.8C43.9 35.5 43.9 35.3 43.9 35C43.9 34.9 43.9 34.9 43.9 34.8V34.7C43.9 34.5 44 34.3 44.2 34.2L45.6 33.5C45.5 32.9 45.4 32.4 45.2 31.8H43.7C43.5 31.8 43.3 31.7 43.3 31.5C43.1 31.2 43 30.9 42.8 30.6C42.7 30.4 42.7 30.2 42.8 30.1L43.6 28.8C43.2 28.4 42.8 27.9 42.4 27.6L41.1 28.4C40.9 28.5 40.7 28.5 40.6 28.4C40.3 28.2 40 28 39.7 27.9C39.5 27.8 39.4 27.6 39.4 27.4V25.9C38.9 25.7 38.3 25.5 37.7 25.4L36.9 26.7C36.8 26.9 36.6 27 36.4 26.9C36.1 26.9 35.9 26.9 35.6 26.9C35.5 26.9 35.5 26.9 35.4 26.9H35.3C35.1 26.9 34.9 26.8 34.8 26.6L34.1 25.3C33.5 25.4 33 25.5 32.4 25.7V27.2C32.4 27.4 32.3 27.6 32.1 27.7C31.8 27.9 31.5 28 31.2 28.2C31 28.3 30.8 28.3 30.7 28.2L29.4 27.4C29 27.8 28.5 28.2 28.2 28.6L29 29.9C29.1 30.1 29.1 30.3 29 30.4C28.8 30.7 28.6 31 28.5 31.3C28.4 31.5 28.2 31.6 28 31.6H26.5C26.3 32.1 26.1 32.7 26 33.3L27.3 34.1C27.5 34.2 27.6 34.4 27.5 34.6C27.5 34.9 27.5 35.1 27.5 35.4C27.5 35.5 27.5 35.6 27.5 35.6C27.5 35.8 27.4 36 27.2 36.1L25.8 36.8C25.9 37.4 26 37.9 26.2 38.5H27.7C27.9 38.5 28.1 38.6 28.1 38.8C28.3 39.1 28.4 39.4 28.6 39.7C28.7 39.9 28.7 40.1 28.6 40.2L27.8 41.5C28.2 41.9 28.6 42.4 29 42.7L30.3 41.9C30.5 41.8 30.7 41.8 30.8 41.9C31.1 42.1 31.4 42.3 31.7 42.4C31.9 42.5 32 42.7 32 42.9V44.4C32.5 44.6 33.1 44.8 33.7 44.9L34.5 43.6C34.6 43.4 34.8 43.3 35 43.4C35.3 43.4 35.5 43.4 35.8 43.4C35.9 43.4 35.9 43.4 36 43.4H36.1C36.3 43.4 36.5 43.5 36.6 43.7L37.3 45.1C37.9 45 38.4 44.9 39 44.7V43.2C39 43 39.1 42.8 39.3 42.8C39.6 42.6 39.9 42.5 40.2 42.3C40.4 42.2 40.6 42.2 40.7 42.3L42 43.1C42.4 42.7 42.9 42.3 43.2 41.9L42.5 40.3C42.4 40.1 42.4 39.9 42.5 39.8C42.7 39.5 42.9 39.2 43 38.9C43.1 38.7 43.3 38.6 43.5 38.6H45C45.2 38.1 45.4 37.5 45.5 36.9L44.2 36.3C44 36.2 43.9 36 43.9 35.8ZM39.2 38.5C38.3 39.4 37.2 39.9 35.9 40H35.8C34.5 40 33.3 39.5 32.4 38.7C31.5 37.8 30.9 36.6 30.9 35.3C30.9 34 31.4 32.8 32.2 31.9C33.1 31 34.3 30.5 35.6 30.4C38.3 30.4 40.5 32.5 40.5 35.1C40.5 36.3 40.1 37.6 39.2 38.5Z" fill="white"/>
<path d="M56.6 19.1H14.8C14.4 19.1 14 19.4 14 19.9C14 20.4 14.3 20.7 14.8 20.7H56.7C57.1 20.7 57.5 20.4 57.5 19.9C57.5 19.4 57 19.1 56.6 19.1Z" fill="white"/>
<path d="M56.6 36H42.3C41.9 36 41.5 35.7 41.5 35.2C41.5 34.7 41.8 34.4 42.3 34.4H56.6C57 34.4 57.4 34.7 57.4 35.2C57.4 35.7 57 36 56.6 36Z" fill="white"/>
<path d="M29.5 36H14.8C14.4 36 14 35.7 14 35.2C14 34.7 14.3 34.4 14.8 34.4H29.5C29.9 34.4 30.3 34.7 30.3 35.2C30.3 35.7 29.9 36 29.5 36Z" fill="white"/>
<path d="M56.6 50.3H14.8C14.4 50.3 14 50.6 14 51.1C14 51.6 14.3 51.9 14.8 51.9H56.7C57.1 51.9 57.5 51.6 57.5 51.1C57.5 50.6 57 50.3 56.6 50.3Z" fill="white"/>
<path d="M20.8 23C22.4569 23 23.8 21.6569 23.8 20C23.8 18.3431 22.4569 17 20.8 17C19.1431 17 17.8 18.3431 17.8 20C17.8 21.6569 19.1431 23 20.8 23Z" fill="white"/>
<path d="M50.7 53.9C52.3569 53.9 53.7 52.5568 53.7 50.9C53.7 49.2431 52.3569 47.9 50.7 47.9C49.0431 47.9 47.7 49.2431 47.7 50.9C47.7 52.5568 49.0431 53.9 50.7 53.9Z" fill="white"/>
</svg>
