<svg width="71" height="71" viewBox="0 0 71 71" fill="none" xmlns="http://www.w3.org/2000/svg">
<circle cx="35.7539" cy="35.0391" r="34.25" stroke="white" stroke-width="1.5"/>
<path d="M57.8134 23.8937L57.945 24.3843L58.4495 24.4441L60.6064 24.6997V27.8332L58.4403 28.0916L57.9366 28.1517L57.8049 28.6416C57.5947 29.4236 57.2936 30.1599 56.9011 30.8336L56.6445 31.2738L56.9593 31.6745L58.304 33.3864L56.0928 35.6009L54.3781 34.254L53.9786 33.9401L53.539 34.1947C52.8598 34.588 52.125 34.8931 51.3466 35.0987L50.8538 35.229L50.7935 35.7351L50.5357 37.8977H47.4071L47.1476 35.7345L47.0869 35.2291L46.5949 35.0988C45.8176 34.8931 45.081 34.5878 44.4022 34.1947L43.962 33.9398L43.5623 34.2545L41.8511 35.602L39.6399 33.3891L40.9865 31.6785L41.3002 31.2801L41.0473 30.8406C40.6548 30.1585 40.3487 29.4215 40.1375 28.6433L40.0053 28.1563L39.5043 28.0952L37.3398 27.8316V24.7041L39.5043 24.4457L40.0072 24.3857L40.1394 23.8967C40.3512 23.1132 40.6539 22.3762 41.0473 21.6997L41.3033 21.2594L40.9884 20.8591L39.6416 19.1466L41.8544 16.9321L43.5682 18.2782L43.9672 18.5917L44.4067 18.3379C45.088 17.9442 45.823 17.6391 46.6014 17.4334L47.0941 17.3033L47.1545 16.7972L47.4129 14.6328H50.5403L50.8022 16.7984L50.8632 17.3027L51.3541 17.4332C52.1292 17.6392 52.8659 17.9431 53.5441 18.3358L53.984 18.5905L54.3836 18.2762L56.0961 16.9294L58.3115 19.1432L56.9649 20.8537L56.6501 21.2536L56.9055 21.6939C57.2994 22.3731 57.6036 23.1117 57.8134 23.8937ZM41.8874 35.6382L41.8863 35.6372C41.8867 35.6375 41.887 35.6379 41.8874 35.6383L41.8874 35.6382ZM39.6081 33.3573C39.6082 33.3574 39.6083 33.3574 39.6083 33.3575L39.6081 33.3573ZM42.0341 26.2678C42.0341 30.1021 45.1405 33.2103 48.9783 33.2103C52.8111 33.2103 55.9191 30.1001 55.9191 26.2678C55.9191 22.4317 52.809 19.3253 48.9783 19.3253C45.1444 19.3253 42.0341 22.4314 42.0341 26.2678Z" fill="white" stroke="white" stroke-width="1.5"/>
<path d="M39.7349 38.19L39.8251 37.4455L39.824 37.4453L39.7349 38.19ZM37.0297 37.8663L36.3054 38.0612L36.4372 38.5507L36.9406 38.611L37.0297 37.8663ZM35.8247 34.9542L35.2348 34.4911L34.922 34.8895L35.1748 35.3285L35.8247 34.9542ZM37.5034 32.816L38.0934 33.2791L38.0935 33.279L37.5034 32.816ZM37.4355 31.6821L36.9051 32.2123L36.9066 32.2138L37.4355 31.6821ZM34.6467 28.8916L35.1771 28.3614L35.177 28.3613L34.6467 28.8916ZM33.5144 28.8221L33.0535 28.2304L33.0506 28.2327L33.5144 28.8221ZM31.3729 30.5072L30.9977 31.1565L31.4375 31.4107L31.8367 31.0966L31.3729 30.5072ZM28.4656 29.3054L27.7209 29.394L27.781 29.8991L28.2725 30.0301L28.4656 29.3054ZM28.1435 26.597L27.3987 26.6852L27.3987 26.6856L28.1435 26.597ZM22.5009 26.597L23.2456 26.6865L23.2457 26.6852L22.5009 26.597ZM22.1756 29.3038L22.3687 30.0285L22.8596 29.8977L22.9203 29.3933L22.1756 29.3038ZM19.2667 30.5072L18.8037 31.0972L19.2028 31.4104L19.642 31.1565L19.2667 30.5072ZM17.1237 28.8253L16.6597 29.4145L16.6607 29.4153L17.1237 28.8253ZM15.993 28.8916L16.5236 29.4217L16.5248 29.4205L15.993 28.8916ZM13.2025 31.6853L13.7329 32.2156L13.7332 32.2153L13.2025 31.6853ZM13.1346 32.8175L12.5443 33.2802L12.5451 33.2812L13.1346 32.8175ZM14.8165 34.9558L15.4656 35.3314L15.7202 34.8916L15.406 34.4921L14.8165 34.9558ZM13.6147 37.8679L13.7038 38.6125L14.208 38.5522L14.3392 38.0617L13.6147 37.8679ZM10.9095 38.1916L10.9977 38.9364L10.9987 38.9363L10.9095 38.1916ZM10.9095 43.8325L10.9995 43.0879L10.9949 43.0874L10.9095 43.8325ZM13.6163 44.1594L14.3406 43.9647L14.2091 43.4756L13.7062 43.4148L13.6163 44.1594ZM14.8181 47.0668L15.4078 47.5302L15.7212 47.1313L15.4677 46.692L14.8181 47.0668ZM13.1378 49.205L12.5481 48.7416L12.5453 48.7451L13.1378 49.205ZM13.2057 50.3405L13.7363 49.8104L13.736 49.8101L13.2057 50.3405ZM15.993 53.1309L16.5262 52.6034L16.5236 52.6009L15.993 53.1309ZM17.1237 53.202L17.586 53.7926L17.5876 53.7914L17.1237 53.202ZM19.2667 51.5154L19.642 50.866L19.2021 50.6118L18.8029 50.926L19.2667 51.5154ZM22.1756 52.7188L22.9203 52.6293L22.8596 52.1249L22.3687 51.994L22.1756 52.7188ZM22.5009 55.4255L23.2457 55.3374L23.2456 55.336L22.5009 55.4255ZM28.1435 55.4255L27.3988 55.3361L27.3987 55.3374L28.1435 55.4255ZM28.4688 52.7172L28.2757 51.9925L27.7847 52.1233L27.7241 52.6277L28.4688 52.7172ZM31.3793 51.5138L31.8422 50.9238L31.4435 50.6109L31.0045 50.8642L31.3793 51.5138ZM33.5207 53.1941L33.0577 53.7841L33.0598 53.7858L33.5207 53.1941ZM34.6514 53.1294L35.1817 53.6597L35.1822 53.6592L34.6514 53.1294ZM37.4419 50.3342L37.9726 50.864L37.9736 50.8631L37.4419 50.3342ZM37.5098 49.2019L36.9203 49.6655L36.9219 49.6676L37.5098 49.2019ZM35.8279 47.0636L35.1788 46.688L34.9242 47.1278L35.2384 47.5273L35.8279 47.0636ZM37.0297 44.1515L36.9407 43.4068L36.4364 43.4671L36.3052 43.9577L37.0297 44.1515ZM39.738 43.8278L39.6502 43.083L39.649 43.0831L39.738 43.8278ZM32.9064 41.0073H32.1564V41.0076L32.9064 41.0073ZM39.824 37.4453L37.1188 37.1216L36.9406 38.611L39.6458 38.9347L39.824 37.4453ZM37.7539 37.6714C37.459 36.5756 37.0281 35.5409 36.4747 34.5799L35.1748 35.3285C35.6636 36.1773 36.0445 37.0914 36.3054 38.0612L37.7539 37.6714ZM36.4147 35.4174L38.0934 33.2791L36.9135 32.3528L35.2348 34.4911L36.4147 35.4174ZM38.0935 33.279C38.5857 32.6517 38.5326 31.7155 37.9645 31.1503L36.9066 32.2138C36.911 32.2182 36.9268 32.2393 36.9293 32.2806C36.9317 32.322 36.9186 32.3464 36.9134 32.353L38.0935 33.279ZM37.966 31.1519L35.1771 28.3614L34.1162 29.4218L36.9051 32.2123L37.966 31.1519ZM35.177 28.3613C34.6129 27.7972 33.6792 27.7431 33.0535 28.2304L33.9752 29.4138C33.9803 29.4099 34.0046 29.3962 34.0475 29.3988C34.0904 29.4014 34.1121 29.4178 34.1163 29.422L35.177 28.3613ZM33.0506 28.2327L30.9092 29.9178L31.8367 31.0966L33.9781 29.4115L33.0506 28.2327ZM31.7482 29.8578C30.7897 29.3039 29.7541 28.8726 28.6587 28.5807L28.2725 30.0301C29.2395 30.2878 30.1527 30.6682 30.9977 31.1565L31.7482 29.8578ZM29.2104 29.2168L28.8882 26.5084L27.3987 26.6856L27.7209 29.394L29.2104 29.2168ZM28.8883 26.5089C28.7946 25.7174 28.0922 25.0938 27.2954 25.0938V26.5938C27.3002 26.5938 27.3271 26.5973 27.3593 26.626C27.3916 26.6546 27.3981 26.6807 27.3987 26.6852L28.8883 26.5089ZM27.2954 25.0938H23.349V26.5938H27.2954V25.0938ZM23.349 25.0938C22.5522 25.0938 21.8498 25.7174 21.7561 26.5089L23.2457 26.6852C23.2463 26.6807 23.2528 26.6546 23.2851 26.6259C23.3173 26.5973 23.3442 26.5938 23.349 26.5938V25.0938ZM21.7563 26.5075L21.431 29.2143L22.9203 29.3933L23.2456 26.6865L21.7563 26.5075ZM21.9825 28.5791C20.8867 28.8711 19.8496 29.3041 18.8914 29.8578L19.642 31.1565C20.4873 30.668 21.4021 30.2861 22.3687 30.0285L21.9825 28.5791ZM19.7298 29.9172L17.5868 28.2353L16.6607 29.4153L18.8037 31.0972L19.7298 29.9172ZM17.5877 28.2361C16.9647 27.7455 16.0262 27.7948 15.4613 28.3627L16.5248 29.4205C16.5268 29.4185 16.5466 29.4024 16.5892 29.3999C16.6319 29.3975 16.6556 29.4113 16.6597 29.4145L17.5877 28.2361ZM15.4624 28.3616L12.6719 31.1552L13.7332 32.2153L16.5236 29.4217L15.4624 28.3616ZM12.6722 31.1549C12.108 31.7191 12.0536 32.6539 12.5443 33.2802L13.725 32.3549C13.721 32.3498 13.7075 32.326 13.71 32.2836C13.7125 32.2413 13.7287 32.2198 13.7329 32.2156L12.6722 31.1549ZM12.5451 33.2812L14.227 35.4195L15.406 34.4921L13.7241 32.3539L12.5451 33.2812ZM14.1674 34.5802C13.6108 35.5419 13.1832 36.5792 12.8902 37.674L14.3392 38.0617C14.599 37.091 14.9767 36.1763 15.4656 35.3314L14.1674 34.5802ZM13.5256 37.1232L10.8204 37.4469L10.9987 38.9363L13.7038 38.6125L13.5256 37.1232ZM10.8214 37.4468C10.0299 37.5404 9.40625 38.2413 9.40625 39.0412H10.9062C10.9062 39.0337 10.9106 39.0067 10.9385 38.9753C10.9665 38.9438 10.9924 38.937 10.9977 38.9364L10.8214 37.4468ZM9.40625 39.0412V42.9861H10.9062V39.0412H9.40625ZM9.40625 42.9861C9.40625 43.7847 10.0307 44.4868 10.8242 44.5777L10.9949 43.0874C10.9907 43.0869 10.9656 43.0809 10.9378 43.0497C10.9101 43.0186 10.9062 42.9922 10.9062 42.9861H9.40625ZM10.8196 44.5771L13.5264 44.904L13.7062 43.4148L10.9995 43.088L10.8196 44.5771ZM12.892 44.3541C13.1851 45.4445 13.6143 46.481 14.1684 47.4416L15.4677 46.692C14.9796 45.8459 14.6002 44.9305 14.3406 43.9647L12.892 44.3541ZM14.2284 46.6034L12.5481 48.7416L13.7275 49.6684L15.4078 47.5302L14.2284 46.6034ZM12.5453 48.7451C12.0588 49.372 12.1098 50.3052 12.6754 50.8708L13.736 49.8101C13.7319 49.806 13.7157 49.7846 13.7132 49.7418C13.7106 49.699 13.7241 49.6728 13.7303 49.6649L12.5453 48.7451ZM12.6751 50.8705L15.4624 53.661L16.5236 52.6009L13.7363 49.8104L12.6751 50.8705ZM15.4599 53.6584C16.023 54.2276 16.9612 54.2815 17.586 53.7926L16.6615 52.6114C16.6581 52.614 16.6349 52.6278 16.592 52.6252C16.5494 52.6225 16.529 52.6063 16.5262 52.6034L15.4599 53.6584ZM17.5876 53.7914L19.7306 52.1048L18.8029 50.926L16.6599 52.6126L17.5876 53.7914ZM18.8914 52.1648C19.8496 52.7185 20.8867 53.1515 21.9825 53.4435L22.3687 51.994C21.4021 51.7365 20.4873 51.3546 19.642 50.866L18.8914 52.1648ZM21.431 52.8083L21.7563 55.515L23.2456 55.336L22.9203 52.6293L21.431 52.8083ZM21.7561 55.5137C21.8498 56.3051 22.5522 56.9288 23.349 56.9288V55.4288C23.3442 55.4288 23.3173 55.4253 23.2851 55.3966C23.2528 55.3679 23.2463 55.3418 23.2457 55.3374L21.7561 55.5137ZM23.349 56.9288H27.2954V55.4288H23.349V56.9288ZM27.2954 56.9288C28.0922 56.9288 28.7946 56.3052 28.8883 55.5137L27.3987 55.3374C27.3981 55.3418 27.3916 55.3679 27.3593 55.3966C27.3271 55.4253 27.3002 55.4288 27.2954 55.4288V56.9288ZM28.8881 55.515L29.2134 52.8066L27.7241 52.6277L27.3988 55.3361L28.8881 55.515ZM28.6619 53.4419C29.7577 53.1499 30.7947 52.7169 31.7541 52.1635L31.0045 50.8642C30.1572 51.353 29.2423 51.7349 28.2757 51.9925L28.6619 53.4419ZM30.9163 52.1039L33.0577 53.7841L33.9837 52.6041L31.8422 50.9238L30.9163 52.1039ZM33.0598 53.7858C33.6805 54.2692 34.6147 54.2267 35.1817 53.6597L34.1211 52.599C34.1196 52.6005 34.1002 52.6166 34.0572 52.619C34.014 52.6214 33.9881 52.6075 33.9815 52.6024L33.0598 53.7858ZM35.1822 53.6592L37.9726 50.864L36.9111 49.8043L34.1206 52.5995L35.1822 53.6592ZM37.9736 50.8631C38.533 50.3007 38.5961 49.3653 38.0976 48.7361L36.9219 49.6676C36.9242 49.6705 36.9376 49.692 36.935 49.7339C36.9325 49.7757 36.9162 49.7991 36.9101 49.8052L37.9736 50.8631ZM38.0993 48.7382L36.4174 46.5999L35.2384 47.5273L36.9203 49.6655L38.0993 48.7382ZM36.477 47.4392C37.0336 46.4775 37.4612 45.4402 37.7542 44.3454L36.3052 43.9577C36.0454 44.9284 35.6677 45.8431 35.1788 46.688L36.477 47.4392ZM37.1187 44.8962L39.827 44.5725L39.649 43.0831L36.9407 43.4068L37.1187 44.8962ZM39.8258 44.5726C40.6186 44.4792 41.2413 43.7803 41.2413 42.9798H39.7413C39.7413 42.988 39.7368 43.0143 39.71 43.0445C39.683 43.0749 39.6575 43.0821 39.6502 43.083L39.8258 44.5726ZM41.2413 42.9798V39.0349H39.7413V42.9798H41.2413ZM41.2413 39.0349C41.2413 38.2309 40.6108 37.5407 39.8251 37.4455L39.6446 38.9346C39.6558 38.9359 39.6835 38.9451 39.711 38.9758C39.7385 39.0064 39.7413 39.031 39.7413 39.0349H41.2413ZM25.3246 47.8391C21.5521 47.8391 18.4928 44.7826 18.4928 41.0073H16.9928C16.9928 45.6114 20.7241 49.3391 25.3246 49.3391V47.8391ZM18.4928 41.0073C18.4928 37.2334 21.5524 34.174 25.3246 34.174V32.674C20.7238 32.674 16.9928 36.4052 16.9928 41.0073H18.4928ZM25.3246 34.174C29.0983 34.174 32.1564 37.2318 32.1564 41.0073H33.6564C33.6564 36.4036 29.927 32.674 25.3246 32.674V34.174ZM32.1564 41.0076C32.1578 44.7825 29.0988 47.8391 25.3246 47.8391V49.3391C29.9265 49.3391 33.6581 45.6115 33.6564 41.007L32.1564 41.0076Z" fill="white"/>
</svg>
