<svg width="71" height="71" viewBox="0 0 71 71" fill="none" xmlns="http://www.w3.org/2000/svg">
<circle cx="35.8945" cy="35.7969" r="34" stroke="white" stroke-width="2"/>
<path d="M42.0878 37.2433C42.3177 36.7835 42.4902 36.3236 42.4902 35.8062C42.4902 34.484 41.5704 33.3918 40.3632 33.1044V30.8624C40.3632 30.46 40.0758 30.1726 39.6734 30.1726C39.271 30.1726 38.9836 30.46 38.9836 30.8624V33.1044C38.6961 33.1619 38.4662 33.2768 38.2363 33.4493L33.7524 28.9654C33.5224 28.7355 33.0626 28.7355 32.8326 28.9654C32.6027 29.1954 32.6027 29.6553 32.8326 29.8852L37.3165 34.3691C37.0865 34.8289 36.9141 35.2888 36.9141 35.8062C36.9141 37.1284 37.8339 38.2206 39.041 38.508V46.3835C39.041 46.7859 39.3285 47.0734 39.7309 47.0734C40.1333 47.0734 40.4207 46.7859 40.4207 46.3835V38.508C40.7081 38.4505 40.9381 38.3356 41.168 38.1631L42.0878 39.0829C42.2602 39.2553 42.3752 39.2553 42.5477 39.2553C42.7201 39.2553 42.8926 39.1978 43.0075 39.0829C43.2375 38.8529 43.2375 38.393 43.0075 38.1631L42.0878 37.2433Z" fill="white"/>
<path fill-rule="evenodd" clip-rule="evenodd" d="M42.5959 37.1536L43.3066 37.8642C43.5181 38.0758 43.602 38.3653 43.602 38.6211C43.602 38.8769 43.5181 39.1664 43.3066 39.378C43.095 39.5895 42.8055 39.6735 42.5497 39.6735C42.5452 39.6735 42.5405 39.6735 42.5356 39.6735C42.459 39.6737 42.3316 39.674 42.1991 39.6342C42.0436 39.5876 41.9139 39.499 41.7928 39.378L41.1127 38.6979C41.0265 38.745 40.937 38.7865 40.8427 38.822V46.3817C40.8427 47.016 40.3673 47.4915 39.7329 47.4915C39.0985 47.4915 38.6231 47.016 38.6231 46.3817V38.8194C37.3945 38.3835 36.4961 37.2066 36.4961 35.8043C36.4961 35.3054 36.6321 34.8623 36.8124 34.4551L32.5377 30.1803C32.3261 29.9687 32.2422 29.6793 32.2422 29.4234C32.2422 29.1676 32.3261 28.8781 32.5377 28.6666C32.7492 28.455 33.0387 28.3711 33.2945 28.3711C33.5503 28.3711 33.8398 28.455 34.0514 28.6666L38.2956 32.9107C38.3818 32.8637 38.4713 32.8222 38.5656 32.7867V30.8606C38.5656 30.2262 39.0411 29.7507 39.6754 29.7507C40.3098 29.7507 40.7852 30.2262 40.7852 30.8606V32.7893C42.0138 33.2251 42.9122 34.4021 42.9122 35.8043C42.9122 36.3032 42.7762 36.7464 42.5959 37.1536ZM40.3652 33.1025C41.5724 33.3899 42.4922 34.4822 42.4922 35.8043C42.4922 36.3217 42.3198 36.7816 42.0898 37.2415L43.0096 38.1612C43.2395 38.3912 43.2395 38.8511 43.0096 39.081C42.8946 39.196 42.7222 39.2535 42.5497 39.2535C42.3772 39.2535 42.2623 39.2535 42.0898 39.081L41.17 38.1612C40.9401 38.3337 40.7102 38.4487 40.4227 38.5061V46.3817C40.4227 46.7841 40.1353 47.0715 39.7329 47.0715C39.3305 47.0715 39.0431 46.7841 39.0431 46.3817V38.5061C37.8359 38.2187 36.9161 37.1265 36.9161 35.8043C36.9161 35.287 37.0886 34.8271 37.3185 34.3672L32.8346 29.8833C32.6047 29.6534 32.6047 29.1935 32.8346 28.9636C33.0646 28.7336 33.5245 28.7336 33.7544 28.9636L38.2383 33.4474C38.4682 33.275 38.6982 33.16 38.9856 33.1025V30.8606C38.9856 30.4582 39.273 30.1707 39.6754 30.1707C40.0778 30.1707 40.3652 30.4582 40.3652 30.8606V33.1025Z" fill="white"/>
<path d="M41.4561 51.9055C49.591 51.0458 55.9296 44.1635 55.9296 35.8007C55.9296 26.8563 48.6787 19.6054 39.7343 19.6054C31.3715 19.6054 24.4891 25.9439 23.6294 34.0788C23.5293 35.026 22.7669 35.8007 21.8144 35.8007C20.862 35.8007 20.0819 35.0259 20.1644 34.0771C21.0373 24.0349 29.4657 16.1562 39.7343 16.1562C50.5836 16.1562 59.3787 24.9514 59.3787 35.8007C59.3787 46.0692 51.5 54.4976 41.4579 55.3705C40.509 55.453 39.7343 54.673 39.7343 53.7206C39.7343 52.7681 40.509 52.0056 41.4561 51.9055Z" fill="white"/>
<path d="M29.7757 43.2129H19.9912H19.96C19.3866 43.2129 18.9219 42.7481 18.9219 42.1748C18.9219 41.6015 19.3866 41.1367 19.96 41.1367H29.807C30.3803 41.1367 30.845 41.6015 30.845 42.1748C30.845 42.7481 30.3803 43.2129 29.807 43.2129H29.7757Z" fill="white"/>
<path d="M29.5442 48.4785H17.6548H17.3936C16.8202 48.4785 16.3555 48.0137 16.3555 47.4404C16.3555 46.8671 16.8202 46.4023 17.3936 46.4023H29.8054C30.3788 46.4023 30.8435 46.8671 30.8435 47.4404C30.8435 48.0137 30.3788 48.4785 29.8054 48.4785H29.5442Z" fill="white"/>
<path d="M29.1921 53.3848H14.0671H13.4521C12.8788 53.3848 12.4141 52.92 12.4141 52.3467C12.4141 51.7734 12.8788 51.3086 13.4521 51.3086H29.807C30.3804 51.3086 30.8451 51.7734 30.8451 52.3467C30.8451 52.92 30.3804 53.3848 29.807 53.3848H29.1921Z" fill="white"/>
</svg>
