<svg width="71" height="71" viewBox="0 0 71 71" fill="none" xmlns="http://www.w3.org/2000/svg">
<circle cx="35.332" cy="35.7461" r="34.25" stroke="white" stroke-width="1.5"/>
<path d="M44.8473 52.1806L45.253 52.8182L45.8874 52.4076C48.3494 50.8146 50.391 48.849 51.995 46.2971L52.3919 45.6656L51.7627 45.2652L50.9927 44.7752L50.96 44.7545L50.9454 44.7471C50.9456 44.7406 50.9462 44.7326 50.9476 44.723C50.951 44.701 50.9583 44.6738 50.9715 44.6434C50.9779 44.6436 50.9857 44.6442 50.995 44.6456C51.0154 44.6487 51.0404 44.6552 51.0683 44.6668L51.7973 45.1307L52.4989 45.5772L52.8708 44.8334C54.1048 42.3655 54.9038 39.5342 55.0491 36.5545L55.0875 35.768H54.3H51.71C51.6773 35.768 51.6581 35.7623 51.6493 35.7588C51.6406 35.7553 51.6375 35.7523 51.6366 35.7514C51.6357 35.7505 51.6327 35.7474 51.6292 35.7387C51.6257 35.7299 51.62 35.7107 51.62 35.678C51.62 35.6453 51.6257 35.6261 51.6292 35.6173C51.6327 35.6086 51.6357 35.6054 51.6366 35.6046C51.6375 35.6037 51.6406 35.6006 51.6493 35.5972C51.6581 35.5937 51.6773 35.588 51.71 35.588H54.3H55.0685L55.0498 34.8197C54.9767 31.8229 54.1721 29.0526 52.867 26.515L52.5462 25.8912C54.2086 28.7906 55.16 32.154 55.16 35.748C55.16 46.7438 46.3258 55.578 35.33 55.578C31.7901 55.578 28.4739 54.655 25.6044 53.0387L26.1046 53.2888C28.5725 54.5227 31.4038 55.3217 34.3835 55.4671L35.17 55.5054V54.718V52.128C35.17 52.0953 35.1757 52.0761 35.1792 52.0673C35.1827 52.0586 35.1857 52.0554 35.1866 52.0546C35.1875 52.0537 35.1906 52.0506 35.1993 52.0472C35.2081 52.0437 35.2273 52.038 35.26 52.038C35.2927 52.038 35.3119 52.0437 35.3207 52.0472C35.3294 52.0506 35.3325 52.0537 35.3334 52.0546C35.3343 52.0554 35.3373 52.0586 35.3408 52.0673C35.3443 52.0761 35.35 52.0953 35.35 52.128V54.718V55.4865L36.1183 55.4678C39.1151 55.3947 41.8853 54.59 44.423 53.2849L45.1541 52.9089L44.7127 52.2153L44.2227 51.4453L44.2185 51.4386L44.214 51.4319C44.2057 51.4195 44.2009 51.4097 44.1981 51.4028C44.2002 51.4015 44.2026 51.4002 44.2054 51.3988L44.2472 51.3779L44.286 51.352C44.2985 51.3437 44.3083 51.3389 44.3152 51.3361C44.3164 51.3382 44.3178 51.3406 44.3192 51.3434L44.3365 51.378L44.3573 51.4106L44.8473 52.1806ZM45.1548 18.516C48.1913 20.2491 50.7271 22.7621 52.486 25.787L51.7973 26.2252L51.0603 26.6942C51.0471 26.7008 51.0353 26.7066 51.0241 26.712C51.0105 26.7008 50.9946 26.6869 50.9759 26.6698C50.9589 26.6542 50.9417 26.6378 50.9233 26.6199C50.924 26.6195 50.9247 26.6192 50.9254 26.6188L50.9748 26.5941L51.0201 26.5624L51.7201 26.0724L52.3081 25.6608L51.9228 25.0553C50.3983 22.6598 48.36 20.5452 45.8741 19.0099L45.2445 18.621L44.8473 19.2453L44.3573 20.0153L44.3365 20.048L44.3194 20.0821C44.312 20.0789 44.3034 20.075 44.2933 20.0703C44.2732 20.0608 44.252 20.0504 44.2254 20.0371C44.2256 20.0306 44.2262 20.0226 44.2276 20.013C44.2307 19.9925 44.2372 19.9676 44.2488 19.9397L44.7127 19.2106L45.1548 18.516ZM50.9477 26.745C50.9477 26.745 50.9483 26.7448 50.9493 26.7446L50.9477 26.745ZM35.33 15.918C38.8434 15.918 42.1474 16.8314 45.0136 18.4362L44.4154 18.1371C41.9475 16.9032 39.1162 16.1042 36.1365 15.9589L35.35 15.9205V16.708V19.298C35.35 19.3307 35.3443 19.3499 35.3408 19.3587C35.3373 19.3674 35.3343 19.3705 35.3334 19.3714C35.3325 19.3723 35.3294 19.3753 35.3207 19.3788C35.3119 19.3823 35.2927 19.388 35.26 19.388C35.2273 19.388 35.2081 19.3823 35.1993 19.3788C35.1906 19.3753 35.1875 19.3723 35.1866 19.3714C35.1857 19.3705 35.1827 19.3674 35.1792 19.3587C35.1757 19.3499 35.17 19.3307 35.17 19.298V16.708V15.9395L34.4017 15.9582C34.0664 15.9664 33.7339 15.9837 33.4042 16.0099C34.0377 15.9491 34.6801 15.918 35.33 15.918ZM25.2874 18.6397C25.3253 18.6174 25.3634 18.5952 25.4016 18.5731L25.8073 19.2106L26.2973 19.9806L26.3015 19.9874L26.306 19.994C26.3143 20.0065 26.3191 20.0163 26.3219 20.0232C26.3198 20.0244 26.3174 20.0257 26.3146 20.0271C26.2864 20.0412 26.2642 20.0523 26.2441 20.062C26.2305 20.0508 26.2146 20.0369 26.1959 20.0198C26.1714 19.9973 26.1464 19.9731 26.1181 19.9452L25.6727 19.2453L25.2874 18.6397ZM26.1677 20.0951C26.1677 20.095 26.1683 20.0948 26.1693 20.0946L26.1677 20.0951ZM18.1275 25.8719C18.1592 25.8166 18.1913 25.7615 18.2236 25.7065L18.8273 26.0907L19.5973 26.5807L19.63 26.6015L19.6446 26.6088C19.6444 26.6153 19.6438 26.6233 19.6424 26.633C19.6383 26.6596 19.6285 26.6939 19.6093 26.7324C19.6076 26.7332 19.6047 26.7344 19.6004 26.7355C19.5947 26.737 19.5877 26.738 19.58 26.738C19.5072 26.738 19.5031 26.7369 19.5024 26.7368C19.5024 26.7368 19.5023 26.7368 19.5023 26.7368L19.4976 26.7359C19.4946 26.7353 19.4893 26.7341 19.4813 26.7321C19.4801 26.7318 19.4789 26.7314 19.4776 26.7311L18.7927 26.2952L18.1275 25.8719ZM15.5 35.748C15.5 32.7368 16.171 29.8793 17.3731 27.3195C16.3366 29.6102 15.6722 32.1803 15.5409 34.8714L15.5025 35.658H16.29H18.88C18.9127 35.658 18.9319 35.6637 18.9407 35.6672C18.9494 35.6706 18.9525 35.6737 18.9534 35.6745C18.9543 35.6754 18.9573 35.6786 18.9608 35.6873C18.9643 35.6961 18.97 35.7153 18.97 35.748C18.97 35.7807 18.9643 35.7999 18.9608 35.8087C18.9573 35.8174 18.9543 35.8205 18.9534 35.8214C18.9525 35.8223 18.9494 35.8253 18.9407 35.8288C18.9319 35.8323 18.9127 35.838 18.88 35.838H16.29H15.5215L15.5402 36.6063C15.5527 37.1179 15.5865 37.6229 15.6405 38.1213C15.5477 37.3429 15.5 36.5509 15.5 35.748ZM25.369 52.904C22.3612 51.1549 19.8595 48.6378 18.1275 45.624L18.7927 45.2007L19.5627 44.7107L19.5694 44.7064L19.576 44.702C19.5885 44.6937 19.5983 44.6889 19.6052 44.6861C19.6064 44.6882 19.6078 44.6906 19.6092 44.6934L19.6301 44.7351L19.656 44.774C19.6643 44.7865 19.6691 44.7963 19.6719 44.8032C19.6698 44.8044 19.6674 44.8057 19.6646 44.8072L19.63 44.8245L19.5973 44.8452L18.8273 45.3352L18.1946 45.7379L18.5973 46.3706C20.1217 48.7662 22.1601 50.8807 24.6459 52.4161L25.2755 52.8049L25.6727 52.1806L26.1627 51.4106L26.1835 51.378L26.1908 51.3634C26.1973 51.3635 26.2054 51.3641 26.215 51.3656C26.2369 51.3689 26.2642 51.3762 26.2946 51.3895C26.2944 51.3958 26.2938 51.4037 26.2924 51.413C26.2893 51.4334 26.2827 51.4584 26.2712 51.4863L25.8073 52.2153L25.369 52.904Z" fill="white" stroke="white" stroke-width="1.5"/>
<path d="M37.5318 37.1616L37.2901 37.6451L37.6723 38.0274L38.7769 39.1319C38.7797 39.1416 38.7827 39.1572 38.7827 39.177C38.7827 39.1839 38.7823 39.1903 38.7817 39.1961C38.7757 39.1967 38.7693 39.197 38.7627 39.197L38.7271 39.197L38.7232 39.197L37.613 38.0867L37.153 37.6267L36.6327 38.017C36.4257 38.1723 36.2471 38.2573 36.0256 38.3016L35.4227 38.4222V39.037V48.627C35.4227 48.6597 35.417 48.6789 35.4134 48.6878C35.41 48.6964 35.407 48.6996 35.4061 48.7005C35.4052 48.7013 35.4021 48.7044 35.3934 48.7078C35.3845 48.7113 35.3654 48.717 35.3327 48.717C35.2999 48.717 35.2808 48.7113 35.2719 48.7078C35.2632 48.7044 35.2601 48.7013 35.2592 48.7005C35.2584 48.6996 35.2553 48.6964 35.2519 48.6878C35.2484 48.6789 35.2427 48.6597 35.2427 48.627V39.037V38.4446L34.6664 38.3074C33.5242 38.0355 32.6527 36.9995 32.6527 35.747C32.6527 35.2891 32.8031 34.8532 33.0635 34.3324L33.3052 33.8489L32.923 33.4667L27.4784 28.0222C27.4756 28.0125 27.4727 27.9968 27.4727 27.977C27.4727 27.9702 27.473 27.9638 27.4736 27.958C27.4794 27.9574 27.4858 27.957 27.4927 27.957C27.5125 27.957 27.5281 27.96 27.5378 27.9628L32.9823 33.4074L33.4423 33.8673L33.9627 33.477C34.1697 33.3218 34.3482 33.2368 34.5697 33.1925L35.1727 33.0719V32.457V29.727C35.1727 29.6943 35.1784 29.6751 35.1819 29.6663C35.1853 29.6576 35.1884 29.6545 35.1892 29.6536C35.1901 29.6527 35.1932 29.6497 35.2019 29.6462C35.2108 29.6427 35.2299 29.637 35.2627 29.637C35.2954 29.637 35.3145 29.6427 35.3234 29.6462C35.3321 29.6497 35.3352 29.6527 35.3361 29.6536C35.337 29.6545 35.34 29.6576 35.3434 29.6663C35.347 29.6751 35.3527 29.6943 35.3527 29.727V32.457V33.0494L35.9289 33.1866C37.0711 33.4586 37.9427 34.4945 37.9427 35.747C37.9427 36.205 37.7922 36.6409 37.5318 37.1616Z" fill="white" stroke="white" stroke-width="1.5"/>
<path fill-rule="evenodd" clip-rule="evenodd" d="M35.3312 55.4701C46.2228 55.4701 55.0521 46.6407 55.0521 35.7491C55.0521 24.8575 46.2228 16.0281 35.3312 16.0281C24.4395 16.0281 15.6102 24.8575 15.6102 35.7491C15.6102 46.6407 24.4395 55.4701 35.3312 55.4701ZM35.3312 59.6701C48.5424 59.6701 59.2521 48.9603 59.2521 35.7491C59.2521 22.5379 48.5424 11.8281 35.3312 11.8281C22.12 11.8281 11.4102 22.5379 11.4102 35.7491C11.4102 48.9603 22.12 59.6701 35.3312 59.6701Z" fill="white"/>
</svg>
