<svg width="71" height="71" viewBox="0 0 71 71" fill="none" xmlns="http://www.w3.org/2000/svg">
<path d="M57.6225 28.2695H47.7148V48.7603H57.6225V28.2695Z" fill="white"/>
<path fill-rule="evenodd" clip-rule="evenodd" d="M47.3398 27.8945H57.998V49.1359H47.3398V27.8945ZM48.0904 28.6451V48.3853H57.2475V28.6451H48.0904Z" fill="white"/>
<path fill-rule="evenodd" clip-rule="evenodd" d="M17.3164 20.6133H34.0543V27.8939H32.5531V22.1144H18.8176V27.8939H17.3164V20.6133Z" fill="white"/>
<path fill-rule="evenodd" clip-rule="evenodd" d="M36.7578 20.5391H53.4957V27.9698H51.9945V22.0402H38.259V27.9698H36.7578V20.5391Z" fill="white"/>
<path fill-rule="evenodd" clip-rule="evenodd" d="M39.6052 49.0815L29.8477 28.5907L31.203 27.9453L40.9605 48.4361L39.6052 49.0815Z" fill="white"/>
<path fill-rule="evenodd" clip-rule="evenodd" d="M29.8477 48.4361L39.6052 27.9453L40.9605 28.5907L31.203 49.0815L29.8477 48.4361Z" fill="white"/>
<path fill-rule="evenodd" clip-rule="evenodd" d="M29.7773 27.5195H41.1861V49.5114H29.7773V27.5195ZM31.2785 29.0207V48.0103H39.685V29.0207H31.2785Z" fill="white"/>
<path d="M23.099 27.9727H13.1914V48.7636H23.099V27.9727Z" fill="white"/>
<path fill-rule="evenodd" clip-rule="evenodd" d="M12.8359 27.6172H23.4506V49.1152H12.8359V27.6172ZM13.543 28.3242V48.4082H22.7435V28.3242H13.543Z" fill="white"/>
<circle cx="35.418" cy="35.0234" r="34.25" stroke="white" stroke-width="1.5"/>
</svg>
