<svg width="71" height="71" viewBox="0 0 71 71" fill="none" xmlns="http://www.w3.org/2000/svg">
<path fill-rule="evenodd" clip-rule="evenodd" d="M35.8281 68.7914C54.3849 68.7914 69.4281 53.7482 69.4281 35.1914C69.4281 16.6346 54.3849 1.59141 35.8281 1.59141C17.2714 1.59141 2.22812 16.6346 2.22812 35.1914C2.22812 53.7482 17.2714 68.7914 35.8281 68.7914ZM35.8281 70.1914C55.1581 70.1914 70.8281 54.5214 70.8281 35.1914C70.8281 15.8614 55.1581 0.191406 35.8281 0.191406C16.4982 0.191406 0.828125 15.8614 0.828125 35.1914C0.828125 54.5214 16.4982 70.1914 35.8281 70.1914Z" fill="white"/>
<path fill-rule="evenodd" clip-rule="evenodd" d="M34.9422 7.27734C35.3288 7.27734 35.6422 7.59074 35.6422 7.97734V62.4092C35.6422 62.7958 35.3288 63.1092 34.9422 63.1092C34.5556 63.1092 34.2422 62.7958 34.2422 62.4092V7.97734C34.2422 7.59074 34.5556 7.27734 34.9422 7.27734Z" fill="white"/>
<path fill-rule="evenodd" clip-rule="evenodd" d="M7.02734 35.9094C7.02734 35.5228 7.34074 35.2094 7.72734 35.2094H62.1592C62.5458 35.2094 62.8592 35.5228 62.8592 35.9094C62.8592 36.296 62.5458 36.6094 62.1592 36.6094H7.72734C7.34074 36.6094 7.02734 36.296 7.02734 35.9094Z" fill="white"/>
<path d="M26.8789 28.9053V17.6016H29.1461V28.9053H26.8789Z" fill="white"/>
<path d="M15.3867 28.9053V17.6016H18.4798C21.9455 17.6016 25.0062 18.7676 25.0062 23.2534C25.0062 27.7393 21.9455 28.9053 18.4798 28.9053H15.3867ZM17.6539 19.3829V27.1239H18.9171C20.8118 27.1239 22.6418 25.715 22.6418 23.2534C22.6418 20.7919 20.8118 19.3829 18.9171 19.3829H17.6539Z" fill="white"/>
<path d="M49.8438 23.2239C49.8438 19.7583 51.7871 17.4102 55.3822 17.4102C58.9288 17.4102 60.9207 19.8069 60.9207 23.2239C60.9207 26.641 58.9612 29.1025 55.3822 29.1025C51.7547 29.1025 49.8438 26.6895 49.8438 23.2239ZM52.2081 23.2239C52.2081 25.2644 53.0664 27.3211 55.3822 27.3211C57.698 27.3211 58.5563 25.2644 58.5563 23.2239C58.5563 21.232 57.6333 19.1915 55.3822 19.1915C53.1312 19.1915 52.2081 21.232 52.2081 23.2239Z" fill="white"/>
<path d="M39.5156 28.9092V17.6055H42.6088C46.0744 17.6055 49.1351 18.7715 49.1351 23.2573C49.1351 27.7432 46.0744 28.9092 42.6088 28.9092H39.5156ZM41.7828 19.3869V27.1278H43.046C44.9408 27.1278 46.7707 25.7189 46.7707 23.2573C46.7707 20.7958 44.9408 19.3869 43.046 19.3869H41.7828Z" fill="white"/>
<path d="M26.8789 53.249V41.9453H29.1461V53.249H26.8789Z" fill="white"/>
<path d="M21.5101 48.8765L19.8745 44.2125H19.8421L18.2065 48.8765H21.5101ZM14.2227 53.249L18.6275 41.9453H21.1863L25.6235 53.249H23.1134L22.1417 50.6579H17.5587L16.5708 53.249H14.2227Z" fill="white"/>
<path d="M49.8398 47.5599C49.8398 44.0943 51.7832 41.7461 55.3783 41.7461C58.9249 41.7461 60.9168 44.1429 60.9168 47.5599C60.9168 50.9769 58.9573 53.4385 55.3783 53.4385C51.7508 53.4385 49.8398 51.0255 49.8398 47.5599ZM52.2042 47.5599C52.2042 49.6004 53.0625 51.6571 55.3783 51.6571C57.6941 51.6571 58.5524 49.6004 58.5524 47.5599C58.5524 45.568 57.6294 43.5275 55.3783 43.5275C53.1273 43.5275 52.2042 45.568 52.2042 47.5599Z" fill="white"/>
<path d="M45.6351 48.8726L43.9995 44.2086H43.9671L42.3315 48.8726H45.6351ZM38.3477 53.2451L42.7525 41.9414H45.3113L49.7485 53.2451H47.2384L46.2667 50.654H41.6837L40.6958 53.2451H38.3477Z" fill="white"/>
</svg>
