<svg width="71" height="71" viewBox="0 0 71 71" fill="none" xmlns="http://www.w3.org/2000/svg">
<circle cx="35.8945" cy="35.6445" r="34.25" stroke="white" stroke-width="1.5"/>
<path d="M30.9264 47.4924C30.9264 52.4392 26.8728 56.4927 21.9261 56.4927C16.9794 56.4927 12.9258 52.4392 12.9258 47.4924C12.9258 44.2633 14.5747 41.309 17.3916 39.7288V19.3236C17.3916 16.8502 19.384 14.7891 21.9261 14.7891C24.4681 14.7891 26.4606 16.7815 26.4606 19.3236V39.7288C29.2088 41.309 30.9264 44.2633 30.9264 47.4924ZM29.1401 47.4924C29.1401 44.7442 27.6286 42.2709 25.1552 41.0342L24.6743 40.8281V19.3236C24.6743 17.8121 23.4376 16.5067 21.8574 16.5067C20.2772 16.5067 19.0405 17.7434 19.0405 19.3236V40.7594L18.5596 40.9655C16.1549 42.2022 14.5747 44.6755 14.5747 47.4237C14.5747 51.4086 17.8038 54.6377 21.7887 54.6377C25.7735 54.6377 29.1401 51.4773 29.1401 47.4924ZM27.6973 47.4924C27.6973 50.6528 25.1552 53.2636 21.9261 53.2636C18.7657 53.2636 16.1549 50.7215 16.1549 47.4924C16.1549 44.8817 17.9412 42.6144 20.4146 41.9961L20.7581 41.9274V30.8659H23.0941V41.8587L23.4376 41.9274C25.9109 42.6144 27.6973 44.8817 27.6973 47.4924ZM22.2696 43.645C22.1322 43.0266 21.5139 42.6144 20.8955 42.7518C18.697 43.2327 17.1855 45.0878 17.1855 47.355C17.1855 48.0421 17.7351 48.4543 18.2847 48.4543C18.9031 48.4543 19.384 47.9047 19.384 47.355C19.384 46.2557 20.2085 45.2252 21.3077 45.0191C21.9948 44.8817 22.3383 44.2633 22.2696 43.645Z" fill="white"/>
<path d="M29.6413 29.4727H35.1593C35.6926 29.4727 36.1249 29.9049 36.1249 30.4382C36.1249 30.9714 35.6926 31.4037 35.1593 31.4037H29.6413C29.1081 31.4037 28.6758 30.9714 28.6758 30.4382C28.6758 29.9049 29.1081 29.4727 29.6413 29.4727Z" fill="white"/>
<path d="M29.6413 33.1133H32.091C32.6242 33.1133 33.0565 33.5456 33.0565 34.0788C33.0565 34.612 32.6242 35.0443 32.091 35.0443H29.6413C29.1081 35.0443 28.6758 34.612 28.6758 34.0788C28.6758 33.5456 29.1081 33.1133 29.6413 33.1133Z" fill="white"/>
<path d="M29.6413 25.8359H32.091C32.6242 25.8359 33.0565 26.2682 33.0565 26.8014C33.0565 27.3347 32.6242 27.767 32.091 27.767H29.6413C29.1081 27.767 28.6758 27.3347 28.6758 26.8014C28.6758 26.2682 29.1081 25.8359 29.6413 25.8359Z" fill="white"/>
<path d="M29.6413 36.7539H35.7392C36.2724 36.7539 36.7047 37.1862 36.7047 37.7194C36.7047 38.2527 36.2724 38.6849 35.7392 38.6849H29.6413C29.1081 38.6849 28.6758 38.2527 28.6758 37.7194C28.6758 37.1862 29.1081 36.7539 29.6413 36.7539Z" fill="white"/>
<path d="M50.4688 50.288C50.1287 50.288 49.8254 50.218 49.5588 50.078C49.2988 49.9313 49.0921 49.7313 48.9388 49.478C48.7921 49.2246 48.7188 48.9346 48.7188 48.608C48.7188 48.2813 48.7921 47.9913 48.9388 47.738C49.0921 47.4846 49.2988 47.2846 49.5588 47.138C49.8254 46.9913 50.1287 46.918 50.4688 46.918C50.8154 46.918 51.1188 46.9913 51.3788 47.138C51.6388 47.278 51.8421 47.4746 51.9888 47.728C52.1354 47.9813 52.2087 48.2746 52.2087 48.608C52.2087 48.9346 52.1354 49.2246 51.9888 49.478C51.8421 49.7313 51.6388 49.9313 51.3788 50.078C51.1188 50.218 50.8154 50.288 50.4688 50.288ZM50.4688 49.358C50.6821 49.358 50.8621 49.2913 51.0088 49.158C51.1554 49.018 51.2288 48.8346 51.2288 48.608C51.2288 48.368 51.1554 48.1813 51.0088 48.048C50.8621 47.908 50.6821 47.838 50.4688 47.838C50.2621 47.838 50.0821 47.908 49.9287 48.048C49.7821 48.1813 49.7087 48.368 49.7087 48.608C49.7087 48.8346 49.7821 49.018 49.9287 49.158C50.0821 49.2913 50.2621 49.358 50.4688 49.358ZM56.0088 48.178C55.4288 48.178 54.9854 48.3946 54.6787 48.828C54.3721 49.2613 54.2188 49.8546 54.2188 50.608C54.2188 51.368 54.3587 51.958 54.6387 52.378C54.9254 52.7913 55.3821 52.998 56.0088 52.998C56.3021 52.998 56.5921 52.9646 56.8788 52.898C57.1721 52.8313 57.4888 52.738 57.8288 52.618V53.888C57.5154 54.0146 57.2054 54.108 56.8988 54.168C56.5921 54.228 56.2488 54.258 55.8688 54.258C55.1354 54.258 54.5288 54.108 54.0488 53.808C53.5754 53.5013 53.2254 53.0746 52.9987 52.528C52.7721 51.9746 52.6588 51.3313 52.6588 50.598C52.6588 49.878 52.7888 49.2413 53.0488 48.688C53.3088 48.1346 53.6854 47.7013 54.1787 47.388C54.6787 47.0746 55.2888 46.918 56.0088 46.918C56.3621 46.918 56.7154 46.9646 57.0687 47.058C57.4287 47.1446 57.7721 47.2646 58.0988 47.418L57.6087 48.648C57.3421 48.5213 57.0721 48.4113 56.7988 48.318C56.5321 48.2246 56.2688 48.178 56.0088 48.178Z" fill="white"/>
<path d="M42.8984 50.6846C42.8984 49.3662 43.1035 48.4303 43.5137 47.877C43.9238 47.3236 44.5521 47.0469 45.3984 47.0469C46.2448 47.0469 46.873 47.3236 47.2832 47.877C47.6934 48.4303 47.8984 49.3662 47.8984 50.6846C47.8984 52.0029 47.6934 52.9388 47.2832 53.4922C46.873 54.0456 46.2448 54.3223 45.3984 54.3223C44.5521 54.3223 43.9238 54.0456 43.5137 53.4922C43.1035 52.9388 42.8984 52.0029 42.8984 50.6846ZM44.3438 50.6846C44.3438 51.2868 44.3926 51.8662 44.4902 52.4229C44.5911 52.9795 44.8939 53.2578 45.3984 53.2578C45.903 53.2578 46.2041 52.9795 46.3018 52.4229C46.4027 51.8662 46.4531 51.2868 46.4531 50.6846C46.4531 50.0824 46.4027 49.5029 46.3018 48.9463C46.2041 48.3896 45.903 48.1113 45.3984 48.1113C44.8939 48.1113 44.5911 48.3896 44.4902 48.9463C44.3926 49.5029 44.3438 50.0824 44.3438 50.6846Z" fill="white"/>
<path d="M37.2275 52.6328C37.016 52.6328 36.9102 52.527 36.9102 52.3154V51.6709C36.9102 51.4854 36.959 51.3242 37.0566 51.1875L39.7617 47.3789C39.8822 47.2096 40.0335 47.125 40.2158 47.125H40.9336C41.1484 47.125 41.2559 47.2308 41.2559 47.4424V51.4219H41.8467C42.0583 51.4219 42.1641 51.5277 42.1641 51.7393V52.3154C42.1641 52.527 42.0599 52.6328 41.8516 52.6328H41.2559V53.8389C41.2559 54.0505 41.1501 54.1562 40.9385 54.1562H40.2061C39.9945 54.1562 39.8887 54.0505 39.8887 53.8389V52.6328H37.2275ZM38.2725 51.4219H39.8887V49.5322C39.8887 49.402 39.8952 49.2718 39.9082 49.1416H39.8887L38.2725 51.4219Z" fill="white"/>
<path d="M33.7422 51.9785C33.5469 51.9785 33.4492 51.8971 33.4492 51.7344V51.1777C33.4492 51.015 33.5469 50.9336 33.7422 50.9336H36.0566C36.252 50.9336 36.3496 51.015 36.3496 51.1777V51.7344C36.3496 51.8971 36.252 51.9785 36.0566 51.9785H33.7422Z" fill="white"/>
<path d="M51.0039 18.6825C50.6639 18.6825 50.3606 18.6125 50.0939 18.4725C49.8339 18.3258 49.6272 18.1258 49.4739 17.8725C49.3272 17.6192 49.2539 17.3292 49.2539 17.0025C49.2539 16.6758 49.3272 16.3858 49.4739 16.1325C49.6272 15.8792 49.8339 15.6792 50.0939 15.5325C50.3606 15.3858 50.6639 15.3125 51.0039 15.3125C51.3506 15.3125 51.6539 15.3858 51.9139 15.5325C52.1739 15.6725 52.3772 15.8692 52.5239 16.1225C52.6706 16.3758 52.7439 16.6692 52.7439 17.0025C52.7439 17.3292 52.6706 17.6192 52.5239 17.8725C52.3772 18.1258 52.1739 18.3258 51.9139 18.4725C51.6539 18.6125 51.3506 18.6825 51.0039 18.6825ZM51.0039 17.7525C51.2172 17.7525 51.3972 17.6858 51.5439 17.5525C51.6906 17.4125 51.7639 17.2292 51.7639 17.0025C51.7639 16.7625 51.6906 16.5758 51.5439 16.4425C51.3972 16.3025 51.2172 16.2325 51.0039 16.2325C50.7972 16.2325 50.6172 16.3025 50.4639 16.4425C50.3172 16.5758 50.2439 16.7625 50.2439 17.0025C50.2439 17.2292 50.3172 17.4125 50.4639 17.5525C50.6172 17.6858 50.7972 17.7525 51.0039 17.7525ZM56.5439 16.5725C55.9639 16.5725 55.5206 16.7892 55.2139 17.2225C54.9072 17.6558 54.7539 18.2492 54.7539 19.0025C54.7539 19.7625 54.8939 20.3525 55.1739 20.7725C55.4606 21.1858 55.9172 21.3925 56.5439 21.3925C56.8372 21.3925 57.1272 21.3592 57.4139 21.2925C57.7072 21.2258 58.0239 21.1325 58.3639 21.0125V22.2825C58.0506 22.4092 57.7406 22.5025 57.4339 22.5625C57.1272 22.6225 56.7839 22.6525 56.4039 22.6525C55.6706 22.6525 55.0639 22.5025 54.5839 22.2025C54.1106 21.8958 53.7606 21.4692 53.5339 20.9225C53.3072 20.3692 53.1939 19.7258 53.1939 18.9925C53.1939 18.2725 53.3239 17.6358 53.5839 17.0825C53.8439 16.5292 54.2206 16.0958 54.7139 15.7825C55.2139 15.4692 55.8239 15.3125 56.5439 15.3125C56.8972 15.3125 57.2506 15.3592 57.6039 15.4525C57.9639 15.5392 58.3072 15.6592 58.6339 15.8125L58.1439 17.0425C57.8772 16.9158 57.6072 16.8058 57.3339 16.7125C57.0672 16.6192 56.8039 16.5725 56.5439 16.5725Z" fill="white"/>
<path d="M43.6167 22.0596C43.5093 21.9163 43.4947 21.7926 43.5728 21.6885L43.9146 21.2197C44.0513 21.0309 44.2173 21.026 44.4126 21.2051C44.5298 21.3125 44.7105 21.4102 44.9546 21.498C45.1988 21.5827 45.4429 21.625 45.687 21.625C46.0581 21.625 46.3706 21.5208 46.6245 21.3125C46.8817 21.1042 47.0103 20.7998 47.0103 20.3994C47.0103 20.0186 46.9289 19.7109 46.7661 19.4766C46.6034 19.2422 46.4064 19.125 46.1753 19.125C45.9768 19.125 45.7945 19.1413 45.6284 19.1738C45.4624 19.2031 45.2899 19.2959 45.1109 19.4521C44.9872 19.5596 44.8374 19.6133 44.6616 19.6133H44.1294C43.9178 19.6133 43.812 19.5075 43.812 19.2959V15.9268C43.812 15.7152 43.9178 15.6094 44.1294 15.6094H47.645C47.8566 15.6094 47.9624 15.7152 47.9624 15.9268V16.5029C47.9624 16.7145 47.8566 16.8203 47.645 16.8203H45.1792V18.0166C45.1792 18.1468 45.1727 18.277 45.1597 18.4072H45.189C45.3615 18.2575 45.5536 18.1582 45.7652 18.1094C45.9768 18.0573 46.203 18.0312 46.4439 18.0312C47.0135 18.0312 47.4937 18.2266 47.8843 18.6172C48.2782 19.0046 48.4751 19.6051 48.4751 20.4189C48.4751 21.1676 48.2245 21.7389 47.7232 22.1328C47.2251 22.5234 46.6327 22.7188 45.9458 22.7188C45.3729 22.7188 44.8765 22.6569 44.4566 22.5332C44.0399 22.4062 43.76 22.2484 43.6167 22.0596Z" fill="white"/>
<path d="M37.7573 22.0596C37.6499 21.9163 37.6353 21.7926 37.7134 21.6885L38.0552 21.2197C38.1919 21.0309 38.3579 21.026 38.5532 21.2051C38.6704 21.3125 38.8511 21.4102 39.0952 21.498C39.3394 21.5827 39.5835 21.625 39.8277 21.625C40.1988 21.625 40.5113 21.5208 40.7652 21.3125C41.0223 21.1042 41.1509 20.7998 41.1509 20.3994C41.1509 20.0186 41.0695 19.7109 40.9068 19.4766C40.744 19.2422 40.5471 19.125 40.3159 19.125C40.1174 19.125 39.9351 19.1413 39.7691 19.1738C39.6031 19.2031 39.4305 19.2959 39.2515 19.4521C39.1278 19.5596 38.9781 19.6133 38.8023 19.6133H38.27C38.0585 19.6133 37.9527 19.5075 37.9527 19.2959V15.9268C37.9527 15.7152 38.0585 15.6094 38.27 15.6094H41.7857C41.9973 15.6094 42.1031 15.7152 42.1031 15.9268V16.5029C42.1031 16.7145 41.9973 16.8203 41.7857 16.8203H39.3198V18.0166C39.3198 18.1468 39.3133 18.277 39.3003 18.4072H39.3296C39.5021 18.2575 39.6942 18.1582 39.9058 18.1094C40.1174 18.0573 40.3436 18.0312 40.5845 18.0312C41.1542 18.0312 41.6343 18.2266 42.0249 18.6172C42.4188 19.0046 42.6157 19.6051 42.6157 20.4189C42.6157 21.1676 42.3651 21.7389 41.8638 22.1328C41.3657 22.5234 40.7733 22.7188 40.0865 22.7188C39.5135 22.7188 39.0171 22.6569 38.5972 22.5332C38.1805 22.4062 37.9006 22.2484 37.7573 22.0596Z" fill="white"/>
<path d="M31.5547 19.4668C31.3594 19.4668 31.2617 19.3854 31.2617 19.2227V18.8027C31.2617 18.64 31.3594 18.5586 31.5547 18.5586H33.5664V16.5469C33.5664 16.3516 33.6478 16.2539 33.8105 16.2539H34.2305C34.3932 16.2539 34.4746 16.3516 34.4746 16.5469V18.5586H36.4863C36.6816 18.5586 36.7793 18.64 36.7793 18.8027V19.2227C36.7793 19.3854 36.6816 19.4668 36.4863 19.4668H34.4746V21.4785C34.4746 21.6738 34.3932 21.7715 34.2305 21.7715H33.8105C33.6478 21.7715 33.5664 21.6738 33.5664 21.4785V19.4668H31.5547Z" fill="white"/>
</svg>
