<svg width="71" height="71" viewBox="0 0 71 71" fill="none" xmlns="http://www.w3.org/2000/svg">
<circle cx="35.543" cy="35.7461" r="34.25" stroke="white" stroke-width="1.5"/>
<path d="M22.0664 33.2688C22.0664 25.9385 28.0088 19.9961 35.3391 19.9961C42.6695 19.9961 48.6119 25.9385 48.6119 33.2688V50.0742H22.0664V33.2688Z" stroke="white" stroke-width="1.5"/>
<path d="M17.5664 50.2539H53.1164" stroke="white" stroke-width="1.5" stroke-linecap="round"/>
<path d="M35.3398 19.9961L35.3398 17.1277" stroke="white" stroke-width="1.5" stroke-linecap="round"/>
<path d="M35.3402 55.5412C38.7749 55.5412 41.5593 53.1338 41.5593 50.1641H29.1211C29.1211 53.1338 31.9055 55.5412 35.3402 55.5412Z" fill="white"/>
<path d="M18.5609 27.4895C18.9116 24.7925 21.0605 19.2337 26.8505 18.5737" stroke="white" stroke-width="1.5" stroke-linecap="round"/>
<path d="M14.8382 25.009C15.1889 22.3121 17.3379 16.7532 23.1279 16.0933" stroke="white" stroke-width="1.5" stroke-linecap="round"/>
<path d="M43.8286 18.5638C46.3961 19.4605 51.3957 22.7046 50.8532 28.5067" stroke="white" stroke-width="1.5" stroke-linecap="round"/>
<path d="M47.8012 15.9153C50.3688 16.8121 55.3683 20.0561 54.8259 25.8583" stroke="white" stroke-width="1.5" stroke-linecap="round"/>
</svg>
