<svg width="27" height="25" viewBox="0 0 27 25" fill="none" xmlns="http://www.w3.org/2000/svg">
<path d="M20.087 24.1043C19.7582 24.1043 19.5938 23.9281 19.5938 23.5758V14.5285C19.5938 14.1762 19.7582 14 20.087 14H25.6606C26.0129 14 26.189 14.1527 26.189 14.458V15.2895C26.189 15.5948 26.0129 15.7475 25.6606 15.7475H21.6512V18.1996H25.0828C25.4351 18.1996 25.6112 18.3522 25.6112 18.6576V19.489C25.6112 19.7944 25.4351 19.947 25.0828 19.947H21.6512V23.5758C21.6512 23.9281 21.4868 24.1043 21.158 24.1043H20.087Z" fill="#00A197"/>
<path d="M9.86824 24.1043C9.53941 24.1043 9.375 23.9281 9.375 23.5758V14.5285C9.375 14.1762 9.53941 14 9.86824 14H12.3274C14.4882 14 15.9491 14.4369 16.7101 15.3106C17.4758 16.1843 17.8587 17.4268 17.8587 19.0381C17.8587 20.6493 17.4758 21.8965 16.7101 22.7796C15.9491 23.6627 14.4882 24.1043 12.3274 24.1043H9.86824ZM11.4325 22.3568H12.1935C13.6497 22.3568 14.5916 22.0867 15.019 21.5465C15.4465 21.0016 15.6602 20.1655 15.6602 19.0381C15.6602 17.9107 15.4465 17.0792 15.019 16.5437C14.5916 16.0035 13.6497 15.7334 12.1935 15.7334H11.4325V22.3568Z" fill="#00A197"/>
<path d="M0.510814 24.1043C0.18199 24.1043 0.0175781 23.9281 0.0175781 23.5758V14.5285C0.0175781 14.1762 0.18199 14 0.510814 14H3.14611C4.8372 14 6.00922 14.2748 6.66218 14.8244C7.31982 15.374 7.64865 16.1538 7.64865 17.1638C7.64865 18.1737 7.31982 18.9535 6.66218 19.5031C6.00922 20.0527 4.8372 20.3275 3.14611 20.3275H2.07508V23.5758C2.07508 23.9281 1.91067 24.1043 1.58184 24.1043H0.510814ZM2.07508 18.6082H3.13906C4.07856 18.6082 4.71741 18.4978 5.05563 18.2771C5.39385 18.0516 5.56296 17.6805 5.56296 17.1638C5.56296 16.647 5.39385 16.2783 5.05563 16.0575C4.71741 15.832 4.07856 15.7193 3.13906 15.7193H2.07508V18.6082Z" fill="#00A197"/>
<path fill-rule="evenodd" clip-rule="evenodd" d="M12.1947 8.45378V1.02734C12.1947 0.751201 12.4185 0.527344 12.6947 0.527344H13.5051C13.7813 0.527344 14.0051 0.751201 14.0051 1.02734V8.4532L16.7274 5.73095C16.9226 5.53568 17.2392 5.53568 17.4345 5.73095L18.0076 6.30404C18.2028 6.4993 18.2028 6.81588 18.0076 7.01114L13.1 11.9187L8.19737 7.01793C8.00207 6.8227 8.00201 6.50612 8.19724 6.31082L8.77022 5.73762C8.96544 5.54232 9.28203 5.54226 9.47733 5.73749L12.1947 8.45378Z" fill="#00A197"/>
</svg>
