<svg width="25" height="29" viewBox="0 0 25 29" fill="none" xmlns="http://www.w3.org/2000/svg">
<path fill-rule="evenodd" clip-rule="evenodd" d="M0.216797 5.54603C0.216797 4.64904 0.943957 3.92187 1.84096 3.92187L23.0946 3.92187C23.9916 3.92187 24.7187 4.64903 24.7187 5.54603C24.7187 6.44303 23.9916 7.17019 23.0946 7.17019L1.84096 7.17019C0.943958 7.17019 0.216797 6.44303 0.216797 5.54603Z" fill="#263B3B"/>
<path fill-rule="evenodd" clip-rule="evenodd" d="M9.73934 1.92103C8.99184 1.92103 8.38588 2.527 8.38588 3.2745V4.41437C8.38588 4.86287 8.0223 5.22645 7.5738 5.22645C7.1253 5.22645 6.76172 4.86287 6.76172 4.41437V3.2745C6.76172 1.63 8.09485 0.296875 9.73934 0.296875H15.1973C16.8418 0.296875 18.175 1.63 18.175 3.2745V4.58137C18.175 5.02987 17.8114 5.39345 17.3629 5.39345C16.9144 5.39345 16.5508 5.02987 16.5508 4.58137V3.2745C16.5508 2.527 15.9448 1.92103 15.1973 1.92103H9.73934Z" fill="#263B3B"/>
<path fill-rule="evenodd" clip-rule="evenodd" d="M2.09375 8.89062H22.9287L21.1824 26.5421C21.0812 27.5654 20.2204 28.3452 19.1921 28.3452H5.60248C4.56435 28.3452 3.69881 27.5509 3.60984 26.5166L2.09375 8.89062ZM8.40434 11.8477C8.37222 11.4004 7.98353 11.0638 7.53618 11.0959C7.08884 11.128 6.75223 11.5167 6.78435 11.964L7.73389 25.1889C7.76601 25.6362 8.15469 25.9728 8.60204 25.9407C9.04939 25.9086 9.386 25.5199 9.35388 25.0725L8.40434 11.8477ZM16.4881 25.9432C16.9355 25.9754 17.3242 25.6389 17.3565 25.1916L18.3093 11.9667C18.3415 11.5194 18.005 11.1306 17.5577 11.0984C17.1103 11.0662 16.7216 11.4027 16.6893 11.85L15.7365 25.0748C15.7043 25.5222 16.0408 25.9109 16.4881 25.9432ZM13.3571 11.9215C13.3571 11.473 12.9935 11.1094 12.545 11.1094C12.0965 11.1094 11.7329 11.473 11.7329 11.9215L11.7329 25.0617C11.7329 25.5102 12.0965 25.8738 12.545 25.8738C12.9935 25.8738 13.3571 25.5102 13.3571 25.0617V11.9215Z" fill="#263B3B"/>
</svg>
