<svg width="25" height="25" viewBox="0 0 25 25" fill="none" xmlns="http://www.w3.org/2000/svg">
<path d="M12.9092 24.7109H12.8564C6.25424 24.7109 0.882812 19.3395 0.882812 12.7373V12.6845C0.882812 6.08236 6.25424 0.710938 12.8564 0.710938H12.9092C19.5114 0.710938 24.8828 6.08236 24.8828 12.6845V12.7373C24.8828 19.3395 19.5114 24.7109 12.9092 24.7109ZM12.8564 1.52331C6.70186 1.52331 1.69519 6.52997 1.69519 12.6845V12.7373C1.69519 18.8919 6.70186 23.8986 12.8564 23.8986H12.9092C19.0638 23.8986 24.0704 18.8919 24.0704 12.7373V12.6845C24.0704 6.52997 19.0638 1.52331 12.9092 1.52331H12.8564Z" fill="white"/>
<path d="M19.6523 8.51162C19.3347 8.83251 18.8944 9.03155 18.4061 9.03155C18.3436 9.03155 18.2827 9.02829 18.2217 9.02179C18.7311 8.71634 19.1243 8.23786 19.3201 7.66757C19.3201 7.66757 19.3209 7.66757 19.3209 7.66675C19.3485 7.59039 19.3712 7.51321 19.3891 7.43359C18.9862 7.86415 18.4354 8.1558 17.8172 8.22566C17.7221 8.23703 17.6255 8.24274 17.5288 8.24274C17.4979 8.24274 17.4679 8.24192 17.4386 8.2403C17.2298 8.02096 16.9804 7.83898 16.7042 7.70575C16.3963 7.55546 16.0519 7.4669 15.6888 7.45553C15.6587 7.4539 15.6294 7.45309 15.5986 7.45309C15.2907 7.45309 14.995 7.50753 14.722 7.60827C14.6522 7.63345 14.5839 7.66189 14.5173 7.69438C13.6521 8.09976 13.0534 8.97955 13.0534 9.99827C13.0534 10.207 13.0786 10.411 13.1265 10.6051C12.8617 10.5945 12.5993 10.5694 12.3418 10.5304C12.2589 10.5174 12.1769 10.5028 12.0948 10.4873C11.4384 10.3655 10.8121 10.1559 10.2304 9.86991C9.70967 9.61563 9.22469 9.30124 8.78276 8.93567C8.4115 8.62941 8.07193 8.28823 7.7681 7.91453C7.7551 7.8991 7.74209 7.88203 7.7291 7.8666C7.71122 7.8934 7.69498 7.92103 7.68036 7.94946C7.46833 8.32072 7.3481 8.74965 7.3481 9.20783C7.3481 9.22164 7.3481 9.23708 7.34891 9.25089C7.35379 9.59371 7.42689 9.92028 7.55687 10.2176C7.61212 10.3492 7.67955 10.4735 7.75672 10.5921C7.98419 10.9423 8.29452 11.2339 8.66171 11.4354C8.67877 11.4459 8.69501 11.4549 8.71288 11.463C8.68689 11.4679 8.65927 11.4727 8.63246 11.4752C8.55691 11.4849 8.47973 11.4898 8.40175 11.4898C8.01099 11.4898 7.64787 11.3679 7.35054 11.16C7.34891 11.1819 7.34891 11.2038 7.34891 11.2266C7.34891 11.9537 7.65355 12.6092 8.14179 13.0715C8.52198 13.4338 9.01346 13.6783 9.55938 13.749C9.36279 13.8213 9.15076 13.8595 8.92898 13.8595C8.68933 13.8595 8.46024 13.814 8.25065 13.7303C8.56341 14.7466 9.4952 15.4916 10.6065 15.5257C9.9282 16.2308 8.97448 16.6687 7.92001 16.6687C7.26443 16.6687 6.64782 16.4989 6.11328 16.2024C7.39765 17.3137 9.07196 17.9847 10.9039 17.9847C14.9519 17.9847 18.2331 14.7036 18.2331 10.6555C18.2331 10.4329 18.2234 10.2119 18.2031 9.9942C18.8725 9.73018 19.4037 9.18914 19.6548 8.51162H19.6523Z" fill="white"/>
</svg>
