<svg width="25" height="25" viewBox="0 0 25 25" fill="none" xmlns="http://www.w3.org/2000/svg">
<path d="M12.3242 24.7109C5.70716 24.7109 0.324219 19.328 0.324219 12.7109C0.324219 6.09388 5.70716 0.710938 12.3242 0.710938C18.9413 0.710938 24.3242 6.09388 24.3242 12.7109C24.3242 19.328 18.9413 24.7109 12.3242 24.7109ZM12.3242 1.52555C6.15682 1.52555 1.13883 6.54354 1.13883 12.7109C1.13883 18.8784 6.15682 23.8963 12.3242 23.8963C18.4916 23.8963 23.5096 18.8784 23.5096 12.7109C23.5096 6.54354 18.4916 1.52555 12.3242 1.52555Z" fill="white"/>
<path d="M19.6252 10.3114C19.534 9.43079 19.3377 8.45732 18.6151 7.94575C18.0555 7.54904 17.3199 7.53437 16.6332 7.53518C15.1815 7.536 13.7291 7.53763 12.2774 7.53845C10.8812 7.54007 9.48497 7.54089 8.08873 7.54252C7.50547 7.54334 6.9385 7.4977 6.39678 7.75023C5.93164 7.96692 5.56751 8.37912 5.34838 8.83774C5.04453 9.47558 4.98099 10.1981 4.94434 10.9036C4.87672 12.1882 4.88406 13.4761 4.9647 14.7599C5.02417 15.6967 5.17487 16.7321 5.89906 17.3292C6.54097 17.8579 7.44681 17.884 8.27934 17.8848C10.9219 17.8872 13.5653 17.8897 16.2088 17.8913C16.5476 17.8921 16.9012 17.8856 17.2466 17.8481C17.9259 17.7748 18.5736 17.5801 19.0102 17.0767C19.4509 16.5692 19.5641 15.8629 19.6309 15.1941C19.7938 13.5714 19.7922 11.9333 19.6252 10.3114ZM10.7492 14.988V10.4384L14.6887 12.7128L10.7492 14.988Z" fill="white"/>
</svg>
