<svg width="21" height="21" viewBox="0 0 21 21" fill="none" xmlns="http://www.w3.org/2000/svg">
<path fill-rule="evenodd" clip-rule="evenodd" d="M12.7236 2.28611L19.8112 16.4614C20.5461 17.9312 19.9504 19.7185 18.4805 20.4535C18.0673 20.6601 17.6118 20.7676 17.1498 20.7676H2.97456C1.33122 20.7676 -0.000976562 19.4354 -0.000976562 17.7921C-0.000976562 17.3301 0.106574 16.8745 0.313159 16.4614L7.40079 2.28611C8.13571 0.816262 9.92304 0.220487 11.3929 0.955413C11.9687 1.24334 12.4357 1.71027 12.7236 2.28611ZM10.0625 13.849C9.02041 13.849 8.17561 14.6938 8.17561 15.7359C8.17561 16.778 9.02041 17.6228 10.0625 17.6228C11.1046 17.6228 11.9494 16.778 11.9494 15.7359C11.9494 14.6938 11.1046 13.849 10.0625 13.849ZM10.0625 11.9621C10.7573 11.9621 11.3205 11.5598 11.3205 11.0635V6.5709C11.3205 6.07465 10.7573 5.67237 10.0625 5.67237C9.36778 5.67237 8.80458 6.07465 8.80458 6.5709V11.0635C8.80458 11.5598 9.36778 11.9621 10.0625 11.9621Z" fill="#DF1B41"/>
</svg>
